<?xml version="1.0" encoding="utf-8"?>
<!-- Generator: Adobe Illustrator 26.3.1, SVG Export Plug-In . SVG Version: 6.00 Build 0)  -->
<svg version="1.1" id="Layer_1" xmlns="http://www.w3.org/2000/svg" xmlns:xlink="http://www.w3.org/1999/xlink" x="0px" y="0px"
	 viewBox="0 0 640 512" style="enable-background:new 0 0 640 512;" xml:space="preserve">
<path d="M180.5,74.3C80.8,74.3,0,155.6,0,256s80.8,181.7,180.5,181.7S361,356.4,361,256S280.2,74.3,180.5,74.3z M468.8,84.9
	c-49.8,0-90.2,76.6-90.2,171.1s40.4,171.1,90.3,171.1S559,350.5,559,256h0C559,161.5,518.6,84.9,468.8,84.9L468.8,84.9z
	 M608.3,102.7c-17.5,0-31.7,68.6-31.7,153.3s14.2,153.3,31.7,153.3S640,340.6,640,256C640,171.4,625.8,102.7,608.3,102.7
	L608.3,102.7z"/>
</svg>
