<svg width="451" height="455" viewBox="0 0 451 455" fill="none" xmlns="http://www.w3.org/2000/svg">
<path d="M63.7641 294.688C65.6551 294.688 67.4683 293.924 68.8041 292.564C70.1408 291.204 70.8926 289.361 70.8926 287.437C70.8926 285.515 70.1408 283.67 68.8041 282.31C67.4684 280.95 65.6553 280.187 63.7641 280.187C61.8742 280.187 60.061 280.95 58.7242 282.31C57.3874 283.67 56.6367 285.514 56.6367 287.437C56.6411 289.359 57.3929 291.201 58.7286 292.56C60.0653 293.918 61.8751 294.684 63.764 294.688L63.7641 294.688Z" fill="#1104AC"/>
<path d="M74.1487 299.346H53.286C51.1085 299.355 49.3449 301.148 49.3359 303.363V327.18H54.3242V309.878H56.6366V361.096H62.6158V331.085H64.9283V361.082H70.9075V309.863H73.2046V327.181H78.1611V303.364C78.1567 302.289 77.7309 301.261 76.9769 300.506C76.224 299.751 75.2055 299.335 74.1487 299.347V299.346Z" fill="#1104AC"/>
<path d="M63.7641 107.887C65.6551 107.887 67.4683 107.123 68.8041 105.763C70.1408 104.403 70.8926 102.56 70.8926 100.636C70.8926 98.7137 70.1408 96.8692 68.8041 95.5093C67.4684 94.1494 65.6553 93.3857 63.7641 93.3857C61.8742 93.3857 60.061 94.1494 58.7242 95.5093C57.3874 96.8692 56.6367 98.7136 56.6367 100.636C56.6411 102.558 57.3929 104.4 58.7286 105.759C60.0653 107.118 61.8751 107.883 63.764 107.887L63.7641 107.887Z" fill="#CCCCCC"/>
<path d="M74.1487 112.546H53.286C51.1085 112.555 49.3449 114.348 49.3359 116.563V140.38H54.3242V123.078H56.6366V174.297H62.6158V144.286H64.9283V174.282H70.9075V123.063H73.2046V140.381H78.1611V116.565C78.1567 115.489 77.7309 114.461 76.9769 113.706C76.224 112.952 75.2055 112.535 74.1487 112.547V112.546Z" fill="#CCCCCC"/>
<path d="M295.331 201.331C297.222 201.331 299.035 200.568 300.37 199.208C301.707 197.848 302.459 196.005 302.459 194.081C302.459 192.158 301.707 190.314 300.37 188.954C299.035 187.594 297.222 186.83 295.331 186.83C293.441 186.83 291.627 187.594 290.291 188.954C288.954 190.314 288.203 192.158 288.203 194.081C288.208 196.002 288.959 197.844 290.295 199.203C291.632 200.562 293.441 201.328 295.33 201.331L295.331 201.331Z" fill="#1104AC"/>
<path d="M305.715 205.99H284.852C282.675 205.999 280.911 207.792 280.902 210.007V233.824H285.891V216.522H288.203V267.741H294.182V237.73H296.495V267.727H302.474V216.508H304.771V233.826H309.727V210.009C309.723 208.934 309.297 207.905 308.543 207.151C307.79 206.396 306.772 205.979 305.715 205.992V205.99Z" fill="#1104AC"/>
<path d="M295.331 14.5012C297.222 14.5012 299.035 13.7375 300.37 12.3776C301.707 11.0177 302.459 9.17442 302.459 7.25057C302.459 5.32798 301.707 3.48348 300.37 2.12355C299.035 0.763681 297.222 0 295.331 0C293.441 0 291.627 0.763681 290.291 2.12355C288.954 3.48342 288.203 5.32787 288.203 7.25057C288.208 9.17205 288.959 11.0142 290.295 12.373C291.632 13.7318 293.441 14.4977 295.33 14.501L295.331 14.5012Z" fill="#CCCCCC"/>
<path d="M305.715 19.1602H284.852C282.675 19.1691 280.911 20.9622 280.902 23.1773V46.9941H285.891V29.692H288.203V80.9108H294.182V50.8998H296.495V80.8965H302.474V29.6777H304.771V46.9955H309.727V23.1788C309.723 22.1036 309.297 21.0753 308.543 20.3206C307.79 19.5658 306.772 19.1494 305.715 19.1617V19.1602Z" fill="#CCCCCC"/>
<path d="M295.331 388.103C297.222 388.103 299.035 387.339 300.37 385.979C301.707 384.619 302.459 382.776 302.459 380.852C302.459 378.93 301.707 377.085 300.37 375.725C299.035 374.365 297.222 373.602 295.331 373.602C293.441 373.602 291.627 374.365 290.291 375.725C288.954 377.085 288.203 378.929 288.203 380.852C288.208 382.774 288.959 384.616 290.295 385.975C291.632 387.333 293.441 388.099 295.33 388.103L295.331 388.103Z" fill="#1104AC"/>
<path d="M305.715 392.762H284.852C282.675 392.771 280.911 394.564 280.902 396.779V420.596H285.891V403.294H288.203V454.512H294.182V424.501H296.495V454.498H302.474V403.279H304.771V420.597H309.727V396.78C309.723 395.705 309.297 394.677 308.543 393.922C307.79 393.167 306.772 392.751 305.715 392.763V392.762Z" fill="#1104AC"/>
<path d="M63.7641 201.303C65.6551 201.303 67.4683 200.539 68.8041 199.179C70.1408 197.819 70.8926 195.976 70.8926 194.052C70.8926 192.13 70.1408 190.285 68.8041 188.925C67.4684 187.565 65.6553 186.802 63.7641 186.802C61.8742 186.802 60.061 187.565 58.7242 188.925C57.3874 190.285 56.6367 192.13 56.6367 194.052C56.6411 195.974 57.3929 197.816 58.7286 199.175C60.0653 200.534 61.8751 201.299 63.764 201.303L63.7641 201.303Z" fill="#1104AC"/>
<path d="M74.1487 205.961H53.286C51.1085 205.97 49.3449 207.763 49.3359 209.978V233.795H54.3242V216.493H56.6366V267.712H62.6158V237.701H64.9283V267.697H70.9075V216.479H73.2046V233.796H78.1611V209.98C78.1567 208.904 77.7309 207.876 76.9769 207.121C76.224 206.367 75.2055 205.95 74.1487 205.962V205.961Z" fill="#1104AC"/>
<path d="M63.7641 14.5012C65.6551 14.5012 67.4683 13.7375 68.8041 12.3776C70.1408 11.0177 70.8926 9.17442 70.8926 7.25057C70.8926 5.32798 70.1408 3.48348 68.8041 2.12355C67.4684 0.763681 65.6553 0 63.7641 0C61.8742 0 60.061 0.763681 58.7242 2.12355C57.3874 3.48342 56.6367 5.32787 56.6367 7.25057C56.6411 9.17205 57.3929 11.0142 58.7286 12.373C60.0653 13.7318 61.8751 14.4977 63.764 14.501L63.7641 14.5012Z" fill="#CCCCCC"/>
<path d="M74.1487 19.1602H53.286C51.1085 19.1691 49.3449 20.9622 49.3359 23.1773V46.9941H54.3242V29.692H56.6366V80.9108H62.6158V50.8998H64.9283V80.8965H70.9075V29.6777H73.2046V46.9955H78.1611V23.1788C78.1567 22.1036 77.7309 21.0753 76.9769 20.3206C76.224 19.5658 75.2055 19.1494 74.1487 19.1617V19.1602Z" fill="#CCCCCC"/>
<path d="M295.331 107.945C297.222 107.945 299.035 107.181 300.37 105.821C301.707 104.461 302.459 102.618 302.459 100.694C302.459 98.7713 301.707 96.9268 300.37 95.5669C299.035 94.207 297.222 93.4434 295.331 93.4434C293.441 93.4434 291.627 94.207 290.291 95.5669C288.954 96.9268 288.203 98.7712 288.203 100.694C288.208 102.615 288.959 104.458 290.295 105.816C291.632 107.175 293.441 107.941 295.33 107.944L295.331 107.945Z" fill="#1104AC"/>
<path d="M305.715 112.604H284.852C282.675 112.612 280.911 114.406 280.902 116.621V140.437H285.891V123.135H288.203V174.354H294.182V144.343H296.495V174.34H302.474V123.121H304.771V140.439H309.727V116.622C309.723 115.547 309.297 114.519 308.543 113.764C307.79 113.009 306.772 112.593 305.715 112.605V112.604Z" fill="#1104AC"/>
<path d="M63.7641 388.074C65.6551 388.074 67.4683 387.311 68.8041 385.951C70.1408 384.591 70.8926 382.748 70.8926 380.824C70.8926 378.901 70.1408 377.057 68.8041 375.697C67.4684 374.337 65.6553 373.573 63.7641 373.573C61.8742 373.573 60.061 374.337 58.7242 375.697C57.3874 377.057 56.6367 378.901 56.6367 380.824C56.6411 382.745 57.3929 384.587 58.7286 385.946C60.0653 387.305 61.8751 388.071 63.764 388.074L63.7641 388.074Z" fill="#1104AC"/>
<path d="M74.1487 392.733H53.286C51.1085 392.742 49.3449 394.535 49.3359 396.751V420.567H54.3242V403.265H56.6366V454.484H62.6158V424.473H64.9283V454.47H70.9075V403.251H73.2046V420.569H78.1611V396.752C78.1567 395.677 77.7309 394.649 76.9769 393.894C76.224 393.139 75.2055 392.723 74.1487 392.735V392.733Z" fill="#1104AC"/>
<path d="M295.331 294.717C297.222 294.717 299.035 293.953 300.37 292.593C301.707 291.234 302.459 289.39 302.459 287.466C302.459 285.544 301.707 283.699 300.37 282.339C299.035 280.98 297.222 280.216 295.331 280.216C293.441 280.216 291.627 280.98 290.291 282.339C288.954 283.699 288.203 285.544 288.203 287.466C288.208 289.388 288.959 291.23 290.295 292.589C291.632 293.948 293.441 294.714 295.33 294.717L295.331 294.717Z" fill="#1104AC"/>
<path d="M305.715 299.376H284.852C282.675 299.385 280.911 301.178 280.902 303.393V327.21H285.891V309.908H288.203V361.127H294.182V331.116H296.495V361.112H302.474V309.894H304.771V327.211H309.727V303.395C309.723 302.319 309.297 301.291 308.543 300.536C307.79 299.782 306.772 299.365 305.715 299.377V299.376Z" fill="#1104AC"/>
<path d="M154.967 294.688C156.858 294.688 158.671 293.924 160.007 292.564C161.344 291.204 162.096 289.361 162.096 287.437C162.096 285.515 161.344 283.67 160.007 282.31C158.672 280.95 156.858 280.187 154.967 280.187C153.077 280.187 151.264 280.95 149.927 282.31C148.591 283.67 147.84 285.514 147.84 287.437C147.844 289.359 148.596 291.201 149.932 292.56C151.268 293.918 153.078 294.684 154.967 294.688L154.967 294.688Z" fill="#1104AC"/>
<path d="M165.352 299.347H144.489C142.312 299.356 140.548 301.149 140.539 303.364V327.181H145.527V309.879H147.84V361.097H153.819V331.086H156.131V361.083H162.111V309.864H164.408V327.182H169.364V303.365C169.36 302.29 168.934 301.262 168.18 300.507C167.427 299.752 166.409 299.336 165.352 299.348V299.347Z" fill="#1104AC"/>
<path d="M154.967 107.888C156.858 107.888 158.671 107.124 160.007 105.764C161.344 104.404 162.096 102.561 162.096 100.637C162.096 98.7147 161.344 96.8702 160.007 95.5103C158.672 94.1504 156.858 93.3867 154.967 93.3867C153.077 93.3867 151.264 94.1504 149.927 95.5103C148.591 96.8701 147.84 98.7146 147.84 100.637C147.844 102.559 148.596 104.401 149.932 105.76C151.268 107.119 153.078 107.884 154.967 107.888L154.967 107.888Z" fill="#CCCCCC"/>
<path d="M165.352 112.547H144.489C142.312 112.556 140.548 114.349 140.539 116.564V140.381H145.527V123.079H147.84V174.298H153.819V144.287H156.131V174.283H162.111V123.064H164.408V140.382H169.364V116.565C169.36 115.49 168.934 114.462 168.18 113.707C167.427 112.953 166.409 112.536 165.352 112.548V112.547Z" fill="#CCCCCC"/>
<path d="M386.538 201.33C388.429 201.33 390.242 200.567 391.577 199.207C392.914 197.847 393.666 196.004 393.666 194.08C393.666 192.157 392.914 190.313 391.577 188.953C390.242 187.593 388.429 186.829 386.538 186.829C384.648 186.829 382.834 187.593 381.498 188.953C380.161 190.313 379.41 192.157 379.41 194.08C379.415 196.001 380.166 197.843 381.502 199.202C382.839 200.561 384.649 201.327 386.537 201.33L386.538 201.33Z" fill="#1104AC"/>
<path d="M396.922 205.989H376.059C373.882 205.998 372.118 207.791 372.109 210.006V233.823H377.098V216.521H379.41V267.74H385.389V237.729H387.702V267.726H393.681V216.507H395.978V233.825H400.935V210.008C400.93 208.933 400.504 207.904 399.75 207.15C398.997 206.395 397.979 205.978 396.922 205.991V205.989Z" fill="#1104AC"/>
<path d="M386.538 14.5012C388.429 14.5012 390.242 13.7375 391.577 12.3776C392.914 11.0177 393.666 9.17442 393.666 7.25057C393.666 5.32798 392.914 3.48348 391.577 2.12355C390.242 0.763681 388.429 0 386.538 0C384.648 0 382.834 0.763681 381.498 2.12355C380.161 3.48342 379.41 5.32787 379.41 7.25057C379.415 9.17205 380.166 11.0142 381.502 12.373C382.839 13.7318 384.649 14.4977 386.537 14.501L386.538 14.5012Z" fill="#CCCCCC"/>
<path d="M396.922 19.1602H376.059C373.882 19.1691 372.118 20.9622 372.109 23.1773V46.9941H377.098V29.692H379.41V80.9108H385.389V50.8998H387.702V80.8965H393.681V29.6777H395.978V46.9955H400.935V23.1788C400.93 22.1036 400.504 21.0753 399.75 20.3206C398.997 19.5658 397.979 19.1494 396.922 19.1617V19.1602Z" fill="#CCCCCC"/>
<path d="M386.538 388.105C388.429 388.105 390.242 387.341 391.577 385.981C392.914 384.621 393.666 382.778 393.666 380.854C393.666 378.931 392.914 377.087 391.577 375.727C390.242 374.367 388.429 373.604 386.538 373.604C384.648 373.604 382.834 374.367 381.498 375.727C380.161 377.087 379.41 378.931 379.41 380.854C379.415 382.776 380.166 384.618 381.502 385.977C382.839 387.335 384.649 388.101 386.537 388.105L386.538 388.105Z" fill="#1104AC"/>
<path d="M396.922 392.764H376.059C373.882 392.773 372.118 394.566 372.109 396.781V420.598H377.098V403.296H379.41V454.514H385.389V424.503H387.702V454.5H393.681V403.281H395.978V420.599H400.935V396.782C400.93 395.707 400.504 394.679 399.75 393.924C398.997 393.169 397.979 392.753 396.922 392.765V392.764Z" fill="#1104AC"/>
<path d="M154.967 201.302C156.858 201.302 158.671 200.538 160.007 199.178C161.344 197.819 162.096 195.975 162.096 194.051C162.096 192.129 161.344 190.284 160.007 188.924C158.672 187.564 156.858 186.801 154.967 186.801C153.077 186.801 151.264 187.564 149.927 188.924C148.591 190.284 147.84 192.129 147.84 194.051C147.844 195.973 148.596 197.815 149.932 199.174C151.268 200.533 153.078 201.298 154.967 201.302L154.967 201.302Z" fill="#1104AC"/>
<path d="M165.352 205.961H144.489C142.312 205.97 140.548 207.763 140.539 209.978V233.795H145.527V216.493H147.84V267.712H153.819V237.701H156.131V267.697H162.111V216.479H164.408V233.796H169.364V209.98C169.36 208.904 168.934 207.876 168.18 207.121C167.427 206.367 166.409 205.95 165.352 205.962V205.961Z" fill="#1104AC"/>
<path d="M154.967 14.5012C156.858 14.5012 158.671 13.7375 160.007 12.3776C161.344 11.0177 162.096 9.17442 162.096 7.25057C162.096 5.32798 161.344 3.48348 160.007 2.12355C158.672 0.763681 156.858 0 154.967 0C153.077 0 151.264 0.763681 149.927 2.12355C148.591 3.48342 147.84 5.32787 147.84 7.25057C147.844 9.17205 148.596 11.0142 149.932 12.373C151.268 13.7318 153.078 14.4977 154.967 14.501L154.967 14.5012Z" fill="#CCCCCC"/>
<path d="M165.352 19.1602H144.489C142.312 19.1691 140.548 20.9622 140.539 23.1773V46.9941H145.527V29.692H147.84V80.9108H153.819V50.8998H156.131V80.8965H162.111V29.6777H164.408V46.9955H169.364V23.1788C169.36 22.1036 168.934 21.0753 168.18 20.3206C167.427 19.5658 166.409 19.1494 165.352 19.1617V19.1602Z" fill="#CCCCCC"/>
<path d="M386.538 107.945C388.429 107.945 390.242 107.181 391.577 105.821C392.914 104.461 393.666 102.618 393.666 100.694C393.666 98.7713 392.914 96.9268 391.577 95.5669C390.242 94.207 388.429 93.4434 386.538 93.4434C384.648 93.4434 382.834 94.207 381.498 95.5669C380.161 96.9268 379.41 98.7712 379.41 100.694C379.415 102.615 380.166 104.458 381.502 105.816C382.839 107.175 384.649 107.941 386.537 107.944L386.538 107.945Z" fill="#1104AC"/>
<path d="M396.922 112.604H376.059C373.882 112.612 372.118 114.406 372.109 116.621V140.437H377.098V123.135H379.41V174.354H385.389V144.343H387.702V174.34H393.681V123.121H395.978V140.439H400.935V116.622C400.93 115.547 400.504 114.519 399.75 113.764C398.997 113.009 397.979 112.593 396.922 112.605V112.604Z" fill="#1104AC"/>
<path d="M154.967 388.074C156.858 388.074 158.671 387.311 160.007 385.951C161.344 384.591 162.096 382.748 162.096 380.824C162.096 378.901 161.344 377.057 160.007 375.697C158.672 374.337 156.858 373.573 154.967 373.573C153.077 373.573 151.264 374.337 149.927 375.697C148.591 377.057 147.84 378.901 147.84 380.824C147.844 382.745 148.596 384.587 149.932 385.946C151.268 387.305 153.078 388.071 154.967 388.074L154.967 388.074Z" fill="#1104AC"/>
<path d="M165.352 392.733H144.489C142.312 392.742 140.548 394.535 140.539 396.751V420.567H145.527V403.265H147.84V454.484H153.819V424.473H156.131V454.47H162.111V403.251H164.408V420.569H169.364V396.752C169.36 395.677 168.934 394.649 168.18 393.894C167.427 393.139 166.409 392.723 165.352 392.735V392.733Z" fill="#1104AC"/>
<path d="M386.538 294.717C388.429 294.717 390.242 293.953 391.577 292.593C392.914 291.234 393.666 289.39 393.666 287.466C393.666 285.544 392.914 283.699 391.577 282.339C390.242 280.98 388.429 280.216 386.538 280.216C384.648 280.216 382.834 280.98 381.498 282.339C380.161 283.699 379.41 285.544 379.41 287.466C379.415 289.388 380.166 291.23 381.502 292.589C382.839 293.948 384.649 294.714 386.537 294.717L386.538 294.717Z" fill="#1104AC"/>
<path d="M396.922 299.376H376.059C373.882 299.385 372.118 301.178 372.109 303.393V327.21H377.098V309.908H379.41V361.127H385.389V331.116H387.702V361.112H393.681V309.894H395.978V327.211H400.935V303.395C400.93 302.319 400.504 301.291 399.75 300.536C398.997 299.782 397.979 299.365 396.922 299.377V299.376Z" fill="#1104AC"/>
<path d="M118.516 309.528L122.134 323.709L127.484 322.108L122.355 303.669C122.009 302.457 121.339 301.366 120.42 300.519C119.5 299.67 118.368 299.099 117.147 298.867C112.027 297.992 106.8 297.992 101.681 298.867C100.458 299.094 99.3237 299.663 98.4028 300.512C97.482 301.361 96.8136 302.455 96.4723 303.669L91.3281 322.076L96.694 323.677L100.297 309.495L102.532 310.087L96.5195 333.776H102.813L102.814 361.082H108.336V335.472H110.633V361.082H116.046L116.045 333.776H122.338L116.281 310.119L118.516 309.528Z" fill="#1104AC"/>
<path d="M109.41 294.688C111.3 294.688 113.113 293.924 114.45 292.564C115.786 291.204 116.537 289.361 116.537 287.437C116.537 285.515 115.786 283.67 114.45 282.31C113.113 280.95 111.3 280.187 109.41 280.187C107.519 280.187 105.706 280.95 104.37 282.31C103.033 283.67 102.281 285.514 102.281 287.437C102.281 289.361 103.033 291.204 104.37 292.564C105.705 293.924 107.519 294.688 109.41 294.688Z" fill="#1104AC"/>
<path d="M118.516 122.727L122.134 136.908L127.484 135.307L122.355 116.868C122.009 115.656 121.339 114.565 120.42 113.718C119.5 112.869 118.368 112.298 117.147 112.067C112.027 111.191 106.8 111.191 101.681 112.067C100.458 112.293 99.3237 112.863 98.4028 113.711C97.482 114.56 96.8136 115.654 96.4723 116.869L91.3281 135.275L96.694 136.876L100.297 122.694L102.532 123.286L96.5195 146.976H102.813L102.814 174.281H108.336V148.671H110.633V174.281H116.046L116.045 146.976H122.338L116.281 123.318L118.516 122.727Z" fill="#CCCCCC"/>
<path d="M109.41 107.887C111.3 107.887 113.113 107.123 114.45 105.763C115.786 104.403 116.537 102.56 116.537 100.636C116.537 98.7137 115.786 96.8692 114.45 95.5093C113.113 94.1494 111.3 93.3857 109.41 93.3857C107.519 93.3857 105.706 94.1494 104.37 95.5093C103.033 96.8692 102.281 98.7136 102.281 100.636C102.281 102.56 103.033 104.403 104.37 105.763C105.705 107.123 107.519 107.887 109.41 107.887Z" fill="#CCCCCC"/>
<path d="M350.082 216.17L353.701 230.352L359.05 228.751L353.921 210.312C353.576 209.099 352.905 208.009 351.986 207.161C351.067 206.313 349.934 205.741 348.714 205.51C343.594 204.635 338.366 204.635 333.248 205.51C332.025 205.737 330.89 206.306 329.969 207.155C329.048 208.003 328.38 209.097 328.039 210.312L322.895 228.718L328.26 230.319L331.863 216.138L334.098 216.729L328.086 240.419H334.379L334.38 267.725H339.903V242.115H342.2V267.725H347.613L347.612 240.419H353.905L347.847 216.762L350.082 216.17Z" fill="#1104AC"/>
<path d="M340.972 201.33C342.862 201.33 344.675 200.567 346.012 199.207C347.349 197.847 348.1 196.004 348.1 194.08C348.1 192.157 347.349 190.313 346.012 188.953C344.675 187.593 342.862 186.829 340.972 186.829C339.081 186.829 337.268 187.593 335.932 188.953C334.596 190.313 333.844 192.157 333.844 194.08C333.844 196.003 334.596 197.847 335.932 199.207C337.268 200.567 339.081 201.33 340.972 201.33Z" fill="#1104AC"/>
<path d="M350.082 29.3411L353.701 43.5226L359.05 41.9215L353.921 23.4828C353.576 22.2703 352.905 21.1795 351.986 20.3322C351.067 19.4836 349.934 18.912 348.714 18.6809C343.594 17.8056 338.366 17.8056 333.248 18.6809C332.025 18.9076 330.89 19.477 329.969 20.3255C329.048 21.174 328.38 22.2682 328.039 23.4829L322.895 41.8891L328.26 43.4902L331.863 29.3087L334.098 29.9004L328.086 53.5899H334.379L334.38 80.8957H339.903V55.2857H342.2V80.8957H347.613L347.612 53.5899H353.905L347.847 29.9327L350.082 29.3411Z" fill="#CCCCCC"/>
<path d="M340.972 14.5012C342.862 14.5012 344.675 13.7375 346.012 12.3776C347.349 11.0177 348.1 9.17442 348.1 7.25057C348.1 5.32798 347.349 3.48348 346.012 2.12355C344.675 0.763681 342.862 0 340.972 0C339.081 0 337.268 0.763681 335.932 2.12355C334.596 3.48342 333.844 5.32787 333.844 7.25057C333.844 9.17428 334.596 11.0177 335.932 12.3776C337.268 13.7375 339.081 14.5012 340.972 14.5012Z" fill="#CCCCCC"/>
<path d="M350.082 402.945L353.701 417.126L359.05 415.525L353.921 397.086C353.576 395.874 352.905 394.783 351.986 393.936C351.067 393.087 349.934 392.516 348.714 392.284C343.594 391.409 338.366 391.409 333.248 392.284C332.025 392.511 330.89 393.08 329.969 393.929C329.048 394.778 328.38 395.872 328.039 397.086L322.895 415.493L328.26 417.094L331.863 402.912L334.098 403.504L328.086 427.193H334.379L334.38 454.499H339.903V428.889H342.2V454.499H347.613L347.612 427.193H353.905L347.847 403.536L350.082 402.945Z" fill="#1104AC"/>
<path d="M340.972 388.105C342.862 388.105 344.675 387.341 346.012 385.981C347.349 384.621 348.1 382.778 348.1 380.854C348.1 378.931 347.349 377.087 346.012 375.727C344.675 374.367 342.862 373.604 340.972 373.604C339.081 373.604 337.268 374.367 335.932 375.727C334.596 377.087 333.844 378.931 333.844 380.854C333.844 382.778 334.596 384.621 335.932 385.981C337.268 387.341 339.081 388.105 340.972 388.105Z" fill="#1104AC"/>
<path d="M118.516 216.142L122.134 230.323L127.484 228.722L122.355 210.284C122.009 209.071 121.339 207.98 120.42 207.133C119.5 206.284 118.368 205.713 117.147 205.482C112.027 204.606 106.8 204.606 101.681 205.482C100.458 205.708 99.3237 206.278 98.4028 207.126C97.482 207.975 96.8136 209.069 96.4723 210.284L91.3281 228.69L96.694 230.291L100.297 216.109L102.532 216.701L96.5195 240.391H102.813L102.814 267.696H108.336V242.086H110.633V267.696H116.046L116.045 240.391H122.338L116.281 216.733L118.516 216.142Z" fill="#1104AC"/>
<path d="M109.41 201.302C111.3 201.302 113.113 200.538 114.45 199.178C115.786 197.819 116.537 195.975 116.537 194.051C116.537 192.129 115.786 190.284 114.45 188.924C113.113 187.564 111.3 186.801 109.41 186.801C107.519 186.801 105.706 187.564 104.37 188.924C103.033 190.284 102.281 192.129 102.281 194.051C102.281 195.975 103.033 197.818 104.37 199.178C105.705 200.538 107.519 201.302 109.41 201.302Z" fill="#1104AC"/>
<path d="M118.516 29.3411L122.134 43.5226L127.484 41.9215L122.355 23.4828C122.009 22.2703 121.339 21.1795 120.42 20.3322C119.5 19.4836 118.368 18.912 117.147 18.6809C112.027 17.8056 106.8 17.8056 101.681 18.6809C100.458 18.9076 99.3237 19.477 98.4028 20.3255C97.482 21.174 96.8136 22.2682 96.4723 23.4829L91.3281 41.8891L96.694 43.4902L100.297 29.3087L102.532 29.9004L96.5195 53.5899H102.813L102.814 80.8957H108.336V55.2857H110.633V80.8957H116.046L116.045 53.5899H122.338L116.281 29.9327L118.516 29.3411Z" fill="#CCCCCC"/>
<path d="M109.41 14.5012C111.3 14.5012 113.113 13.7375 114.45 12.3776C115.786 11.0177 116.537 9.17442 116.537 7.25057C116.537 5.32798 115.786 3.48348 114.45 2.12355C113.113 0.763681 111.3 0 109.41 0C107.519 0 105.706 0.763681 104.37 2.12355C103.033 3.48342 102.281 5.32787 102.281 7.25057C102.281 9.17428 103.033 11.0177 104.37 12.3776C105.705 13.7375 107.519 14.5012 109.41 14.5012Z" fill="#CCCCCC"/>
<path d="M350.082 122.784L353.701 136.966L359.05 135.365L353.921 116.926C353.576 115.714 352.905 114.623 351.986 113.776C351.067 112.927 349.934 112.355 348.714 112.124C343.594 111.249 338.366 111.249 333.248 112.124C332.025 112.351 330.89 112.92 329.969 113.769C329.048 114.617 328.38 115.712 328.039 116.926L322.895 135.332L328.26 136.934L331.863 122.752L334.098 123.344L328.086 147.033H334.379L334.38 174.339H339.903V148.729H342.2V174.339H347.613L347.612 147.033H353.905L347.847 123.376L350.082 122.784Z" fill="#1104AC"/>
<path d="M340.972 107.945C342.862 107.945 344.675 107.181 346.012 105.821C347.349 104.461 348.1 102.618 348.1 100.694C348.1 98.7713 347.349 96.9268 346.012 95.5669C344.675 94.207 342.862 93.4434 340.972 93.4434C339.081 93.4434 337.268 94.207 335.932 95.5669C334.596 96.9268 333.844 98.7712 333.844 100.694C333.844 102.618 334.596 104.461 335.932 105.821C337.268 107.181 339.081 107.945 340.972 107.945Z" fill="#1104AC"/>
<path d="M118.516 402.914L122.134 417.096L127.484 415.495L122.355 397.056C122.009 395.843 121.339 394.753 120.42 393.905C119.5 393.057 118.368 392.485 117.147 392.254C112.027 391.379 106.8 391.379 101.681 392.254C100.458 392.481 99.3237 393.05 98.4028 393.899C97.482 394.747 96.8136 395.841 96.4723 397.056L91.3281 415.462L96.694 417.063L100.297 402.882L102.532 403.474L96.5195 427.163H102.813L102.814 454.469H108.336V428.859H110.633V454.469H116.046L116.045 427.163H122.338L116.281 403.506L118.516 402.914Z" fill="#1104AC"/>
<path d="M109.41 388.074C111.3 388.074 113.113 387.311 114.45 385.951C115.786 384.591 116.537 382.748 116.537 380.824C116.537 378.901 115.786 377.057 114.45 375.697C113.113 374.337 111.3 373.573 109.41 373.573C107.519 373.573 105.706 374.337 104.37 375.697C103.033 377.057 102.281 378.901 102.281 380.824C102.281 382.748 103.033 384.591 104.37 385.951C105.705 387.311 107.519 388.074 109.41 388.074Z" fill="#1104AC"/>
<path d="M350.082 309.557L353.701 323.738L359.05 322.137L353.921 303.699C353.576 302.486 352.905 301.395 351.986 300.548C351.067 299.699 349.934 299.128 348.714 298.897C343.594 298.021 338.366 298.021 333.248 298.897C332.025 299.123 330.89 299.693 329.969 300.541C329.048 301.39 328.38 302.484 328.039 303.699L322.895 322.105L328.26 323.706L331.863 309.524L334.098 310.116L328.086 333.806H334.379L334.38 361.112H339.903V335.502H342.2V361.112H347.613L347.612 333.806H353.905L347.847 310.149L350.082 309.557Z" fill="#1104AC"/>
<path d="M340.972 294.717C342.862 294.717 344.675 293.953 346.012 292.593C347.349 291.234 348.1 289.39 348.1 287.466C348.1 285.544 347.349 283.699 346.012 282.339C344.675 280.98 342.862 280.216 340.972 280.216C339.081 280.216 337.268 280.98 335.932 282.339C334.596 283.699 333.844 285.544 333.844 287.466C333.844 289.39 334.596 291.233 335.932 292.593C337.268 293.953 339.081 294.717 340.972 294.717Z" fill="#1104AC"/>
<path d="M209.719 309.528L213.337 323.709L218.687 322.108L213.558 303.669C213.212 302.457 212.542 301.366 211.623 300.519C210.703 299.67 209.571 299.099 208.35 298.867C203.23 297.992 198.003 297.992 192.884 298.867C191.662 299.094 190.527 299.663 189.606 300.512C188.685 301.361 188.017 302.455 187.675 303.669L182.531 322.076L187.897 323.677L191.5 309.495L193.735 310.087L187.723 333.776H194.016L194.017 361.082H199.539V335.472H201.836V361.082H207.25L207.248 333.776H213.541L207.484 310.119L209.719 309.528Z" fill="#1104AC"/>
<path d="M200.613 294.688C202.503 294.688 204.316 293.924 205.653 292.564C206.99 291.204 207.74 289.361 207.74 287.437C207.74 285.515 206.99 283.67 205.653 282.31C204.316 280.95 202.503 280.187 200.613 280.187C198.722 280.187 196.909 280.95 195.573 282.31C194.236 283.67 193.484 285.514 193.484 287.437C193.484 289.361 194.236 291.204 195.573 292.564C196.909 293.924 198.722 294.688 200.613 294.688Z" fill="#1104AC"/>
<path d="M209.719 122.728L213.337 136.909L218.687 135.308L213.558 116.869C213.212 115.657 212.542 114.566 211.623 113.719C210.703 112.87 209.571 112.299 208.35 112.068C203.23 111.192 198.003 111.192 192.884 112.068C191.662 112.294 190.527 112.864 189.606 113.712C188.685 114.561 188.017 115.655 187.675 116.87L182.531 135.276L187.897 136.877L191.5 122.695L193.735 123.287L187.723 146.977H194.016L194.017 174.282H199.539V148.672H201.836V174.282H207.25L207.248 146.977H213.541L207.484 123.319L209.719 122.728Z" fill="#CCCCCC"/>
<path d="M200.613 107.888C202.503 107.888 204.316 107.124 205.653 105.764C206.99 104.404 207.74 102.561 207.74 100.637C207.74 98.7147 206.99 96.8702 205.653 95.5103C204.316 94.1504 202.503 93.3867 200.613 93.3867C198.722 93.3867 196.909 94.1504 195.573 95.5103C194.236 96.8701 193.484 98.7146 193.484 100.637C193.484 102.561 194.236 104.404 195.573 105.764C196.909 107.124 198.722 107.888 200.613 107.888Z" fill="#CCCCCC"/>
<path d="M441.285 216.171L444.904 230.353L450.253 228.752L445.124 210.313C444.779 209.1 444.108 208.01 443.19 207.162C442.27 206.314 441.137 205.742 439.917 205.511C434.797 204.636 429.57 204.636 424.451 205.511C423.228 205.738 422.093 206.307 421.172 207.156C420.252 208.004 419.583 209.098 419.242 210.313L414.098 228.719L419.464 230.32L423.067 216.139L425.301 216.73L419.289 240.42H425.582L425.583 267.726H431.106V242.116H433.403V267.726H438.816L438.815 240.42H445.108L439.051 216.763L441.285 216.171Z" fill="#1104AC"/>
<path d="M432.175 201.331C434.065 201.331 435.878 200.568 437.215 199.208C438.552 197.848 439.303 196.005 439.303 194.081C439.303 192.158 438.552 190.314 437.215 188.954C435.879 187.594 434.065 186.83 432.175 186.83C430.284 186.83 428.471 187.594 427.135 188.954C425.799 190.314 425.047 192.158 425.047 194.081C425.047 196.004 425.799 197.848 427.135 199.208C428.471 200.568 430.284 201.331 432.175 201.331Z" fill="#1104AC"/>
<path d="M441.285 29.3411L444.904 43.5226L450.253 41.9215L445.124 23.4828C444.779 22.2703 444.108 21.1795 443.19 20.3322C442.27 19.4836 441.137 18.912 439.917 18.6809C434.797 17.8056 429.57 17.8056 424.451 18.6809C423.228 18.9076 422.093 19.477 421.172 20.3255C420.252 21.174 419.583 22.2682 419.242 23.4829L414.098 41.8891L419.464 43.4902L423.067 29.3087L425.301 29.9004L419.289 53.5899H425.582L425.583 80.8957H431.106V55.2857H433.403V80.8957H438.816L438.815 53.5899H445.108L439.051 29.9327L441.285 29.3411Z" fill="#CCCCCC"/>
<path d="M432.175 14.5012C434.065 14.5012 435.878 13.7375 437.215 12.3776C438.552 11.0177 439.303 9.17442 439.303 7.25057C439.303 5.32798 438.552 3.48348 437.215 2.12355C435.879 0.763681 434.065 0 432.175 0C430.284 0 428.471 0.763681 427.135 2.12355C425.799 3.48342 425.047 5.32787 425.047 7.25057C425.047 9.17428 425.799 11.0177 427.135 12.3776C428.471 13.7375 430.284 14.5012 432.175 14.5012Z" fill="#CCCCCC"/>
<path d="M441.285 402.945L444.904 417.126L450.253 415.525L445.124 397.086C444.779 395.874 444.108 394.783 443.19 393.936C442.27 393.087 441.137 392.516 439.917 392.284C434.797 391.409 429.57 391.409 424.451 392.284C423.228 392.511 422.093 393.08 421.172 393.929C420.252 394.778 419.583 395.872 419.242 397.086L414.098 415.493L419.464 417.094L423.067 402.912L425.301 403.504L419.289 427.193H425.582L425.583 454.499H431.106V428.889H433.403V454.499H438.816L438.815 427.193H445.108L439.051 403.536L441.285 402.945Z" fill="#1104AC"/>
<path d="M432.175 388.105C434.065 388.105 435.878 387.341 437.215 385.981C438.552 384.621 439.303 382.778 439.303 380.854C439.303 378.931 438.552 377.087 437.215 375.727C435.879 374.367 434.065 373.604 432.175 373.604C430.284 373.604 428.471 374.367 427.135 375.727C425.799 377.087 425.047 378.931 425.047 380.854C425.047 382.778 425.799 384.621 427.135 385.981C428.471 387.341 430.284 388.105 432.175 388.105Z" fill="#1104AC"/>
<path d="M209.719 216.142L213.337 230.323L218.687 228.722L213.558 210.284C213.212 209.071 212.542 207.98 211.623 207.133C210.703 206.284 209.571 205.713 208.35 205.482C203.23 204.606 198.003 204.606 192.884 205.482C191.662 205.708 190.527 206.278 189.606 207.126C188.685 207.975 188.017 209.069 187.675 210.284L182.531 228.69L187.897 230.291L191.5 216.109L193.735 216.701L187.723 240.391H194.016L194.017 267.696H199.539V242.086H201.836V267.696H207.25L207.248 240.391H213.541L207.484 216.733L209.719 216.142Z" fill="#1104AC"/>
<path d="M200.613 201.302C202.503 201.302 204.316 200.538 205.653 199.178C206.99 197.819 207.74 195.975 207.74 194.051C207.74 192.129 206.99 190.284 205.653 188.924C204.316 187.564 202.503 186.801 200.613 186.801C198.722 186.801 196.909 187.564 195.573 188.924C194.236 190.284 193.484 192.129 193.484 194.051C193.484 195.975 194.236 197.818 195.573 199.178C196.909 200.538 198.722 201.302 200.613 201.302Z" fill="#1104AC"/>
<path d="M209.719 29.3411L213.337 43.5226L218.687 41.9215L213.558 23.4828C213.212 22.2703 212.542 21.1795 211.623 20.3322C210.703 19.4836 209.571 18.912 208.35 18.6809C203.23 17.8056 198.003 17.8056 192.884 18.6809C191.662 18.9076 190.527 19.477 189.606 20.3255C188.685 21.174 188.017 22.2682 187.675 23.4829L182.531 41.8891L187.897 43.4902L191.5 29.3087L193.735 29.9004L187.723 53.5899H194.016L194.017 80.8957H199.539V55.2857H201.836V80.8957H207.25L207.248 53.5899H213.541L207.484 29.9327L209.719 29.3411Z" fill="#CCCCCC"/>
<path d="M200.613 14.5012C202.503 14.5012 204.316 13.7375 205.653 12.3776C206.99 11.0177 207.74 9.17442 207.74 7.25057C207.74 5.32798 206.99 3.48348 205.653 2.12355C204.316 0.763681 202.503 0 200.613 0C198.722 0 196.909 0.763681 195.573 2.12355C194.236 3.48342 193.484 5.32787 193.484 7.25057C193.484 9.17428 194.236 11.0177 195.573 12.3776C196.909 13.7375 198.722 14.5012 200.613 14.5012Z" fill="#CCCCCC"/>
<path d="M441.285 122.784L444.904 136.966L450.253 135.365L445.124 116.926C444.779 115.714 444.108 114.623 443.19 113.776C442.27 112.927 441.137 112.355 439.917 112.124C434.797 111.249 429.57 111.249 424.451 112.124C423.228 112.351 422.093 112.92 421.172 113.769C420.252 114.617 419.583 115.712 419.242 116.926L414.098 135.332L419.464 136.934L423.067 122.752L425.301 123.344L419.289 147.033H425.582L425.583 174.339H431.106V148.729H433.403V174.339H438.816L438.815 147.033H445.108L439.051 123.376L441.285 122.784Z" fill="#1104AC"/>
<path d="M432.175 107.945C434.065 107.945 435.878 107.181 437.215 105.821C438.552 104.461 439.303 102.618 439.303 100.694C439.303 98.7713 438.552 96.9268 437.215 95.5669C435.879 94.207 434.065 93.4434 432.175 93.4434C430.284 93.4434 428.471 94.207 427.135 95.5669C425.799 96.9268 425.047 98.7712 425.047 100.694C425.047 102.618 425.799 104.461 427.135 105.821C428.471 107.181 430.284 107.945 432.175 107.945Z" fill="#1104AC"/>
<path d="M209.719 402.914L213.337 417.096L218.687 415.495L213.558 397.056C213.212 395.843 212.542 394.753 211.623 393.905C210.703 393.057 209.571 392.485 208.35 392.254C203.23 391.379 198.003 391.379 192.884 392.254C191.662 392.481 190.527 393.05 189.606 393.899C188.685 394.747 188.017 395.841 187.675 397.056L182.531 415.462L187.897 417.063L191.5 402.882L193.735 403.474L187.723 427.163H194.016L194.017 454.469H199.539V428.859H201.836V454.469H207.25L207.248 427.163H213.541L207.484 403.506L209.719 402.914Z" fill="#1104AC"/>
<path d="M200.613 388.074C202.503 388.074 204.316 387.311 205.653 385.951C206.99 384.591 207.74 382.748 207.74 380.824C207.74 378.901 206.99 377.057 205.653 375.697C204.316 374.337 202.503 373.573 200.613 373.573C198.722 373.573 196.909 374.337 195.573 375.697C194.236 377.057 193.484 378.901 193.484 380.824C193.484 382.748 194.236 384.591 195.573 385.951C196.909 387.311 198.722 388.074 200.613 388.074Z" fill="#1104AC"/>
<path d="M441.285 309.557L444.904 323.738L450.253 322.137L445.124 303.699C444.779 302.486 444.108 301.395 443.19 300.548C442.27 299.699 441.137 299.128 439.917 298.897C434.797 298.021 429.57 298.021 424.451 298.897C423.228 299.123 422.093 299.693 421.172 300.541C420.252 301.39 419.583 302.484 419.242 303.699L414.098 322.105L419.464 323.706L423.067 309.524L425.301 310.116L419.289 333.806H425.582L425.583 361.112H431.106V335.502H433.403V361.112H438.816L438.815 333.806H445.108L439.051 310.149L441.285 309.557Z" fill="#1104AC"/>
<path d="M432.175 294.717C434.065 294.717 435.878 293.953 437.215 292.593C438.552 291.234 439.303 289.39 439.303 287.466C439.303 285.544 438.552 283.699 437.215 282.339C435.879 280.98 434.065 280.216 432.175 280.216C430.284 280.216 428.471 280.98 427.135 282.339C425.799 283.699 425.047 285.544 425.047 287.466C425.047 289.39 425.799 291.233 427.135 292.593C428.471 293.953 430.284 294.717 432.175 294.717Z" fill="#1104AC"/>
<path d="M27.1877 309.528L30.8062 323.709L36.1555 322.108L31.0268 303.669C30.681 302.457 30.0105 301.366 29.0919 300.519C28.1722 299.67 27.0395 299.099 25.8192 298.867C20.6992 297.992 15.4719 297.992 10.353 298.867C9.13034 299.094 7.99553 299.663 7.0747 300.512C6.1539 301.361 5.48551 302.455 5.14417 303.669L0 322.076L5.36585 323.677L8.96892 309.495L11.2035 310.087L5.1914 333.776H11.4844L11.4855 361.082H17.0081V335.472H19.3052V361.082H24.7183L24.7172 333.776H31.0102L24.9529 310.119L27.1877 309.528Z" fill="#1104AC"/>
<path d="M18.0816 294.688C19.9715 294.688 21.7847 293.924 23.1216 292.564C24.4583 291.204 25.209 289.361 25.209 287.437C25.209 285.515 24.4583 283.67 23.1216 282.31C21.7848 280.95 19.9717 280.187 18.0816 280.187C16.1906 280.187 14.3774 280.95 13.0417 282.31C11.7049 283.67 10.9531 285.514 10.9531 287.437C10.9531 289.361 11.7049 291.204 13.0417 292.564C14.3774 293.924 16.1905 294.688 18.0816 294.688Z" fill="#1104AC"/>
<path d="M27.1877 122.728L30.8062 136.909L36.1555 135.308L31.0268 116.869C30.681 115.657 30.0105 114.566 29.0919 113.719C28.1722 112.87 27.0395 112.299 25.8192 112.068C20.6992 111.192 15.4719 111.192 10.353 112.068C9.13034 112.294 7.99553 112.864 7.0747 113.712C6.1539 114.561 5.48551 115.655 5.14417 116.87L0 135.276L5.36585 136.877L8.96892 122.695L11.2035 123.287L5.1914 146.977H11.4844L11.4855 174.282H17.0081V148.672H19.3052V174.282H24.7183L24.7172 146.977H31.0102L24.9529 123.319L27.1877 122.728Z" fill="#CCCCCC"/>
<path d="M18.0816 107.888C19.9715 107.888 21.7847 107.124 23.1216 105.764C24.4583 104.404 25.209 102.561 25.209 100.637C25.209 98.7147 24.4583 96.8702 23.1216 95.5103C21.7848 94.1504 19.9717 93.3867 18.0816 93.3867C16.1906 93.3867 14.3774 94.1504 13.0417 95.5103C11.7049 96.8701 10.9531 98.7146 10.9531 100.637C10.9531 102.561 11.7049 104.404 13.0417 105.764C14.3774 107.124 16.1905 107.888 18.0816 107.888Z" fill="#CCCCCC"/>
<path d="M258.754 216.17L262.373 230.352L267.722 228.751L262.593 210.312C262.247 209.099 261.577 208.009 260.658 207.161C259.739 206.313 258.606 205.741 257.386 205.51C252.266 204.635 247.038 204.635 241.919 205.51C240.697 205.737 239.562 206.306 238.641 207.155C237.72 208.003 237.052 209.097 236.711 210.312L231.566 228.718L236.932 230.319L240.535 216.138L242.77 216.729L236.758 240.419H243.051L243.052 267.725H248.575V242.115H250.872V267.725H256.285L256.284 240.419H262.577L256.519 216.762L258.754 216.17Z" fill="#1104AC"/>
<path d="M249.644 201.33C251.534 201.33 253.347 200.567 254.684 199.207C256.021 197.847 256.772 196.004 256.772 194.08C256.772 192.157 256.021 190.313 254.684 188.953C253.347 187.593 251.534 186.829 249.644 186.829C247.753 186.829 245.94 187.593 244.604 188.953C243.267 190.313 242.516 192.157 242.516 194.08C242.516 196.003 243.267 197.847 244.604 199.207C245.94 200.567 247.753 201.33 249.644 201.33Z" fill="#1104AC"/>
<path d="M258.754 29.3411L262.373 43.5226L267.722 41.9215L262.593 23.4828C262.247 22.2703 261.577 21.1795 260.658 20.3322C259.739 19.4836 258.606 18.912 257.386 18.6809C252.266 17.8056 247.038 17.8056 241.919 18.6809C240.697 18.9076 239.562 19.477 238.641 20.3255C237.72 21.174 237.052 22.2682 236.711 23.4829L231.566 41.8891L236.932 43.4902L240.535 29.3087L242.77 29.9004L236.758 53.5899H243.051L243.052 80.8957H248.575V55.2857H250.872V80.8957H256.285L256.284 53.5899H262.577L256.519 29.9327L258.754 29.3411Z" fill="#CCCCCC"/>
<path d="M249.644 14.5012C251.534 14.5012 253.347 13.7375 254.684 12.3776C256.021 11.0177 256.772 9.17442 256.772 7.25057C256.772 5.32798 256.021 3.48348 254.684 2.12355C253.347 0.763681 251.534 0 249.644 0C247.753 0 245.94 0.763681 244.604 2.12355C243.267 3.48342 242.516 5.32787 242.516 7.25057C242.516 9.17428 243.267 11.0177 244.604 12.3776C245.94 13.7375 247.753 14.5012 249.644 14.5012Z" fill="#CCCCCC"/>
<path d="M258.754 402.945L262.373 417.126L267.722 415.525L262.593 397.086C262.247 395.874 261.577 394.783 260.658 393.936C259.739 393.087 258.606 392.516 257.386 392.284C252.266 391.409 247.038 391.409 241.919 392.284C240.697 392.511 239.562 393.08 238.641 393.929C237.72 394.778 237.052 395.872 236.711 397.086L231.566 415.493L236.932 417.094L240.535 402.912L242.77 403.504L236.758 427.193H243.051L243.052 454.499H248.575V428.889H250.872V454.499H256.285L256.284 427.193H262.577L256.519 403.536L258.754 402.945Z" fill="#1104AC"/>
<path d="M249.644 388.105C251.534 388.105 253.347 387.341 254.684 385.981C256.021 384.621 256.772 382.778 256.772 380.854C256.772 378.931 256.021 377.087 254.684 375.727C253.347 374.367 251.534 373.604 249.644 373.604C247.753 373.604 245.94 374.367 244.604 375.727C243.267 377.087 242.516 378.931 242.516 380.854C242.516 382.778 243.267 384.621 244.604 385.981C245.94 387.341 247.753 388.105 249.644 388.105Z" fill="#1104AC"/>
<path d="M27.1877 216.142L30.8062 230.323L36.1555 228.722L31.0268 210.284C30.681 209.071 30.0105 207.98 29.0919 207.133C28.1722 206.284 27.0395 205.713 25.8192 205.482C20.6992 204.606 15.4719 204.606 10.353 205.482C9.13034 205.708 7.99553 206.278 7.0747 207.126C6.1539 207.975 5.48551 209.069 5.14417 210.284L0 228.69L5.36585 230.291L8.96892 216.109L11.2035 216.701L5.1914 240.391H11.4844L11.4855 267.696H17.0081V242.086H19.3052V267.696H24.7183L24.7172 240.391H31.0102L24.9529 216.733L27.1877 216.142Z" fill="#1104AC"/>
<path d="M18.0816 201.302C19.9715 201.302 21.7847 200.538 23.1216 199.178C24.4583 197.819 25.209 195.975 25.209 194.051C25.209 192.129 24.4583 190.284 23.1216 188.924C21.7848 187.564 19.9717 186.801 18.0816 186.801C16.1906 186.801 14.3774 187.564 13.0417 188.924C11.7049 190.284 10.9531 192.129 10.9531 194.051C10.9531 195.975 11.7049 197.818 13.0417 199.178C14.3774 200.538 16.1905 201.302 18.0816 201.302Z" fill="#1104AC"/>
<path d="M27.1877 29.3411L30.8062 43.5226L36.1555 41.9215L31.0268 23.4828C30.681 22.2703 30.0105 21.1795 29.0919 20.3322C28.1722 19.4836 27.0395 18.912 25.8192 18.6809C20.6992 17.8056 15.4719 17.8056 10.353 18.6809C9.13034 18.9076 7.99553 19.477 7.0747 20.3255C6.1539 21.174 5.48551 22.2682 5.14417 23.4829L0 41.8891L5.36585 43.4902L8.96892 29.3087L11.2035 29.9004L5.1914 53.5899H11.4844L11.4855 80.8957H17.0081V55.2857H19.3052V80.8957H24.7183L24.7172 53.5899H31.0102L24.9529 29.9327L27.1877 29.3411Z" fill="#CCCCCC"/>
<path d="M18.0816 14.5012C19.9715 14.5012 21.7847 13.7375 23.1216 12.3776C24.4583 11.0177 25.209 9.17442 25.209 7.25057C25.209 5.32798 24.4583 3.48348 23.1216 2.12355C21.7848 0.763681 19.9717 0 18.0816 0C16.1906 0 14.3774 0.763681 13.0417 2.12355C11.7049 3.48342 10.9531 5.32787 10.9531 7.25057C10.9531 9.17428 11.7049 11.0177 13.0417 12.3776C14.3774 13.7375 16.1905 14.5012 18.0816 14.5012Z" fill="#CCCCCC"/>
<path d="M258.754 122.784L262.373 136.966L267.722 135.365L262.593 116.926C262.247 115.714 261.577 114.623 260.658 113.776C259.739 112.927 258.606 112.355 257.386 112.124C252.266 111.249 247.038 111.249 241.919 112.124C240.697 112.351 239.562 112.92 238.641 113.769C237.72 114.617 237.052 115.712 236.711 116.926L231.566 135.332L236.932 136.934L240.535 122.752L242.77 123.344L236.758 147.033H243.051L243.052 174.339H248.575V148.729H250.872V174.339H256.285L256.284 147.033H262.577L256.519 123.376L258.754 122.784Z" fill="#1104AC"/>
<path d="M249.644 107.945C251.534 107.945 253.347 107.181 254.684 105.821C256.021 104.461 256.772 102.618 256.772 100.694C256.772 98.7713 256.021 96.9268 254.684 95.5669C253.347 94.207 251.534 93.4434 249.644 93.4434C247.753 93.4434 245.94 94.207 244.604 95.5669C243.267 96.9268 242.516 98.7712 242.516 100.694C242.516 102.618 243.267 104.461 244.604 105.821C245.94 107.181 247.753 107.945 249.644 107.945Z" fill="#1104AC"/>
<path d="M27.1877 402.914L30.8062 417.096L36.1555 415.495L31.0268 397.056C30.681 395.843 30.0105 394.753 29.0919 393.905C28.1722 393.057 27.0395 392.485 25.8192 392.254C20.6992 391.379 15.4719 391.379 10.353 392.254C9.13034 392.481 7.99553 393.05 7.0747 393.899C6.1539 394.747 5.48551 395.841 5.14417 397.056L0 415.462L5.36585 417.063L8.96892 402.882L11.2035 403.474L5.1914 427.163H11.4844L11.4855 454.469H17.0081V428.859H19.3052V454.469H24.7183L24.7172 427.163H31.0102L24.9529 403.506L27.1877 402.914Z" fill="#1104AC"/>
<path d="M18.0816 388.074C19.9715 388.074 21.7847 387.311 23.1216 385.951C24.4583 384.591 25.209 382.748 25.209 380.824C25.209 378.901 24.4583 377.057 23.1216 375.697C21.7848 374.337 19.9717 373.573 18.0816 373.573C16.1906 373.573 14.3774 374.337 13.0417 375.697C11.7049 377.057 10.9531 378.901 10.9531 380.824C10.9531 382.748 11.7049 384.591 13.0417 385.951C14.3774 387.311 16.1905 388.074 18.0816 388.074Z" fill="#1104AC"/>
<path d="M258.754 309.557L262.373 323.738L267.722 322.137L262.593 303.699C262.247 302.486 261.577 301.395 260.658 300.548C259.739 299.699 258.606 299.128 257.386 298.897C252.266 298.021 247.038 298.021 241.919 298.897C240.697 299.123 239.562 299.693 238.641 300.541C237.72 301.39 237.052 302.484 236.711 303.699L231.566 322.105L236.932 323.706L240.535 309.524L242.77 310.116L236.758 333.806H243.051L243.052 361.112H248.575V335.502H250.872V361.112H256.285L256.284 333.806H262.577L256.519 310.149L258.754 309.557Z" fill="#1104AC"/>
<path d="M249.644 294.717C251.534 294.717 253.347 293.953 254.684 292.593C256.021 291.234 256.772 289.39 256.772 287.466C256.772 285.544 256.021 283.699 254.684 282.339C253.347 280.98 251.534 280.216 249.644 280.216C247.753 280.216 245.94 280.98 244.604 282.339C243.267 283.699 242.516 285.544 242.516 287.466C242.516 289.39 243.267 291.233 244.604 292.593C245.94 293.953 247.753 294.717 249.644 294.717Z" fill="#1104AC"/>
</svg>
