<svg width="792" height="730" viewBox="0 0 792 730" fill="none" xmlns="http://www.w3.org/2000/svg">
<path opacity="0.1" fill-rule="evenodd" clip-rule="evenodd" d="M159.223 219.608C193.483 171.903 192.964 97.1765 250.762 74.5823C309.04 51.8007 381.067 81.98 442.753 108.773C498.301 132.899 549.292 168.93 580.57 217.832C609.178 262.558 596.495 313.661 605.587 363.352C615.905 419.748 655.354 476.128 637.373 528.289C617.461 586.052 573.061 649.903 505.648 653.262C436.371 656.713 393.567 571.803 327.777 543.715C274.748 521.074 211.589 539.699 164.085 507.435C108.542 469.711 50.5776 415.166 49.5571 354.751C48.5378 294.412 124.637 267.768 159.223 219.608Z" fill="#7192DB"/>
<path d="M113.541 416.143V442.836H110.056V430.734H96.4611V442.836H92.9762V416.143H96.4611V427.862H110.056V416.143H113.541ZM117.807 432.266C117.807 430.122 118.241 428.245 119.109 426.637C119.977 425.003 121.164 423.739 122.671 422.845C124.202 421.952 125.9 421.505 127.764 421.505C129.602 421.505 131.198 421.901 132.551 422.692C133.904 423.483 134.913 424.479 135.576 425.679V421.849H139.1V442.836H135.576V438.93C134.887 440.155 133.853 441.176 132.474 441.993C131.121 442.785 129.538 443.181 127.726 443.181C125.862 443.181 124.177 442.721 122.671 441.802C121.164 440.883 119.977 439.594 119.109 437.934C118.241 436.274 117.807 434.385 117.807 432.266ZM135.576 432.304C135.576 430.722 135.257 429.343 134.619 428.168C133.981 426.994 133.113 426.1 132.015 425.488C130.943 424.849 129.755 424.53 128.453 424.53C127.151 424.53 125.964 424.837 124.892 425.449C123.819 426.062 122.964 426.956 122.326 428.13C121.688 429.305 121.368 430.683 121.368 432.266C121.368 433.875 121.688 435.279 122.326 436.479C122.964 437.653 123.819 438.56 124.892 439.198C125.964 439.811 127.151 440.117 128.453 440.117C129.755 440.117 130.943 439.811 132.015 439.198C133.113 438.56 133.981 437.653 134.619 436.479C135.257 435.279 135.576 433.887 135.576 432.304ZM152.418 439.619L158.929 421.849H162.644L154.41 442.836H150.35L142.117 421.849H145.87L152.418 439.619ZM184.838 431.538C184.838 432.202 184.8 432.904 184.723 433.645H167.949C168.077 435.713 168.779 437.334 170.056 438.508C171.358 439.657 172.928 440.232 174.766 440.232C176.273 440.232 177.524 439.887 178.519 439.198C179.541 438.483 180.255 437.538 180.664 436.364H184.417C183.855 438.381 182.732 440.028 181.047 441.304C179.362 442.555 177.268 443.181 174.766 443.181C172.775 443.181 170.988 442.734 169.405 441.84C167.847 440.947 166.622 439.683 165.728 438.049C164.835 436.389 164.388 434.475 164.388 432.304C164.388 430.134 164.822 428.232 165.69 426.598C166.558 424.964 167.771 423.713 169.328 422.845C170.911 421.952 172.724 421.505 174.766 421.505C176.758 421.505 178.519 421.939 180.051 422.807C181.583 423.675 182.757 424.875 183.574 426.407C184.417 427.913 184.838 429.624 184.838 431.538ZM181.238 430.811C181.238 429.483 180.945 428.347 180.358 427.402C179.77 426.432 178.966 425.705 177.945 425.22C176.949 424.709 175.839 424.454 174.613 424.454C172.851 424.454 171.345 425.015 170.094 426.139C168.869 427.262 168.166 428.819 167.988 430.811H181.238ZM202.367 425.258C202.98 424.058 203.848 423.126 204.971 422.462C206.12 421.798 207.512 421.467 209.146 421.467V425.066H208.227C204.32 425.066 202.367 427.185 202.367 431.424V442.836H198.882V421.849H202.367V425.258ZM231.934 431.538C231.934 432.202 231.896 432.904 231.819 433.645H215.045C215.173 435.713 215.875 437.334 217.151 438.508C218.453 439.657 220.024 440.232 221.862 440.232C223.368 440.232 224.619 439.887 225.615 439.198C226.636 438.483 227.351 437.538 227.76 436.364H231.513C230.951 438.381 229.828 440.028 228.142 441.304C226.457 442.555 224.364 443.181 221.862 443.181C219.87 443.181 218.083 442.734 216.5 441.84C214.943 440.947 213.717 439.683 212.824 438.049C211.93 436.389 211.484 434.475 211.484 432.304C211.484 430.134 211.918 428.232 212.786 426.598C213.654 424.964 214.866 423.713 216.424 422.845C218.007 421.952 219.819 421.505 221.862 421.505C223.853 421.505 225.615 421.939 227.147 422.807C228.679 423.675 229.853 424.875 230.67 426.407C231.513 427.913 231.934 429.624 231.934 431.538ZM228.334 430.811C228.334 429.483 228.04 428.347 227.453 427.402C226.866 426.432 226.062 425.705 225.04 425.22C224.045 424.709 222.934 424.454 221.709 424.454C219.947 424.454 218.441 425.015 217.19 426.139C215.964 427.262 215.262 428.819 215.083 430.811H228.334ZM243.58 443.181C241.972 443.181 240.529 442.913 239.253 442.376C237.976 441.815 236.968 441.049 236.228 440.079C235.487 439.083 235.079 437.947 235.002 436.67H238.602C238.704 437.717 239.189 438.572 240.057 439.236C240.951 439.9 242.112 440.232 243.542 440.232C244.87 440.232 245.916 439.938 246.682 439.351C247.448 438.764 247.831 438.023 247.831 437.13C247.831 436.211 247.423 435.534 246.606 435.1C245.789 434.641 244.525 434.194 242.814 433.76C241.257 433.351 239.981 432.943 238.985 432.534C238.015 432.1 237.172 431.475 236.457 430.658C235.768 429.815 235.423 428.717 235.423 427.364C235.423 426.292 235.742 425.309 236.381 424.415C237.019 423.522 237.925 422.82 239.1 422.309C240.274 421.773 241.615 421.505 243.121 421.505C245.444 421.505 247.321 422.092 248.75 423.266C250.18 424.441 250.946 426.049 251.048 428.092H247.563C247.487 426.994 247.04 426.113 246.223 425.449C245.431 424.786 244.359 424.454 243.006 424.454C241.755 424.454 240.759 424.722 240.019 425.258C239.278 425.794 238.908 426.496 238.908 427.364C238.908 428.054 239.125 428.628 239.559 429.088C240.019 429.522 240.581 429.879 241.244 430.16C241.934 430.415 242.878 430.709 244.078 431.041C245.585 431.449 246.81 431.858 247.755 432.266C248.699 432.649 249.504 433.236 250.167 434.028C250.857 434.819 251.214 435.853 251.24 437.13C251.24 438.279 250.921 439.313 250.282 440.232C249.644 441.151 248.738 441.879 247.563 442.415C246.414 442.925 245.087 443.181 243.58 443.181ZM254.474 432.304C254.474 430.134 254.908 428.245 255.776 426.637C256.644 425.003 257.844 423.739 259.376 422.845C260.934 421.952 262.708 421.505 264.699 421.505C267.278 421.505 269.397 422.13 271.057 423.381C272.742 424.632 273.852 426.368 274.388 428.59H270.635C270.278 427.313 269.576 426.305 268.529 425.564C267.508 424.824 266.231 424.454 264.699 424.454C262.708 424.454 261.1 425.143 259.874 426.522C258.649 427.875 258.036 429.802 258.036 432.304C258.036 434.832 258.649 436.785 259.874 438.164C261.1 439.542 262.708 440.232 264.699 440.232C266.231 440.232 267.508 439.874 268.529 439.159C269.55 438.445 270.252 437.423 270.635 436.096H274.388C273.827 438.24 272.703 439.964 271.018 441.266C269.333 442.542 267.227 443.181 264.699 443.181C262.708 443.181 260.934 442.734 259.376 441.84C257.844 440.947 256.644 439.683 255.776 438.049C254.908 436.415 254.474 434.5 254.474 432.304ZM289.072 421.467C290.655 421.467 292.085 421.811 293.361 422.501C294.638 423.164 295.634 424.173 296.348 425.526C297.089 426.879 297.459 428.526 297.459 430.466V442.836H294.012V430.964C294.012 428.871 293.489 427.275 292.442 426.177C291.395 425.054 289.966 424.492 288.153 424.492C286.315 424.492 284.847 425.066 283.749 426.215C282.677 427.364 282.14 429.036 282.14 431.232V442.836H278.655V414.497H282.14V424.837C282.83 423.764 283.774 422.935 284.974 422.347C286.2 421.76 287.566 421.467 289.072 421.467ZM321.917 431.538C321.917 432.202 321.879 432.904 321.802 433.645H305.028C305.156 435.713 305.858 437.334 307.135 438.508C308.437 439.657 310.007 440.232 311.845 440.232C313.351 440.232 314.602 439.887 315.598 439.198C316.619 438.483 317.334 437.538 317.743 436.364H321.496C320.934 438.381 319.811 440.028 318.126 441.304C316.441 442.555 314.347 443.181 311.845 443.181C309.854 443.181 308.066 442.734 306.483 441.84C304.926 440.947 303.701 439.683 302.807 438.049C301.913 436.389 301.467 434.475 301.467 432.304C301.467 430.134 301.901 428.232 302.769 426.598C303.637 424.964 304.849 423.713 306.407 422.845C307.99 421.952 309.803 421.505 311.845 421.505C313.836 421.505 315.598 421.939 317.13 422.807C318.662 423.675 319.836 424.875 320.653 426.407C321.496 427.913 321.917 429.624 321.917 431.538ZM318.317 430.811C318.317 429.483 318.023 428.347 317.436 427.402C316.849 426.432 316.045 425.705 315.024 425.22C314.028 424.709 312.917 424.454 311.692 424.454C309.93 424.454 308.424 425.015 307.173 426.139C305.947 427.262 305.245 428.819 305.067 430.811H318.317ZM324.832 432.266C324.832 430.122 325.266 428.245 326.134 426.637C327.002 425.003 328.189 423.739 329.696 422.845C331.227 421.952 332.938 421.505 334.827 421.505C336.461 421.505 337.98 421.888 339.385 422.654C340.789 423.394 341.861 424.377 342.601 425.603V414.497H346.125V442.836H342.601V438.891C341.912 440.142 340.891 441.176 339.538 441.993C338.185 442.785 336.602 443.181 334.789 443.181C332.925 443.181 331.227 442.721 329.696 441.802C328.189 440.883 327.002 439.594 326.134 437.934C325.266 436.274 324.832 434.385 324.832 432.266ZM342.601 432.304C342.601 430.722 342.282 429.343 341.644 428.168C341.006 426.994 340.138 426.1 339.04 425.488C337.968 424.849 336.78 424.53 335.478 424.53C334.176 424.53 332.989 424.837 331.917 425.449C330.844 426.062 329.989 426.956 329.351 428.13C328.713 429.305 328.394 430.683 328.394 432.266C328.394 433.875 328.713 435.279 329.351 436.479C329.989 437.653 330.844 438.56 331.917 439.198C332.989 439.811 334.176 440.117 335.478 440.117C336.78 440.117 337.968 439.811 339.04 439.198C340.138 438.56 341.006 437.653 341.644 436.479C342.282 435.279 342.601 433.887 342.601 432.304ZM370.243 421.849V442.836H366.758V439.734C366.094 440.806 365.162 441.649 363.963 442.261C362.788 442.849 361.486 443.142 360.056 443.142C358.422 443.142 356.954 442.81 355.652 442.147C354.35 441.457 353.316 440.436 352.55 439.083C351.81 437.73 351.44 436.083 351.44 434.143V421.849H354.886V433.683C354.886 435.751 355.41 437.347 356.456 438.47C357.503 439.568 358.933 440.117 360.746 440.117C362.609 440.117 364.077 439.542 365.15 438.394C366.222 437.245 366.758 435.572 366.758 433.377V421.849H370.243ZM379.229 414.497V442.836H375.744V414.497H379.229ZM403.934 431.538C403.934 432.202 403.896 432.904 403.819 433.645H387.045C387.173 435.713 387.875 437.334 389.152 438.508C390.454 439.657 392.024 440.232 393.862 440.232C395.368 440.232 396.619 439.887 397.615 439.198C398.636 438.483 399.351 437.538 399.76 436.364H403.513C402.951 438.381 401.828 440.028 400.143 441.304C398.458 442.555 396.364 443.181 393.862 443.181C391.871 443.181 390.084 442.734 388.501 441.84C386.943 440.947 385.718 439.683 384.824 438.049C383.931 436.389 383.484 434.475 383.484 432.304C383.484 430.134 383.918 428.232 384.786 426.598C385.654 424.964 386.867 423.713 388.424 422.845C390.007 421.952 391.82 421.505 393.862 421.505C395.854 421.505 397.615 421.939 399.147 422.807C400.679 423.675 401.853 424.875 402.67 426.407C403.513 427.913 403.934 429.624 403.934 431.538ZM400.334 430.811C400.334 429.483 400.041 428.347 399.453 427.402C398.866 426.432 398.062 425.705 397.041 425.22C396.045 424.709 394.934 424.454 393.709 424.454C391.947 424.454 390.441 425.015 389.19 426.139C387.964 427.262 387.262 428.819 387.084 430.811H400.334ZM406.849 432.266C406.849 430.122 407.283 428.245 408.151 426.637C409.019 425.003 410.206 423.739 411.713 422.845C413.245 421.952 414.955 421.505 416.844 421.505C418.478 421.505 419.998 421.888 421.402 422.654C422.806 423.394 423.878 424.377 424.619 425.603V414.497H428.142V442.836H424.619V438.891C423.929 440.142 422.908 441.176 421.555 441.993C420.202 442.785 418.619 443.181 416.806 443.181C414.942 443.181 413.245 442.721 411.713 441.802C410.206 440.883 409.019 439.594 408.151 437.934C407.283 436.274 406.849 434.385 406.849 432.266ZM424.619 432.304C424.619 430.722 424.3 429.343 423.661 428.168C423.023 426.994 422.155 426.1 421.057 425.488C419.985 424.849 418.798 424.53 417.496 424.53C416.193 424.53 415.006 424.837 413.934 425.449C412.862 426.062 412.006 426.956 411.368 428.13C410.73 429.305 410.411 430.683 410.411 432.266C410.411 433.875 410.73 435.279 411.368 436.479C412.006 437.653 412.862 438.56 413.934 439.198C415.006 439.811 416.193 440.117 417.496 440.117C418.798 440.117 419.985 439.811 421.057 439.198C422.155 438.56 423.023 437.653 423.661 436.479C424.3 435.279 424.619 433.887 424.619 432.304ZM443.193 432.419C443.193 430.275 443.614 428.398 444.456 426.79C445.325 425.181 446.512 423.943 448.018 423.075C449.55 422.207 451.286 421.773 453.226 421.773C455.422 421.773 457.286 422.309 458.818 423.381C460.349 424.454 461.422 425.82 462.035 427.479V422.041H463.758V442.836H462.035V437.36C461.422 439.045 460.337 440.436 458.779 441.534C457.247 442.606 455.396 443.142 453.226 443.142C451.286 443.142 449.55 442.708 448.018 441.84C446.512 440.947 445.325 439.696 444.456 438.087C443.614 436.453 443.193 434.564 443.193 432.419ZM462.035 432.419C462.035 430.607 461.652 429.011 460.886 427.632C460.145 426.228 459.124 425.156 457.822 424.415C456.52 423.649 455.065 423.266 453.456 423.266C451.771 423.266 450.29 423.637 449.014 424.377C447.737 425.092 446.742 426.139 446.027 427.517C445.312 428.896 444.954 430.53 444.954 432.419C444.954 434.309 445.312 435.943 446.027 437.321C446.742 438.7 447.737 439.759 449.014 440.5C450.316 441.24 451.797 441.61 453.456 441.61C455.065 441.61 456.52 441.24 457.822 440.5C459.15 439.734 460.184 438.662 460.924 437.283C461.664 435.879 462.035 434.258 462.035 432.419ZM471.373 427.517C471.96 425.832 473.02 424.454 474.552 423.381C476.109 422.309 477.986 421.773 480.181 421.773C482.122 421.773 483.845 422.207 485.351 423.075C486.883 423.943 488.07 425.181 488.913 426.79C489.781 428.398 490.215 430.275 490.215 432.419C490.215 434.564 489.781 436.453 488.913 438.087C488.07 439.696 486.883 440.947 485.351 441.84C483.845 442.708 482.122 443.142 480.181 443.142C478.011 443.142 476.147 442.606 474.59 441.534C473.058 440.436 471.986 439.057 471.373 437.398V452.64H469.65V422.041H471.373V427.517ZM488.453 432.419C488.453 430.53 488.096 428.896 487.381 427.517C486.666 426.139 485.658 425.092 484.356 424.377C483.079 423.637 481.598 423.266 479.913 423.266C478.305 423.266 476.85 423.649 475.548 424.415C474.245 425.156 473.224 426.228 472.484 427.632C471.743 429.011 471.373 430.607 471.373 432.419C471.373 434.258 471.743 435.879 472.484 437.283C473.224 438.662 474.245 439.734 475.548 440.5C476.85 441.24 478.305 441.61 479.913 441.61C481.598 441.61 483.079 441.24 484.356 440.5C485.658 439.759 486.666 438.7 487.381 437.321C488.096 435.943 488.453 434.309 488.453 432.419ZM496.758 427.517C497.345 425.832 498.405 424.454 499.937 423.381C501.494 422.309 503.371 421.773 505.566 421.773C507.507 421.773 509.23 422.207 510.736 423.075C512.268 423.943 513.455 425.181 514.298 426.79C515.166 428.398 515.6 430.275 515.6 432.419C515.6 434.564 515.166 436.453 514.298 438.087C513.455 439.696 512.268 440.947 510.736 441.84C509.23 442.708 507.507 443.142 505.566 443.142C503.396 443.142 501.532 442.606 499.975 441.534C498.443 440.436 497.371 439.057 496.758 437.398V452.64H495.035V422.041H496.758V427.517ZM513.838 432.419C513.838 430.53 513.481 428.896 512.766 427.517C512.051 426.139 511.043 425.092 509.741 424.377C508.464 423.637 506.983 423.266 505.298 423.266C503.69 423.266 502.234 423.649 500.932 424.415C499.63 425.156 498.609 426.228 497.869 427.632C497.128 429.011 496.758 430.607 496.758 432.419C496.758 434.258 497.128 435.879 497.869 437.283C498.609 438.662 499.63 439.734 500.932 440.5C502.234 441.24 503.69 441.61 505.298 441.61C506.983 441.61 508.464 441.24 509.741 440.5C511.043 439.759 512.051 438.7 512.766 437.321C513.481 435.943 513.838 434.309 513.838 432.419ZM529.572 443.142C527.632 443.142 525.883 442.708 524.326 441.84C522.768 440.972 521.543 439.734 520.649 438.125C519.781 436.491 519.347 434.589 519.347 432.419C519.347 430.275 519.794 428.398 520.688 426.79C521.581 425.156 522.807 423.918 524.364 423.075C525.947 422.207 527.709 421.773 529.649 421.773C531.589 421.773 533.338 422.207 534.896 423.075C536.453 423.918 537.666 425.143 538.534 426.751C539.427 428.36 539.874 430.249 539.874 432.419C539.874 434.589 539.427 436.491 538.534 438.125C537.64 439.734 536.402 440.972 534.819 441.84C533.262 442.708 531.513 443.142 529.572 443.142ZM529.572 441.61C531.079 441.61 532.483 441.279 533.785 440.615C535.113 439.925 536.172 438.891 536.964 437.513C537.755 436.134 538.151 434.436 538.151 432.419C538.151 430.428 537.755 428.743 536.964 427.364C536.172 425.986 535.125 424.964 533.823 424.3C532.521 423.611 531.117 423.266 529.611 423.266C528.104 423.266 526.7 423.611 525.398 424.3C524.122 424.964 523.088 425.986 522.296 427.364C521.505 428.743 521.109 430.428 521.109 432.419C521.109 434.436 521.492 436.134 522.258 437.513C523.049 438.891 524.083 439.925 525.36 440.615C526.662 441.279 528.066 441.61 529.572 441.61ZM545.601 417.407C545.192 417.407 544.847 417.279 544.567 417.024C544.286 416.743 544.145 416.373 544.145 415.914C544.145 415.48 544.286 415.122 544.567 414.841C544.847 414.56 545.192 414.42 545.601 414.42C546.009 414.42 546.354 414.56 546.635 414.841C546.915 415.122 547.056 415.48 547.056 415.914C547.056 416.373 546.915 416.743 546.635 417.024C546.354 417.279 546.009 417.407 545.601 417.407ZM546.443 422.041V442.836H544.72V422.041H546.443ZM561.76 421.62C564.237 421.62 566.254 422.386 567.811 423.918C569.368 425.424 570.147 427.671 570.147 430.658V442.836H568.462V430.773C568.462 428.296 567.837 426.407 566.586 425.105C565.335 423.777 563.637 423.113 561.492 423.113C559.245 423.113 557.446 423.828 556.092 425.258C554.765 426.688 554.101 428.807 554.101 431.615V442.836H552.378V422.041H554.101V426.445C554.688 424.888 555.658 423.7 557.011 422.884C558.39 422.041 559.973 421.62 561.76 421.62ZM578.421 423.535V437.283C578.421 438.815 578.702 439.874 579.263 440.462C579.825 441.023 580.821 441.304 582.251 441.304H584.587V442.836H581.983C580.17 442.836 578.829 442.415 577.961 441.572C577.119 440.704 576.698 439.274 576.698 437.283V423.535H573.557V422.041H576.698V416.756H578.421V422.041H584.587V423.535H578.421ZM613.335 421.62C615.709 421.62 617.65 422.386 619.156 423.918C620.662 425.424 621.416 427.671 621.416 430.658V442.836H619.731V430.773C619.731 428.296 619.131 426.407 617.931 425.105C616.756 423.777 615.135 423.113 613.067 423.113C610.922 423.113 609.199 423.854 607.897 425.334C606.595 426.815 605.944 428.96 605.944 431.768V442.836H604.259V430.773C604.259 428.296 603.659 426.407 602.459 425.105C601.284 423.777 599.663 423.113 597.595 423.113C595.451 423.113 593.727 423.854 592.425 425.334C591.123 426.815 590.472 428.96 590.472 431.768V442.836H588.749V422.041H590.472V426.56C591.059 424.926 592.004 423.7 593.306 422.884C594.634 422.041 596.153 421.62 597.863 421.62C599.753 421.62 601.374 422.118 602.727 423.113C604.106 424.083 605.05 425.526 605.561 427.441C606.046 425.526 606.991 424.083 608.395 423.113C609.799 422.118 611.446 421.62 613.335 421.62ZM645.875 431.041C645.875 431.96 645.85 432.649 645.799 433.109H627.838C627.889 434.972 628.297 436.543 629.063 437.819C629.829 439.096 630.838 440.053 632.089 440.691C633.34 441.33 634.706 441.649 636.186 441.649C638.229 441.649 639.939 441.151 641.318 440.155C642.697 439.134 643.565 437.755 643.922 436.019H645.722C645.314 438.138 644.267 439.862 642.582 441.189C640.897 442.491 638.765 443.142 636.186 443.142C634.246 443.142 632.51 442.708 630.978 441.84C629.446 440.972 628.246 439.734 627.378 438.125C626.51 436.491 626.076 434.589 626.076 432.419C626.076 430.249 626.497 428.36 627.34 426.751C628.208 425.143 629.408 423.918 630.94 423.075C632.472 422.207 634.22 421.773 636.186 421.773C638.178 421.773 639.901 422.207 641.356 423.075C642.837 423.918 643.96 425.054 644.726 426.483C645.492 427.888 645.875 429.407 645.875 431.041ZM644.152 431.692C644.229 429.853 643.897 428.296 643.156 427.02C642.441 425.743 641.458 424.798 640.207 424.186C638.956 423.547 637.603 423.228 636.148 423.228C634.693 423.228 633.34 423.547 632.089 424.186C630.863 424.798 629.855 425.743 629.063 427.02C628.297 428.296 627.889 429.853 627.838 431.692H644.152ZM660.083 421.62C662.56 421.62 664.577 422.386 666.134 423.918C667.692 425.424 668.47 427.671 668.47 430.658V442.836H666.785V430.773C666.785 428.296 666.16 426.407 664.909 425.105C663.658 423.777 661.96 423.113 659.815 423.113C657.568 423.113 655.769 423.828 654.415 425.258C653.088 426.688 652.424 428.807 652.424 431.615V442.836H650.701V422.041H652.424V426.445C653.011 424.888 653.981 423.7 655.335 422.884C656.713 422.041 658.296 421.62 660.083 421.62ZM676.744 423.535V437.283C676.744 438.815 677.025 439.874 677.587 440.462C678.148 441.023 679.144 441.304 680.574 441.304H682.91V442.836H680.306C678.493 442.836 677.153 442.415 676.284 441.572C675.442 440.704 675.021 439.274 675.021 437.283V423.535H671.88V422.041H675.021V416.756H676.744V422.041H682.91V423.535H676.744ZM694.003 443.142C691.68 443.142 689.778 442.632 688.297 441.61C686.842 440.589 686.025 439.134 685.846 437.245H687.608C687.736 438.598 688.348 439.67 689.446 440.462C690.57 441.253 692.089 441.649 694.003 441.649C695.586 441.649 696.837 441.253 697.756 440.462C698.701 439.645 699.173 438.649 699.173 437.474C699.173 436.657 698.918 435.994 698.408 435.483C697.922 434.947 697.31 434.538 696.569 434.258C695.829 433.977 694.82 433.67 693.544 433.338C692.012 432.93 690.774 432.534 689.829 432.151C688.884 431.743 688.08 431.143 687.416 430.351C686.753 429.56 686.421 428.5 686.421 427.173C686.421 426.203 686.714 425.309 687.302 424.492C687.889 423.649 688.706 422.986 689.753 422.501C690.799 422.015 691.986 421.773 693.314 421.773C695.484 421.773 697.233 422.322 698.561 423.42C699.914 424.492 700.641 425.986 700.744 427.9H699.02C698.944 426.522 698.408 425.398 697.412 424.53C696.416 423.662 695.037 423.228 693.276 423.228C691.795 423.228 690.57 423.611 689.599 424.377C688.629 425.143 688.144 426.075 688.144 427.173C688.144 428.143 688.412 428.934 688.948 429.547C689.51 430.134 690.187 430.594 690.978 430.926C691.795 431.232 692.867 431.564 694.195 431.921C695.65 432.304 696.812 432.687 697.68 433.07C698.573 433.428 699.327 433.964 699.939 434.679C700.552 435.368 700.858 436.3 700.858 437.474C700.858 438.547 700.565 439.517 699.978 440.385C699.39 441.253 698.573 441.93 697.527 442.415C696.48 442.9 695.305 443.142 694.003 443.142ZM96.4611 471.497V499.836H92.9762V471.497H96.4611ZM100.716 489.266C100.716 487.122 101.15 485.245 102.018 483.637C102.886 482.003 104.073 480.739 105.579 479.845C107.111 478.952 108.809 478.505 110.673 478.505C112.511 478.505 114.107 478.901 115.46 479.692C116.813 480.483 117.821 481.479 118.485 482.679V478.849H122.008V499.836H118.485V495.93C117.796 497.155 116.762 498.176 115.383 498.993C114.03 499.785 112.447 500.181 110.634 500.181C108.771 500.181 107.086 499.721 105.579 498.802C104.073 497.883 102.886 496.594 102.018 494.934C101.15 493.274 100.716 491.385 100.716 489.266ZM118.485 489.304C118.485 487.722 118.166 486.343 117.528 485.168C116.889 483.994 116.021 483.1 114.924 482.488C113.851 481.849 112.664 481.53 111.362 481.53C110.06 481.53 108.873 481.837 107.8 482.449C106.728 483.062 105.873 483.956 105.235 485.13C104.596 486.305 104.277 487.683 104.277 489.266C104.277 490.875 104.596 492.279 105.235 493.479C105.873 494.653 106.728 495.56 107.8 496.198C108.873 496.811 110.06 497.117 111.362 497.117C112.664 497.117 113.851 496.811 114.924 496.198C116.021 495.56 116.889 494.653 117.528 493.479C118.166 492.279 118.485 490.887 118.485 489.304ZM134.944 500.181C133.336 500.181 131.893 499.913 130.617 499.376C129.34 498.815 128.332 498.049 127.591 497.079C126.851 496.083 126.442 494.947 126.366 493.67H129.966C130.068 494.717 130.553 495.572 131.421 496.236C132.315 496.9 133.476 497.232 134.906 497.232C136.234 497.232 137.28 496.938 138.046 496.351C138.812 495.764 139.195 495.023 139.195 494.13C139.195 493.211 138.787 492.534 137.97 492.1C137.153 491.641 135.889 491.194 134.178 490.76C132.621 490.351 131.344 489.943 130.349 489.534C129.379 489.1 128.536 488.475 127.821 487.658C127.132 486.815 126.787 485.717 126.787 484.364C126.787 483.292 127.106 482.309 127.745 481.415C128.383 480.522 129.289 479.82 130.464 479.309C131.638 478.773 132.978 478.505 134.485 478.505C136.808 478.505 138.685 479.092 140.114 480.266C141.544 481.441 142.31 483.049 142.412 485.092H138.927C138.85 483.994 138.404 483.113 137.587 482.449C136.795 481.786 135.723 481.454 134.37 481.454C133.119 481.454 132.123 481.722 131.383 482.258C130.642 482.794 130.272 483.496 130.272 484.364C130.272 485.054 130.489 485.628 130.923 486.088C131.383 486.522 131.944 486.879 132.608 487.16C133.298 487.415 134.242 487.709 135.442 488.041C136.948 488.449 138.174 488.858 139.119 489.266C140.063 489.649 140.867 490.236 141.531 491.028C142.221 491.819 142.578 492.853 142.604 494.13C142.604 495.279 142.284 496.313 141.646 497.232C141.008 498.151 140.102 498.879 138.927 499.415C137.778 499.925 136.451 500.181 134.944 500.181ZM151.391 481.722V494.091C151.391 495.113 151.608 495.84 152.042 496.274C152.476 496.683 153.229 496.887 154.302 496.887H156.867V499.836H153.727C151.787 499.836 150.332 499.389 149.361 498.496C148.391 497.602 147.906 496.134 147.906 494.091V481.722H145.187V478.849H147.906V473.565H151.391V478.849H156.867V481.722H151.391ZM195.771 478.467C197.405 478.467 198.86 478.811 200.137 479.501C201.414 480.164 202.422 481.173 203.162 482.526C203.903 483.879 204.273 485.526 204.273 487.466V499.836H200.826V487.964C200.826 485.871 200.303 484.275 199.256 483.177C198.235 482.054 196.844 481.492 195.082 481.492C193.269 481.492 191.827 482.079 190.754 483.254C189.682 484.402 189.146 486.075 189.146 488.27V499.836H185.699V487.964C185.699 485.871 185.176 484.275 184.129 483.177C183.108 482.054 181.716 481.492 179.955 481.492C178.142 481.492 176.7 482.079 175.627 483.254C174.555 484.402 174.019 486.075 174.019 488.27V499.836H170.534V478.849H174.019V481.875C174.708 480.777 175.627 479.935 176.776 479.347C177.951 478.76 179.24 478.467 180.644 478.467C182.406 478.467 183.963 478.862 185.316 479.654C186.669 480.445 187.678 481.607 188.342 483.139C188.929 481.658 189.899 480.509 191.252 479.692C192.605 478.875 194.112 478.467 195.771 478.467ZM211.407 475.441C210.743 475.441 210.181 475.211 209.722 474.752C209.262 474.292 209.032 473.731 209.032 473.067C209.032 472.403 209.262 471.841 209.722 471.382C210.181 470.922 210.743 470.692 211.407 470.692C212.045 470.692 212.581 470.922 213.015 471.382C213.475 471.841 213.704 472.403 213.704 473.067C213.704 473.731 213.475 474.292 213.015 474.752C212.581 475.211 212.045 475.441 211.407 475.441ZM213.092 478.849V499.836H209.607V478.849H213.092ZM228.873 478.467C231.426 478.467 233.495 479.245 235.077 480.803C236.66 482.334 237.452 484.556 237.452 487.466V499.836H234.005V487.964C234.005 485.871 233.482 484.275 232.435 483.177C231.388 482.054 229.958 481.492 228.146 481.492C226.308 481.492 224.84 482.066 223.742 483.215C222.669 484.364 222.133 486.036 222.133 488.232V499.836H218.648V478.849H222.133V481.837C222.823 480.764 223.754 479.935 224.929 479.347C226.129 478.76 227.444 478.467 228.873 478.467ZM261.374 478.849V499.836H257.889V496.734C257.225 497.806 256.293 498.649 255.093 499.261C253.919 499.849 252.616 500.142 251.187 500.142C249.553 500.142 248.085 499.81 246.783 499.147C245.481 498.457 244.447 497.436 243.681 496.083C242.94 494.73 242.57 493.083 242.57 491.143V478.849H246.017V490.683C246.017 492.751 246.54 494.347 247.587 495.47C248.634 496.568 250.063 497.117 251.876 497.117C253.74 497.117 255.208 496.542 256.28 495.394C257.352 494.245 257.889 492.572 257.889 490.377V478.849H261.374ZM271.126 481.722V494.091C271.126 495.113 271.343 495.84 271.777 496.274C272.211 496.683 272.964 496.887 274.036 496.887H276.602V499.836H273.462C271.521 499.836 270.066 499.389 269.096 498.496C268.126 497.602 267.641 496.134 267.641 494.091V481.722H264.922V478.849H267.641V473.565H271.126V478.849H276.602V481.722H271.126ZM299.59 488.538C299.59 489.202 299.552 489.904 299.475 490.645H282.701C282.829 492.713 283.531 494.334 284.807 495.508C286.109 496.657 287.68 497.232 289.518 497.232C291.024 497.232 292.275 496.887 293.271 496.198C294.292 495.483 295.007 494.538 295.416 493.364H299.169C298.607 495.381 297.484 497.028 295.798 498.304C294.113 499.555 292.02 500.181 289.518 500.181C287.526 500.181 285.739 499.734 284.156 498.84C282.599 497.947 281.374 496.683 280.48 495.049C279.586 493.389 279.14 491.475 279.14 489.304C279.14 487.134 279.574 485.232 280.442 483.598C281.31 481.964 282.522 480.713 284.08 479.845C285.663 478.952 287.475 478.505 289.518 478.505C291.509 478.505 293.271 478.939 294.803 479.807C296.335 480.675 297.509 481.875 298.326 483.407C299.169 484.913 299.59 486.624 299.59 488.538ZM295.99 487.811C295.99 486.483 295.696 485.347 295.109 484.402C294.522 483.432 293.718 482.705 292.696 482.22C291.701 481.709 290.59 481.454 289.365 481.454C287.603 481.454 286.097 482.015 284.846 483.139C283.62 484.262 282.918 485.819 282.739 487.811H295.99ZM312.753 489.419C312.753 487.275 313.174 485.398 314.017 483.79C314.885 482.181 316.072 480.943 317.578 480.075C319.11 479.207 320.846 478.773 322.787 478.773C324.906 478.773 326.744 479.309 328.301 480.381C329.859 481.428 330.957 482.794 331.595 484.479V471.497H333.318V499.836H331.595V494.321C330.982 496.032 329.91 497.436 328.378 498.534C326.846 499.606 324.982 500.142 322.787 500.142C320.846 500.142 319.11 499.708 317.578 498.84C316.072 497.947 314.885 496.696 314.017 495.087C313.174 493.453 312.753 491.564 312.753 489.419ZM331.595 489.419C331.595 487.607 331.212 486.011 330.446 484.632C329.706 483.228 328.684 482.156 327.382 481.415C326.08 480.649 324.625 480.266 323.016 480.266C321.331 480.266 319.851 480.637 318.574 481.377C317.298 482.092 316.302 483.139 315.587 484.517C314.872 485.896 314.515 487.53 314.515 489.419C314.515 491.309 314.872 492.943 315.587 494.321C316.302 495.7 317.298 496.759 318.574 497.5C319.876 498.24 321.357 498.61 323.016 498.61C324.625 498.61 326.08 498.24 327.382 497.5C328.71 496.734 329.744 495.662 330.484 494.283C331.225 492.879 331.595 491.258 331.595 489.419ZM356.788 479.041V499.836H355.065V495.317C354.478 496.9 353.495 498.113 352.116 498.955C350.763 499.772 349.206 500.181 347.444 500.181C344.967 500.181 342.938 499.427 341.355 497.921C339.797 496.389 339.019 494.13 339.019 491.143V479.041H340.704V491.028C340.704 493.504 341.329 495.406 342.58 496.734C343.831 498.036 345.529 498.687 347.674 498.687C349.92 498.687 351.708 497.972 353.035 496.542C354.388 495.113 355.065 492.994 355.065 490.185V479.041H356.788ZM381.415 488.041C381.415 488.96 381.389 489.649 381.338 490.109H363.377C363.428 491.972 363.837 493.543 364.602 494.819C365.368 496.096 366.377 497.053 367.628 497.691C368.879 498.33 370.245 498.649 371.726 498.649C373.768 498.649 375.479 498.151 376.857 497.155C378.236 496.134 379.104 494.755 379.462 493.019H381.261C380.853 495.138 379.806 496.862 378.121 498.189C376.436 499.491 374.304 500.142 371.726 500.142C369.785 500.142 368.049 499.708 366.517 498.84C364.985 497.972 363.786 496.734 362.917 495.125C362.049 493.491 361.615 491.589 361.615 489.419C361.615 487.249 362.037 485.36 362.879 483.751C363.747 482.143 364.947 480.918 366.479 480.075C368.011 479.207 369.76 478.773 371.726 478.773C373.717 478.773 375.44 479.207 376.896 480.075C378.376 480.918 379.5 482.054 380.266 483.483C381.032 484.888 381.415 486.407 381.415 488.041ZM379.691 488.692C379.768 486.853 379.436 485.296 378.696 484.02C377.981 482.743 376.998 481.798 375.747 481.186C374.496 480.547 373.143 480.228 371.687 480.228C370.232 480.228 368.879 480.547 367.628 481.186C366.402 481.798 365.394 482.743 364.602 484.02C363.837 485.296 363.428 486.853 363.377 488.692H379.691ZM399.231 480.535V494.283C399.231 495.815 399.512 496.874 400.074 497.462C400.635 498.023 401.631 498.304 403.061 498.304H405.397V499.836H402.793C400.98 499.836 399.64 499.415 398.772 498.572C397.929 497.704 397.508 496.274 397.508 494.283V480.535H394.367V479.041H397.508V473.756H399.231V479.041H405.397V480.535H399.231ZM418.712 500.142C416.771 500.142 415.023 499.708 413.465 498.84C411.908 497.972 410.682 496.734 409.789 495.125C408.921 493.491 408.487 491.589 408.487 489.419C408.487 487.275 408.933 485.398 409.827 483.79C410.721 482.156 411.946 480.918 413.503 480.075C415.086 479.207 416.848 478.773 418.788 478.773C420.729 478.773 422.478 479.207 424.035 480.075C425.592 480.918 426.805 482.143 427.673 483.751C428.567 485.36 429.013 487.249 429.013 489.419C429.013 491.589 428.567 493.491 427.673 495.125C426.78 496.734 425.541 497.972 423.958 498.84C422.401 499.708 420.652 500.142 418.712 500.142ZM418.712 498.61C420.218 498.61 421.622 498.279 422.924 497.615C424.252 496.925 425.311 495.891 426.103 494.513C426.894 493.134 427.29 491.436 427.29 489.419C427.29 487.428 426.894 485.743 426.103 484.364C425.311 482.986 424.265 481.964 422.963 481.3C421.661 480.611 420.256 480.266 418.75 480.266C417.244 480.266 415.839 480.611 414.537 481.3C413.261 481.964 412.227 482.986 411.435 484.364C410.644 485.743 410.248 487.428 410.248 489.419C410.248 491.436 410.631 493.134 411.397 494.513C412.189 495.891 413.223 496.925 414.499 497.615C415.801 498.279 417.205 498.61 418.712 498.61ZM447.578 471.497V499.836H444.093V471.497H447.578ZM462.287 500.181C460.321 500.181 458.534 499.734 456.926 498.84C455.343 497.947 454.092 496.683 453.173 495.049C452.279 493.389 451.832 491.475 451.832 489.304C451.832 487.16 452.292 485.271 453.211 483.637C454.156 481.977 455.432 480.713 457.041 479.845C458.649 478.952 460.449 478.505 462.441 478.505C464.432 478.505 466.232 478.952 467.84 479.845C469.449 480.713 470.713 481.964 471.632 483.598C472.576 485.232 473.049 487.134 473.049 489.304C473.049 491.475 472.564 493.389 471.593 495.049C470.649 496.683 469.359 497.947 467.725 498.84C466.091 499.734 464.279 500.181 462.287 500.181ZM462.287 497.117C463.538 497.117 464.713 496.823 465.811 496.236C466.908 495.649 467.789 494.768 468.453 493.594C469.142 492.419 469.487 490.989 469.487 489.304C469.487 487.619 469.155 486.19 468.491 485.015C467.828 483.841 466.96 482.973 465.887 482.411C464.815 481.824 463.653 481.53 462.402 481.53C461.126 481.53 459.951 481.824 458.879 482.411C457.832 482.973 456.99 483.841 456.351 485.015C455.713 486.19 455.394 487.619 455.394 489.304C455.394 491.015 455.7 492.457 456.313 493.632C456.951 494.806 457.794 495.687 458.841 496.274C459.887 496.836 461.036 497.117 462.287 497.117ZM505.204 478.849L498.656 499.836H495.056L490.001 483.177L484.945 499.836H481.346L474.759 478.849H478.32L483.145 496.466L488.354 478.849H491.915L497.009 496.504L501.758 478.849H505.204ZM519.777 474.407C519.369 474.407 519.024 474.279 518.743 474.024C518.463 473.743 518.322 473.373 518.322 472.914C518.322 472.48 518.463 472.122 518.743 471.841C519.024 471.56 519.369 471.42 519.777 471.42C520.186 471.42 520.531 471.56 520.811 471.841C521.092 472.122 521.233 472.48 521.233 472.914C521.233 473.373 521.092 473.743 520.811 474.024C520.531 474.279 520.186 474.407 519.777 474.407ZM520.62 479.041V499.836H518.897V479.041H520.62ZM535.937 478.62C538.414 478.62 540.43 479.386 541.988 480.918C543.545 482.424 544.324 484.671 544.324 487.658V499.836H542.639V487.773C542.639 485.296 542.013 483.407 540.762 482.105C539.511 480.777 537.814 480.113 535.669 480.113C533.422 480.113 531.622 480.828 530.269 482.258C528.942 483.688 528.278 485.807 528.278 488.615V499.836H526.554V479.041H528.278V483.445C528.865 481.888 529.835 480.7 531.188 479.884C532.567 479.041 534.15 478.62 535.937 478.62ZM557.078 497.959L564.738 479.041H566.576L557.959 499.836H556.159L547.543 479.041H549.419L557.078 497.959ZM588.721 488.041C588.721 488.96 588.695 489.649 588.644 490.109H570.683C570.734 491.972 571.143 493.543 571.909 494.819C572.675 496.096 573.683 497.053 574.934 497.691C576.185 498.33 577.551 498.649 579.032 498.649C581.074 498.649 582.785 498.151 584.164 497.155C585.542 496.134 586.41 494.755 586.768 493.019H588.568C588.159 495.138 587.112 496.862 585.427 498.189C583.742 499.491 581.611 500.142 579.032 500.142C577.092 500.142 575.355 499.708 573.824 498.84C572.292 497.972 571.092 496.734 570.224 495.125C569.356 493.491 568.922 491.589 568.922 489.419C568.922 487.249 569.343 485.36 570.185 483.751C571.053 482.143 572.253 480.918 573.785 480.075C575.317 479.207 577.066 478.773 579.032 478.773C581.023 478.773 582.747 479.207 584.202 480.075C585.683 480.918 586.806 482.054 587.572 483.483C588.338 484.888 588.721 486.407 588.721 488.041ZM586.998 488.692C587.074 486.853 586.742 485.296 586.002 484.02C585.287 482.743 584.304 481.798 583.053 481.186C581.802 480.547 580.449 480.228 578.994 480.228C577.538 480.228 576.185 480.547 574.934 481.186C573.709 481.798 572.7 482.743 571.909 484.02C571.143 485.296 570.734 486.853 570.683 488.692H586.998ZM602.929 478.62C605.405 478.62 607.422 479.386 608.98 480.918C610.537 482.424 611.316 484.671 611.316 487.658V499.836H609.631V487.773C609.631 485.296 609.005 483.407 607.754 482.105C606.503 480.777 604.805 480.113 602.661 480.113C600.414 480.113 598.614 480.828 597.261 482.258C595.933 483.688 595.27 485.807 595.27 488.615V499.836H593.546V479.041H595.27V483.445C595.857 481.888 596.827 480.7 598.18 479.884C599.559 479.041 601.142 478.62 602.929 478.62ZM619.59 480.535V494.283C619.59 495.815 619.87 496.874 620.432 497.462C620.994 498.023 621.989 498.304 623.419 498.304H625.755V499.836H623.151C621.338 499.836 619.998 499.415 619.13 498.572C618.288 497.704 617.866 496.274 617.866 494.283V480.535H614.726V479.041H617.866V473.756H619.59V479.041H625.755V480.535H619.59ZM639.07 500.142C637.13 500.142 635.381 499.708 633.824 498.84C632.266 497.972 631.041 496.734 630.147 495.125C629.279 493.491 628.845 491.589 628.845 489.419C628.845 487.275 629.292 485.398 630.185 483.79C631.079 482.156 632.304 480.918 633.862 480.075C635.445 479.207 637.206 478.773 639.147 478.773C641.087 478.773 642.836 479.207 644.393 480.075C645.951 480.918 647.163 482.143 648.032 483.751C648.925 485.36 649.372 487.249 649.372 489.419C649.372 491.589 648.925 493.491 648.032 495.125C647.138 496.734 645.9 497.972 644.317 498.84C642.759 499.708 641.011 500.142 639.07 500.142ZM639.07 498.61C640.577 498.61 641.981 498.279 643.283 497.615C644.61 496.925 645.67 495.891 646.461 494.513C647.253 493.134 647.649 491.436 647.649 489.419C647.649 487.428 647.253 485.743 646.461 484.364C645.67 482.986 644.623 481.964 643.321 481.3C642.019 480.611 640.615 480.266 639.108 480.266C637.602 480.266 636.198 480.611 634.896 481.3C633.619 481.964 632.585 482.986 631.794 484.364C631.002 485.743 630.607 487.428 630.607 489.419C630.607 491.436 630.99 493.134 631.756 494.513C632.547 495.891 633.581 496.925 634.858 497.615C636.16 498.279 637.564 498.61 639.07 498.61ZM655.941 483.33C656.452 481.798 657.358 480.637 658.66 479.845C659.962 479.028 661.622 478.62 663.639 478.62V480.42H663.064C661.022 480.42 659.324 481.007 657.971 482.181C656.618 483.33 655.941 485.219 655.941 487.849V499.836H654.218V479.041H655.941V483.33ZM683.461 479.041L671.359 509.602H669.598L673.466 499.836L664.734 479.041H666.611L674.423 497.921L681.699 479.041H683.461ZM688.073 495.815L684.473 505.619H683.171L686.081 495.815H688.073ZM92.0954 546.419C92.0954 544.275 92.5166 542.398 93.3591 540.79C94.2272 539.181 95.4144 537.943 96.9207 537.075C98.4526 536.207 100.189 535.773 102.129 535.773C104.325 535.773 106.188 536.309 107.72 537.381C109.252 538.454 110.324 539.82 110.937 541.479V536.041H112.661V556.836H110.937V551.36C110.324 553.045 109.239 554.436 107.682 555.534C106.15 556.606 104.299 557.142 102.129 557.142C100.189 557.142 98.4526 556.708 96.9207 555.84C95.4144 554.947 94.2272 553.696 93.3591 552.087C92.5166 550.453 92.0954 548.564 92.0954 546.419ZM110.937 546.419C110.937 544.607 110.554 543.011 109.788 541.632C109.048 540.228 108.027 539.156 106.725 538.415C105.423 537.649 103.967 537.266 102.359 537.266C100.674 537.266 99.193 537.637 97.9164 538.377C96.6399 539.092 95.6442 540.139 94.9293 541.517C94.2144 542.896 93.857 544.53 93.857 546.419C93.857 548.309 94.2144 549.943 94.9293 551.321C95.6442 552.7 96.6399 553.759 97.9164 554.5C99.2185 555.24 100.699 555.61 102.359 555.61C103.967 555.61 105.423 555.24 106.725 554.5C108.052 553.734 109.086 552.662 109.827 551.283C110.567 549.879 110.937 548.258 110.937 546.419ZM121.118 537.535V551.283C121.118 552.815 121.399 553.874 121.961 554.462C122.523 555.023 123.518 555.304 124.948 555.304H127.284V556.836H124.68C122.867 556.836 121.527 556.415 120.659 555.572C119.816 554.704 119.395 553.274 119.395 551.283V537.535H116.255V536.041H119.395V530.756H121.118V536.041H127.284V537.535H121.118ZM133.169 528.497V556.836H131.446V528.497H133.169ZM157.831 545.041C157.831 545.96 157.805 546.649 157.754 547.109H139.793C139.844 548.972 140.253 550.543 141.019 551.819C141.785 553.096 142.793 554.053 144.044 554.691C145.295 555.33 146.661 555.649 148.142 555.649C150.184 555.649 151.895 555.151 153.274 554.155C154.652 553.134 155.52 551.755 155.878 550.019H157.678C157.269 552.138 156.222 553.862 154.537 555.189C152.852 556.491 150.72 557.142 148.142 557.142C146.202 557.142 144.465 556.708 142.934 555.84C141.402 554.972 140.202 553.734 139.334 552.125C138.466 550.491 138.032 548.589 138.032 546.419C138.032 544.249 138.453 542.36 139.295 540.751C140.163 539.143 141.363 537.918 142.895 537.075C144.427 536.207 146.176 535.773 148.142 535.773C150.133 535.773 151.857 536.207 153.312 537.075C154.793 537.918 155.916 539.054 156.682 540.483C157.448 541.888 157.831 543.407 157.831 545.041ZM156.108 545.692C156.184 543.853 155.852 542.296 155.112 541.02C154.397 539.743 153.414 538.798 152.163 538.186C150.912 537.547 149.559 537.228 148.104 537.228C146.648 537.228 145.295 537.547 144.044 538.186C142.819 538.798 141.81 539.743 141.019 541.02C140.253 542.296 139.844 543.853 139.793 545.692H156.108ZM161.584 546.419C161.584 544.275 162.005 542.398 162.848 540.79C163.716 539.181 164.903 537.943 166.409 537.075C167.941 536.207 169.677 535.773 171.618 535.773C173.813 535.773 175.677 536.309 177.209 537.381C178.741 538.454 179.813 539.82 180.426 541.479V536.041H182.149V556.836H180.426V551.36C179.813 553.045 178.728 554.436 177.171 555.534C175.639 556.606 173.788 557.142 171.618 557.142C169.677 557.142 167.941 556.708 166.409 555.84C164.903 554.947 163.716 553.696 162.848 552.087C162.005 550.453 161.584 548.564 161.584 546.419ZM180.426 546.419C180.426 544.607 180.043 543.011 179.277 541.632C178.536 540.228 177.515 539.156 176.213 538.415C174.911 537.649 173.456 537.266 171.847 537.266C170.162 537.266 168.682 537.637 167.405 538.377C166.128 539.092 165.133 540.139 164.418 541.517C163.703 542.896 163.346 544.53 163.346 546.419C163.346 548.309 163.703 549.943 164.418 551.321C165.133 552.7 166.128 553.759 167.405 554.5C168.707 555.24 170.188 555.61 171.847 555.61C173.456 555.61 174.911 555.24 176.213 554.5C177.541 553.734 178.575 552.662 179.315 551.283C180.056 549.879 180.426 548.258 180.426 546.419ZM194.973 557.142C192.649 557.142 190.747 556.632 189.267 555.61C187.811 554.589 186.994 553.134 186.816 551.245H188.577C188.705 552.598 189.318 553.67 190.415 554.462C191.539 555.253 193.058 555.649 194.973 555.649C196.556 555.649 197.807 555.253 198.726 554.462C199.67 553.645 200.143 552.649 200.143 551.474C200.143 550.657 199.887 549.994 199.377 549.483C198.892 548.947 198.279 548.538 197.539 548.258C196.798 547.977 195.79 547.67 194.513 547.338C192.981 546.93 191.743 546.534 190.798 546.151C189.854 545.743 189.05 545.143 188.386 544.351C187.722 543.56 187.39 542.5 187.39 541.173C187.39 540.203 187.684 539.309 188.271 538.492C188.858 537.649 189.675 536.986 190.722 536.501C191.769 536.015 192.956 535.773 194.283 535.773C196.453 535.773 198.202 536.322 199.53 537.42C200.883 538.492 201.611 539.986 201.713 541.9H199.99C199.913 540.522 199.377 539.398 198.381 538.53C197.385 537.662 196.007 537.228 194.245 537.228C192.764 537.228 191.539 537.611 190.569 538.377C189.598 539.143 189.113 540.075 189.113 541.173C189.113 542.143 189.381 542.934 189.918 543.547C190.479 544.134 191.156 544.594 191.947 544.926C192.764 545.232 193.837 545.564 195.164 545.921C196.619 546.304 197.781 546.687 198.649 547.07C199.543 547.428 200.296 547.964 200.909 548.679C201.521 549.368 201.828 550.3 201.828 551.474C201.828 552.547 201.534 553.517 200.947 554.385C200.36 555.253 199.543 555.93 198.496 556.415C197.449 556.9 196.275 557.142 194.973 557.142ZM209.26 537.535V551.283C209.26 552.815 209.541 553.874 210.102 554.462C210.664 555.023 211.66 555.304 213.09 555.304H215.426V556.836H212.822C211.009 556.836 209.668 556.415 208.8 555.572C207.958 554.704 207.537 553.274 207.537 551.283V537.535H204.396V536.041H207.537V530.756H209.26V536.041H215.426V537.535H209.26ZM246.404 531.139H231.698V542.13C232.387 541.16 233.396 540.368 234.723 539.756C236.051 539.117 237.494 538.798 239.051 538.798C241.119 538.798 242.804 539.22 244.106 540.062C245.434 540.879 246.391 541.951 246.978 543.279C247.566 544.607 247.859 546.049 247.859 547.607C247.859 549.343 247.54 550.926 246.902 552.355C246.263 553.759 245.255 554.896 243.876 555.764C242.523 556.606 240.813 557.027 238.745 557.027C236.243 557.027 234.175 556.351 232.541 554.998C230.932 553.619 229.949 551.768 229.592 549.445H231.277C231.66 551.411 232.515 552.917 233.843 553.964C235.17 554.985 236.804 555.496 238.745 555.496C241.221 555.496 243.085 554.781 244.336 553.351C245.587 551.896 246.212 549.994 246.212 547.645C246.212 545.347 245.574 543.547 244.298 542.245C243.047 540.943 241.247 540.292 238.898 540.292C237.289 540.292 235.847 540.649 234.57 541.364C233.319 542.079 232.349 543.062 231.66 544.313H230.051V529.607H246.404V531.139ZM265.809 537.535V551.283C265.809 552.815 266.089 553.874 266.651 554.462C267.213 555.023 268.208 555.304 269.638 555.304H271.974V556.836H269.37C267.557 556.836 266.217 556.415 265.349 555.572C264.506 554.704 264.085 553.274 264.085 551.283V537.535H260.945V536.041H264.085V530.756H265.809V536.041H271.974V537.535H265.809ZM277.017 531.407C276.609 531.407 276.264 531.279 275.983 531.024C275.702 530.743 275.562 530.373 275.562 529.914C275.562 529.48 275.702 529.122 275.983 528.841C276.264 528.56 276.609 528.42 277.017 528.42C277.426 528.42 277.77 528.56 278.051 528.841C278.332 529.122 278.472 529.48 278.472 529.914C278.472 530.373 278.332 530.743 278.051 531.024C277.77 531.279 277.426 531.407 277.017 531.407ZM277.86 536.041V556.836H276.136V536.041H277.86ZM308.38 535.62C310.755 535.62 312.695 536.386 314.201 537.918C315.708 539.424 316.461 541.671 316.461 544.658V556.836H314.776V544.773C314.776 542.296 314.176 540.407 312.976 539.105C311.802 537.777 310.18 537.113 308.112 537.113C305.968 537.113 304.244 537.854 302.942 539.334C301.64 540.815 300.989 542.96 300.989 545.768V556.836H299.304V544.773C299.304 542.296 298.704 540.407 297.504 539.105C296.33 537.777 294.709 537.113 292.641 537.113C290.496 537.113 288.773 537.854 287.471 539.334C286.168 540.815 285.517 542.96 285.517 545.768V556.836H283.794V536.041H285.517V540.56C286.105 538.926 287.049 537.7 288.351 536.884C289.679 536.041 291.198 535.62 292.909 535.62C294.798 535.62 296.419 536.118 297.772 537.113C299.151 538.083 300.096 539.526 300.606 541.441C301.091 539.526 302.036 538.083 303.44 537.113C304.844 536.118 306.491 535.62 308.38 535.62ZM340.921 545.041C340.921 545.96 340.895 546.649 340.844 547.109H322.883C322.934 548.972 323.343 550.543 324.109 551.819C324.874 553.096 325.883 554.053 327.134 554.691C328.385 555.33 329.751 555.649 331.232 555.649C333.274 555.649 334.985 555.151 336.363 554.155C337.742 553.134 338.61 551.755 338.968 550.019H340.767C340.359 552.138 339.312 553.862 337.627 555.189C335.942 556.491 333.81 557.142 331.232 557.142C329.291 557.142 327.555 556.708 326.023 555.84C324.491 554.972 323.292 553.734 322.423 552.125C321.555 550.491 321.121 548.589 321.121 546.419C321.121 544.249 321.543 542.36 322.385 540.751C323.253 539.143 324.453 537.918 325.985 537.075C327.517 536.207 329.266 535.773 331.232 535.773C333.223 535.773 334.946 536.207 336.402 537.075C337.882 537.918 339.006 539.054 339.772 540.483C340.538 541.888 340.921 543.407 340.921 545.041ZM339.197 545.692C339.274 543.853 338.942 542.296 338.202 541.02C337.487 539.743 336.504 538.798 335.253 538.186C334.002 537.547 332.649 537.228 331.193 537.228C329.738 537.228 328.385 537.547 327.134 538.186C325.908 538.798 324.9 539.743 324.109 541.02C323.343 542.296 322.934 543.853 322.883 545.692H339.197ZM352.678 557.142C350.354 557.142 348.452 556.632 346.971 555.61C345.516 554.589 344.699 553.134 344.521 551.245H346.282C346.41 552.598 347.023 553.67 348.12 554.462C349.244 555.253 350.763 555.649 352.678 555.649C354.261 555.649 355.512 555.253 356.431 554.462C357.375 553.645 357.848 552.649 357.848 551.474C357.848 550.657 357.592 549.994 357.082 549.483C356.597 548.947 355.984 548.538 355.244 548.258C354.503 547.977 353.495 547.67 352.218 547.338C350.686 546.93 349.448 546.534 348.503 546.151C347.559 545.743 346.754 545.143 346.091 544.351C345.427 543.56 345.095 542.5 345.095 541.173C345.095 540.203 345.389 539.309 345.976 538.492C346.563 537.649 347.38 536.986 348.427 536.501C349.474 536.015 350.661 535.773 351.988 535.773C354.158 535.773 355.907 536.322 357.235 537.42C358.588 538.492 359.316 539.986 359.418 541.9H357.694C357.618 540.522 357.082 539.398 356.086 538.53C355.09 537.662 353.712 537.228 351.95 537.228C350.469 537.228 349.244 537.611 348.274 538.377C347.303 539.143 346.818 540.075 346.818 541.173C346.818 542.143 347.086 542.934 347.623 543.547C348.184 544.134 348.861 544.594 349.652 544.926C350.469 545.232 351.542 545.564 352.869 545.921C354.324 546.304 355.486 546.687 356.354 547.07C357.248 547.428 358.001 547.964 358.614 548.679C359.226 549.368 359.533 550.3 359.533 551.474C359.533 552.547 359.239 553.517 358.652 554.385C358.065 555.253 357.248 555.93 356.201 556.415C355.154 556.9 353.98 557.142 352.678 557.142ZM364.131 556.951C363.697 556.951 363.34 556.81 363.059 556.53C362.778 556.249 362.637 555.891 362.637 555.457C362.637 555.023 362.778 554.666 363.059 554.385C363.34 554.104 363.697 553.964 364.131 553.964C364.539 553.964 364.884 554.104 365.165 554.385C365.446 554.666 365.586 555.023 365.586 555.457C365.586 555.891 365.446 556.249 365.165 556.53C364.884 556.81 364.539 556.951 364.131 556.951Z" fill="black"/>
<path d="M235.012 207.818L160.417 382.529H120.595L195.751 212.305H99.8426V178.653H235.012V207.818ZM255.723 277.647C255.723 245.303 261.519 219.97 273.11 201.649C284.888 183.327 304.332 174.166 331.44 174.166C358.549 174.166 377.899 183.327 389.49 201.649C401.269 219.97 407.158 245.303 407.158 277.647C407.158 310.177 401.269 335.697 389.49 354.205C377.899 372.714 358.549 381.968 331.44 381.968C304.332 381.968 284.888 372.714 273.11 354.205C261.519 335.697 255.723 310.177 255.723 277.647ZM368.458 277.647C368.458 263.812 367.523 252.22 365.653 242.873C363.971 233.338 360.419 225.579 354.997 219.596C349.762 213.614 341.91 210.623 331.44 210.623C320.971 210.623 313.025 213.614 307.603 219.596C302.369 225.579 298.816 233.338 296.947 242.873C295.264 252.22 294.423 263.812 294.423 277.647C294.423 291.855 295.264 303.821 296.947 313.542C298.629 323.077 302.182 330.836 307.603 336.818C313.025 342.614 320.971 345.512 331.44 345.512C341.91 345.512 349.856 342.614 355.277 336.818C360.699 330.836 364.251 323.077 365.934 313.542C367.616 303.821 368.458 291.855 368.458 277.647ZM429.728 228.29C429.728 214.081 433.842 202.957 442.068 194.918C450.481 186.879 461.231 182.859 474.318 182.859C487.405 182.859 498.061 186.879 506.287 194.918C514.7 202.957 518.907 214.081 518.907 228.29C518.907 242.686 514.7 253.903 506.287 261.942C498.061 269.981 487.405 274.001 474.318 274.001C461.231 274.001 450.481 269.981 442.068 261.942C433.842 253.903 429.728 242.686 429.728 228.29ZM609.768 186.225L499.557 382.529H461.418L571.348 186.225H609.768ZM474.037 206.416C463.755 206.416 458.613 213.707 458.613 228.29C458.613 243.06 463.755 250.444 474.037 250.444C479.085 250.444 483.011 248.668 485.816 245.116C488.62 241.377 490.022 235.768 490.022 228.29C490.022 213.707 484.694 206.416 474.037 206.416ZM552.84 340.184C552.84 325.788 556.953 314.664 565.179 306.812C573.592 298.773 584.342 294.753 597.429 294.753C610.516 294.753 621.079 298.773 629.118 306.812C637.344 314.664 641.457 325.788 641.457 340.184C641.457 354.579 637.344 365.797 629.118 373.836C621.079 381.875 610.516 385.895 597.429 385.895C584.155 385.895 573.405 381.875 565.179 373.836C556.953 365.797 552.84 354.579 552.84 340.184ZM597.148 318.31C586.492 318.31 581.163 325.601 581.163 340.184C581.163 354.953 586.492 362.338 597.148 362.338C607.618 362.338 612.853 354.953 612.853 340.184C612.853 325.601 607.618 318.31 597.148 318.31Z" fill="#1104AC"/>
</svg>
