<svg width="702" height="612" viewBox="0 0 702 612" fill="none" xmlns="http://www.w3.org/2000/svg">
<path opacity="0.15" fill-rule="evenodd" clip-rule="evenodd" d="M606.678 241.26C616.08 299.234 669.192 351.803 644.197 408.604C618.993 465.877 546.669 495.336 484.061 519.897C427.683 542.013 366.13 552.481 309.456 539.917C257.622 528.425 230.537 483.273 189.022 454.49C141.908 421.823 74.168 409.728 50.0889 360.086C23.424 305.114 9.80829 228.544 55.1916 178.583C101.83 127.24 192.084 157.177 258.514 130.638C312.059 109.246 343.654 51.474 400.078 40.7998C466.05 28.3191 545.611 26.0447 588.976 68.1212C632.287 110.145 597.186 182.732 606.678 241.26Z" fill="#EEA7FF"/>
<path d="M96.8263 379.421C94.3498 379.421 92.1158 378.846 90.1244 377.697C88.133 376.523 86.5756 374.889 85.4523 372.795C84.3289 370.702 83.7672 368.34 83.7672 365.711C83.7672 363.055 84.3289 360.694 85.4523 358.626C86.5756 356.532 88.133 354.911 90.1244 353.762C92.1158 352.588 94.3498 352 96.8263 352C99.3028 352 101.537 352.588 103.528 353.762C105.52 354.911 107.077 356.532 108.2 358.626C109.324 360.694 109.885 363.055 109.885 365.711C109.885 368.34 109.324 370.702 108.2 372.795C107.077 374.889 105.52 376.523 103.528 377.697C101.537 378.846 99.3028 379.421 96.8263 379.421ZM96.8263 377.889C98.9454 377.889 100.86 377.391 102.571 376.395C104.281 375.4 105.622 373.983 106.592 372.144C107.588 370.306 108.085 368.161 108.085 365.711C108.085 363.234 107.588 361.077 106.592 359.238C105.622 357.4 104.281 355.983 102.571 354.988C100.86 353.992 98.9454 353.494 96.8263 353.494C94.7072 353.494 92.7924 353.992 91.0818 354.988C89.3713 355.983 88.0181 357.4 87.0224 359.238C86.0267 361.077 85.5289 363.234 85.5289 365.711C85.5289 368.161 86.0267 370.306 87.0224 372.144C88.0181 373.983 89.3713 375.4 91.0818 376.395C92.7924 377.391 94.7072 377.889 96.8263 377.889ZM122.64 359.851H117.24V379.114H115.516V359.851H112.376V358.319H115.516V356.864C115.516 354.694 116.065 353.085 117.163 352.039C118.261 350.966 120.061 350.43 122.563 350.43V351.962C120.572 351.962 119.18 352.345 118.389 353.111C117.623 353.877 117.24 355.128 117.24 356.864V358.319H122.64V359.851ZM137.977 353.685C137.569 353.685 137.224 353.558 136.943 353.302C136.662 353.022 136.522 352.651 136.522 352.192C136.522 351.758 136.662 351.4 136.943 351.12C137.224 350.839 137.569 350.698 137.977 350.698C138.385 350.698 138.73 350.839 139.011 351.12C139.292 351.4 139.432 351.758 139.432 352.192C139.432 352.651 139.292 353.022 139.011 353.302C138.73 353.558 138.385 353.685 137.977 353.685ZM138.82 358.319V379.114H137.096V358.319H138.82ZM154.137 357.898C156.613 357.898 158.63 358.664 160.187 360.196C161.745 361.702 162.524 363.949 162.524 366.936V379.114H160.838V367.051C160.838 364.574 160.213 362.685 158.962 361.383C157.711 360.055 156.013 359.392 153.869 359.392C151.622 359.392 149.822 360.106 148.469 361.536C147.141 362.966 146.477 365.085 146.477 367.893V379.114H144.754V358.319H146.477V362.723C147.065 361.166 148.035 359.979 149.388 359.162C150.767 358.319 152.349 357.898 154.137 357.898ZM175.278 377.238L182.937 358.319H184.776L176.159 379.114H174.359L165.742 358.319H167.619L175.278 377.238ZM206.92 367.319C206.92 368.238 206.895 368.927 206.844 369.387H188.883C188.934 371.251 189.342 372.821 190.108 374.097C190.874 375.374 191.883 376.331 193.134 376.97C194.385 377.608 195.751 377.927 197.231 377.927C199.274 377.927 200.984 377.429 202.363 376.434C203.742 375.412 204.61 374.034 204.967 372.297H206.767C206.359 374.417 205.312 376.14 203.627 377.468C201.942 378.77 199.81 379.421 197.231 379.421C195.291 379.421 193.555 378.987 192.023 378.119C190.491 377.25 189.291 376.012 188.423 374.404C187.555 372.77 187.121 370.868 187.121 368.698C187.121 366.528 187.542 364.638 188.385 363.03C189.253 361.421 190.453 360.196 191.985 359.353C193.517 358.485 195.266 358.051 197.231 358.051C199.223 358.051 200.946 358.485 202.401 359.353C203.882 360.196 205.006 361.332 205.772 362.762C206.537 364.166 206.92 365.685 206.92 367.319ZM205.197 367.97C205.274 366.132 204.942 364.574 204.201 363.298C203.487 362.021 202.504 361.077 201.253 360.464C200.002 359.826 198.648 359.506 197.193 359.506C195.738 359.506 194.385 359.826 193.134 360.464C191.908 361.077 190.9 362.021 190.108 363.298C189.342 364.574 188.934 366.132 188.883 367.97H205.197ZM221.128 357.898C223.605 357.898 225.622 358.664 227.179 360.196C228.737 361.702 229.515 363.949 229.515 366.936V379.114H227.83V367.051C227.83 364.574 227.205 362.685 225.954 361.383C224.703 360.055 223.005 359.392 220.86 359.392C218.614 359.392 216.814 360.106 215.461 361.536C214.133 362.966 213.469 365.085 213.469 367.893V379.114H211.746V358.319H213.469V362.723C214.056 361.166 215.026 359.979 216.38 359.162C217.758 358.319 219.341 357.898 221.128 357.898ZM237.789 359.813V373.561C237.789 375.093 238.07 376.153 238.632 376.74C239.193 377.302 240.189 377.582 241.619 377.582H243.955V379.114H241.351C239.538 379.114 238.198 378.693 237.33 377.85C236.487 376.982 236.066 375.553 236.066 373.561V359.813H232.925V358.319H236.066V353.034H237.789V358.319H243.955V359.813H237.789ZM257.27 379.421C255.329 379.421 253.581 378.987 252.023 378.119C250.466 377.25 249.24 376.012 248.347 374.404C247.479 372.77 247.045 370.868 247.045 368.698C247.045 366.553 247.491 364.677 248.385 363.068C249.279 361.434 250.504 360.196 252.061 359.353C253.644 358.485 255.406 358.051 257.346 358.051C259.287 358.051 261.036 358.485 262.593 359.353C264.15 360.196 265.363 361.421 266.231 363.03C267.125 364.638 267.571 366.528 267.571 368.698C267.571 370.868 267.125 372.77 266.231 374.404C265.338 376.012 264.099 377.25 262.516 378.119C260.959 378.987 259.21 379.421 257.27 379.421ZM257.27 377.889C258.776 377.889 260.18 377.557 261.482 376.893C262.81 376.204 263.869 375.17 264.661 373.791C265.452 372.412 265.848 370.715 265.848 368.698C265.848 366.706 265.452 365.021 264.661 363.643C263.869 362.264 262.823 361.243 261.521 360.579C260.219 359.889 258.814 359.545 257.308 359.545C255.802 359.545 254.398 359.889 253.095 360.579C251.819 361.243 250.785 362.264 249.993 363.643C249.202 365.021 248.806 366.706 248.806 368.698C248.806 370.715 249.189 372.412 249.955 373.791C250.747 375.17 251.781 376.204 253.057 376.893C254.359 377.557 255.763 377.889 257.27 377.889ZM274.141 362.609C274.651 361.077 275.557 359.915 276.86 359.124C278.162 358.307 279.821 357.898 281.838 357.898V359.698H281.264C279.221 359.698 277.523 360.285 276.17 361.46C274.817 362.609 274.141 364.498 274.141 367.127V379.114H272.417V358.319H274.141V362.609ZM301.661 358.319L289.559 388.88H287.797L291.665 379.114L282.934 358.319H284.81L292.623 377.199L299.899 358.319H301.661ZM320.374 361.574V373.255C320.374 374.046 320.553 374.621 320.91 374.978C321.293 375.31 321.931 375.476 322.825 375.476H325.506V379.114H322.059C320.093 379.114 318.587 378.655 317.54 377.736C316.493 376.816 315.97 375.323 315.97 373.255V361.574H313.481V358.013H315.97V352.766H320.374V358.013H325.506V361.574H320.374ZM340.061 357.668C341.669 357.668 343.099 358.013 344.35 358.702C345.627 359.392 346.622 360.413 347.337 361.766C348.078 363.119 348.448 364.753 348.448 366.668V379.114H344.12V367.319C344.12 365.43 343.648 363.987 342.703 362.991C341.759 361.97 340.469 361.46 338.835 361.46C337.201 361.46 335.899 361.97 334.929 362.991C333.985 363.987 333.512 365.43 333.512 367.319V379.114H329.146V350.775H333.512V360.464C334.253 359.57 335.185 358.881 336.308 358.396C337.457 357.911 338.708 357.668 340.061 357.668ZM357.999 361.077C358.638 360.004 359.48 359.175 360.527 358.587C361.599 357.975 362.863 357.668 364.318 357.668V362.187H363.208C361.497 362.187 360.195 362.621 359.302 363.489C358.434 364.357 357.999 365.864 357.999 368.008V379.114H353.634V358.013H357.999V361.077ZM377.101 379.459C375.11 379.459 373.31 379.012 371.702 378.119C370.093 377.199 368.829 375.923 367.91 374.289C366.991 372.629 366.531 370.715 366.531 368.544C366.531 366.4 367.004 364.498 367.948 362.838C368.893 361.179 370.182 359.902 371.816 359.009C373.45 358.115 375.276 357.668 377.293 357.668C379.31 357.668 381.135 358.115 382.769 359.009C384.403 359.902 385.692 361.179 386.637 362.838C387.582 364.498 388.054 366.4 388.054 368.544C388.054 370.689 387.569 372.591 386.599 374.251C385.629 375.91 384.301 377.199 382.616 378.119C380.956 379.012 379.118 379.459 377.101 379.459ZM377.101 375.668C378.225 375.668 379.271 375.4 380.242 374.863C381.237 374.327 382.042 373.523 382.654 372.451C383.267 371.378 383.573 370.076 383.573 368.544C383.573 367.013 383.28 365.723 382.693 364.677C382.105 363.604 381.327 362.8 380.357 362.264C379.386 361.728 378.34 361.46 377.216 361.46C376.093 361.46 375.046 361.728 374.076 362.264C373.131 362.8 372.378 363.604 371.816 364.677C371.255 365.723 370.974 367.013 370.974 368.544C370.974 370.817 371.548 372.578 372.697 373.829C373.872 375.055 375.34 375.668 377.101 375.668ZM420.326 358.013L413.778 379.114H409.182L404.931 363.528L400.68 379.114H396.085L389.498 358.013H393.94L398.344 374.978L402.825 358.013H407.382L411.671 374.902L416.037 358.013H420.326ZM433.852 357.668C435.512 357.668 436.993 358.013 438.295 358.702C439.622 359.392 440.656 360.413 441.397 361.766C442.137 363.119 442.507 364.753 442.507 366.668V379.114H438.18V367.319C438.18 365.43 437.708 363.987 436.763 362.991C435.818 361.97 434.529 361.46 432.895 361.46C431.261 361.46 429.959 361.97 428.989 362.991C428.044 363.987 427.572 365.43 427.572 367.319V379.114H423.206V358.013H427.572V360.426C428.287 359.558 429.193 358.881 430.291 358.396C431.414 357.911 432.601 357.668 433.852 357.668ZM467.54 379.421C465.599 379.421 463.85 378.987 462.293 378.119C460.736 377.25 459.51 376.012 458.616 374.404C457.748 372.77 457.314 370.868 457.314 368.698C457.314 366.553 457.761 364.677 458.655 363.068C459.548 361.434 460.774 360.196 462.331 359.353C463.914 358.485 465.676 358.051 467.616 358.051C469.556 358.051 471.305 358.485 472.863 359.353C474.42 360.196 475.633 361.421 476.501 363.03C477.394 364.638 477.841 366.528 477.841 368.698C477.841 370.868 477.394 372.77 476.501 374.404C475.607 376.012 474.369 377.25 472.786 378.119C471.229 378.987 469.48 379.421 467.54 379.421ZM467.54 377.889C469.046 377.889 470.45 377.557 471.752 376.893C473.08 376.204 474.139 375.17 474.931 373.791C475.722 372.412 476.118 370.715 476.118 368.698C476.118 366.706 475.722 365.021 474.931 363.643C474.139 362.264 473.092 361.243 471.79 360.579C470.488 359.889 469.084 359.545 467.578 359.545C466.071 359.545 464.667 359.889 463.365 360.579C462.089 361.243 461.055 362.264 460.263 363.643C459.472 365.021 459.076 366.706 459.076 368.698C459.076 370.715 459.459 372.412 460.225 373.791C461.016 375.17 462.05 376.204 463.327 376.893C464.629 377.557 466.033 377.889 467.54 377.889ZM500.265 358.319V379.114H498.542V374.595C497.954 376.178 496.972 377.391 495.593 378.233C494.24 379.05 492.682 379.459 490.921 379.459C488.444 379.459 486.414 378.706 484.832 377.199C483.274 375.668 482.495 373.408 482.495 370.421V358.319H484.18V370.306C484.18 372.783 484.806 374.685 486.057 376.012C487.308 377.314 489.006 377.965 491.15 377.965C493.397 377.965 495.184 377.25 496.512 375.821C497.865 374.391 498.542 372.272 498.542 369.464V358.319H500.265ZM508.73 359.813V373.561C508.73 375.093 509.011 376.153 509.573 376.74C510.135 377.302 511.13 377.582 512.56 377.582H514.896V379.114H512.292C510.479 379.114 509.139 378.693 508.271 377.85C507.428 376.982 507.007 375.553 507.007 373.561V359.813H503.867V358.319H507.007V353.034H508.73V358.319H514.896V359.813H508.73ZM528.411 368.698C528.411 366.553 528.832 364.677 529.675 363.068C530.543 361.46 531.73 360.221 533.236 359.353C534.768 358.485 536.504 358.051 538.445 358.051C540.64 358.051 542.504 358.587 544.036 359.66C545.593 360.732 546.666 362.098 547.253 363.757V358.319H548.976V388.918H547.253V373.676C546.666 375.336 545.593 376.714 544.036 377.812C542.479 378.884 540.602 379.421 538.406 379.421C536.492 379.421 534.768 378.987 533.236 378.119C531.73 377.225 530.543 375.974 529.675 374.366C528.832 372.732 528.411 370.842 528.411 368.698ZM547.253 368.698C547.253 366.885 546.87 365.289 546.104 363.911C545.364 362.506 544.342 361.434 543.04 360.694C541.738 359.928 540.283 359.545 538.674 359.545C536.989 359.545 535.509 359.915 534.232 360.655C532.956 361.37 531.96 362.417 531.245 363.796C530.53 365.174 530.173 366.808 530.173 368.698C530.173 370.587 530.53 372.221 531.245 373.6C531.96 374.978 532.956 376.038 534.232 376.778C535.534 377.519 537.015 377.889 538.674 377.889C540.283 377.889 541.738 377.519 543.04 376.778C544.368 376.012 545.402 374.94 546.142 373.561C546.883 372.157 547.253 370.536 547.253 368.698ZM572.446 358.319V379.114H570.723V374.595C570.136 376.178 569.153 377.391 567.774 378.233C566.421 379.05 564.864 379.459 563.102 379.459C560.625 379.459 558.596 378.706 557.013 377.199C555.455 375.668 554.677 373.408 554.677 370.421V358.319H556.362V370.306C556.362 372.783 556.987 374.685 558.238 376.012C559.489 377.314 561.187 377.965 563.332 377.965C565.578 377.965 567.366 377.25 568.693 375.821C570.046 374.391 570.723 372.272 570.723 369.464V358.319H572.446ZM577.273 368.698C577.273 366.553 577.695 364.677 578.537 363.068C579.405 361.46 580.592 360.221 582.099 359.353C583.631 358.485 585.367 358.051 587.307 358.051C589.503 358.051 591.366 358.587 592.898 359.66C594.43 360.732 595.502 362.098 596.115 363.757V358.319H597.839V379.114H596.115V373.638C595.502 375.323 594.417 376.714 592.86 377.812C591.328 378.884 589.477 379.421 587.307 379.421C585.367 379.421 583.631 378.987 582.099 378.119C580.592 377.225 579.405 375.974 578.537 374.366C577.695 372.732 577.273 370.842 577.273 368.698ZM596.115 368.698C596.115 366.885 595.732 365.289 594.966 363.911C594.226 362.506 593.205 361.434 591.903 360.694C590.601 359.928 589.145 359.545 587.537 359.545C585.852 359.545 584.371 359.915 583.094 360.655C581.818 361.37 580.822 362.417 580.107 363.796C579.392 365.174 579.035 366.808 579.035 368.698C579.035 370.587 579.392 372.221 580.107 373.6C580.822 374.978 581.818 376.038 583.094 376.778C584.397 377.519 585.877 377.889 587.537 377.889C589.145 377.889 590.601 377.519 591.903 376.778C593.23 376.012 594.264 374.94 595.005 373.561C595.745 372.157 596.115 370.536 596.115 368.698ZM605.454 362.609C605.964 361.077 606.871 359.915 608.173 359.124C609.475 358.307 611.134 357.898 613.151 357.898V359.698H612.577C610.535 359.698 608.837 360.285 607.484 361.46C606.13 362.609 605.454 364.498 605.454 367.127V379.114H603.731V358.319H605.454V362.609ZM619.302 359.813V373.561C619.302 375.093 619.583 376.153 620.145 376.74C620.706 377.302 621.702 377.582 623.132 377.582H625.468V379.114H622.864C621.051 379.114 619.711 378.693 618.843 377.85C618 376.982 617.579 375.553 617.579 373.561V359.813H614.439V358.319H617.579V353.034H619.302V358.319H625.468V359.813H619.302ZM648.357 367.319C648.357 368.238 648.331 368.927 648.28 369.387H630.319C630.37 371.251 630.779 372.821 631.545 374.097C632.311 375.374 633.319 376.331 634.57 376.97C635.821 377.608 637.187 377.927 638.668 377.927C640.71 377.927 642.421 377.429 643.8 376.434C645.178 375.412 646.046 374.034 646.404 372.297H648.204C647.795 374.417 646.748 376.14 645.063 377.468C643.378 378.77 641.247 379.421 638.668 379.421C636.728 379.421 634.991 378.987 633.46 378.119C631.928 377.25 630.728 376.012 629.86 374.404C628.992 372.77 628.558 370.868 628.558 368.698C628.558 366.528 628.979 364.638 629.821 363.03C630.69 361.421 631.889 360.196 633.421 359.353C634.953 358.485 636.702 358.051 638.668 358.051C640.659 358.051 642.383 358.485 643.838 359.353C645.319 360.196 646.442 361.332 647.208 362.762C647.974 364.166 648.357 365.685 648.357 367.319ZM646.634 367.97C646.71 366.132 646.378 364.574 645.638 363.298C644.923 362.021 643.94 361.077 642.689 360.464C641.438 359.826 640.085 359.506 638.63 359.506C637.174 359.506 635.821 359.826 634.57 360.464C633.345 361.077 632.336 362.021 631.545 363.298C630.779 364.574 630.37 366.132 630.319 367.97H646.634ZM654.906 362.609C655.416 361.077 656.323 359.915 657.625 359.124C658.927 358.307 660.586 357.898 662.603 357.898V359.698H662.029C659.986 359.698 658.288 360.285 656.935 361.46C655.582 362.609 654.906 364.498 654.906 367.127V379.114H653.182V358.319H654.906V362.609ZM667.911 350.775V379.114H666.188V350.775H667.911ZM690.084 358.319L677.982 388.88H676.22L680.088 379.114L671.357 358.319H673.233L681.046 377.199L688.322 358.319H690.084ZM83.7672 416.698C83.7672 414.553 84.1885 412.677 85.031 411.068C85.8991 409.46 87.0862 408.221 88.5926 407.353C90.1244 406.485 91.8605 406.051 93.8009 406.051C95.9965 406.051 97.8603 406.587 99.3922 407.66C100.924 408.732 101.996 410.098 102.609 411.757V406.319H104.332V427.114H102.609V421.638C101.996 423.323 100.911 424.714 99.3539 425.812C97.822 426.884 95.971 427.421 93.8009 427.421C91.8605 427.421 90.1244 426.987 88.5926 426.119C87.0862 425.225 85.8991 423.974 85.031 422.366C84.1885 420.732 83.7672 418.842 83.7672 416.698ZM102.609 416.698C102.609 414.885 102.226 413.289 101.46 411.911C100.72 410.506 99.6985 409.434 98.3965 408.694C97.0944 407.928 95.6391 407.545 94.0307 407.545C92.3456 407.545 90.8648 407.915 89.5883 408.655C88.3117 409.37 87.316 410.417 86.6012 411.796C85.8863 413.174 85.5289 414.808 85.5289 416.698C85.5289 418.587 85.8863 420.221 86.6012 421.6C87.316 422.978 88.3117 424.038 89.5883 424.778C90.8904 425.519 92.3712 425.889 94.0307 425.889C95.6391 425.889 97.0944 425.519 98.3965 424.778C99.7241 424.012 100.758 422.94 101.498 421.561C102.239 420.157 102.609 418.536 102.609 416.698ZM118.152 407.851H112.752V427.114H111.029V407.851H107.888V406.319H111.029V404.864C111.029 402.694 111.578 401.085 112.675 400.039C113.773 398.966 115.573 398.43 118.075 398.43V399.962C116.084 399.962 114.692 400.345 113.901 401.111C113.135 401.877 112.752 403.128 112.752 404.864V406.319H118.152V407.851ZM124.749 407.813V421.561C124.749 423.093 125.03 424.153 125.591 424.74C126.153 425.302 127.149 425.582 128.579 425.582H130.915V427.114H128.31C126.498 427.114 125.157 426.693 124.289 425.85C123.447 424.982 123.026 423.553 123.026 421.561V407.813H119.885V406.319H123.026V401.034H124.749V406.319H130.915V407.813H124.749ZM153.804 415.319C153.804 416.238 153.778 416.927 153.727 417.387H135.766C135.817 419.251 136.226 420.821 136.991 422.097C137.757 423.374 138.766 424.331 140.017 424.97C141.268 425.608 142.634 425.927 144.115 425.927C146.157 425.927 147.868 425.429 149.246 424.434C150.625 423.412 151.493 422.034 151.85 420.297H153.65C153.242 422.417 152.195 424.14 150.51 425.468C148.825 426.77 146.693 427.421 144.115 427.421C142.174 427.421 140.438 426.987 138.906 426.119C137.374 425.25 136.174 424.012 135.306 422.404C134.438 420.77 134.004 418.868 134.004 416.698C134.004 414.528 134.426 412.638 135.268 411.03C136.136 409.421 137.336 408.196 138.868 407.353C140.4 406.485 142.149 406.051 144.115 406.051C146.106 406.051 147.829 406.485 149.285 407.353C150.765 408.196 151.889 409.332 152.655 410.762C153.421 412.166 153.804 413.685 153.804 415.319ZM152.08 415.97C152.157 414.132 151.825 412.574 151.085 411.298C150.37 410.021 149.387 409.077 148.136 408.464C146.885 407.826 145.532 407.506 144.076 407.506C142.621 407.506 141.268 407.826 140.017 408.464C138.791 409.077 137.783 410.021 136.991 411.298C136.226 412.574 135.817 414.132 135.766 415.97H152.08ZM160.352 410.609C160.863 409.077 161.769 407.915 163.071 407.124C164.373 406.307 166.033 405.898 168.05 405.898V407.698H167.475C165.433 407.698 163.735 408.285 162.382 409.46C161.029 410.609 160.352 412.498 160.352 415.127V427.114H158.629V406.319H160.352V410.609ZM206.646 405.898C209.021 405.898 210.961 406.664 212.467 408.196C213.974 409.702 214.727 411.949 214.727 414.936V427.114H213.042V415.051C213.042 412.574 212.442 410.685 211.242 409.383C210.068 408.055 208.446 407.392 206.378 407.392C204.234 407.392 202.51 408.132 201.208 409.613C199.906 411.094 199.255 413.238 199.255 416.047V427.114H197.57V415.051C197.57 412.574 196.97 410.685 195.77 409.383C194.596 408.055 192.975 407.392 190.907 407.392C188.762 407.392 187.039 408.132 185.737 409.613C184.434 411.094 183.783 413.238 183.783 416.047V427.114H182.06V406.319H183.783V410.838C184.371 409.204 185.315 407.979 186.617 407.162C187.945 406.319 189.464 405.898 191.175 405.898C193.064 405.898 194.685 406.396 196.038 407.392C197.417 408.362 198.362 409.804 198.872 411.719C199.357 409.804 200.302 408.362 201.706 407.392C203.11 406.396 204.757 405.898 206.646 405.898ZM219.387 416.698C219.387 414.553 219.809 412.677 220.651 411.068C221.519 409.46 222.706 408.221 224.213 407.353C225.745 406.485 227.481 406.051 229.421 406.051C231.617 406.051 233.48 406.587 235.012 407.66C236.544 408.732 237.616 410.098 238.229 411.757V406.319H239.953V427.114H238.229V421.638C237.616 423.323 236.531 424.714 234.974 425.812C233.442 426.884 231.591 427.421 229.421 427.421C227.481 427.421 225.745 426.987 224.213 426.119C222.706 425.225 221.519 423.974 220.651 422.366C219.809 420.732 219.387 418.842 219.387 416.698ZM238.229 416.698C238.229 414.885 237.846 413.289 237.08 411.911C236.34 410.506 235.319 409.434 234.017 408.694C232.715 407.928 231.259 407.545 229.651 407.545C227.966 407.545 226.485 407.915 225.208 408.655C223.932 409.37 222.936 410.417 222.221 411.796C221.506 413.174 221.149 414.808 221.149 416.698C221.149 418.587 221.506 420.221 222.221 421.6C222.936 422.978 223.932 424.038 225.208 424.778C226.511 425.519 227.991 425.889 229.651 425.889C231.259 425.889 232.715 425.519 234.017 424.778C235.344 424.012 236.378 422.94 237.119 421.561C237.859 420.157 238.229 418.536 238.229 416.698ZM255.227 405.898C257.704 405.898 259.721 406.664 261.278 408.196C262.835 409.702 263.614 411.949 263.614 414.936V427.114H261.929V415.051C261.929 412.574 261.304 410.685 260.053 409.383C258.802 408.055 257.104 407.392 254.959 407.392C252.712 407.392 250.912 408.106 249.559 409.536C248.232 410.966 247.568 413.085 247.568 415.893V427.114H245.845V406.319H247.568V410.723C248.155 409.166 249.125 407.979 250.478 407.162C251.857 406.319 253.44 405.898 255.227 405.898ZM286.9 406.319V427.114H285.177V422.595C284.59 424.178 283.607 425.391 282.228 426.233C280.875 427.05 279.317 427.459 277.556 427.459C275.079 427.459 273.05 426.706 271.467 425.199C269.909 423.668 269.131 421.408 269.131 418.421V406.319H270.816V418.306C270.816 420.783 271.441 422.685 272.692 424.012C273.943 425.314 275.641 425.965 277.786 425.965C280.032 425.965 281.819 425.25 283.147 423.821C284.5 422.391 285.177 420.272 285.177 417.464V406.319H286.9ZM291.727 416.698C291.727 414.553 292.149 412.677 292.991 411.068C293.859 409.46 295.046 408.221 296.553 407.353C298.084 406.485 299.821 406.051 301.761 406.051C303.957 406.051 305.82 406.587 307.352 407.66C308.884 408.732 309.956 410.098 310.569 411.757V406.319H312.292V427.114H310.569V421.638C309.956 423.323 308.871 424.714 307.314 425.812C305.782 426.884 303.931 427.421 301.761 427.421C299.821 427.421 298.084 426.987 296.553 426.119C295.046 425.225 293.859 423.974 292.991 422.366C292.149 420.732 291.727 418.842 291.727 416.698ZM310.569 416.698C310.569 414.885 310.186 413.289 309.42 411.911C308.68 410.506 307.659 409.434 306.356 408.694C305.054 407.928 303.599 407.545 301.991 407.545C300.306 407.545 298.825 407.915 297.548 408.655C296.272 409.37 295.276 410.417 294.561 411.796C293.846 413.174 293.489 414.808 293.489 416.698C293.489 418.587 293.846 420.221 294.561 421.6C295.276 422.978 296.272 424.038 297.548 424.778C298.85 425.519 300.331 425.889 301.991 425.889C303.599 425.889 305.054 425.519 306.356 424.778C307.684 424.012 308.718 422.94 309.458 421.561C310.199 420.157 310.569 418.536 310.569 416.698ZM319.908 398.775V427.114H318.184V398.775H319.908ZM337.148 401.685C336.74 401.685 336.395 401.558 336.114 401.302C335.833 401.022 335.693 400.651 335.693 400.192C335.693 399.758 335.833 399.4 336.114 399.12C336.395 398.839 336.74 398.698 337.148 398.698C337.557 398.698 337.901 398.839 338.182 399.12C338.463 399.4 338.604 399.758 338.604 400.192C338.604 400.651 338.463 401.022 338.182 401.302C337.901 401.558 337.557 401.685 337.148 401.685ZM337.991 406.319V427.114H336.267V406.319H337.991ZM353.308 405.898C355.784 405.898 357.801 406.664 359.359 408.196C360.916 409.702 361.695 411.949 361.695 414.936V427.114H360.01V415.051C360.01 412.574 359.384 410.685 358.133 409.383C356.882 408.055 355.184 407.392 353.04 407.392C350.793 407.392 348.993 408.106 347.64 409.536C346.312 410.966 345.649 413.085 345.649 415.893V427.114H343.925V406.319H345.649V410.723C346.236 409.166 347.206 407.979 348.559 407.162C349.938 406.319 351.521 405.898 353.308 405.898ZM374.449 425.238L382.109 406.319H383.947L375.33 427.114H373.53L364.913 406.319H366.79L374.449 425.238ZM406.092 415.319C406.092 416.238 406.066 416.927 406.015 417.387H388.054C388.105 419.251 388.514 420.821 389.28 422.097C390.046 423.374 391.054 424.331 392.305 424.97C393.556 425.608 394.922 425.927 396.403 425.927C398.445 425.927 400.156 425.429 401.534 424.434C402.913 423.412 403.781 422.034 404.139 420.297H405.939C405.53 422.417 404.483 424.14 402.798 425.468C401.113 426.77 398.981 427.421 396.403 427.421C394.462 427.421 392.726 426.987 391.194 426.119C389.663 425.25 388.463 424.012 387.595 422.404C386.726 420.77 386.292 418.868 386.292 416.698C386.292 414.528 386.714 412.638 387.556 411.03C388.424 409.421 389.624 408.196 391.156 407.353C392.688 406.485 394.437 406.051 396.403 406.051C398.394 406.051 400.117 406.485 401.573 407.353C403.054 408.196 404.177 409.332 404.943 410.762C405.709 412.166 406.092 413.685 406.092 415.319ZM404.368 415.97C404.445 414.132 404.113 412.574 403.373 411.298C402.658 410.021 401.675 409.077 400.424 408.464C399.173 407.826 397.82 407.506 396.364 407.506C394.909 407.506 393.556 407.826 392.305 408.464C391.08 409.077 390.071 410.021 389.28 411.298C388.514 412.574 388.105 414.132 388.054 415.97H404.368ZM420.3 405.898C422.776 405.898 424.793 406.664 426.351 408.196C427.908 409.702 428.687 411.949 428.687 414.936V427.114H427.002V415.051C427.002 412.574 426.376 410.685 425.125 409.383C423.874 408.055 422.176 407.392 420.032 407.392C417.785 407.392 415.985 408.106 414.632 409.536C413.304 410.966 412.64 413.085 412.64 415.893V427.114H410.917V406.319H412.64V410.723C413.228 409.166 414.198 407.979 415.551 407.162C416.93 406.319 418.513 405.898 420.3 405.898ZM436.96 407.813V421.561C436.96 423.093 437.241 424.153 437.803 424.74C438.365 425.302 439.36 425.582 440.79 425.582H443.126V427.114H440.522C438.709 427.114 437.369 426.693 436.501 425.85C435.658 424.982 435.237 423.553 435.237 421.561V407.813H432.097V406.319H435.237V401.034H436.96V406.319H443.126V407.813H436.96ZM456.441 427.421C454.501 427.421 452.752 426.987 451.194 426.119C449.637 425.25 448.412 424.012 447.518 422.404C446.65 420.77 446.216 418.868 446.216 416.698C446.216 414.553 446.663 412.677 447.556 411.068C448.45 409.434 449.675 408.196 451.233 407.353C452.816 406.485 454.577 406.051 456.518 406.051C458.458 406.051 460.207 406.485 461.764 407.353C463.322 408.196 464.534 409.421 465.402 411.03C466.296 412.638 466.743 414.528 466.743 416.698C466.743 418.868 466.296 420.77 465.402 422.404C464.509 424.012 463.271 425.25 461.688 426.119C460.13 426.987 458.381 427.421 456.441 427.421ZM456.441 425.889C457.947 425.889 459.352 425.557 460.654 424.893C461.981 424.204 463.041 423.17 463.832 421.791C464.624 420.412 465.019 418.715 465.019 416.698C465.019 414.706 464.624 413.021 463.832 411.643C463.041 410.264 461.994 409.243 460.692 408.579C459.39 407.889 457.986 407.545 456.479 407.545C454.973 407.545 453.569 407.889 452.267 408.579C450.99 409.243 449.956 410.264 449.165 411.643C448.373 413.021 447.978 414.706 447.978 416.698C447.978 418.715 448.36 420.412 449.126 421.791C449.918 423.17 450.952 424.204 452.228 424.893C453.531 425.557 454.935 425.889 456.441 425.889ZM473.312 410.609C473.822 409.077 474.729 407.915 476.031 407.124C477.333 406.307 478.992 405.898 481.009 405.898V407.698H480.435C478.392 407.698 476.695 408.285 475.342 409.46C473.988 410.609 473.312 412.498 473.312 415.127V427.114H471.588V406.319H473.312V410.609ZM500.832 406.319L488.73 436.88H486.969L490.837 427.114L482.105 406.319H483.982L491.794 425.199L499.07 406.319H500.832ZM513.648 416.698C513.648 414.528 514.069 412.638 514.911 411.03C515.779 409.421 516.967 408.196 518.473 407.353C520.005 406.485 521.754 406.051 523.719 406.051C526.324 406.051 528.455 406.702 530.115 408.004C531.8 409.306 532.847 411.055 533.255 413.251H531.455C531.123 411.464 530.255 410.06 528.851 409.038C527.473 408.017 525.762 407.506 523.719 407.506C522.188 407.506 520.796 407.851 519.545 408.54C518.294 409.204 517.286 410.238 516.52 411.643C515.779 413.021 515.409 414.706 515.409 416.698C515.409 418.715 515.779 420.412 516.52 421.791C517.286 423.17 518.294 424.204 519.545 424.893C520.796 425.582 522.188 425.927 523.719 425.927C525.762 425.927 527.473 425.416 528.851 424.395C530.255 423.374 531.123 421.97 531.455 420.183H533.255C532.847 422.353 531.8 424.102 530.115 425.429C528.43 426.757 526.298 427.421 523.719 427.421C521.754 427.421 520.005 426.987 518.473 426.119C516.967 425.25 515.779 424.012 514.911 422.404C514.069 420.77 513.648 418.868 513.648 416.698ZM547.543 405.898C549.994 405.898 551.999 406.664 553.556 408.196C555.113 409.702 555.892 411.949 555.892 414.936V427.114H554.207V415.051C554.207 412.574 553.581 410.685 552.33 409.383C551.079 408.055 549.382 407.392 547.237 407.392C544.99 407.392 543.19 408.106 541.837 409.536C540.51 410.966 539.846 413.085 539.846 415.893V427.114H538.122V398.775H539.846V410.723C540.433 409.166 541.416 407.979 542.795 407.162C544.173 406.319 545.756 405.898 547.543 405.898ZM580.327 415.319C580.327 416.238 580.301 416.927 580.25 417.387H562.289C562.34 419.251 562.749 420.821 563.515 422.097C564.281 423.374 565.289 424.331 566.54 424.97C567.791 425.608 569.157 425.927 570.638 425.927C572.68 425.927 574.391 425.429 575.77 424.434C577.148 423.412 578.016 422.034 578.374 420.297H580.174C579.765 422.417 578.718 424.14 577.033 425.468C575.348 426.77 573.217 427.421 570.638 427.421C568.698 427.421 566.961 426.987 565.43 426.119C563.898 425.25 562.698 424.012 561.83 422.404C560.962 420.77 560.528 418.868 560.528 416.698C560.528 414.528 560.949 412.638 561.791 411.03C562.66 409.421 563.859 408.196 565.391 407.353C566.923 406.485 568.672 406.051 570.638 406.051C572.629 406.051 574.353 406.485 575.808 407.353C577.289 408.196 578.412 409.332 579.178 410.762C579.944 412.166 580.327 413.685 580.327 415.319ZM578.604 415.97C578.68 414.132 578.348 412.574 577.608 411.298C576.893 410.021 575.91 409.077 574.659 408.464C573.408 407.826 572.055 407.506 570.6 407.506C569.144 407.506 567.791 407.826 566.54 408.464C565.315 409.077 564.306 410.021 563.515 411.298C562.749 412.574 562.34 414.132 562.289 415.97H578.604ZM584.08 416.698C584.08 414.528 584.501 412.638 585.344 411.03C586.212 409.421 587.399 408.196 588.905 407.353C590.437 406.485 592.186 406.051 594.152 406.051C596.756 406.051 598.888 406.702 600.547 408.004C602.233 409.306 603.279 411.055 603.688 413.251H601.888C601.556 411.464 600.688 410.06 599.284 409.038C597.905 408.017 596.194 407.506 594.152 407.506C592.62 407.506 591.229 407.851 589.978 408.54C588.727 409.204 587.718 410.238 586.952 411.643C586.212 413.021 585.842 414.706 585.842 416.698C585.842 418.715 586.212 420.412 586.952 421.791C587.718 423.17 588.727 424.204 589.978 424.893C591.229 425.582 592.62 425.927 594.152 425.927C596.194 425.927 597.905 425.416 599.284 424.395C600.688 423.374 601.556 421.97 601.888 420.183H603.688C603.279 422.353 602.233 424.102 600.547 425.429C598.862 426.757 596.731 427.421 594.152 427.421C592.186 427.421 590.437 426.987 588.905 426.119C587.399 425.25 586.212 424.012 585.344 422.404C584.501 420.77 584.08 418.868 584.08 416.698ZM619.355 427.114L610.278 417.578V427.114H608.555V398.775H610.278V415.74L619.201 406.319H621.614L611.542 416.659L621.729 427.114H619.355ZM83.7672 464.698C83.7672 462.553 84.1885 460.677 85.031 459.068C85.8991 457.46 87.0862 456.221 88.5926 455.353C90.1244 454.485 91.8605 454.051 93.8009 454.051C95.92 454.051 97.7582 454.587 99.3156 455.66C100.873 456.706 101.971 458.072 102.609 459.757V446.775H104.332V475.114H102.609V469.6C101.996 471.31 100.924 472.714 99.3922 473.812C97.8603 474.884 95.9965 475.421 93.8009 475.421C91.8605 475.421 90.1244 474.987 88.5926 474.119C87.0862 473.225 85.8991 471.974 85.031 470.366C84.1885 468.732 83.7672 466.842 83.7672 464.698ZM102.609 464.698C102.609 462.885 102.226 461.289 101.46 459.911C100.72 458.506 99.6985 457.434 98.3965 456.694C97.0944 455.928 95.6391 455.545 94.0307 455.545C92.3456 455.545 90.8648 455.915 89.5883 456.655C88.3117 457.37 87.316 458.417 86.6012 459.796C85.8863 461.174 85.5289 462.808 85.5289 464.698C85.5289 466.587 85.8863 468.221 86.6012 469.6C87.316 470.978 88.3117 472.038 89.5883 472.778C90.8904 473.519 92.3712 473.889 94.0307 473.889C95.6391 473.889 97.0944 473.519 98.3965 472.778C99.7241 472.012 100.758 470.94 101.498 469.561C102.239 468.157 102.609 466.536 102.609 464.698ZM127.802 454.319V475.114H126.079V470.595C125.492 472.178 124.509 473.391 123.13 474.233C121.777 475.05 120.22 475.459 118.458 475.459C115.982 475.459 113.952 474.706 112.369 473.199C110.812 471.668 110.033 469.408 110.033 466.421V454.319H111.718V466.306C111.718 468.783 112.343 470.685 113.594 472.012C114.845 473.314 116.543 473.965 118.688 473.965C120.935 473.965 122.722 473.25 124.049 471.821C125.403 470.391 126.079 468.272 126.079 465.464V454.319H127.802ZM152.429 463.319C152.429 464.238 152.403 464.927 152.352 465.387H134.391C134.442 467.251 134.851 468.821 135.617 470.097C136.383 471.374 137.391 472.331 138.642 472.97C139.893 473.608 141.259 473.927 142.74 473.927C144.782 473.927 146.493 473.429 147.872 472.434C149.25 471.412 150.118 470.034 150.476 468.297H152.276C151.867 470.417 150.82 472.14 149.135 473.468C147.45 474.77 145.318 475.421 142.74 475.421C140.799 475.421 139.063 474.987 137.532 474.119C136 473.25 134.8 472.012 133.932 470.404C133.064 468.77 132.63 466.868 132.63 464.698C132.63 462.528 133.051 460.638 133.893 459.03C134.761 457.421 135.961 456.196 137.493 455.353C139.025 454.485 140.774 454.051 142.74 454.051C144.731 454.051 146.455 454.485 147.91 455.353C149.391 456.196 150.514 457.332 151.28 458.762C152.046 460.166 152.429 461.685 152.429 463.319ZM150.705 463.97C150.782 462.132 150.45 460.574 149.71 459.298C148.995 458.021 148.012 457.077 146.761 456.464C145.51 455.826 144.157 455.506 142.702 455.506C141.246 455.506 139.893 455.826 138.642 456.464C137.417 457.077 136.408 458.021 135.617 459.298C134.851 460.574 134.442 462.132 134.391 463.97H150.705ZM170.245 455.813V469.561C170.245 471.093 170.526 472.153 171.088 472.74C171.65 473.302 172.645 473.582 174.075 473.582H176.411V475.114H173.807C171.994 475.114 170.654 474.693 169.786 473.85C168.943 472.982 168.522 471.553 168.522 469.561V455.813H165.382V454.319H168.522V449.034H170.245V454.319H176.411V455.813H170.245ZM189.726 475.421C187.786 475.421 186.037 474.987 184.479 474.119C182.922 473.25 181.696 472.012 180.803 470.404C179.935 468.77 179.501 466.868 179.501 464.698C179.501 462.553 179.948 460.677 180.841 459.068C181.735 457.434 182.96 456.196 184.518 455.353C186.101 454.485 187.862 454.051 189.803 454.051C191.743 454.051 193.492 454.485 195.049 455.353C196.607 456.196 197.819 457.421 198.687 459.03C199.581 460.638 200.028 462.528 200.028 464.698C200.028 466.868 199.581 468.77 198.687 470.404C197.794 472.012 196.555 473.25 194.973 474.119C193.415 474.987 191.666 475.421 189.726 475.421ZM189.726 473.889C191.232 473.889 192.636 473.557 193.939 472.893C195.266 472.204 196.326 471.17 197.117 469.791C197.909 468.412 198.304 466.715 198.304 464.698C198.304 462.706 197.909 461.021 197.117 459.643C196.326 458.264 195.279 457.243 193.977 456.579C192.675 455.889 191.271 455.545 189.764 455.545C188.258 455.545 186.854 455.889 185.552 456.579C184.275 457.243 183.241 458.264 182.45 459.643C181.658 461.021 181.262 462.706 181.262 464.698C181.262 466.715 181.645 468.412 182.411 469.791C183.203 471.17 184.237 472.204 185.513 472.893C186.815 473.557 188.22 473.889 189.726 473.889ZM234.37 464.047C234.37 464.838 234.319 465.553 234.217 466.191H218.094C218.222 467.876 218.847 469.229 219.971 470.251C221.094 471.272 222.473 471.782 224.107 471.782C226.456 471.782 228.115 470.8 229.085 468.834H233.796C233.158 470.774 231.996 472.37 230.311 473.621C228.651 474.846 226.583 475.459 224.107 475.459C222.09 475.459 220.277 475.012 218.669 474.119C217.086 473.199 215.835 471.923 214.916 470.289C214.022 468.629 213.575 466.715 213.575 464.544C213.575 462.374 214.009 460.472 214.877 458.838C215.771 457.179 217.009 455.902 218.592 455.009C220.201 454.115 222.039 453.668 224.107 453.668C226.098 453.668 227.873 454.102 229.43 454.97C230.987 455.838 232.2 457.064 233.068 458.647C233.936 460.204 234.37 462.004 234.37 464.047ZM229.813 462.668C229.787 461.059 229.213 459.77 228.09 458.8C226.966 457.83 225.575 457.345 223.915 457.345C222.409 457.345 221.12 457.83 220.047 458.8C218.975 459.745 218.337 461.034 218.133 462.668H229.813ZM247.322 464.43L254.138 475.114H249.198L244.641 467.953L240.352 475.114H235.794L242.611 464.736L235.794 454.013H240.735L245.292 461.174L249.581 454.013H254.138L247.322 464.43ZM261.377 457.115C262.118 456.145 263.126 455.328 264.403 454.664C265.679 454 267.122 453.668 268.73 453.668C270.568 453.668 272.241 454.128 273.747 455.047C275.279 455.941 276.479 457.204 277.347 458.838C278.215 460.472 278.649 462.349 278.649 464.468C278.649 466.587 278.215 468.489 277.347 470.174C276.479 471.834 275.279 473.136 273.747 474.08C272.241 474.999 270.568 475.459 268.73 475.459C267.122 475.459 265.692 475.14 264.441 474.502C263.19 473.838 262.169 473.021 261.377 472.051V485.148H257.012V454.013H261.377V457.115ZM274.207 464.468C274.207 463.013 273.9 461.762 273.288 460.715C272.7 459.643 271.909 458.838 270.913 458.302C269.943 457.74 268.896 457.46 267.773 457.46C266.675 457.46 265.628 457.74 264.633 458.302C263.662 458.864 262.871 459.681 262.258 460.753C261.671 461.825 261.377 463.089 261.377 464.544C261.377 466 261.671 467.276 262.258 468.374C262.871 469.446 263.662 470.263 264.633 470.825C265.628 471.387 266.675 471.668 267.773 471.668C268.896 471.668 269.943 471.387 270.913 470.825C271.909 470.238 272.7 469.395 273.288 468.297C273.9 467.2 274.207 465.923 274.207 464.468ZM284.805 451.217C284.013 451.217 283.349 450.949 282.813 450.413C282.277 449.877 282.009 449.213 282.009 448.422C282.009 447.63 282.277 446.966 282.813 446.43C283.349 445.894 284.013 445.626 284.805 445.626C285.57 445.626 286.222 445.894 286.758 446.43C287.294 446.966 287.562 447.63 287.562 448.422C287.562 449.213 287.294 449.877 286.758 450.413C286.222 450.949 285.57 451.217 284.805 451.217ZM286.949 454.013V475.114H282.583V454.013H286.949ZM296.664 457.077C297.302 456.004 298.145 455.175 299.191 454.587C300.264 453.975 301.528 453.668 302.983 453.668V458.187H301.872C300.162 458.187 298.86 458.621 297.966 459.489C297.098 460.357 296.664 461.864 296.664 464.008V475.114H292.298V454.013H296.664V457.077ZM325.953 464.047C325.953 464.838 325.902 465.553 325.799 466.191H309.677C309.804 467.876 310.43 469.229 311.553 470.251C312.676 471.272 314.055 471.782 315.689 471.782C318.038 471.782 319.697 470.8 320.668 468.834H325.378C324.74 470.774 323.578 472.37 321.893 473.621C320.234 474.846 318.166 475.459 315.689 475.459C313.672 475.459 311.859 475.012 310.251 474.119C308.668 473.199 307.417 471.923 306.498 470.289C305.604 468.629 305.158 466.715 305.158 464.544C305.158 462.374 305.592 460.472 306.46 458.838C307.353 457.179 308.592 455.902 310.174 455.009C311.783 454.115 313.621 453.668 315.689 453.668C317.681 453.668 319.455 454.102 321.012 454.97C322.57 455.838 323.782 457.064 324.65 458.647C325.519 460.204 325.953 462.004 325.953 464.047ZM321.395 462.668C321.37 461.059 320.795 459.77 319.672 458.8C318.549 457.83 317.157 457.345 315.498 457.345C313.991 457.345 312.702 457.83 311.63 458.8C310.557 459.745 309.919 461.034 309.715 462.668H321.395ZM328.411 464.468C328.411 462.349 328.845 460.472 329.713 458.838C330.606 457.204 331.806 455.941 333.313 455.047C334.845 454.128 336.542 453.668 338.406 453.668C339.785 453.668 341.138 453.975 342.466 454.587C343.819 455.175 344.891 455.966 345.682 456.962V446.775H350.087V475.114H345.682V471.936C344.968 472.957 343.972 473.799 342.695 474.463C341.444 475.127 340.002 475.459 338.368 475.459C336.53 475.459 334.845 474.999 333.313 474.08C331.806 473.136 330.606 471.834 329.713 470.174C328.845 468.489 328.411 466.587 328.411 464.468ZM345.682 464.544C345.682 463.089 345.376 461.825 344.763 460.753C344.176 459.681 343.397 458.864 342.427 458.302C341.457 457.74 340.41 457.46 339.287 457.46C338.164 457.46 337.117 457.74 336.147 458.302C335.176 458.838 334.385 459.643 333.772 460.715C333.185 461.762 332.891 463.013 332.891 464.468C332.891 465.923 333.185 467.2 333.772 468.297C334.385 469.395 335.176 470.238 336.147 470.825C337.142 471.387 338.189 471.668 339.287 471.668C340.41 471.668 341.457 471.387 342.427 470.825C343.397 470.263 344.176 469.446 344.763 468.374C345.376 467.276 345.682 466 345.682 464.544ZM367.855 459.796C368.442 458.111 369.501 456.732 371.033 455.66C372.591 454.587 374.467 454.051 376.663 454.051C378.603 454.051 380.326 454.485 381.833 455.353C383.365 456.221 384.552 457.46 385.394 459.068C386.262 460.677 386.696 462.553 386.696 464.698C386.696 466.842 386.262 468.732 385.394 470.366C384.552 471.974 383.365 473.225 381.833 474.119C380.326 474.987 378.603 475.421 376.663 475.421C374.493 475.421 372.629 474.884 371.071 473.812C369.54 472.714 368.467 471.336 367.855 469.676V484.918H366.131V454.319H367.855V459.796ZM384.935 464.698C384.935 462.808 384.577 461.174 383.862 459.796C383.148 458.417 382.139 457.37 380.837 456.655C379.56 455.915 378.08 455.545 376.395 455.545C374.786 455.545 373.331 455.928 372.029 456.694C370.727 457.434 369.706 458.506 368.965 459.911C368.225 461.289 367.855 462.885 367.855 464.698C367.855 466.536 368.225 468.157 368.965 469.561C369.706 470.94 370.727 472.012 372.029 472.778C373.331 473.519 374.786 473.889 376.395 473.889C378.08 473.889 379.56 473.519 380.837 472.778C382.139 472.038 383.148 470.978 383.862 469.6C384.577 468.221 384.935 466.587 384.935 464.698ZM393.239 458.609C393.75 457.077 394.656 455.915 395.958 455.124C397.261 454.307 398.92 453.898 400.937 453.898V455.698H400.363C398.32 455.698 396.622 456.285 395.269 457.46C393.916 458.609 393.239 460.498 393.239 463.127V475.114H391.516V454.319H393.239V458.609ZM413.675 475.421C411.734 475.421 409.985 474.987 408.428 474.119C406.871 473.25 405.645 472.012 404.752 470.404C403.884 468.77 403.45 466.868 403.45 464.698C403.45 462.553 403.896 460.677 404.79 459.068C405.684 457.434 406.909 456.196 408.466 455.353C410.049 454.485 411.811 454.051 413.751 454.051C415.692 454.051 417.441 454.485 418.998 455.353C420.555 456.196 421.768 457.421 422.636 459.03C423.53 460.638 423.976 462.528 423.976 464.698C423.976 466.868 423.53 468.77 422.636 470.404C421.742 472.012 420.504 473.25 418.921 474.119C417.364 474.987 415.615 475.421 413.675 475.421ZM413.675 473.889C415.181 473.889 416.585 473.557 417.887 472.893C419.215 472.204 420.274 471.17 421.066 469.791C421.857 468.412 422.253 466.715 422.253 464.698C422.253 462.706 421.857 461.021 421.066 459.643C420.274 458.264 419.228 457.243 417.926 456.579C416.624 455.889 415.219 455.545 413.713 455.545C412.207 455.545 410.802 455.889 409.5 456.579C408.224 457.243 407.19 458.264 406.398 459.643C405.607 461.021 405.211 462.706 405.211 464.698C405.211 466.715 405.594 468.412 406.36 469.791C407.152 471.17 408.186 472.204 409.462 472.893C410.764 473.557 412.168 473.889 413.675 473.889ZM427.75 464.698C427.75 462.553 428.171 460.677 429.014 459.068C429.882 457.46 431.069 456.221 432.575 455.353C434.107 454.485 435.843 454.051 437.783 454.051C439.903 454.051 441.741 454.587 443.298 455.66C444.856 456.706 445.953 458.072 446.592 459.757V446.775H448.315V475.114H446.592V469.6C445.979 471.31 444.907 472.714 443.375 473.812C441.843 474.884 439.979 475.421 437.783 475.421C435.843 475.421 434.107 474.987 432.575 474.119C431.069 473.225 429.882 471.974 429.014 470.366C428.171 468.732 427.75 466.842 427.75 464.698ZM446.592 464.698C446.592 462.885 446.209 461.289 445.443 459.911C444.702 458.506 443.681 457.434 442.379 456.694C441.077 455.928 439.622 455.545 438.013 455.545C436.328 455.545 434.847 455.915 433.571 456.655C432.294 457.37 431.299 458.417 430.584 459.796C429.869 461.174 429.511 462.808 429.511 464.698C429.511 466.587 429.869 468.221 430.584 469.6C431.299 470.978 432.294 472.038 433.571 472.778C434.873 473.519 436.354 473.889 438.013 473.889C439.622 473.889 441.077 473.519 442.379 472.778C443.707 472.012 444.741 470.94 445.481 469.561C446.221 468.157 446.592 466.536 446.592 464.698ZM471.785 454.319V475.114H470.062V470.595C469.474 472.178 468.492 473.391 467.113 474.233C465.76 475.05 464.202 475.459 462.441 475.459C459.964 475.459 457.935 474.706 456.352 473.199C454.794 471.668 454.016 469.408 454.016 466.421V454.319H455.701V466.306C455.701 468.783 456.326 470.685 457.577 472.012C458.828 473.314 460.526 473.965 462.67 473.965C464.917 473.965 466.704 473.25 468.032 471.821C469.385 470.391 470.062 468.272 470.062 465.464V454.319H471.785ZM476.612 464.698C476.612 462.528 477.033 460.638 477.876 459.03C478.744 457.421 479.931 456.196 481.438 455.353C482.969 454.485 484.718 454.051 486.684 454.051C489.288 454.051 491.42 454.702 493.08 456.004C494.765 457.306 495.811 459.055 496.22 461.251H494.42C494.088 459.464 493.22 458.06 491.816 457.038C490.437 456.017 488.727 455.506 486.684 455.506C485.152 455.506 483.761 455.851 482.51 456.54C481.259 457.204 480.25 458.238 479.484 459.643C478.744 461.021 478.374 462.706 478.374 464.698C478.374 466.715 478.744 468.412 479.484 469.791C480.25 471.17 481.259 472.204 482.51 472.893C483.761 473.582 485.152 473.927 486.684 473.927C488.727 473.927 490.437 473.416 491.816 472.395C493.22 471.374 494.088 469.97 494.42 468.183H496.22C495.811 470.353 494.765 472.102 493.08 473.429C491.395 474.757 489.263 475.421 486.684 475.421C484.718 475.421 482.969 474.987 481.438 474.119C479.931 473.25 478.744 472.012 477.876 470.404C477.033 468.77 476.612 466.868 476.612 464.698ZM503.653 455.813V469.561C503.653 471.093 503.934 472.153 504.496 472.74C505.057 473.302 506.053 473.582 507.483 473.582H509.819V475.114H507.215C505.402 475.114 504.062 474.693 503.193 473.85C502.351 472.982 501.93 471.553 501.93 469.561V455.813H498.789V454.319H501.93V449.034H503.653V454.319H509.819V455.813H503.653ZM520.912 475.421C518.589 475.421 516.687 474.91 515.206 473.889C513.751 472.868 512.934 471.412 512.755 469.523H514.517C514.645 470.876 515.257 471.948 516.355 472.74C517.479 473.531 518.998 473.927 520.912 473.927C522.495 473.927 523.746 473.531 524.665 472.74C525.61 471.923 526.082 470.927 526.082 469.753C526.082 468.936 525.827 468.272 525.317 467.761C524.831 467.225 524.219 466.817 523.478 466.536C522.738 466.255 521.729 465.949 520.453 465.617C518.921 465.208 517.683 464.813 516.738 464.43C515.793 464.021 514.989 463.421 514.325 462.63C513.662 461.838 513.33 460.779 513.33 459.451C513.33 458.481 513.623 457.587 514.211 456.77C514.798 455.928 515.615 455.264 516.662 454.779C517.708 454.294 518.895 454.051 520.223 454.051C522.393 454.051 524.142 454.6 525.47 455.698C526.823 456.77 527.55 458.264 527.653 460.179H525.929C525.853 458.8 525.317 457.677 524.321 456.809C523.325 455.941 521.946 455.506 520.185 455.506C518.704 455.506 517.479 455.889 516.508 456.655C515.538 457.421 515.053 458.353 515.053 459.451C515.053 460.421 515.321 461.213 515.857 461.825C516.419 462.413 517.096 462.872 517.887 463.204C518.704 463.51 519.776 463.842 521.104 464.2C522.559 464.583 523.721 464.966 524.589 465.349C525.482 465.706 526.236 466.242 526.848 466.957C527.461 467.646 527.768 468.578 527.768 469.753C527.768 470.825 527.474 471.795 526.887 472.663C526.299 473.531 525.482 474.208 524.436 474.693C523.389 475.178 522.215 475.421 520.912 475.421ZM532.366 475.229C531.932 475.229 531.574 475.089 531.293 474.808C531.013 474.527 530.872 474.17 530.872 473.736C530.872 473.302 531.013 472.944 531.293 472.663C531.574 472.382 531.932 472.242 532.366 472.242C532.774 472.242 533.119 472.382 533.4 472.663C533.681 472.944 533.821 473.302 533.821 473.736C533.821 474.17 533.681 474.527 533.4 474.808C533.119 475.089 532.774 475.229 532.366 475.229Z" fill="#323941"/>
<path d="M108.901 279.158C126.849 264.202 141.151 251.769 151.808 241.86C162.465 231.765 171.345 221.295 178.449 210.451C185.554 199.608 189.106 188.951 189.106 178.482C189.106 168.947 186.862 161.469 182.375 156.047C177.888 150.625 170.971 147.914 161.623 147.914C152.275 147.914 145.078 151.093 140.03 157.449C134.982 163.619 132.364 172.125 132.178 182.969H94.0384C94.7862 160.534 101.423 143.521 113.949 131.93C126.662 120.338 142.741 114.543 162.184 114.543C183.497 114.543 199.856 120.245 211.26 131.649C222.665 142.867 228.367 157.73 228.367 176.238C228.367 190.821 224.441 204.749 216.589 218.023C208.736 231.297 199.762 242.888 189.667 252.797C179.571 262.519 166.391 274.297 150.125 288.132H232.854V320.662H94.3188V291.497L108.901 279.158ZM392.202 152.962H301.341V200.917C305.267 196.056 310.876 192.13 318.167 189.138C325.459 185.96 333.217 184.371 341.443 184.371C356.4 184.371 368.646 187.643 378.18 194.186C387.715 200.73 394.633 209.143 398.933 219.425C403.233 229.521 405.383 240.365 405.383 251.956C405.383 273.456 399.213 290.749 386.874 303.836C374.722 316.923 357.335 323.467 334.713 323.467C313.4 323.467 296.387 318.139 283.674 307.482C270.961 296.825 263.763 282.897 262.08 265.697H300.22C301.902 273.175 305.641 279.158 311.437 283.645C317.42 288.132 324.991 290.375 334.152 290.375C345.183 290.375 353.502 286.917 359.111 279.999C364.72 273.082 367.524 263.921 367.524 252.517C367.524 240.925 364.626 232.138 358.83 226.156C353.222 219.986 344.902 216.901 333.872 216.901C326.02 216.901 319.476 218.864 314.241 222.791C309.006 226.717 305.267 231.951 303.024 238.495H265.446V118.469H392.202V152.962ZM427.973 169.227C427.973 155.019 432.086 143.895 440.312 135.856C448.725 127.817 459.475 123.797 472.562 123.797C485.649 123.797 496.306 127.817 504.532 135.856C512.945 143.895 517.151 155.019 517.151 169.227C517.151 183.623 512.945 194.841 504.532 202.88C496.306 210.919 485.649 214.938 472.562 214.938C459.475 214.938 448.725 210.919 440.312 202.88C432.086 194.841 427.973 183.623 427.973 169.227ZM608.012 127.162L497.801 323.467H459.662L569.593 127.162H608.012ZM472.282 147.354C461.999 147.354 456.858 154.645 456.858 169.227C456.858 183.997 461.999 191.382 472.282 191.382C477.33 191.382 481.256 189.606 484.06 186.054C486.864 182.314 488.267 176.706 488.267 169.227C488.267 154.645 482.938 147.354 472.282 147.354ZM551.084 281.121C551.084 266.725 555.197 255.601 563.423 247.749C571.836 239.71 582.586 235.691 595.673 235.691C608.76 235.691 619.323 239.71 627.362 247.749C635.589 255.601 639.702 266.725 639.702 281.121C639.702 295.517 635.589 306.734 627.362 314.773C619.323 322.812 608.76 326.832 595.673 326.832C582.399 326.832 571.649 322.812 563.423 314.773C555.197 306.734 551.084 295.517 551.084 281.121ZM595.393 259.247C584.736 259.247 579.408 266.538 579.408 281.121C579.408 295.891 584.736 303.275 595.393 303.275C605.862 303.275 611.097 295.891 611.097 281.121C611.097 266.538 605.862 259.247 595.393 259.247Z" fill="#BA3DD9"/>
</svg>
