<svg width="451" height="455" viewBox="0 0 451 455" fill="none" xmlns="http://www.w3.org/2000/svg">
<path d="M63.7661 294.69C65.6571 294.69 67.4703 293.926 68.806 292.566C70.1428 291.206 70.8946 289.363 70.8946 287.439C70.8946 285.516 70.1428 283.672 68.806 282.312C67.4703 280.952 65.6572 280.188 63.7661 280.188C61.8761 280.188 60.063 280.952 58.7261 282.312C57.3894 283.672 56.6387 285.516 56.6387 287.439C56.6431 289.361 57.3949 291.203 58.7305 292.562C60.0673 293.92 61.877 294.686 63.766 294.69L63.7661 294.69Z" fill="#CCCCCC"/>
<path d="M74.1506 299.349H53.288C51.1105 299.358 49.3469 301.151 49.3379 303.366V327.183H54.3261V309.88H56.6386V361.099H62.6178V331.088H64.9303V361.085H70.9094V309.866H73.2065V327.184H78.163V303.367C78.1586 302.292 77.7328 301.264 76.9788 300.509C76.2259 299.754 75.2074 299.338 74.1506 299.35V299.349Z" fill="#CCCCCC"/>
<path d="M63.7661 107.887C65.6571 107.887 67.4703 107.123 68.806 105.763C70.1428 104.403 70.8946 102.56 70.8946 100.636C70.8946 98.7137 70.1428 96.8692 68.806 95.5093C67.4703 94.1494 65.6572 93.3857 63.7661 93.3857C61.8761 93.3857 60.063 94.1494 58.7261 95.5093C57.3894 96.8692 56.6387 98.7136 56.6387 100.636C56.6431 102.558 57.3949 104.4 58.7305 105.759C60.0673 107.118 61.877 107.883 63.766 107.887L63.7661 107.887Z" fill="#CCCCCC"/>
<path d="M74.1506 112.546H53.288C51.1105 112.555 49.3469 114.348 49.3379 116.563V140.38H54.3261V123.078H56.6386V174.297H62.6178V144.286H64.9303V174.282H70.9094V123.063H73.2065V140.381H78.163V116.565C78.1586 115.489 77.7328 114.461 76.9788 113.706C76.2259 112.952 75.2074 112.535 74.1506 112.547V112.546Z" fill="#CCCCCC"/>
<path d="M295.331 201.331C297.222 201.331 299.035 200.568 300.37 199.208C301.707 197.848 302.459 196.005 302.459 194.081C302.459 192.158 301.707 190.314 300.37 188.954C299.035 187.594 297.222 186.83 295.331 186.83C293.441 186.83 291.627 187.594 290.291 188.954C288.954 190.314 288.203 192.158 288.203 194.081C288.208 196.002 288.959 197.844 290.295 199.203C291.632 200.562 293.441 201.328 295.33 201.331L295.331 201.331Z" fill="#CCCCCC"/>
<path d="M305.713 205.99H284.85C282.673 205.999 280.909 207.792 280.9 210.007V233.824H285.889V216.522H288.201V267.741H294.18V237.73H296.493V267.727H302.472V216.508H304.769V233.826H309.726V210.009C309.721 208.934 309.295 207.905 308.541 207.151C307.788 206.396 306.77 205.979 305.713 205.992V205.99Z" fill="#CCCCCC"/>
<path d="M295.331 14.5012C297.222 14.5012 299.035 13.7375 300.37 12.3776C301.707 11.0177 302.459 9.17442 302.459 7.25057C302.459 5.32798 301.707 3.48348 300.37 2.12355C299.035 0.763681 297.222 0 295.331 0C293.441 0 291.627 0.763681 290.291 2.12355C288.954 3.48342 288.203 5.32787 288.203 7.25057C288.208 9.17205 288.959 11.0142 290.295 12.373C291.632 13.7318 293.441 14.4977 295.33 14.501L295.331 14.5012Z" fill="#CCCCCC"/>
<path d="M305.713 19.1602H284.85C282.673 19.1691 280.909 20.9622 280.9 23.1773V46.9941H285.889V29.692H288.201V80.9108H294.18V50.8998H296.493V80.8965H302.472V29.6777H304.769V46.9955H309.726V23.1788C309.721 22.1036 309.295 21.0753 308.541 20.3206C307.788 19.5658 306.77 19.1494 305.713 19.1617V19.1602Z" fill="#CCCCCC"/>
<path d="M295.331 388.104C297.222 388.104 299.035 387.34 300.37 385.98C301.707 384.62 302.459 382.777 302.459 380.853C302.459 378.931 301.707 377.086 300.37 375.726C299.035 374.366 297.222 373.603 295.331 373.603C293.441 373.603 291.627 374.366 290.291 375.726C288.954 377.086 288.203 378.93 288.203 380.853C288.208 382.775 288.959 384.617 290.295 385.976C291.632 387.334 293.441 388.1 295.33 388.104L295.331 388.104Z" fill="#CCCCCC"/>
<path d="M305.713 392.763H284.85C282.673 392.772 280.909 394.565 280.9 396.78V420.597H285.889V403.295H288.201V454.513H294.18V424.502H296.493V454.499H302.472V403.28H304.769V420.598H309.726V396.781C309.721 395.706 309.295 394.678 308.541 393.923C307.788 393.168 306.77 392.752 305.713 392.764V392.763Z" fill="#CCCCCC"/>
<path d="M63.7661 201.304C65.6571 201.304 67.4703 200.54 68.806 199.18C70.1428 197.82 70.8946 195.977 70.8946 194.053C70.8946 192.131 70.1428 190.286 68.806 188.926C67.4703 187.566 65.6572 186.803 63.7661 186.803C61.8761 186.803 60.063 187.566 58.7261 188.926C57.3894 190.286 56.6387 192.131 56.6387 194.053C56.6431 195.975 57.3949 197.817 58.7305 199.176C60.0673 200.535 61.877 201.3 63.766 201.304L63.7661 201.304Z" fill="#CCCCCC"/>
<path d="M74.1506 205.963H53.288C51.1105 205.972 49.3469 207.765 49.3379 209.98V233.797H54.3261V216.495H56.6386V267.714H62.6178V237.703H64.9303V267.699H70.9094V216.48H73.2065V233.798H78.163V209.982C78.1586 208.906 77.7328 207.878 76.9788 207.123C76.2259 206.369 75.2074 205.952 74.1506 205.964V205.963Z" fill="#CCCCCC"/>
<path d="M63.7661 14.5012C65.6571 14.5012 67.4703 13.7375 68.806 12.3776C70.1428 11.0177 70.8946 9.17442 70.8946 7.25057C70.8946 5.32798 70.1428 3.48348 68.806 2.12355C67.4703 0.763681 65.6572 0 63.7661 0C61.8761 0 60.063 0.763681 58.7261 2.12355C57.3894 3.48342 56.6387 5.32787 56.6387 7.25057C56.6431 9.17205 57.3949 11.0142 58.7305 12.373C60.0673 13.7318 61.877 14.4977 63.766 14.501L63.7661 14.5012Z" fill="#CCCCCC"/>
<path d="M74.1506 19.1602H53.288C51.1105 19.1691 49.3469 20.9622 49.3379 23.1773V46.9941H54.3261V29.692H56.6386V80.9108H62.6178V50.8998H64.9303V80.8965H70.9094V29.6777H73.2065V46.9955H78.163V23.1788C78.1586 22.1036 77.7328 21.0753 76.9788 20.3206C76.2259 19.5658 75.2074 19.1494 74.1506 19.1617V19.1602Z" fill="#CCCCCC"/>
<path d="M295.331 107.945C297.222 107.945 299.035 107.181 300.37 105.821C301.707 104.461 302.459 102.618 302.459 100.694C302.459 98.7713 301.707 96.9268 300.37 95.5669C299.035 94.207 297.222 93.4434 295.331 93.4434C293.441 93.4434 291.627 94.207 290.291 95.5669C288.954 96.9268 288.203 98.7712 288.203 100.694C288.208 102.615 288.959 104.458 290.295 105.816C291.632 107.175 293.441 107.941 295.33 107.944L295.331 107.945Z" fill="#CCCCCC"/>
<path d="M305.713 112.604H284.85C282.673 112.612 280.909 114.406 280.9 116.621V140.437H285.889V123.135H288.201V174.354H294.18V144.343H296.493V174.34H302.472V123.121H304.769V140.439H309.726V116.622C309.721 115.547 309.295 114.519 308.541 113.764C307.788 113.009 306.77 112.593 305.713 112.605V112.604Z" fill="#CCCCCC"/>
<path d="M63.7661 388.075C65.6571 388.075 67.4703 387.312 68.806 385.952C70.1428 384.592 70.8946 382.749 70.8946 380.825C70.8946 378.902 70.1428 377.058 68.806 375.698C67.4703 374.338 65.6572 373.574 63.7661 373.574C61.8761 373.574 60.063 374.338 58.7261 375.698C57.3894 377.058 56.6387 378.902 56.6387 380.825C56.6431 382.746 57.3949 384.588 58.7305 385.947C60.0673 387.306 61.877 388.072 63.766 388.075L63.7661 388.075Z" fill="#CCCCCC"/>
<path d="M74.1506 392.734H53.288C51.1105 392.743 49.3469 394.536 49.3379 396.752V420.568H54.3261V403.266H56.6386V454.485H62.6178V424.474H64.9303V454.471H70.9094V403.252H73.2065V420.57H78.163V396.753C78.1586 395.678 77.7328 394.65 76.9788 393.895C76.2259 393.14 75.2074 392.724 74.1506 392.736V392.734Z" fill="#CCCCCC"/>
<path d="M295.331 294.718C297.222 294.718 299.035 293.954 300.37 292.594C301.707 291.235 302.459 289.391 302.459 287.467C302.459 285.545 301.707 283.7 300.37 282.34C299.035 280.98 297.222 280.217 295.331 280.217C293.441 280.217 291.627 280.98 290.291 282.34C288.954 283.7 288.203 285.545 288.203 287.467C288.208 289.389 288.959 291.231 290.295 292.59C291.632 293.949 293.441 294.714 295.33 294.718L295.331 294.718Z" fill="#CCCCCC"/>
<path d="M305.713 299.377H284.85C282.673 299.386 280.909 301.179 280.9 303.394V327.211H285.889V309.909H288.201V361.128H294.18V331.117H296.493V361.113H302.472V309.895H304.769V327.212H309.726V303.396C309.721 302.32 309.295 301.292 308.541 300.537C307.788 299.783 306.77 299.366 305.713 299.378V299.377Z" fill="#CCCCCC"/>
<path d="M154.969 294.689C156.86 294.689 158.673 293.925 160.009 292.565C161.346 291.205 162.098 289.362 162.098 287.438C162.098 285.515 161.346 283.671 160.009 282.311C158.673 280.951 156.86 280.188 154.969 280.188C153.079 280.188 151.266 280.951 149.929 282.311C148.593 283.671 147.842 285.515 147.842 287.438C147.846 289.36 148.598 291.202 149.934 292.561C151.27 293.919 153.08 294.685 154.969 294.689L154.969 294.689Z" fill="#CCCCCC"/>
<path d="M165.352 299.348H144.489C142.312 299.357 140.548 301.15 140.539 303.365V327.182H145.527V309.88H147.84V361.098H153.819V331.087H156.131V361.084H162.111V309.865H164.408V327.183H169.364V303.366C169.36 302.291 168.934 301.263 168.18 300.508C167.427 299.753 166.409 299.337 165.352 299.349V299.348Z" fill="#CCCCCC"/>
<path d="M154.969 107.889C156.86 107.889 158.673 107.125 160.009 105.765C161.346 104.405 162.098 102.562 162.098 100.638C162.098 98.7157 161.346 96.8712 160.009 95.5112C158.673 94.1514 156.86 93.3877 154.969 93.3877C153.079 93.3877 151.266 94.1514 149.929 95.5112C148.593 96.8711 147.842 98.7156 147.842 100.638C147.846 102.56 148.598 104.402 149.934 105.761C151.27 107.119 153.08 107.885 154.969 107.889L154.969 107.889Z" fill="#CCCCCC"/>
<path d="M165.352 112.548H144.489C142.312 112.557 140.548 114.35 140.539 116.565V140.382H145.527V123.08H147.84V174.299H153.819V144.288H156.131V174.284H162.111V123.065H164.408V140.383H169.364V116.566C169.36 115.491 168.934 114.463 168.18 113.708C167.427 112.954 166.409 112.537 165.352 112.549V112.548Z" fill="#CCCCCC"/>
<path d="M386.536 201.331C388.427 201.331 390.24 200.568 391.576 199.208C392.912 197.848 393.664 196.005 393.664 194.081C393.664 192.158 392.912 190.314 391.576 188.954C390.24 187.594 388.427 186.83 386.536 186.83C384.646 186.83 382.833 187.594 381.496 188.954C380.159 190.314 379.408 192.158 379.408 194.081C379.413 196.002 380.164 197.844 381.5 199.203C382.837 200.562 384.647 201.328 386.535 201.331L386.536 201.331Z" fill="#CCCCCC"/>
<path d="M396.918 205.99H376.056C373.878 205.999 372.114 207.792 372.105 210.007V233.824H377.094V216.522H379.406V267.741H385.385V237.73H387.698V267.727H393.677V216.508H395.974V233.826H400.931V210.009C400.926 208.934 400.5 207.905 399.746 207.151C398.993 206.396 397.975 205.979 396.918 205.992V205.99Z" fill="#CCCCCC"/>
<path d="M386.536 14.5012C388.427 14.5012 390.24 13.7375 391.576 12.3776C392.912 11.0177 393.664 9.17442 393.664 7.25057C393.664 5.32798 392.912 3.48348 391.576 2.12355C390.24 0.763681 388.427 0 386.536 0C384.646 0 382.833 0.763681 381.496 2.12355C380.159 3.48342 379.408 5.32787 379.408 7.25057C379.413 9.17205 380.164 11.0142 381.5 12.373C382.837 13.7318 384.647 14.4977 386.535 14.501L386.536 14.5012Z" fill="#CCCCCC"/>
<path d="M396.918 19.1602H376.056C373.878 19.1691 372.114 20.9622 372.105 23.1773V46.9941H377.094V29.692H379.406V80.9108H385.385V50.8998H387.698V80.8965H393.677V29.6777H395.974V46.9955H400.931V23.1788C400.926 22.1036 400.5 21.0753 399.746 20.3206C398.993 19.5658 397.975 19.1494 396.918 19.1617V19.1602Z" fill="#CCCCCC"/>
<path d="M386.536 388.105C388.427 388.105 390.24 387.341 391.576 385.981C392.912 384.621 393.664 382.778 393.664 380.854C393.664 378.931 392.912 377.087 391.576 375.727C390.24 374.367 388.427 373.604 386.536 373.604C384.646 373.604 382.833 374.367 381.496 375.727C380.159 377.087 379.408 378.931 379.408 380.854C379.413 382.776 380.164 384.618 381.5 385.977C382.837 387.335 384.647 388.101 386.535 388.105L386.536 388.105Z" fill="#CCCCCC"/>
<path d="M396.918 392.764H376.056C373.878 392.773 372.114 394.566 372.105 396.781V420.598H377.094V403.296H379.406V454.514H385.385V424.503H387.698V454.5H393.677V403.281H395.974V420.599H400.931V396.782C400.926 395.707 400.5 394.679 399.746 393.924C398.993 393.169 397.975 392.753 396.918 392.765V392.764Z" fill="#CCCCCC"/>
<path d="M154.969 201.303C156.86 201.303 158.673 200.539 160.009 199.179C161.346 197.819 162.098 195.976 162.098 194.052C162.098 192.13 161.346 190.285 160.009 188.925C158.673 187.565 156.86 186.802 154.969 186.802C153.079 186.802 151.266 187.565 149.929 188.925C148.593 190.285 147.842 192.13 147.842 194.052C147.846 195.974 148.598 197.816 149.934 199.175C151.27 200.534 153.08 201.299 154.969 201.303L154.969 201.303Z" fill="#CCCCCC"/>
<path d="M165.352 205.962H144.489C142.312 205.971 140.548 207.764 140.539 209.979V233.796H145.527V216.494H147.84V267.713H153.819V237.702H156.131V267.698H162.111V216.479H164.408V233.797H169.364V209.981C169.36 208.905 168.934 207.877 168.18 207.122C167.427 206.368 166.409 205.951 165.352 205.963V205.962Z" fill="#CCCCCC"/>
<path d="M154.969 14.5012C156.86 14.5012 158.673 13.7375 160.009 12.3776C161.346 11.0177 162.098 9.17442 162.098 7.25057C162.098 5.32798 161.346 3.48348 160.009 2.12355C158.673 0.763681 156.86 0 154.969 0C153.079 0 151.266 0.763681 149.929 2.12355C148.593 3.48342 147.842 5.32787 147.842 7.25057C147.846 9.17205 148.598 11.0142 149.934 12.373C151.27 13.7318 153.08 14.4977 154.969 14.501L154.969 14.5012Z" fill="#CCCCCC"/>
<path d="M165.352 19.1602H144.489C142.312 19.1691 140.548 20.9622 140.539 23.1773V46.9941H145.527V29.692H147.84V80.9108H153.819V50.8998H156.131V80.8965H162.111V29.6777H164.408V46.9955H169.364V23.1788C169.36 22.1036 168.934 21.0753 168.18 20.3206C167.427 19.5658 166.409 19.1494 165.352 19.1617V19.1602Z" fill="#CCCCCC"/>
<path d="M386.536 107.945C388.427 107.945 390.24 107.182 391.576 105.822C392.912 104.462 393.664 102.619 393.664 100.695C393.664 98.7723 392.912 96.9278 391.576 95.5679C390.24 94.208 388.427 93.4443 386.536 93.4443C384.646 93.4443 382.833 94.208 381.496 95.5679C380.159 96.9278 379.408 98.7722 379.408 100.695C379.413 102.616 380.164 104.459 381.5 105.817C382.837 107.176 384.647 107.942 386.535 107.945L386.536 107.945Z" fill="#CCCCCC"/>
<path d="M396.918 112.604H376.056C373.878 112.613 372.114 114.406 372.105 116.622V140.438H377.094V123.136H379.406V174.355H385.385V144.344H387.698V174.341H393.677V123.122H395.974V140.44H400.931V116.623C400.926 115.548 400.5 114.52 399.746 113.765C398.993 113.01 397.975 112.594 396.918 112.606V112.604Z" fill="#CCCCCC"/>
<path d="M154.969 388.075C156.86 388.075 158.673 387.312 160.009 385.952C161.346 384.592 162.098 382.749 162.098 380.825C162.098 378.902 161.346 377.058 160.009 375.698C158.673 374.338 156.86 373.574 154.969 373.574C153.079 373.574 151.266 374.338 149.929 375.698C148.593 377.058 147.842 378.902 147.842 380.825C147.846 382.746 148.598 384.588 149.934 385.947C151.27 387.306 153.08 388.072 154.969 388.075L154.969 388.075Z" fill="#CCCCCC"/>
<path d="M165.352 392.734H144.489C142.312 392.743 140.548 394.536 140.539 396.752V420.568H145.527V403.266H147.84V454.485H153.819V424.474H156.131V454.471H162.111V403.252H164.408V420.57H169.364V396.753C169.36 395.678 168.934 394.65 168.18 393.895C167.427 393.14 166.409 392.724 165.352 392.736V392.734Z" fill="#CCCCCC"/>
<path d="M386.536 294.718C388.427 294.718 390.24 293.954 391.576 292.594C392.912 291.235 393.664 289.391 393.664 287.467C393.664 285.545 392.912 283.7 391.576 282.34C390.24 280.98 388.427 280.217 386.536 280.217C384.646 280.217 382.833 280.98 381.496 282.34C380.159 283.7 379.408 285.545 379.408 287.467C379.413 289.389 380.164 291.231 381.5 292.59C382.837 293.949 384.647 294.714 386.535 294.718L386.536 294.718Z" fill="#CCCCCC"/>
<path d="M396.918 299.377H376.056C373.878 299.386 372.114 301.179 372.105 303.394V327.211H377.094V309.909H379.406V361.128H385.385V331.117H387.698V361.113H393.677V309.895H395.974V327.212H400.931V303.396C400.926 302.32 400.5 301.292 399.746 300.537C398.993 299.783 397.975 299.366 396.918 299.378V299.377Z" fill="#CCCCCC"/>
<path d="M118.514 309.529L122.132 323.71L127.482 322.109L122.353 303.67C122.007 302.458 121.337 301.367 120.418 300.52C119.498 299.671 118.366 299.099 117.145 298.868C112.025 297.993 106.798 297.993 101.679 298.868C100.457 299.095 99.3217 299.664 98.4009 300.513C97.4801 301.362 96.8117 302.456 96.4703 303.67L91.3262 322.077L96.692 323.678L100.295 309.496L102.53 310.088L96.5176 333.777H102.811L102.812 361.083H108.334V335.473H110.631V361.083H116.044L116.043 333.777H122.336L116.279 310.12L118.514 309.529Z" fill="#CCCCCC"/>
<path d="M109.406 294.689C111.296 294.689 113.109 293.925 114.446 292.565C115.783 291.205 116.533 289.362 116.533 287.438C116.533 285.515 115.783 283.671 114.446 282.311C113.109 280.951 111.296 280.188 109.406 280.188C107.515 280.188 105.702 280.951 104.366 282.311C103.029 283.671 102.277 285.515 102.277 287.438C102.277 289.362 103.029 291.205 104.366 292.565C105.702 293.925 107.515 294.689 109.406 294.689Z" fill="#CCCCCC"/>
<path d="M118.514 122.727L122.132 136.908L127.482 135.307L122.353 116.868C122.007 115.656 121.337 114.565 120.418 113.718C119.498 112.869 118.366 112.298 117.145 112.067C112.025 111.191 106.798 111.191 101.679 112.067C100.457 112.293 99.3217 112.863 98.4009 113.711C97.4801 114.56 96.8117 115.654 96.4703 116.869L91.3262 135.275L96.692 136.876L100.295 122.694L102.53 123.286L96.5176 146.976H102.811L102.812 174.281H108.334V148.671H110.631V174.281H116.044L116.043 146.976H122.336L116.279 123.318L118.514 122.727Z" fill="#CCCCCC"/>
<path d="M109.406 107.887C111.296 107.887 113.109 107.123 114.446 105.763C115.783 104.403 116.533 102.56 116.533 100.636C116.533 98.7137 115.783 96.8692 114.446 95.5093C113.109 94.1494 111.296 93.3857 109.406 93.3857C107.515 93.3857 105.702 94.1494 104.366 95.5093C103.029 96.8692 102.277 98.7136 102.277 100.636C102.277 102.56 103.029 104.403 104.366 105.763C105.702 107.123 107.515 107.887 109.406 107.887Z" fill="#CCCCCC"/>
<path d="M350.082 216.171L353.701 230.353L359.05 228.752L353.921 210.313C353.576 209.1 352.905 208.01 351.986 207.162C351.067 206.314 349.934 205.742 348.714 205.511C343.594 204.636 338.366 204.636 333.248 205.511C332.025 205.738 330.89 206.307 329.969 207.156C329.048 208.004 328.38 209.098 328.039 210.313L322.895 228.719L328.26 230.32L331.863 216.139L334.098 216.73L328.086 240.42H334.379L334.38 267.726H339.903V242.116H342.2V267.726H347.613L347.612 240.42H353.905L347.847 216.763L350.082 216.171Z" fill="#CCCCCC"/>
<path d="M340.974 201.331C342.864 201.331 344.677 200.568 346.014 199.208C347.351 197.848 348.102 196.005 348.102 194.081C348.102 192.158 347.351 190.314 346.014 188.954C344.677 187.594 342.864 186.83 340.974 186.83C339.083 186.83 337.27 187.594 335.934 188.954C334.598 190.314 333.846 192.158 333.846 194.081C333.846 196.004 334.598 197.848 335.934 199.208C337.27 200.568 339.083 201.331 340.974 201.331Z" fill="#CCCCCC"/>
<path d="M350.082 29.3411L353.701 43.5226L359.05 41.9215L353.921 23.4828C353.576 22.2703 352.905 21.1795 351.986 20.3322C351.067 19.4836 349.934 18.912 348.714 18.6809C343.594 17.8056 338.366 17.8056 333.248 18.6809C332.025 18.9076 330.89 19.477 329.969 20.3255C329.048 21.174 328.38 22.2682 328.039 23.4829L322.895 41.8891L328.26 43.4902L331.863 29.3087L334.098 29.9004L328.086 53.5899H334.379L334.38 80.8957H339.903V55.2857H342.2V80.8957H347.613L347.612 53.5899H353.905L347.847 29.9327L350.082 29.3411Z" fill="#CCCCCC"/>
<path d="M340.974 14.5012C342.864 14.5012 344.677 13.7375 346.014 12.3776C347.351 11.0177 348.102 9.17442 348.102 7.25057C348.102 5.32798 347.351 3.48348 346.014 2.12355C344.677 0.763681 342.864 0 340.974 0C339.083 0 337.27 0.763681 335.934 2.12355C334.598 3.48342 333.846 5.32787 333.846 7.25057C333.846 9.17428 334.598 11.0177 335.934 12.3776C337.27 13.7375 339.083 14.5012 340.974 14.5012Z" fill="#CCCCCC"/>
<path d="M350.082 402.945L353.701 417.126L359.05 415.525L353.921 397.086C353.576 395.874 352.905 394.783 351.986 393.936C351.067 393.087 349.934 392.516 348.714 392.284C343.594 391.409 338.366 391.409 333.248 392.284C332.025 392.511 330.89 393.08 329.969 393.929C329.048 394.778 328.38 395.872 328.039 397.086L322.895 415.493L328.26 417.094L331.863 402.912L334.098 403.504L328.086 427.193H334.379L334.38 454.499H339.903V428.889H342.2V454.499H347.613L347.612 427.193H353.905L347.847 403.536L350.082 402.945Z" fill="#CCCCCC"/>
<path d="M340.974 388.105C342.864 388.105 344.677 387.341 346.014 385.981C347.351 384.621 348.102 382.778 348.102 380.854C348.102 378.931 347.351 377.087 346.014 375.727C344.677 374.367 342.864 373.604 340.974 373.604C339.083 373.604 337.27 374.367 335.934 375.727C334.598 377.087 333.846 378.931 333.846 380.854C333.846 382.778 334.598 384.621 335.934 385.981C337.27 387.341 339.083 388.105 340.974 388.105Z" fill="#CCCCCC"/>
<path d="M118.514 216.143L122.132 230.324L127.482 228.723L122.353 210.285C122.007 209.072 121.337 207.981 120.418 207.134C119.498 206.285 118.366 205.714 117.145 205.483C112.025 204.607 106.798 204.607 101.679 205.483C100.457 205.709 99.3217 206.279 98.4009 207.127C97.4801 207.976 96.8117 209.07 96.4703 210.285L91.3262 228.691L96.692 230.292L100.295 216.11L102.53 216.702L96.5176 240.392H102.811L102.812 267.697H108.334V242.087H110.631V267.697H116.044L116.043 240.392H122.336L116.279 216.734L118.514 216.143Z" fill="#CCCCCC"/>
<path d="M109.406 201.303C111.296 201.303 113.109 200.539 114.446 199.179C115.783 197.819 116.533 195.976 116.533 194.052C116.533 192.13 115.783 190.285 114.446 188.925C113.109 187.565 111.296 186.802 109.406 186.802C107.515 186.802 105.702 187.565 104.366 188.925C103.029 190.285 102.277 192.13 102.277 194.052C102.277 195.976 103.029 197.819 104.366 199.179C105.702 200.539 107.515 201.303 109.406 201.303Z" fill="#CCCCCC"/>
<path d="M118.514 29.3411L122.132 43.5226L127.482 41.9215L122.353 23.4828C122.007 22.2703 121.337 21.1795 120.418 20.3322C119.498 19.4836 118.366 18.912 117.145 18.6809C112.025 17.8056 106.798 17.8056 101.679 18.6809C100.457 18.9076 99.3217 19.477 98.4009 20.3255C97.4801 21.174 96.8117 22.2682 96.4703 23.4829L91.3262 41.8891L96.692 43.4902L100.295 29.3087L102.53 29.9004L96.5176 53.5899H102.811L102.812 80.8957H108.334V55.2857H110.631V80.8957H116.044L116.043 53.5899H122.336L116.279 29.9327L118.514 29.3411Z" fill="#CCCCCC"/>
<path d="M109.406 14.5012C111.296 14.5012 113.109 13.7375 114.446 12.3776C115.783 11.0177 116.533 9.17442 116.533 7.25057C116.533 5.32798 115.783 3.48348 114.446 2.12355C113.109 0.763681 111.296 0 109.406 0C107.515 0 105.702 0.763681 104.366 2.12355C103.029 3.48342 102.277 5.32787 102.277 7.25057C102.277 9.17428 103.029 11.0177 104.366 12.3776C105.702 13.7375 107.515 14.5012 109.406 14.5012Z" fill="#CCCCCC"/>
<path d="M350.082 122.785L353.701 136.967L359.05 135.366L353.921 116.927C353.576 115.715 352.905 114.624 351.986 113.777C351.067 112.928 349.934 112.356 348.714 112.125C343.594 111.25 338.366 111.25 333.248 112.125C332.025 112.352 330.89 112.921 329.969 113.77C329.048 114.618 328.38 115.713 328.039 116.927L322.895 135.333L328.26 136.934L331.863 122.753L334.098 123.345L328.086 147.034H334.379L334.38 174.34H339.903V148.73H342.2V174.34H347.613L347.612 147.034H353.905L347.847 123.377L350.082 122.785Z" fill="#CCCCCC"/>
<path d="M340.974 107.945C342.864 107.945 344.677 107.182 346.014 105.822C347.351 104.462 348.102 102.619 348.102 100.695C348.102 98.7723 347.351 96.9278 346.014 95.5679C344.677 94.208 342.864 93.4443 340.974 93.4443C339.083 93.4443 337.27 94.208 335.934 95.5679C334.598 96.9278 333.846 98.7722 333.846 100.695C333.846 102.619 334.598 104.462 335.934 105.822C337.27 107.182 339.083 107.945 340.974 107.945Z" fill="#CCCCCC"/>
<path d="M118.514 402.915L122.132 417.097L127.482 415.496L122.353 397.057C122.007 395.844 121.337 394.754 120.418 393.906C119.498 393.058 118.366 392.486 117.145 392.255C112.025 391.38 106.798 391.38 101.679 392.255C100.457 392.482 99.3217 393.051 98.4009 393.9C97.4801 394.748 96.8117 395.842 96.4703 397.057L91.3262 415.463L96.692 417.064L100.295 402.883L102.53 403.475L96.5176 427.164H102.811L102.812 454.47H108.334V428.86H110.631V454.47H116.044L116.043 427.164H122.336L116.279 403.507L118.514 402.915Z" fill="#CCCCCC"/>
<path d="M109.406 388.075C111.296 388.075 113.109 387.312 114.446 385.952C115.783 384.592 116.533 382.749 116.533 380.825C116.533 378.902 115.783 377.058 114.446 375.698C113.109 374.338 111.296 373.574 109.406 373.574C107.515 373.574 105.702 374.338 104.366 375.698C103.029 377.058 102.277 378.902 102.277 380.825C102.277 382.748 103.029 384.592 104.366 385.952C105.702 387.312 107.515 388.075 109.406 388.075Z" fill="#CCCCCC"/>
<path d="M350.082 309.558L353.701 323.739L359.05 322.138L353.921 303.7C353.576 302.487 352.905 301.396 351.986 300.549C351.067 299.7 349.934 299.129 348.714 298.898C343.594 298.022 338.366 298.022 333.248 298.898C332.025 299.124 330.89 299.694 329.969 300.542C329.048 301.391 328.38 302.485 328.039 303.7L322.895 322.106L328.26 323.707L331.863 309.525L334.098 310.117L328.086 333.807H334.379L334.38 361.112H339.903V335.503H342.2V361.112H347.613L347.612 333.807H353.905L347.847 310.149L350.082 309.558Z" fill="#CCCCCC"/>
<path d="M340.974 294.718C342.864 294.718 344.677 293.954 346.014 292.594C347.351 291.235 348.102 289.391 348.102 287.467C348.102 285.545 347.351 283.7 346.014 282.34C344.677 280.98 342.864 280.217 340.974 280.217C339.083 280.217 337.27 280.98 335.934 282.34C334.598 283.7 333.846 285.545 333.846 287.467C333.846 289.391 334.598 291.234 335.934 292.594C337.27 293.954 339.083 294.718 340.974 294.718Z" fill="#CCCCCC"/>
<path d="M209.717 309.53L213.336 323.711L218.685 322.11L213.556 303.671C213.21 302.459 212.54 301.368 211.621 300.521C210.701 299.672 209.569 299.1 208.348 298.869C203.228 297.994 198.001 297.994 192.882 298.869C191.66 299.096 190.525 299.665 189.604 300.514C188.683 301.362 188.015 302.457 187.673 303.671L182.529 322.078L187.895 323.679L191.498 309.497L193.733 310.089L187.721 333.778H194.014L194.015 361.084H199.537V335.474H201.835V361.084H207.248L207.246 333.778H213.54L207.482 310.121L209.717 309.53Z" fill="#CCCCCC"/>
<path d="M200.607 294.69C202.497 294.69 204.31 293.926 205.647 292.566C206.984 291.206 207.734 289.363 207.734 287.439C207.734 285.516 206.984 283.672 205.647 282.312C204.31 280.952 202.497 280.188 200.607 280.188C198.716 280.188 196.903 280.952 195.567 282.312C194.23 283.672 193.479 285.516 193.479 287.439C193.479 289.363 194.23 291.206 195.567 292.566C196.903 293.926 198.716 294.69 200.607 294.69Z" fill="#CCCCCC"/>
<path d="M209.717 122.728L213.336 136.909L218.685 135.308L213.556 116.869C213.21 115.657 212.54 114.566 211.621 113.719C210.701 112.87 209.569 112.299 208.348 112.068C203.228 111.192 198.001 111.192 192.882 112.068C191.66 112.294 190.525 112.864 189.604 113.712C188.683 114.561 188.015 115.655 187.673 116.87L182.529 135.276L187.895 136.877L191.498 122.695L193.733 123.287L187.721 146.977H194.014L194.015 174.282H199.537V148.672H201.835V174.282H207.248L207.246 146.977H213.54L207.482 123.319L209.717 122.728Z" fill="#CCCCCC"/>
<path d="M200.609 107.889C202.499 107.889 204.312 107.125 205.649 105.765C206.986 104.405 207.736 102.562 207.736 100.638C207.736 98.7157 206.986 96.8712 205.649 95.5112C204.312 94.1514 202.499 93.3877 200.609 93.3877C198.718 93.3877 196.905 94.1514 195.569 95.5112C194.232 96.8711 193.48 98.7156 193.48 100.638C193.48 102.562 194.232 104.405 195.569 105.765C196.905 107.125 198.718 107.889 200.609 107.889Z" fill="#CCCCCC"/>
<path d="M441.285 216.171L444.904 230.353L450.253 228.752L445.124 210.313C444.779 209.1 444.108 208.01 443.19 207.162C442.27 206.314 441.137 205.742 439.917 205.511C434.797 204.636 429.57 204.636 424.451 205.511C423.228 205.738 422.093 206.307 421.172 207.156C420.252 208.004 419.583 209.098 419.242 210.313L414.098 228.719L419.464 230.32L423.067 216.139L425.301 216.73L419.289 240.42H425.582L425.583 267.726H431.106V242.116H433.403V267.726H438.816L438.815 240.42H445.108L439.051 216.763L441.285 216.171Z" fill="#CCCCCC"/>
<path d="M432.177 201.331C434.067 201.331 435.88 200.568 437.217 199.208C438.554 197.848 439.305 196.005 439.305 194.081C439.305 192.158 438.554 190.314 437.217 188.954C435.88 187.594 434.067 186.83 432.177 186.83C430.286 186.83 428.473 187.594 427.137 188.954C425.801 190.314 425.049 192.158 425.049 194.081C425.049 196.004 425.801 197.848 427.137 199.208C428.473 200.568 430.286 201.331 432.177 201.331Z" fill="#CCCCCC"/>
<path d="M441.285 29.3411L444.904 43.5226L450.253 41.9215L445.124 23.4828C444.779 22.2703 444.108 21.1795 443.19 20.3322C442.27 19.4836 441.137 18.912 439.917 18.6809C434.797 17.8056 429.57 17.8056 424.451 18.6809C423.228 18.9076 422.093 19.477 421.172 20.3255C420.252 21.174 419.583 22.2682 419.242 23.4829L414.098 41.8891L419.464 43.4902L423.067 29.3087L425.301 29.9004L419.289 53.5899H425.582L425.583 80.8957H431.106V55.2857H433.403V80.8957H438.816L438.815 53.5899H445.108L439.051 29.9327L441.285 29.3411Z" fill="#CCCCCC"/>
<path d="M432.177 14.5012C434.067 14.5012 435.88 13.7375 437.217 12.3776C438.554 11.0177 439.305 9.17442 439.305 7.25057C439.305 5.32798 438.554 3.48348 437.217 2.12355C435.88 0.763681 434.067 0 432.177 0C430.286 0 428.473 0.763681 427.137 2.12355C425.801 3.48342 425.049 5.32787 425.049 7.25057C425.049 9.17428 425.801 11.0177 427.137 12.3776C428.473 13.7375 430.286 14.5012 432.177 14.5012Z" fill="#CCCCCC"/>
<path d="M441.285 402.945L444.904 417.126L450.253 415.525L445.124 397.086C444.779 395.874 444.108 394.783 443.19 393.936C442.27 393.087 441.137 392.516 439.917 392.284C434.797 391.409 429.57 391.409 424.451 392.284C423.228 392.511 422.093 393.08 421.172 393.929C420.252 394.778 419.583 395.872 419.242 397.086L414.098 415.493L419.464 417.094L423.067 402.912L425.301 403.504L419.289 427.193H425.582L425.583 454.499H431.106V428.889H433.403V454.499H438.816L438.815 427.193H445.108L439.051 403.536L441.285 402.945Z" fill="#CCCCCC"/>
<path d="M432.177 388.105C434.067 388.105 435.88 387.341 437.217 385.981C438.554 384.621 439.305 382.778 439.305 380.854C439.305 378.931 438.554 377.087 437.217 375.727C435.88 374.367 434.067 373.604 432.177 373.604C430.286 373.604 428.473 374.367 427.137 375.727C425.801 377.087 425.049 378.931 425.049 380.854C425.049 382.778 425.801 384.621 427.137 385.981C428.473 387.341 430.286 388.105 432.177 388.105Z" fill="#CCCCCC"/>
<path d="M209.717 216.144L213.336 230.325L218.685 228.724L213.556 210.285C213.21 209.073 212.54 207.982 211.621 207.135C210.701 206.286 209.569 205.715 208.348 205.484C203.228 204.608 198.001 204.608 192.882 205.484C191.66 205.71 190.525 206.28 189.604 207.128C188.683 207.977 188.015 209.071 187.673 210.286L182.529 228.692L187.895 230.293L191.498 216.111L193.733 216.703L187.721 240.393H194.014L194.015 267.698H199.537V242.088H201.835V267.698H207.248L207.246 240.393H213.54L207.482 216.735L209.717 216.144Z" fill="#CCCCCC"/>
<path d="M200.607 201.304C202.497 201.304 204.31 200.54 205.647 199.18C206.984 197.82 207.734 195.977 207.734 194.053C207.734 192.131 206.984 190.286 205.647 188.926C204.31 187.566 202.497 186.803 200.607 186.803C198.716 186.803 196.903 187.566 195.567 188.926C194.23 190.286 193.479 192.131 193.479 194.053C193.479 195.977 194.23 197.82 195.567 199.18C196.903 200.54 198.716 201.304 200.607 201.304Z" fill="#CCCCCC"/>
<path d="M209.717 29.3411L213.336 43.5226L218.685 41.9215L213.556 23.4828C213.21 22.2703 212.54 21.1795 211.621 20.3322C210.701 19.4836 209.569 18.912 208.348 18.6809C203.228 17.8056 198.001 17.8056 192.882 18.6809C191.66 18.9076 190.525 19.477 189.604 20.3255C188.683 21.174 188.015 22.2682 187.673 23.4829L182.529 41.8891L187.895 43.4902L191.498 29.3087L193.733 29.9004L187.721 53.5899H194.014L194.015 80.8957H199.537V55.2857H201.835V80.8957H207.248L207.246 53.5899H213.54L207.482 29.9327L209.717 29.3411Z" fill="#CCCCCC"/>
<path d="M200.609 14.5012C202.499 14.5012 204.312 13.7375 205.649 12.3776C206.986 11.0177 207.736 9.17442 207.736 7.25057C207.736 5.32798 206.986 3.48348 205.649 2.12355C204.312 0.763681 202.499 0 200.609 0C198.718 0 196.905 0.763681 195.569 2.12355C194.232 3.48342 193.48 5.32787 193.48 7.25057C193.48 9.17428 194.232 11.0177 195.569 12.3776C196.905 13.7375 198.718 14.5012 200.609 14.5012Z" fill="#CCCCCC"/>
<path d="M441.285 122.783L444.904 136.965L450.253 135.364L445.124 116.925C444.779 115.713 444.108 114.622 443.19 113.775C442.27 112.926 441.137 112.354 439.917 112.123C434.797 111.248 429.57 111.248 424.451 112.123C423.228 112.35 422.093 112.919 421.172 113.768C420.252 114.616 419.583 115.711 419.242 116.925L414.098 135.331L419.464 136.933L423.067 122.751L425.301 123.343L419.289 147.032H425.582L425.583 174.338H431.106V148.728H433.403V174.338H438.816L438.815 147.032H445.108L439.051 123.375L441.285 122.783Z" fill="#CCCCCC"/>
<path d="M432.177 107.945C434.067 107.945 435.88 107.181 437.217 105.821C438.554 104.461 439.305 102.618 439.305 100.694C439.305 98.7713 438.554 96.9268 437.217 95.5669C435.88 94.207 434.067 93.4434 432.177 93.4434C430.286 93.4434 428.473 94.207 427.137 95.5669C425.801 96.9268 425.049 98.7712 425.049 100.694C425.049 102.618 425.801 104.461 427.137 105.821C428.473 107.181 430.286 107.945 432.177 107.945Z" fill="#CCCCCC"/>
<path d="M209.717 402.915L213.336 417.097L218.685 415.496L213.556 397.057C213.21 395.844 212.54 394.754 211.621 393.906C210.701 393.058 209.569 392.486 208.348 392.255C203.228 391.38 198.001 391.38 192.882 392.255C191.66 392.482 190.525 393.051 189.604 393.9C188.683 394.748 188.015 395.842 187.673 397.057L182.529 415.463L187.895 417.064L191.498 402.883L193.733 403.475L187.721 427.164H194.014L194.015 454.47H199.537V428.86H201.835V454.47H207.248L207.246 427.164H213.54L207.482 403.507L209.717 402.915Z" fill="#CCCCCC"/>
<path d="M200.607 388.075C202.497 388.075 204.31 387.312 205.647 385.952C206.984 384.592 207.734 382.749 207.734 380.825C207.734 378.902 206.984 377.058 205.647 375.698C204.31 374.338 202.497 373.574 200.607 373.574C198.716 373.574 196.903 374.338 195.567 375.698C194.23 377.058 193.479 378.902 193.479 380.825C193.479 382.748 194.23 384.592 195.567 385.952C196.903 387.312 198.716 388.075 200.607 388.075Z" fill="#CCCCCC"/>
<path d="M441.285 309.557L444.904 323.738L450.253 322.137L445.124 303.699C444.779 302.486 444.108 301.395 443.19 300.548C442.27 299.699 441.137 299.128 439.917 298.897C434.797 298.021 429.57 298.021 424.451 298.897C423.228 299.123 422.093 299.693 421.172 300.541C420.252 301.39 419.583 302.484 419.242 303.699L414.098 322.105L419.464 323.706L423.067 309.524L425.301 310.116L419.289 333.806H425.582L425.583 361.112H431.106V335.502H433.403V361.112H438.816L438.815 333.806H445.108L439.051 310.149L441.285 309.557Z" fill="#CCCCCC"/>
<path d="M432.177 294.718C434.067 294.718 435.88 293.954 437.217 292.594C438.554 291.235 439.305 289.391 439.305 287.467C439.305 285.545 438.554 283.7 437.217 282.34C435.88 280.98 434.067 280.217 432.177 280.217C430.286 280.217 428.473 280.98 427.137 282.34C425.801 283.7 425.049 285.545 425.049 287.467C425.049 289.391 425.801 291.234 427.137 292.594C428.473 293.954 430.286 294.718 432.177 294.718Z" fill="#CCCCCC"/>
<path d="M27.1877 309.528L30.8062 323.709L36.1555 322.108L31.0268 303.669C30.681 302.457 30.0105 301.366 29.0919 300.519C28.1722 299.67 27.0395 299.099 25.8192 298.867C20.6992 297.992 15.4719 297.992 10.353 298.867C9.13034 299.094 7.99553 299.663 7.0747 300.512C6.1539 301.361 5.48551 302.455 5.14417 303.669L0 322.076L5.36585 323.677L8.96892 309.495L11.2035 310.087L5.1914 333.776H11.4844L11.4855 361.082H17.0081V335.472H19.3052V361.082H24.7183L24.7172 333.776H31.0102L24.9529 310.119L27.1877 309.528Z" fill="#CCCCCC"/>
<path d="M18.0797 294.689C19.9696 294.689 21.7828 293.925 23.1196 292.565C24.4564 291.205 25.2071 289.362 25.2071 287.438C25.2071 285.515 24.4564 283.671 23.1196 282.311C21.7828 280.951 19.9697 280.188 18.0797 280.188C16.1886 280.188 14.3754 280.951 13.0397 282.311C11.703 283.671 10.9512 285.515 10.9512 287.438C10.9512 289.362 11.703 291.205 13.0397 292.565C14.3754 293.925 16.1885 294.689 18.0797 294.689Z" fill="#CCCCCC"/>
<path d="M27.1877 122.728L30.8062 136.909L36.1555 135.308L31.0268 116.869C30.681 115.657 30.0105 114.566 29.0919 113.719C28.1722 112.87 27.0395 112.299 25.8192 112.068C20.6992 111.192 15.4719 111.192 10.353 112.068C9.13034 112.294 7.99553 112.864 7.0747 113.712C6.1539 114.561 5.48551 115.655 5.14417 116.87L0 135.276L5.36585 136.877L8.96892 122.695L11.2035 123.287L5.1914 146.977H11.4844L11.4855 174.282H17.0081V148.672H19.3052V174.282H24.7183L24.7172 146.977H31.0102L24.9529 123.319L27.1877 122.728Z" fill="#CCCCCC"/>
<path d="M18.0797 107.889C19.9696 107.889 21.7828 107.125 23.1196 105.765C24.4564 104.405 25.2071 102.562 25.2071 100.638C25.2071 98.7157 24.4564 96.8712 23.1196 95.5112C21.7828 94.1514 19.9697 93.3877 18.0797 93.3877C16.1886 93.3877 14.3754 94.1514 13.0397 95.5112C11.703 96.8711 10.9512 98.7156 10.9512 100.638C10.9512 102.562 11.703 104.405 13.0397 105.765C14.3754 107.125 16.1885 107.889 18.0797 107.889Z" fill="#CCCCCC"/>
<path d="M258.754 216.171L262.373 230.353L267.722 228.752L262.593 210.313C262.247 209.1 261.577 208.01 260.658 207.162C259.739 206.314 258.606 205.742 257.386 205.511C252.266 204.636 247.038 204.636 241.919 205.511C240.697 205.738 239.562 206.307 238.641 207.156C237.72 208.004 237.052 209.098 236.711 210.313L231.566 228.719L236.932 230.32L240.535 216.139L242.77 216.73L236.758 240.42H243.051L243.052 267.726H248.575V242.116H250.872V267.726H256.285L256.284 240.42H262.577L256.519 216.763L258.754 216.171Z" fill="#CCCCCC"/>
<path d="M249.646 201.331C251.536 201.331 253.349 200.568 254.686 199.208C256.023 197.848 256.773 196.005 256.773 194.081C256.773 192.158 256.023 190.314 254.686 188.954C253.349 187.594 251.536 186.83 249.646 186.83C247.755 186.83 245.942 187.594 244.606 188.954C243.269 190.314 242.518 192.158 242.518 194.081C242.518 196.004 243.269 197.848 244.606 199.208C245.942 200.568 247.755 201.331 249.646 201.331Z" fill="#CCCCCC"/>
<path d="M258.754 29.3411L262.373 43.5226L267.722 41.9215L262.593 23.4828C262.247 22.2703 261.577 21.1795 260.658 20.3322C259.739 19.4836 258.606 18.912 257.386 18.6809C252.266 17.8056 247.038 17.8056 241.919 18.6809C240.697 18.9076 239.562 19.477 238.641 20.3255C237.72 21.174 237.052 22.2682 236.711 23.4829L231.566 41.8891L236.932 43.4902L240.535 29.3087L242.77 29.9004L236.758 53.5899H243.051L243.052 80.8957H248.575V55.2857H250.872V80.8957H256.285L256.284 53.5899H262.577L256.519 29.9327L258.754 29.3411Z" fill="#CCCCCC"/>
<path d="M249.646 14.5012C251.536 14.5012 253.349 13.7375 254.686 12.3776C256.023 11.0177 256.773 9.17442 256.773 7.25057C256.773 5.32798 256.023 3.48348 254.686 2.12355C253.349 0.763681 251.536 0 249.646 0C247.755 0 245.942 0.763681 244.606 2.12355C243.269 3.48342 242.518 5.32787 242.518 7.25057C242.518 9.17428 243.269 11.0177 244.606 12.3776C245.942 13.7375 247.755 14.5012 249.646 14.5012Z" fill="#CCCCCC"/>
<path d="M258.754 402.945L262.373 417.126L267.722 415.525L262.593 397.086C262.247 395.874 261.577 394.783 260.658 393.936C259.739 393.087 258.606 392.516 257.386 392.284C252.266 391.409 247.038 391.409 241.919 392.284C240.697 392.511 239.562 393.08 238.641 393.929C237.72 394.778 237.052 395.872 236.711 397.086L231.566 415.493L236.932 417.094L240.535 402.912L242.77 403.504L236.758 427.193H243.051L243.052 454.499H248.575V428.889H250.872V454.499H256.285L256.284 427.193H262.577L256.519 403.536L258.754 402.945Z" fill="#CCCCCC"/>
<path d="M249.646 388.105C251.536 388.105 253.349 387.341 254.686 385.981C256.023 384.621 256.773 382.778 256.773 380.854C256.773 378.931 256.023 377.087 254.686 375.727C253.349 374.367 251.536 373.604 249.646 373.604C247.755 373.604 245.942 374.367 244.606 375.727C243.269 377.087 242.518 378.931 242.518 380.854C242.518 382.778 243.269 384.621 244.606 385.981C245.942 387.341 247.755 388.105 249.646 388.105Z" fill="#CCCCCC"/>
<path d="M27.1877 216.143L30.8062 230.324L36.1555 228.723L31.0268 210.285C30.681 209.072 30.0105 207.981 29.0919 207.134C28.1722 206.285 27.0395 205.714 25.8192 205.483C20.6992 204.607 15.4719 204.607 10.353 205.483C9.13034 205.709 7.99553 206.279 7.0747 207.127C6.1539 207.976 5.48551 209.07 5.14417 210.285L0 228.691L5.36585 230.292L8.96892 216.11L11.2035 216.702L5.1914 240.392H11.4844L11.4855 267.697H17.0081V242.087H19.3052V267.697H24.7183L24.7172 240.392H31.0102L24.9529 216.734L27.1877 216.143Z" fill="#CCCCCC"/>
<path d="M18.0797 201.303C19.9696 201.303 21.7828 200.539 23.1196 199.179C24.4564 197.819 25.2071 195.976 25.2071 194.052C25.2071 192.13 24.4564 190.285 23.1196 188.925C21.7828 187.565 19.9697 186.802 18.0797 186.802C16.1886 186.802 14.3754 187.565 13.0397 188.925C11.703 190.285 10.9512 192.13 10.9512 194.052C10.9512 195.976 11.703 197.819 13.0397 199.179C14.3754 200.539 16.1885 201.303 18.0797 201.303Z" fill="#CCCCCC"/>
<path d="M27.1877 29.3411L30.8062 43.5226L36.1555 41.9215L31.0268 23.4828C30.681 22.2703 30.0105 21.1795 29.0919 20.3322C28.1722 19.4836 27.0395 18.912 25.8192 18.6809C20.6992 17.8056 15.4719 17.8056 10.353 18.6809C9.13034 18.9076 7.99553 19.477 7.0747 20.3255C6.1539 21.174 5.48551 22.2682 5.14417 23.4829L0 41.8891L5.36585 43.4902L8.96892 29.3087L11.2035 29.9004L5.1914 53.5899H11.4844L11.4855 80.8957H17.0081V55.2857H19.3052V80.8957H24.7183L24.7172 53.5899H31.0102L24.9529 29.9327L27.1877 29.3411Z" fill="#CCCCCC"/>
<path d="M18.0797 14.5012C19.9696 14.5012 21.7828 13.7375 23.1196 12.3776C24.4564 11.0177 25.2071 9.17442 25.2071 7.25057C25.2071 5.32798 24.4564 3.48348 23.1196 2.12355C21.7828 0.763681 19.9697 0 18.0797 0C16.1886 0 14.3754 0.763681 13.0397 2.12355C11.703 3.48342 10.9512 5.32787 10.9512 7.25057C10.9512 9.17428 11.703 11.0177 13.0397 12.3776C14.3754 13.7375 16.1885 14.5012 18.0797 14.5012Z" fill="#CCCCCC"/>
<path d="M258.754 122.785L262.373 136.967L267.722 135.366L262.593 116.927C262.247 115.715 261.577 114.624 260.658 113.777C259.739 112.928 258.606 112.356 257.386 112.125C252.266 111.25 247.038 111.25 241.919 112.125C240.697 112.352 239.562 112.921 238.641 113.77C237.72 114.618 237.052 115.713 236.711 116.927L231.566 135.333L236.932 136.934L240.535 122.753L242.77 123.345L236.758 147.034H243.051L243.052 174.34H248.575V148.73H250.872V174.34H256.285L256.284 147.034H262.577L256.519 123.377L258.754 122.785Z" fill="#CCCCCC"/>
<path d="M249.646 107.945C251.536 107.945 253.349 107.182 254.686 105.822C256.023 104.462 256.773 102.619 256.773 100.695C256.773 98.7723 256.023 96.9278 254.686 95.5679C253.349 94.208 251.536 93.4443 249.646 93.4443C247.755 93.4443 245.942 94.208 244.606 95.5679C243.269 96.9278 242.518 98.7722 242.518 100.695C242.518 102.619 243.269 104.462 244.606 105.822C245.942 107.182 247.755 107.945 249.646 107.945Z" fill="#CCCCCC"/>
<path d="M27.1877 402.915L30.8062 417.097L36.1555 415.496L31.0268 397.057C30.681 395.844 30.0105 394.754 29.0919 393.906C28.1722 393.058 27.0395 392.486 25.8192 392.255C20.6992 391.38 15.4719 391.38 10.353 392.255C9.13034 392.482 7.99553 393.051 7.0747 393.9C6.1539 394.748 5.48551 395.842 5.14417 397.057L0 415.463L5.36585 417.064L8.96892 402.883L11.2035 403.475L5.1914 427.164H11.4844L11.4855 454.47H17.0081V428.86H19.3052V454.47H24.7183L24.7172 427.164H31.0102L24.9529 403.507L27.1877 402.915Z" fill="#CCCCCC"/>
<path d="M18.0797 388.075C19.9696 388.075 21.7828 387.312 23.1196 385.952C24.4564 384.592 25.2071 382.749 25.2071 380.825C25.2071 378.902 24.4564 377.058 23.1196 375.698C21.7828 374.338 19.9697 373.574 18.0797 373.574C16.1886 373.574 14.3754 374.338 13.0397 375.698C11.703 377.058 10.9512 378.902 10.9512 380.825C10.9512 382.748 11.703 384.592 13.0397 385.952C14.3754 387.312 16.1885 388.075 18.0797 388.075Z" fill="#CCCCCC"/>
<path d="M258.754 309.558L262.373 323.739L267.722 322.138L262.593 303.7C262.247 302.487 261.577 301.396 260.658 300.549C259.739 299.7 258.606 299.129 257.386 298.898C252.266 298.022 247.038 298.022 241.919 298.898C240.697 299.124 239.562 299.694 238.641 300.542C237.72 301.391 237.052 302.485 236.711 303.7L231.566 322.106L236.932 323.707L240.535 309.525L242.77 310.117L236.758 333.807H243.051L243.052 361.112H248.575V335.503H250.872V361.112H256.285L256.284 333.807H262.577L256.519 310.149L258.754 309.558Z" fill="#CCCCCC"/>
<path d="M249.646 294.718C251.536 294.718 253.349 293.954 254.686 292.594C256.023 291.235 256.773 289.391 256.773 287.467C256.773 285.545 256.023 283.7 254.686 282.34C253.349 280.98 251.536 280.217 249.646 280.217C247.755 280.217 245.942 280.98 244.606 282.34C243.269 283.7 242.518 285.545 242.518 287.467C242.518 289.391 243.269 291.234 244.606 292.594C245.942 293.954 247.755 294.718 249.646 294.718Z" fill="#CCCCCC"/>
<g opacity="0.5">
<path d="M231.481 50.2211C137.775 50.2211 61.4221 127.886 61.2756 223.353C61.2097 270.482 79.4848 316.174 111.426 348.714C141.766 379.623 182.068 396.644 224.925 396.644C227.212 396.644 229.514 396.597 231.827 396.501C327.072 392.526 401.688 316.481 401.688 223.362C401.688 127.887 325.335 50.2148 231.482 50.2148L231.481 50.2211ZM231.481 66.9185C268.855 66.9185 303.149 80.5647 329.826 103.2L112.925 325.504C90.3335 297.263 77.6322 260.842 77.6864 223.38C77.8152 137.105 146.806 66.917 231.477 66.917L231.481 66.9185ZM231.143 379.822C190.632 381.534 152.599 366.47 124.005 337.856L341.851 114.583C368.693 142.757 385.271 181.118 385.271 223.372C385.271 307.493 317.57 376.212 231.143 379.82V379.822Z" fill="#FF6058"/>
</g>
</svg>
