<svg width="792" height="1761" viewBox="0 0 792 1761" fill="none" xmlns="http://www.w3.org/2000/svg">
<g filter="url(#filter0_d_423_6912)">
<circle cx="391.502" cy="261.331" r="247.65" fill="white"/>
</g>
<path opacity="0.7" d="M603.408 261.756C608.108 261.756 611.935 265.568 611.753 270.264C610.185 310.625 597.487 349.828 574.986 383.504C550.907 419.541 516.682 447.629 476.639 464.215C436.596 480.802 392.534 485.141 350.025 476.686C307.516 468.23 268.469 447.359 237.822 416.712C207.174 386.064 186.303 347.017 177.847 304.508C169.392 261.999 173.732 217.937 190.318 177.894C206.904 137.852 234.992 103.627 271.029 79.5471C304.705 57.0459 343.909 44.3483 384.269 42.7805C388.965 42.598 392.777 46.4255 392.777 51.1256L392.777 253.246C392.777 257.946 396.588 261.756 401.288 261.756H603.408Z" fill="#EBECEC"/>
<path opacity="0.78" d="M632.345 270.267C639.395 270.267 645.143 264.548 644.799 257.506C643.334 227.555 636.722 198.047 625.223 170.284C612.093 138.586 592.848 109.784 568.587 85.5232C544.326 61.2624 515.524 42.0176 483.826 28.8877C456.063 17.3881 426.555 10.7763 396.604 9.31179C389.562 8.96746 383.844 14.7153 383.844 21.7655V257.501C383.844 264.551 389.559 270.267 396.609 270.267H632.345Z" fill="#BA3DD9"/>
<path opacity="0.1" fill-rule="evenodd" clip-rule="evenodd" d="M159.223 743.906C193.483 696.201 192.964 621.474 250.762 598.88C309.04 576.099 381.067 606.278 442.753 633.071C498.301 657.197 549.292 693.228 580.57 742.129C609.178 786.856 596.495 837.959 605.587 887.65C615.905 944.045 655.354 1000.43 637.373 1052.59C617.461 1110.35 573.061 1174.2 505.648 1177.56C436.371 1181.01 393.567 1096.1 327.777 1068.01C274.748 1045.37 211.589 1064 164.085 1031.73C108.542 994.008 50.5776 939.464 49.5571 879.049C48.5378 818.71 124.637 792.066 159.223 743.906Z" fill="#7192DB"/>
<path d="M113.541 940.441V967.134H110.056V955.032H96.4611V967.134H92.9762V940.441H96.4611V952.16H110.056V940.441H113.541ZM117.807 956.564C117.807 954.419 118.241 952.543 119.109 950.934C119.977 949.3 121.164 948.037 122.671 947.143C124.202 946.249 125.9 945.803 127.764 945.803C129.602 945.803 131.198 946.198 132.551 946.99C133.904 947.781 134.913 948.777 135.576 949.977V946.147H139.1V967.134H135.576V963.228C134.887 964.453 133.853 965.474 132.474 966.291C131.121 967.083 129.538 967.478 127.726 967.478C125.862 967.478 124.177 967.019 122.671 966.1C121.164 965.181 119.977 963.891 119.109 962.232C118.241 960.572 117.807 958.683 117.807 956.564ZM135.576 956.602C135.576 955.019 135.257 953.641 134.619 952.466C133.981 951.292 133.113 950.398 132.015 949.786C130.943 949.147 129.755 948.828 128.453 948.828C127.151 948.828 125.964 949.134 124.892 949.747C123.819 950.36 122.964 951.254 122.326 952.428C121.688 953.602 121.368 954.981 121.368 956.564C121.368 958.172 121.688 959.577 122.326 960.777C122.964 961.951 123.819 962.857 124.892 963.496C125.964 964.108 127.151 964.415 128.453 964.415C129.755 964.415 130.943 964.108 132.015 963.496C133.113 962.857 133.981 961.951 134.619 960.777C135.257 959.577 135.576 958.185 135.576 956.602ZM152.418 963.917L158.929 946.147H162.644L154.41 967.134H150.35L142.117 946.147H145.87L152.418 963.917ZM184.838 955.836C184.838 956.5 184.8 957.202 184.723 957.943H167.949C168.077 960.011 168.779 961.632 170.056 962.806C171.358 963.955 172.928 964.53 174.766 964.53C176.273 964.53 177.524 964.185 178.519 963.496C179.541 962.781 180.255 961.836 180.664 960.662H184.417C183.855 962.679 182.732 964.325 181.047 965.602C179.362 966.853 177.268 967.478 174.766 967.478C172.775 967.478 170.988 967.032 169.405 966.138C167.847 965.244 166.622 963.981 165.728 962.347C164.835 960.687 164.388 958.772 164.388 956.602C164.388 954.432 164.822 952.53 165.69 950.896C166.558 949.262 167.771 948.011 169.328 947.143C170.911 946.249 172.724 945.803 174.766 945.803C176.758 945.803 178.519 946.237 180.051 947.105C181.583 947.973 182.757 949.173 183.574 950.705C184.417 952.211 184.838 953.922 184.838 955.836ZM181.238 955.109C181.238 953.781 180.945 952.645 180.358 951.7C179.77 950.73 178.966 950.003 177.945 949.517C176.949 949.007 175.839 948.752 174.613 948.752C172.851 948.752 171.345 949.313 170.094 950.437C168.869 951.56 168.166 953.117 167.988 955.109H181.238ZM202.367 949.556C202.98 948.356 203.848 947.424 204.971 946.76C206.12 946.096 207.512 945.764 209.146 945.764V949.364H208.227C204.32 949.364 202.367 951.483 202.367 955.721V967.134H198.882V946.147H202.367V949.556ZM231.934 955.836C231.934 956.5 231.896 957.202 231.819 957.943H215.045C215.173 960.011 215.875 961.632 217.151 962.806C218.453 963.955 220.024 964.53 221.862 964.53C223.368 964.53 224.619 964.185 225.615 963.496C226.636 962.781 227.351 961.836 227.76 960.662H231.513C230.951 962.679 229.828 964.325 228.142 965.602C226.457 966.853 224.364 967.478 221.862 967.478C219.87 967.478 218.083 967.032 216.5 966.138C214.943 965.244 213.717 963.981 212.824 962.347C211.93 960.687 211.484 958.772 211.484 956.602C211.484 954.432 211.918 952.53 212.786 950.896C213.654 949.262 214.866 948.011 216.424 947.143C218.007 946.249 219.819 945.803 221.862 945.803C223.853 945.803 225.615 946.237 227.147 947.105C228.679 947.973 229.853 949.173 230.67 950.705C231.513 952.211 231.934 953.922 231.934 955.836ZM228.334 955.109C228.334 953.781 228.04 952.645 227.453 951.7C226.866 950.73 226.062 950.003 225.04 949.517C224.045 949.007 222.934 948.752 221.709 948.752C219.947 948.752 218.441 949.313 217.19 950.437C215.964 951.56 215.262 953.117 215.083 955.109H228.334ZM243.58 967.478C241.972 967.478 240.529 967.21 239.253 966.674C237.976 966.113 236.968 965.347 236.228 964.376C235.487 963.381 235.079 962.245 235.002 960.968H238.602C238.704 962.015 239.189 962.87 240.057 963.534C240.951 964.198 242.112 964.53 243.542 964.53C244.87 964.53 245.916 964.236 246.682 963.649C247.448 963.062 247.831 962.321 247.831 961.428C247.831 960.509 247.423 959.832 246.606 959.398C245.789 958.938 244.525 958.492 242.814 958.058C241.257 957.649 239.981 957.241 238.985 956.832C238.015 956.398 237.172 955.773 236.457 954.956C235.768 954.113 235.423 953.015 235.423 951.662C235.423 950.59 235.742 949.607 236.381 948.713C237.019 947.82 237.925 947.118 239.1 946.607C240.274 946.071 241.615 945.803 243.121 945.803C245.444 945.803 247.321 946.39 248.75 947.564C250.18 948.739 250.946 950.347 251.048 952.39H247.563C247.487 951.292 247.04 950.411 246.223 949.747C245.431 949.083 244.359 948.752 243.006 948.752C241.755 948.752 240.759 949.02 240.019 949.556C239.278 950.092 238.908 950.794 238.908 951.662C238.908 952.351 239.125 952.926 239.559 953.385C240.019 953.819 240.581 954.177 241.244 954.458C241.934 954.713 242.878 955.007 244.078 955.338C245.585 955.747 246.81 956.155 247.755 956.564C248.699 956.947 249.504 957.534 250.167 958.326C250.857 959.117 251.214 960.151 251.24 961.428C251.24 962.577 250.921 963.611 250.282 964.53C249.644 965.449 248.738 966.176 247.563 966.713C246.414 967.223 245.087 967.478 243.58 967.478ZM254.474 956.602C254.474 954.432 254.908 952.543 255.776 950.934C256.644 949.3 257.844 948.037 259.376 947.143C260.934 946.249 262.708 945.803 264.699 945.803C267.278 945.803 269.397 946.428 271.057 947.679C272.742 948.93 273.852 950.666 274.388 952.888H270.635C270.278 951.611 269.576 950.603 268.529 949.862C267.508 949.122 266.231 948.752 264.699 948.752C262.708 948.752 261.1 949.441 259.874 950.82C258.649 952.173 258.036 954.1 258.036 956.602C258.036 959.13 258.649 961.083 259.874 962.462C261.1 963.84 262.708 964.53 264.699 964.53C266.231 964.53 267.508 964.172 268.529 963.457C269.55 962.742 270.252 961.721 270.635 960.394H274.388C273.827 962.538 272.703 964.262 271.018 965.564C269.333 966.84 267.227 967.478 264.699 967.478C262.708 967.478 260.934 967.032 259.376 966.138C257.844 965.244 256.644 963.981 255.776 962.347C254.908 960.713 254.474 958.798 254.474 956.602ZM289.072 945.764C290.655 945.764 292.085 946.109 293.361 946.798C294.638 947.462 295.634 948.471 296.348 949.824C297.089 951.177 297.459 952.824 297.459 954.764V967.134H294.012V955.262C294.012 953.168 293.489 951.573 292.442 950.475C291.395 949.351 289.966 948.79 288.153 948.79C286.315 948.79 284.847 949.364 283.749 950.513C282.677 951.662 282.14 953.334 282.14 955.53V967.134H278.655V938.794H282.14V949.134C282.83 948.062 283.774 947.232 284.974 946.645C286.2 946.058 287.566 945.764 289.072 945.764ZM321.917 955.836C321.917 956.5 321.879 957.202 321.802 957.943H305.028C305.156 960.011 305.858 961.632 307.135 962.806C308.437 963.955 310.007 964.53 311.845 964.53C313.351 964.53 314.602 964.185 315.598 963.496C316.619 962.781 317.334 961.836 317.743 960.662H321.496C320.934 962.679 319.811 964.325 318.126 965.602C316.441 966.853 314.347 967.478 311.845 967.478C309.854 967.478 308.066 967.032 306.483 966.138C304.926 965.244 303.701 963.981 302.807 962.347C301.913 960.687 301.467 958.772 301.467 956.602C301.467 954.432 301.901 952.53 302.769 950.896C303.637 949.262 304.849 948.011 306.407 947.143C307.99 946.249 309.803 945.803 311.845 945.803C313.836 945.803 315.598 946.237 317.13 947.105C318.662 947.973 319.836 949.173 320.653 950.705C321.496 952.211 321.917 953.922 321.917 955.836ZM318.317 955.109C318.317 953.781 318.023 952.645 317.436 951.7C316.849 950.73 316.045 950.003 315.024 949.517C314.028 949.007 312.917 948.752 311.692 948.752C309.93 948.752 308.424 949.313 307.173 950.437C305.947 951.56 305.245 953.117 305.067 955.109H318.317ZM324.832 956.564C324.832 954.419 325.266 952.543 326.134 950.934C327.002 949.3 328.189 948.037 329.696 947.143C331.227 946.249 332.938 945.803 334.827 945.803C336.461 945.803 337.98 946.186 339.385 946.952C340.789 947.692 341.861 948.675 342.601 949.9V938.794H346.125V967.134H342.601V963.189C341.912 964.44 340.891 965.474 339.538 966.291C338.185 967.083 336.602 967.478 334.789 967.478C332.925 967.478 331.227 967.019 329.696 966.1C328.189 965.181 327.002 963.891 326.134 962.232C325.266 960.572 324.832 958.683 324.832 956.564ZM342.601 956.602C342.601 955.019 342.282 953.641 341.644 952.466C341.006 951.292 340.138 950.398 339.04 949.786C337.968 949.147 336.78 948.828 335.478 948.828C334.176 948.828 332.989 949.134 331.917 949.747C330.844 950.36 329.989 951.254 329.351 952.428C328.713 953.602 328.394 954.981 328.394 956.564C328.394 958.172 328.713 959.577 329.351 960.777C329.989 961.951 330.844 962.857 331.917 963.496C332.989 964.108 334.176 964.415 335.478 964.415C336.78 964.415 337.968 964.108 339.04 963.496C340.138 962.857 341.006 961.951 341.644 960.777C342.282 959.577 342.601 958.185 342.601 956.602ZM370.243 946.147V967.134H366.758V964.032C366.094 965.104 365.162 965.947 363.963 966.559C362.788 967.147 361.486 967.44 360.056 967.44C358.422 967.44 356.954 967.108 355.652 966.444C354.35 965.755 353.316 964.734 352.55 963.381C351.81 962.028 351.44 960.381 351.44 958.441V946.147H354.886V957.981C354.886 960.049 355.41 961.645 356.456 962.768C357.503 963.866 358.933 964.415 360.746 964.415C362.609 964.415 364.077 963.84 365.15 962.691C366.222 961.543 366.758 959.87 366.758 957.675V946.147H370.243ZM379.229 938.794V967.134H375.744V938.794H379.229ZM403.934 955.836C403.934 956.5 403.896 957.202 403.819 957.943H387.045C387.173 960.011 387.875 961.632 389.152 962.806C390.454 963.955 392.024 964.53 393.862 964.53C395.368 964.53 396.619 964.185 397.615 963.496C398.636 962.781 399.351 961.836 399.76 960.662H403.513C402.951 962.679 401.828 964.325 400.143 965.602C398.458 966.853 396.364 967.478 393.862 967.478C391.871 967.478 390.084 967.032 388.501 966.138C386.943 965.244 385.718 963.981 384.824 962.347C383.931 960.687 383.484 958.772 383.484 956.602C383.484 954.432 383.918 952.53 384.786 950.896C385.654 949.262 386.867 948.011 388.424 947.143C390.007 946.249 391.82 945.803 393.862 945.803C395.854 945.803 397.615 946.237 399.147 947.105C400.679 947.973 401.853 949.173 402.67 950.705C403.513 952.211 403.934 953.922 403.934 955.836ZM400.334 955.109C400.334 953.781 400.041 952.645 399.453 951.7C398.866 950.73 398.062 950.003 397.041 949.517C396.045 949.007 394.934 948.752 393.709 948.752C391.947 948.752 390.441 949.313 389.19 950.437C387.964 951.56 387.262 953.117 387.084 955.109H400.334ZM406.849 956.564C406.849 954.419 407.283 952.543 408.151 950.934C409.019 949.3 410.206 948.037 411.713 947.143C413.245 946.249 414.955 945.803 416.844 945.803C418.478 945.803 419.998 946.186 421.402 946.952C422.806 947.692 423.878 948.675 424.619 949.9V938.794H428.142V967.134H424.619V963.189C423.929 964.44 422.908 965.474 421.555 966.291C420.202 967.083 418.619 967.478 416.806 967.478C414.942 967.478 413.245 967.019 411.713 966.1C410.206 965.181 409.019 963.891 408.151 962.232C407.283 960.572 406.849 958.683 406.849 956.564ZM424.619 956.602C424.619 955.019 424.3 953.641 423.661 952.466C423.023 951.292 422.155 950.398 421.057 949.786C419.985 949.147 418.798 948.828 417.496 948.828C416.193 948.828 415.006 949.134 413.934 949.747C412.862 950.36 412.006 951.254 411.368 952.428C410.73 953.602 410.411 954.981 410.411 956.564C410.411 958.172 410.73 959.577 411.368 960.777C412.006 961.951 412.862 962.857 413.934 963.496C415.006 964.108 416.193 964.415 417.496 964.415C418.798 964.415 419.985 964.108 421.057 963.496C422.155 962.857 423.023 961.951 423.661 960.777C424.3 959.577 424.619 958.185 424.619 956.602ZM443.193 956.717C443.193 954.573 443.614 952.696 444.456 951.088C445.325 949.479 446.512 948.241 448.018 947.373C449.55 946.505 451.286 946.071 453.226 946.071C455.422 946.071 457.286 946.607 458.818 947.679C460.349 948.752 461.422 950.117 462.035 951.777V946.339H463.758V967.134H462.035V961.657C461.422 963.342 460.337 964.734 458.779 965.832C457.247 966.904 455.396 967.44 453.226 967.44C451.286 967.44 449.55 967.006 448.018 966.138C446.512 965.244 445.325 963.993 444.456 962.385C443.614 960.751 443.193 958.862 443.193 956.717ZM462.035 956.717C462.035 954.904 461.652 953.309 460.886 951.93C460.145 950.526 459.124 949.454 457.822 948.713C456.52 947.947 455.065 947.564 453.456 947.564C451.771 947.564 450.29 947.935 449.014 948.675C447.737 949.39 446.742 950.437 446.027 951.815C445.312 953.194 444.954 954.828 444.954 956.717C444.954 958.606 445.312 960.24 446.027 961.619C446.742 962.998 447.737 964.057 449.014 964.798C450.316 965.538 451.797 965.908 453.456 965.908C455.065 965.908 456.52 965.538 457.822 964.798C459.15 964.032 460.184 962.959 460.924 961.581C461.664 960.177 462.035 958.555 462.035 956.717ZM471.373 951.815C471.96 950.13 473.02 948.752 474.552 947.679C476.109 946.607 477.986 946.071 480.181 946.071C482.122 946.071 483.845 946.505 485.351 947.373C486.883 948.241 488.07 949.479 488.913 951.088C489.781 952.696 490.215 954.573 490.215 956.717C490.215 958.862 489.781 960.751 488.913 962.385C488.07 963.993 486.883 965.244 485.351 966.138C483.845 967.006 482.122 967.44 480.181 967.44C478.011 967.44 476.147 966.904 474.59 965.832C473.058 964.734 471.986 963.355 471.373 961.696V976.938H469.65V946.339H471.373V951.815ZM488.453 956.717C488.453 954.828 488.096 953.194 487.381 951.815C486.666 950.437 485.658 949.39 484.356 948.675C483.079 947.935 481.598 947.564 479.913 947.564C478.305 947.564 476.85 947.947 475.548 948.713C474.245 949.454 473.224 950.526 472.484 951.93C471.743 953.309 471.373 954.904 471.373 956.717C471.373 958.555 471.743 960.177 472.484 961.581C473.224 962.959 474.245 964.032 475.548 964.798C476.85 965.538 478.305 965.908 479.913 965.908C481.598 965.908 483.079 965.538 484.356 964.798C485.658 964.057 486.666 962.998 487.381 961.619C488.096 960.24 488.453 958.606 488.453 956.717ZM496.758 951.815C497.345 950.13 498.405 948.752 499.937 947.679C501.494 946.607 503.371 946.071 505.566 946.071C507.507 946.071 509.23 946.505 510.736 947.373C512.268 948.241 513.455 949.479 514.298 951.088C515.166 952.696 515.6 954.573 515.6 956.717C515.6 958.862 515.166 960.751 514.298 962.385C513.455 963.993 512.268 965.244 510.736 966.138C509.23 967.006 507.507 967.44 505.566 967.44C503.396 967.44 501.532 966.904 499.975 965.832C498.443 964.734 497.371 963.355 496.758 961.696V976.938H495.035V946.339H496.758V951.815ZM513.838 956.717C513.838 954.828 513.481 953.194 512.766 951.815C512.051 950.437 511.043 949.39 509.741 948.675C508.464 947.935 506.983 947.564 505.298 947.564C503.69 947.564 502.234 947.947 500.932 948.713C499.63 949.454 498.609 950.526 497.869 951.93C497.128 953.309 496.758 954.904 496.758 956.717C496.758 958.555 497.128 960.177 497.869 961.581C498.609 962.959 499.63 964.032 500.932 964.798C502.234 965.538 503.69 965.908 505.298 965.908C506.983 965.908 508.464 965.538 509.741 964.798C511.043 964.057 512.051 962.998 512.766 961.619C513.481 960.24 513.838 958.606 513.838 956.717ZM529.572 967.44C527.632 967.44 525.883 967.006 524.326 966.138C522.768 965.27 521.543 964.032 520.649 962.423C519.781 960.789 519.347 958.887 519.347 956.717C519.347 954.573 519.794 952.696 520.688 951.088C521.581 949.454 522.807 948.215 524.364 947.373C525.947 946.505 527.709 946.071 529.649 946.071C531.589 946.071 533.338 946.505 534.896 947.373C536.453 948.215 537.666 949.441 538.534 951.049C539.427 952.658 539.874 954.547 539.874 956.717C539.874 958.887 539.427 960.789 538.534 962.423C537.64 964.032 536.402 965.27 534.819 966.138C533.262 967.006 531.513 967.44 529.572 967.44ZM529.572 965.908C531.079 965.908 532.483 965.576 533.785 964.913C535.113 964.223 536.172 963.189 536.964 961.811C537.755 960.432 538.151 958.734 538.151 956.717C538.151 954.726 537.755 953.041 536.964 951.662C536.172 950.283 535.125 949.262 533.823 948.598C532.521 947.909 531.117 947.564 529.611 947.564C528.104 947.564 526.7 947.909 525.398 948.598C524.122 949.262 523.088 950.283 522.296 951.662C521.505 953.041 521.109 954.726 521.109 956.717C521.109 958.734 521.492 960.432 522.258 961.811C523.049 963.189 524.083 964.223 525.36 964.913C526.662 965.576 528.066 965.908 529.572 965.908ZM545.601 941.705C545.192 941.705 544.847 941.577 544.567 941.322C544.286 941.041 544.145 940.671 544.145 940.211C544.145 939.777 544.286 939.42 544.567 939.139C544.847 938.858 545.192 938.718 545.601 938.718C546.009 938.718 546.354 938.858 546.635 939.139C546.915 939.42 547.056 939.777 547.056 940.211C547.056 940.671 546.915 941.041 546.635 941.322C546.354 941.577 546.009 941.705 545.601 941.705ZM546.443 946.339V967.134H544.72V946.339H546.443ZM561.76 945.918C564.237 945.918 566.254 946.684 567.811 948.215C569.368 949.722 570.147 951.968 570.147 954.956V967.134H568.462V955.07C568.462 952.594 567.837 950.705 566.586 949.403C565.335 948.075 563.637 947.411 561.492 947.411C559.245 947.411 557.446 948.126 556.092 949.556C554.765 950.985 554.101 953.105 554.101 955.913V967.134H552.378V946.339H554.101V950.743C554.688 949.186 555.658 947.998 557.011 947.181C558.39 946.339 559.973 945.918 561.76 945.918ZM578.421 947.832V961.581C578.421 963.113 578.702 964.172 579.263 964.759C579.825 965.321 580.821 965.602 582.251 965.602H584.587V967.134H581.983C580.17 967.134 578.829 966.713 577.961 965.87C577.119 965.002 576.698 963.572 576.698 961.581V947.832H573.557V946.339H576.698V941.054H578.421V946.339H584.587V947.832H578.421ZM613.335 945.918C615.709 945.918 617.65 946.684 619.156 948.215C620.662 949.722 621.416 951.968 621.416 954.956V967.134H619.731V955.07C619.731 952.594 619.131 950.705 617.931 949.403C616.756 948.075 615.135 947.411 613.067 947.411C610.922 947.411 609.199 948.152 607.897 949.632C606.595 951.113 605.944 953.258 605.944 956.066V967.134H604.259V955.07C604.259 952.594 603.659 950.705 602.459 949.403C601.284 948.075 599.663 947.411 597.595 947.411C595.451 947.411 593.727 948.152 592.425 949.632C591.123 951.113 590.472 953.258 590.472 956.066V967.134H588.749V946.339H590.472V950.858C591.059 949.224 592.004 947.998 593.306 947.181C594.634 946.339 596.153 945.918 597.863 945.918C599.753 945.918 601.374 946.415 602.727 947.411C604.106 948.381 605.05 949.824 605.561 951.739C606.046 949.824 606.991 948.381 608.395 947.411C609.799 946.415 611.446 945.918 613.335 945.918ZM645.875 955.338C645.875 956.258 645.85 956.947 645.799 957.406H627.838C627.889 959.27 628.297 960.84 629.063 962.117C629.829 963.394 630.838 964.351 632.089 964.989C633.34 965.627 634.706 965.947 636.186 965.947C638.229 965.947 639.939 965.449 641.318 964.453C642.697 963.432 643.565 962.053 643.922 960.317H645.722C645.314 962.436 644.267 964.159 642.582 965.487C640.897 966.789 638.765 967.44 636.186 967.44C634.246 967.44 632.51 967.006 630.978 966.138C629.446 965.27 628.246 964.032 627.378 962.423C626.51 960.789 626.076 958.887 626.076 956.717C626.076 954.547 626.497 952.658 627.34 951.049C628.208 949.441 629.408 948.215 630.94 947.373C632.472 946.505 634.22 946.071 636.186 946.071C638.178 946.071 639.901 946.505 641.356 947.373C642.837 948.215 643.96 949.351 644.726 950.781C645.492 952.185 645.875 953.705 645.875 955.338ZM644.152 955.99C644.229 954.151 643.897 952.594 643.156 951.317C642.441 950.041 641.458 949.096 640.207 948.483C638.956 947.845 637.603 947.526 636.148 947.526C634.693 947.526 633.34 947.845 632.089 948.483C630.863 949.096 629.855 950.041 629.063 951.317C628.297 952.594 627.889 954.151 627.838 955.99H644.152ZM660.083 945.918C662.56 945.918 664.577 946.684 666.134 948.215C667.692 949.722 668.47 951.968 668.47 954.956V967.134H666.785V955.07C666.785 952.594 666.16 950.705 664.909 949.403C663.658 948.075 661.96 947.411 659.815 947.411C657.568 947.411 655.769 948.126 654.415 949.556C653.088 950.985 652.424 953.105 652.424 955.913V967.134H650.701V946.339H652.424V950.743C653.011 949.186 653.981 947.998 655.335 947.181C656.713 946.339 658.296 945.918 660.083 945.918ZM676.744 947.832V961.581C676.744 963.113 677.025 964.172 677.587 964.759C678.148 965.321 679.144 965.602 680.574 965.602H682.91V967.134H680.306C678.493 967.134 677.153 966.713 676.284 965.87C675.442 965.002 675.021 963.572 675.021 961.581V947.832H671.88V946.339H675.021V941.054H676.744V946.339H682.91V947.832H676.744ZM694.003 967.44C691.68 967.44 689.778 966.93 688.297 965.908C686.842 964.887 686.025 963.432 685.846 961.543H687.608C687.736 962.896 688.348 963.968 689.446 964.759C690.57 965.551 692.089 965.947 694.003 965.947C695.586 965.947 696.837 965.551 697.756 964.759C698.701 963.942 699.173 962.947 699.173 961.772C699.173 960.955 698.918 960.291 698.408 959.781C697.922 959.245 697.31 958.836 696.569 958.555C695.829 958.275 694.82 957.968 693.544 957.636C692.012 957.228 690.774 956.832 689.829 956.449C688.884 956.041 688.08 955.441 687.416 954.649C686.753 953.858 686.421 952.798 686.421 951.471C686.421 950.5 686.714 949.607 687.302 948.79C687.889 947.947 688.706 947.283 689.753 946.798C690.799 946.313 691.986 946.071 693.314 946.071C695.484 946.071 697.233 946.62 698.561 947.718C699.914 948.79 700.641 950.283 700.744 952.198H699.02C698.944 950.82 698.408 949.696 697.412 948.828C696.416 947.96 695.037 947.526 693.276 947.526C691.795 947.526 690.57 947.909 689.599 948.675C688.629 949.441 688.144 950.373 688.144 951.471C688.144 952.441 688.412 953.232 688.948 953.845C689.51 954.432 690.187 954.892 690.978 955.224C691.795 955.53 692.867 955.862 694.195 956.219C695.65 956.602 696.812 956.985 697.68 957.368C698.573 957.726 699.327 958.262 699.939 958.977C700.552 959.666 700.858 960.598 700.858 961.772C700.858 962.845 700.565 963.815 699.978 964.683C699.39 965.551 698.573 966.227 697.527 966.713C696.48 967.198 695.305 967.44 694.003 967.44ZM96.4611 995.794V1024.13H92.9762V995.794H96.4611ZM100.716 1013.56C100.716 1011.42 101.15 1009.54 102.018 1007.93C102.886 1006.3 104.073 1005.04 105.579 1004.14C107.111 1003.25 108.809 1002.8 110.673 1002.8C112.511 1002.8 114.107 1003.2 115.46 1003.99C116.813 1004.78 117.821 1005.78 118.485 1006.98V1003.15H122.008V1024.13H118.485V1020.23C117.796 1021.45 116.762 1022.47 115.383 1023.29C114.03 1024.08 112.447 1024.48 110.634 1024.48C108.771 1024.48 107.086 1024.02 105.579 1023.1C104.073 1022.18 102.886 1020.89 102.018 1019.23C101.15 1017.57 100.716 1015.68 100.716 1013.56ZM118.485 1013.6C118.485 1012.02 118.166 1010.64 117.528 1009.47C116.889 1008.29 116.021 1007.4 114.924 1006.79C113.851 1006.15 112.664 1005.83 111.362 1005.83C110.06 1005.83 108.873 1006.13 107.8 1006.75C106.728 1007.36 105.873 1008.25 105.235 1009.43C104.596 1010.6 104.277 1011.98 104.277 1013.56C104.277 1015.17 104.596 1016.58 105.235 1017.78C105.873 1018.95 106.728 1019.86 107.8 1020.5C108.873 1021.11 110.06 1021.41 111.362 1021.41C112.664 1021.41 113.851 1021.11 114.924 1020.5C116.021 1019.86 116.889 1018.95 117.528 1017.78C118.166 1016.58 118.485 1015.19 118.485 1013.6ZM134.944 1024.48C133.336 1024.48 131.893 1024.21 130.617 1023.67C129.34 1023.11 128.332 1022.35 127.591 1021.38C126.851 1020.38 126.442 1019.24 126.366 1017.97H129.966C130.068 1019.01 130.553 1019.87 131.421 1020.53C132.315 1021.2 133.476 1021.53 134.906 1021.53C136.234 1021.53 137.28 1021.24 138.046 1020.65C138.812 1020.06 139.195 1019.32 139.195 1018.43C139.195 1017.51 138.787 1016.83 137.97 1016.4C137.153 1015.94 135.889 1015.49 134.178 1015.06C132.621 1014.65 131.344 1014.24 130.349 1013.83C129.379 1013.4 128.536 1012.77 127.821 1011.96C127.132 1011.11 126.787 1010.02 126.787 1008.66C126.787 1007.59 127.106 1006.61 127.745 1005.71C128.383 1004.82 129.289 1004.12 130.464 1003.61C131.638 1003.07 132.978 1002.8 134.485 1002.8C136.808 1002.8 138.685 1003.39 140.114 1004.56C141.544 1005.74 142.31 1007.35 142.412 1009.39H138.927C138.85 1008.29 138.404 1007.41 137.587 1006.75C136.795 1006.08 135.723 1005.75 134.37 1005.75C133.119 1005.75 132.123 1006.02 131.383 1006.56C130.642 1007.09 130.272 1007.79 130.272 1008.66C130.272 1009.35 130.489 1009.93 130.923 1010.39C131.383 1010.82 131.944 1011.18 132.608 1011.46C133.298 1011.71 134.242 1012.01 135.442 1012.34C136.948 1012.75 138.174 1013.16 139.119 1013.56C140.063 1013.95 140.867 1014.53 141.531 1015.33C142.221 1016.12 142.578 1017.15 142.604 1018.43C142.604 1019.58 142.284 1020.61 141.646 1021.53C141.008 1022.45 140.102 1023.18 138.927 1023.71C137.778 1024.22 136.451 1024.48 134.944 1024.48ZM151.391 1006.02V1018.39C151.391 1019.41 151.608 1020.14 152.042 1020.57C152.476 1020.98 153.229 1021.18 154.302 1021.18H156.867V1024.13H153.727C151.787 1024.13 150.332 1023.69 149.361 1022.79C148.391 1021.9 147.906 1020.43 147.906 1018.39V1006.02H145.187V1003.15H147.906V997.862H151.391V1003.15H156.867V1006.02H151.391ZM195.771 1002.76C197.405 1002.76 198.86 1003.11 200.137 1003.8C201.414 1004.46 202.422 1005.47 203.162 1006.82C203.903 1008.18 204.273 1009.82 204.273 1011.76V1024.13H200.826V1012.26C200.826 1010.17 200.303 1008.57 199.256 1007.47C198.235 1006.35 196.844 1005.79 195.082 1005.79C193.269 1005.79 191.827 1006.38 190.754 1007.55C189.682 1008.7 189.146 1010.37 189.146 1012.57V1024.13H185.699V1012.26C185.699 1010.17 185.176 1008.57 184.129 1007.47C183.108 1006.35 181.716 1005.79 179.955 1005.79C178.142 1005.79 176.7 1006.38 175.627 1007.55C174.555 1008.7 174.019 1010.37 174.019 1012.57V1024.13H170.534V1003.15H174.019V1006.17C174.708 1005.07 175.627 1004.23 176.776 1003.65C177.951 1003.06 179.24 1002.76 180.644 1002.76C182.406 1002.76 183.963 1003.16 185.316 1003.95C186.669 1004.74 187.678 1005.9 188.342 1007.44C188.929 1005.96 189.899 1004.81 191.252 1003.99C192.605 1003.17 194.112 1002.76 195.771 1002.76ZM211.407 999.739C210.743 999.739 210.181 999.509 209.722 999.05C209.262 998.59 209.032 998.028 209.032 997.365C209.032 996.701 209.262 996.139 209.722 995.68C210.181 995.22 210.743 994.99 211.407 994.99C212.045 994.99 212.581 995.22 213.015 995.68C213.475 996.139 213.704 996.701 213.704 997.365C213.704 998.028 213.475 998.59 213.015 999.05C212.581 999.509 212.045 999.739 211.407 999.739ZM213.092 1003.15V1024.13H209.607V1003.15H213.092ZM228.873 1002.76C231.426 1002.76 233.495 1003.54 235.077 1005.1C236.66 1006.63 237.452 1008.85 237.452 1011.76V1024.13H234.005V1012.26C234.005 1010.17 233.482 1008.57 232.435 1007.47C231.388 1006.35 229.958 1005.79 228.146 1005.79C226.308 1005.79 224.84 1006.36 223.742 1007.51C222.669 1008.66 222.133 1010.33 222.133 1012.53V1024.13H218.648V1003.15H222.133V1006.13C222.823 1005.06 223.754 1004.23 224.929 1003.65C226.129 1003.06 227.444 1002.76 228.873 1002.76ZM261.374 1003.15V1024.13H257.889V1021.03C257.225 1022.1 256.293 1022.95 255.093 1023.56C253.919 1024.15 252.616 1024.44 251.187 1024.44C249.553 1024.44 248.085 1024.11 246.783 1023.44C245.481 1022.76 244.447 1021.73 243.681 1020.38C242.94 1019.03 242.57 1017.38 242.57 1015.44V1003.15H246.017V1014.98C246.017 1017.05 246.54 1018.64 247.587 1019.77C248.634 1020.87 250.063 1021.41 251.876 1021.41C253.74 1021.41 255.208 1020.84 256.28 1019.69C257.352 1018.54 257.889 1016.87 257.889 1014.67V1003.15H261.374ZM271.126 1006.02V1018.39C271.126 1019.41 271.343 1020.14 271.777 1020.57C272.211 1020.98 272.964 1021.18 274.036 1021.18H276.602V1024.13H273.462C271.521 1024.13 270.066 1023.69 269.096 1022.79C268.126 1021.9 267.641 1020.43 267.641 1018.39V1006.02H264.922V1003.15H267.641V997.862H271.126V1003.15H276.602V1006.02H271.126ZM299.59 1012.84C299.59 1013.5 299.552 1014.2 299.475 1014.94H282.701C282.829 1017.01 283.531 1018.63 284.807 1019.81C286.109 1020.96 287.68 1021.53 289.518 1021.53C291.024 1021.53 292.275 1021.18 293.271 1020.5C294.292 1019.78 295.007 1018.84 295.416 1017.66H299.169C298.607 1019.68 297.484 1021.33 295.798 1022.6C294.113 1023.85 292.02 1024.48 289.518 1024.48C287.526 1024.48 285.739 1024.03 284.156 1023.14C282.599 1022.24 281.374 1020.98 280.48 1019.35C279.586 1017.69 279.14 1015.77 279.14 1013.6C279.14 1011.43 279.574 1009.53 280.442 1007.9C281.31 1006.26 282.522 1005.01 284.08 1004.14C285.663 1003.25 287.475 1002.8 289.518 1002.8C291.509 1002.8 293.271 1003.24 294.803 1004.1C296.335 1004.97 297.509 1006.17 298.326 1007.7C299.169 1009.21 299.59 1010.92 299.59 1012.84ZM295.99 1012.11C295.99 1010.78 295.696 1009.64 295.109 1008.7C294.522 1007.73 293.718 1007 292.696 1006.52C291.701 1006.01 290.59 1005.75 289.365 1005.75C287.603 1005.75 286.097 1006.31 284.846 1007.44C283.62 1008.56 282.918 1010.12 282.739 1012.11H295.99ZM312.753 1013.72C312.753 1011.57 313.174 1009.7 314.017 1008.09C314.885 1006.48 316.072 1005.24 317.578 1004.37C319.11 1003.5 320.846 1003.07 322.787 1003.07C324.906 1003.07 326.744 1003.61 328.301 1004.68C329.859 1005.73 330.957 1007.09 331.595 1008.78V995.794H333.318V1024.13H331.595V1018.62C330.982 1020.33 329.91 1021.73 328.378 1022.83C326.846 1023.9 324.982 1024.44 322.787 1024.44C320.846 1024.44 319.11 1024.01 317.578 1023.14C316.072 1022.24 314.885 1020.99 314.017 1019.39C313.174 1017.75 312.753 1015.86 312.753 1013.72ZM331.595 1013.72C331.595 1011.9 331.212 1010.31 330.446 1008.93C329.706 1007.53 328.684 1006.45 327.382 1005.71C326.08 1004.95 324.625 1004.56 323.016 1004.56C321.331 1004.56 319.851 1004.93 318.574 1005.67C317.298 1006.39 316.302 1007.44 315.587 1008.82C314.872 1010.19 314.515 1011.83 314.515 1013.72C314.515 1015.61 314.872 1017.24 315.587 1018.62C316.302 1020 317.298 1021.06 318.574 1021.8C319.876 1022.54 321.357 1022.91 323.016 1022.91C324.625 1022.91 326.08 1022.54 327.382 1021.8C328.71 1021.03 329.744 1019.96 330.484 1018.58C331.225 1017.18 331.595 1015.56 331.595 1013.72ZM356.788 1003.34V1024.13H355.065V1019.61C354.478 1021.2 353.495 1022.41 352.116 1023.25C350.763 1024.07 349.206 1024.48 347.444 1024.48C344.967 1024.48 342.938 1023.73 341.355 1022.22C339.797 1020.69 339.019 1018.43 339.019 1015.44V1003.34H340.704V1015.33C340.704 1017.8 341.329 1019.7 342.58 1021.03C343.831 1022.33 345.529 1022.98 347.674 1022.98C349.92 1022.98 351.708 1022.27 353.035 1020.84C354.388 1019.41 355.065 1017.29 355.065 1014.48V1003.34H356.788ZM381.415 1012.34C381.415 1013.26 381.389 1013.95 381.338 1014.41H363.377C363.428 1016.27 363.837 1017.84 364.602 1019.12C365.368 1020.39 366.377 1021.35 367.628 1021.99C368.879 1022.63 370.245 1022.95 371.726 1022.95C373.768 1022.95 375.479 1022.45 376.857 1021.45C378.236 1020.43 379.104 1019.05 379.462 1017.32H381.261C380.853 1019.44 379.806 1021.16 378.121 1022.49C376.436 1023.79 374.304 1024.44 371.726 1024.44C369.785 1024.44 368.049 1024.01 366.517 1023.14C364.985 1022.27 363.786 1021.03 362.917 1019.42C362.049 1017.79 361.615 1015.89 361.615 1013.72C361.615 1011.55 362.037 1009.66 362.879 1008.05C363.747 1006.44 364.947 1005.22 366.479 1004.37C368.011 1003.5 369.76 1003.07 371.726 1003.07C373.717 1003.07 375.44 1003.5 376.896 1004.37C378.376 1005.22 379.5 1006.35 380.266 1007.78C381.032 1009.19 381.415 1010.7 381.415 1012.34ZM379.691 1012.99C379.768 1011.15 379.436 1009.59 378.696 1008.32C377.981 1007.04 376.998 1006.1 375.747 1005.48C374.496 1004.85 373.143 1004.53 371.687 1004.53C370.232 1004.53 368.879 1004.85 367.628 1005.48C366.402 1006.1 365.394 1007.04 364.602 1008.32C363.837 1009.59 363.428 1011.15 363.377 1012.99H379.691ZM399.231 1004.83V1018.58C399.231 1020.11 399.512 1021.17 400.074 1021.76C400.635 1022.32 401.631 1022.6 403.061 1022.6H405.397V1024.13H402.793C400.98 1024.13 399.64 1023.71 398.772 1022.87C397.929 1022 397.508 1020.57 397.508 1018.58V1004.83H394.367V1003.34H397.508V998.054H399.231V1003.34H405.397V1004.83H399.231ZM418.712 1024.44C416.771 1024.44 415.023 1024.01 413.465 1023.14C411.908 1022.27 410.682 1021.03 409.789 1019.42C408.921 1017.79 408.487 1015.89 408.487 1013.72C408.487 1011.57 408.933 1009.7 409.827 1008.09C410.721 1006.45 411.946 1005.22 413.503 1004.37C415.086 1003.5 416.848 1003.07 418.788 1003.07C420.729 1003.07 422.478 1003.5 424.035 1004.37C425.592 1005.22 426.805 1006.44 427.673 1008.05C428.567 1009.66 429.013 1011.55 429.013 1013.72C429.013 1015.89 428.567 1017.79 427.673 1019.42C426.78 1021.03 425.541 1022.27 423.958 1023.14C422.401 1024.01 420.652 1024.44 418.712 1024.44ZM418.712 1022.91C420.218 1022.91 421.622 1022.58 422.924 1021.91C424.252 1021.22 425.311 1020.19 426.103 1018.81C426.894 1017.43 427.29 1015.73 427.29 1013.72C427.29 1011.73 426.894 1010.04 426.103 1008.66C425.311 1007.28 424.265 1006.26 422.963 1005.6C421.661 1004.91 420.256 1004.56 418.75 1004.56C417.244 1004.56 415.839 1004.91 414.537 1005.6C413.261 1006.26 412.227 1007.28 411.435 1008.66C410.644 1010.04 410.248 1011.73 410.248 1013.72C410.248 1015.73 410.631 1017.43 411.397 1018.81C412.189 1020.19 413.223 1021.22 414.499 1021.91C415.801 1022.58 417.205 1022.91 418.712 1022.91ZM447.578 995.794V1024.13H444.093V995.794H447.578ZM462.287 1024.48C460.321 1024.48 458.534 1024.03 456.926 1023.14C455.343 1022.24 454.092 1020.98 453.173 1019.35C452.279 1017.69 451.832 1015.77 451.832 1013.6C451.832 1011.46 452.292 1009.57 453.211 1007.93C454.156 1006.27 455.432 1005.01 457.041 1004.14C458.649 1003.25 460.449 1002.8 462.441 1002.8C464.432 1002.8 466.232 1003.25 467.84 1004.14C469.449 1005.01 470.713 1006.26 471.632 1007.9C472.576 1009.53 473.049 1011.43 473.049 1013.6C473.049 1015.77 472.564 1017.69 471.593 1019.35C470.649 1020.98 469.359 1022.24 467.725 1023.14C466.091 1024.03 464.279 1024.48 462.287 1024.48ZM462.287 1021.41C463.538 1021.41 464.713 1021.12 465.811 1020.53C466.908 1019.95 467.789 1019.07 468.453 1017.89C469.142 1016.72 469.487 1015.29 469.487 1013.6C469.487 1011.92 469.155 1010.49 468.491 1009.31C467.828 1008.14 466.96 1007.27 465.887 1006.71C464.815 1006.12 463.653 1005.83 462.402 1005.83C461.126 1005.83 459.951 1006.12 458.879 1006.71C457.832 1007.27 456.99 1008.14 456.351 1009.31C455.713 1010.49 455.394 1011.92 455.394 1013.6C455.394 1015.31 455.7 1016.76 456.313 1017.93C456.951 1019.1 457.794 1019.99 458.841 1020.57C459.887 1021.13 461.036 1021.41 462.287 1021.41ZM505.204 1003.15L498.656 1024.13H495.056L490.001 1007.47L484.945 1024.13H481.346L474.759 1003.15H478.32L483.145 1020.76L488.354 1003.15H491.915L497.009 1020.8L501.758 1003.15H505.204ZM519.777 998.705C519.369 998.705 519.024 998.577 518.743 998.322C518.463 998.041 518.322 997.671 518.322 997.211C518.322 996.777 518.463 996.42 518.743 996.139C519.024 995.858 519.369 995.718 519.777 995.718C520.186 995.718 520.531 995.858 520.811 996.139C521.092 996.42 521.233 996.777 521.233 997.211C521.233 997.671 521.092 998.041 520.811 998.322C520.531 998.577 520.186 998.705 519.777 998.705ZM520.62 1003.34V1024.13H518.897V1003.34H520.62ZM535.937 1002.92C538.414 1002.92 540.43 1003.68 541.988 1005.22C543.545 1006.72 544.324 1008.97 544.324 1011.96V1024.13H542.639V1012.07C542.639 1009.59 542.013 1007.7 540.762 1006.4C539.511 1005.07 537.814 1004.41 535.669 1004.41C533.422 1004.41 531.622 1005.13 530.269 1006.56C528.942 1007.99 528.278 1010.1 528.278 1012.91V1024.13H526.554V1003.34H528.278V1007.74C528.865 1006.19 529.835 1005 531.188 1004.18C532.567 1003.34 534.15 1002.92 535.937 1002.92ZM557.078 1022.26L564.738 1003.34H566.576L557.959 1024.13H556.159L547.543 1003.34H549.419L557.078 1022.26ZM588.721 1012.34C588.721 1013.26 588.695 1013.95 588.644 1014.41H570.683C570.734 1016.27 571.143 1017.84 571.909 1019.12C572.675 1020.39 573.683 1021.35 574.934 1021.99C576.185 1022.63 577.551 1022.95 579.032 1022.95C581.074 1022.95 582.785 1022.45 584.164 1021.45C585.542 1020.43 586.41 1019.05 586.768 1017.32H588.568C588.159 1019.44 587.112 1021.16 585.427 1022.49C583.742 1023.79 581.611 1024.44 579.032 1024.44C577.092 1024.44 575.355 1024.01 573.824 1023.14C572.292 1022.27 571.092 1021.03 570.224 1019.42C569.356 1017.79 568.922 1015.89 568.922 1013.72C568.922 1011.55 569.343 1009.66 570.185 1008.05C571.053 1006.44 572.253 1005.22 573.785 1004.37C575.317 1003.5 577.066 1003.07 579.032 1003.07C581.023 1003.07 582.747 1003.5 584.202 1004.37C585.683 1005.22 586.806 1006.35 587.572 1007.78C588.338 1009.19 588.721 1010.7 588.721 1012.34ZM586.998 1012.99C587.074 1011.15 586.742 1009.59 586.002 1008.32C585.287 1007.04 584.304 1006.1 583.053 1005.48C581.802 1004.85 580.449 1004.53 578.994 1004.53C577.538 1004.53 576.185 1004.85 574.934 1005.48C573.709 1006.1 572.7 1007.04 571.909 1008.32C571.143 1009.59 570.734 1011.15 570.683 1012.99H586.998ZM602.929 1002.92C605.405 1002.92 607.422 1003.68 608.98 1005.22C610.537 1006.72 611.316 1008.97 611.316 1011.96V1024.13H609.631V1012.07C609.631 1009.59 609.005 1007.7 607.754 1006.4C606.503 1005.07 604.805 1004.41 602.661 1004.41C600.414 1004.41 598.614 1005.13 597.261 1006.56C595.933 1007.99 595.27 1010.1 595.27 1012.91V1024.13H593.546V1003.34H595.27V1007.74C595.857 1006.19 596.827 1005 598.18 1004.18C599.559 1003.34 601.142 1002.92 602.929 1002.92ZM619.59 1004.83V1018.58C619.59 1020.11 619.87 1021.17 620.432 1021.76C620.994 1022.32 621.989 1022.6 623.419 1022.6H625.755V1024.13H623.151C621.338 1024.13 619.998 1023.71 619.13 1022.87C618.288 1022 617.866 1020.57 617.866 1018.58V1004.83H614.726V1003.34H617.866V998.054H619.59V1003.34H625.755V1004.83H619.59ZM639.07 1024.44C637.13 1024.44 635.381 1024.01 633.824 1023.14C632.266 1022.27 631.041 1021.03 630.147 1019.42C629.279 1017.79 628.845 1015.89 628.845 1013.72C628.845 1011.57 629.292 1009.7 630.185 1008.09C631.079 1006.45 632.304 1005.22 633.862 1004.37C635.445 1003.5 637.206 1003.07 639.147 1003.07C641.087 1003.07 642.836 1003.5 644.393 1004.37C645.951 1005.22 647.163 1006.44 648.032 1008.05C648.925 1009.66 649.372 1011.55 649.372 1013.72C649.372 1015.89 648.925 1017.79 648.032 1019.42C647.138 1021.03 645.9 1022.27 644.317 1023.14C642.759 1024.01 641.011 1024.44 639.07 1024.44ZM639.07 1022.91C640.577 1022.91 641.981 1022.58 643.283 1021.91C644.61 1021.22 645.67 1020.19 646.461 1018.81C647.253 1017.43 647.649 1015.73 647.649 1013.72C647.649 1011.73 647.253 1010.04 646.461 1008.66C645.67 1007.28 644.623 1006.26 643.321 1005.6C642.019 1004.91 640.615 1004.56 639.108 1004.56C637.602 1004.56 636.198 1004.91 634.896 1005.6C633.619 1006.26 632.585 1007.28 631.794 1008.66C631.002 1010.04 630.607 1011.73 630.607 1013.72C630.607 1015.73 630.99 1017.43 631.756 1018.81C632.547 1020.19 633.581 1021.22 634.858 1021.91C636.16 1022.58 637.564 1022.91 639.07 1022.91ZM655.941 1007.63C656.452 1006.1 657.358 1004.93 658.66 1004.14C659.962 1003.33 661.622 1002.92 663.639 1002.92V1004.72H663.064C661.022 1004.72 659.324 1005.3 657.971 1006.48C656.618 1007.63 655.941 1009.52 655.941 1012.15V1024.13H654.218V1003.34H655.941V1007.63ZM683.461 1003.34L671.359 1033.9H669.598L673.466 1024.13L664.734 1003.34H666.611L674.423 1022.22L681.699 1003.34H683.461ZM688.073 1020.11L684.473 1029.92H683.171L686.081 1020.11H688.073ZM92.0954 1070.72C92.0954 1068.57 92.5166 1066.7 93.3591 1065.09C94.2272 1063.48 95.4144 1062.24 96.9207 1061.37C98.4526 1060.5 100.189 1060.07 102.129 1060.07C104.325 1060.07 106.188 1060.61 107.72 1061.68C109.252 1062.75 110.324 1064.12 110.937 1065.78V1060.34H112.661V1081.13H110.937V1075.66C110.324 1077.34 109.239 1078.73 107.682 1079.83C106.15 1080.9 104.299 1081.44 102.129 1081.44C100.189 1081.44 98.4526 1081.01 96.9207 1080.14C95.4144 1079.24 94.2272 1077.99 93.3591 1076.39C92.5166 1074.75 92.0954 1072.86 92.0954 1070.72ZM110.937 1070.72C110.937 1068.9 110.554 1067.31 109.788 1065.93C109.048 1064.53 108.027 1063.45 106.725 1062.71C105.423 1061.95 103.967 1061.56 102.359 1061.56C100.674 1061.56 99.193 1061.93 97.9164 1062.67C96.6399 1063.39 95.6442 1064.44 94.9293 1065.82C94.2144 1067.19 93.857 1068.83 93.857 1070.72C93.857 1072.61 94.2144 1074.24 94.9293 1075.62C95.6442 1077 96.6399 1078.06 97.9164 1078.8C99.2185 1079.54 100.699 1079.91 102.359 1079.91C103.967 1079.91 105.423 1079.54 106.725 1078.8C108.052 1078.03 109.086 1076.96 109.827 1075.58C110.567 1074.18 110.937 1072.56 110.937 1070.72ZM121.118 1061.83V1075.58C121.118 1077.11 121.399 1078.17 121.961 1078.76C122.523 1079.32 123.518 1079.6 124.948 1079.6H127.284V1081.13H124.68C122.867 1081.13 121.527 1080.71 120.659 1079.87C119.816 1079 119.395 1077.57 119.395 1075.58V1061.83H116.255V1060.34H119.395V1055.05H121.118V1060.34H127.284V1061.83H121.118ZM133.169 1052.79V1081.13H131.446V1052.79H133.169ZM157.831 1069.34C157.831 1070.26 157.805 1070.95 157.754 1071.41H139.793C139.844 1073.27 140.253 1074.84 141.019 1076.12C141.785 1077.39 142.793 1078.35 144.044 1078.99C145.295 1079.63 146.661 1079.95 148.142 1079.95C150.184 1079.95 151.895 1079.45 153.274 1078.45C154.652 1077.43 155.52 1076.05 155.878 1074.32H157.678C157.269 1076.44 156.222 1078.16 154.537 1079.49C152.852 1080.79 150.72 1081.44 148.142 1081.44C146.202 1081.44 144.465 1081.01 142.934 1080.14C141.402 1079.27 140.202 1078.03 139.334 1076.42C138.466 1074.79 138.032 1072.89 138.032 1070.72C138.032 1068.55 138.453 1066.66 139.295 1065.05C140.163 1063.44 141.363 1062.22 142.895 1061.37C144.427 1060.5 146.176 1060.07 148.142 1060.07C150.133 1060.07 151.857 1060.5 153.312 1061.37C154.793 1062.22 155.916 1063.35 156.682 1064.78C157.448 1066.19 157.831 1067.7 157.831 1069.34ZM156.108 1069.99C156.184 1068.15 155.852 1066.59 155.112 1065.32C154.397 1064.04 153.414 1063.1 152.163 1062.48C150.912 1061.85 149.559 1061.53 148.104 1061.53C146.648 1061.53 145.295 1061.85 144.044 1062.48C142.819 1063.1 141.81 1064.04 141.019 1065.32C140.253 1066.59 139.844 1068.15 139.793 1069.99H156.108ZM161.584 1070.72C161.584 1068.57 162.005 1066.7 162.848 1065.09C163.716 1063.48 164.903 1062.24 166.409 1061.37C167.941 1060.5 169.677 1060.07 171.618 1060.07C173.813 1060.07 175.677 1060.61 177.209 1061.68C178.741 1062.75 179.813 1064.12 180.426 1065.78V1060.34H182.149V1081.13H180.426V1075.66C179.813 1077.34 178.728 1078.73 177.171 1079.83C175.639 1080.9 173.788 1081.44 171.618 1081.44C169.677 1081.44 167.941 1081.01 166.409 1080.14C164.903 1079.24 163.716 1077.99 162.848 1076.39C162.005 1074.75 161.584 1072.86 161.584 1070.72ZM180.426 1070.72C180.426 1068.9 180.043 1067.31 179.277 1065.93C178.536 1064.53 177.515 1063.45 176.213 1062.71C174.911 1061.95 173.456 1061.56 171.847 1061.56C170.162 1061.56 168.682 1061.93 167.405 1062.67C166.128 1063.39 165.133 1064.44 164.418 1065.82C163.703 1067.19 163.346 1068.83 163.346 1070.72C163.346 1072.61 163.703 1074.24 164.418 1075.62C165.133 1077 166.128 1078.06 167.405 1078.8C168.707 1079.54 170.188 1079.91 171.847 1079.91C173.456 1079.91 174.911 1079.54 176.213 1078.8C177.541 1078.03 178.575 1076.96 179.315 1075.58C180.056 1074.18 180.426 1072.56 180.426 1070.72ZM194.973 1081.44C192.649 1081.44 190.747 1080.93 189.267 1079.91C187.811 1078.89 186.994 1077.43 186.816 1075.54H188.577C188.705 1076.9 189.318 1077.97 190.415 1078.76C191.539 1079.55 193.058 1079.95 194.973 1079.95C196.556 1079.95 197.807 1079.55 198.726 1078.76C199.67 1077.94 200.143 1076.95 200.143 1075.77C200.143 1074.96 199.887 1074.29 199.377 1073.78C198.892 1073.24 198.279 1072.84 197.539 1072.56C196.798 1072.27 195.79 1071.97 194.513 1071.64C192.981 1071.23 191.743 1070.83 190.798 1070.45C189.854 1070.04 189.05 1069.44 188.386 1068.65C187.722 1067.86 187.39 1066.8 187.39 1065.47C187.39 1064.5 187.684 1063.61 188.271 1062.79C188.858 1061.95 189.675 1061.28 190.722 1060.8C191.769 1060.31 192.956 1060.07 194.283 1060.07C196.453 1060.07 198.202 1060.62 199.53 1061.72C200.883 1062.79 201.611 1064.28 201.713 1066.2H199.99C199.913 1064.82 199.377 1063.7 198.381 1062.83C197.385 1061.96 196.007 1061.53 194.245 1061.53C192.764 1061.53 191.539 1061.91 190.569 1062.67C189.598 1063.44 189.113 1064.37 189.113 1065.47C189.113 1066.44 189.381 1067.23 189.918 1067.84C190.479 1068.43 191.156 1068.89 191.947 1069.22C192.764 1069.53 193.837 1069.86 195.164 1070.22C196.619 1070.6 197.781 1070.99 198.649 1071.37C199.543 1071.73 200.296 1072.26 200.909 1072.98C201.521 1073.67 201.828 1074.6 201.828 1075.77C201.828 1076.84 201.534 1077.81 200.947 1078.68C200.36 1079.55 199.543 1080.23 198.496 1080.71C197.449 1081.2 196.275 1081.44 194.973 1081.44ZM209.26 1061.83V1075.58C209.26 1077.11 209.541 1078.17 210.102 1078.76C210.664 1079.32 211.66 1079.6 213.09 1079.6H215.426V1081.13H212.822C211.009 1081.13 209.668 1080.71 208.8 1079.87C207.958 1079 207.537 1077.57 207.537 1075.58V1061.83H204.396V1060.34H207.537V1055.05H209.26V1060.34H215.426V1061.83H209.26ZM246.404 1055.44H231.698V1066.43C232.387 1065.46 233.396 1064.67 234.723 1064.05C236.051 1063.42 237.494 1063.1 239.051 1063.1C241.119 1063.1 242.804 1063.52 244.106 1064.36C245.434 1065.18 246.391 1066.25 246.978 1067.58C247.566 1068.9 247.859 1070.35 247.859 1071.9C247.859 1073.64 247.54 1075.22 246.902 1076.65C246.263 1078.06 245.255 1079.19 243.876 1080.06C242.523 1080.9 240.813 1081.33 238.745 1081.33C236.243 1081.33 234.175 1080.65 232.541 1079.3C230.932 1077.92 229.949 1076.07 229.592 1073.74H231.277C231.66 1075.71 232.515 1077.21 233.843 1078.26C235.17 1079.28 236.804 1079.79 238.745 1079.79C241.221 1079.79 243.085 1079.08 244.336 1077.65C245.587 1076.19 246.212 1074.29 246.212 1071.94C246.212 1069.64 245.574 1067.84 244.298 1066.54C243.047 1065.24 241.247 1064.59 238.898 1064.59C237.289 1064.59 235.847 1064.95 234.57 1065.66C233.319 1066.38 232.349 1067.36 231.66 1068.61H230.051V1053.91H246.404V1055.44ZM265.809 1061.83V1075.58C265.809 1077.11 266.089 1078.17 266.651 1078.76C267.213 1079.32 268.208 1079.6 269.638 1079.6H271.974V1081.13H269.37C267.557 1081.13 266.217 1080.71 265.349 1079.87C264.506 1079 264.085 1077.57 264.085 1075.58V1061.83H260.945V1060.34H264.085V1055.05H265.809V1060.34H271.974V1061.83H265.809ZM277.017 1055.7C276.609 1055.7 276.264 1055.58 275.983 1055.32C275.702 1055.04 275.562 1054.67 275.562 1054.21C275.562 1053.78 275.702 1053.42 275.983 1053.14C276.264 1052.86 276.609 1052.72 277.017 1052.72C277.426 1052.72 277.77 1052.86 278.051 1053.14C278.332 1053.42 278.472 1053.78 278.472 1054.21C278.472 1054.67 278.332 1055.04 278.051 1055.32C277.77 1055.58 277.426 1055.7 277.017 1055.7ZM277.86 1060.34V1081.13H276.136V1060.34H277.86ZM308.38 1059.92C310.755 1059.92 312.695 1060.68 314.201 1062.22C315.708 1063.72 316.461 1065.97 316.461 1068.96V1081.13H314.776V1069.07C314.776 1066.59 314.176 1064.7 312.976 1063.4C311.802 1062.07 310.18 1061.41 308.112 1061.41C305.968 1061.41 304.244 1062.15 302.942 1063.63C301.64 1065.11 300.989 1067.26 300.989 1070.07V1081.13H299.304V1069.07C299.304 1066.59 298.704 1064.7 297.504 1063.4C296.33 1062.07 294.709 1061.41 292.641 1061.41C290.496 1061.41 288.773 1062.15 287.471 1063.63C286.168 1065.11 285.517 1067.26 285.517 1070.07V1081.13H283.794V1060.34H285.517V1064.86C286.105 1063.22 287.049 1062 288.351 1061.18C289.679 1060.34 291.198 1059.92 292.909 1059.92C294.798 1059.92 296.419 1060.42 297.772 1061.41C299.151 1062.38 300.096 1063.82 300.606 1065.74C301.091 1063.82 302.036 1062.38 303.44 1061.41C304.844 1060.42 306.491 1059.92 308.38 1059.92ZM340.921 1069.34C340.921 1070.26 340.895 1070.95 340.844 1071.41H322.883C322.934 1073.27 323.343 1074.84 324.109 1076.12C324.874 1077.39 325.883 1078.35 327.134 1078.99C328.385 1079.63 329.751 1079.95 331.232 1079.95C333.274 1079.95 334.985 1079.45 336.363 1078.45C337.742 1077.43 338.61 1076.05 338.968 1074.32H340.767C340.359 1076.44 339.312 1078.16 337.627 1079.49C335.942 1080.79 333.81 1081.44 331.232 1081.44C329.291 1081.44 327.555 1081.01 326.023 1080.14C324.491 1079.27 323.292 1078.03 322.423 1076.42C321.555 1074.79 321.121 1072.89 321.121 1070.72C321.121 1068.55 321.543 1066.66 322.385 1065.05C323.253 1063.44 324.453 1062.22 325.985 1061.37C327.517 1060.5 329.266 1060.07 331.232 1060.07C333.223 1060.07 334.946 1060.5 336.402 1061.37C337.882 1062.22 339.006 1063.35 339.772 1064.78C340.538 1066.19 340.921 1067.7 340.921 1069.34ZM339.197 1069.99C339.274 1068.15 338.942 1066.59 338.202 1065.32C337.487 1064.04 336.504 1063.1 335.253 1062.48C334.002 1061.85 332.649 1061.53 331.193 1061.53C329.738 1061.53 328.385 1061.85 327.134 1062.48C325.908 1063.1 324.9 1064.04 324.109 1065.32C323.343 1066.59 322.934 1068.15 322.883 1069.99H339.197ZM352.678 1081.44C350.354 1081.44 348.452 1080.93 346.971 1079.91C345.516 1078.89 344.699 1077.43 344.521 1075.54H346.282C346.41 1076.9 347.023 1077.97 348.12 1078.76C349.244 1079.55 350.763 1079.95 352.678 1079.95C354.261 1079.95 355.512 1079.55 356.431 1078.76C357.375 1077.94 357.848 1076.95 357.848 1075.77C357.848 1074.96 357.592 1074.29 357.082 1073.78C356.597 1073.24 355.984 1072.84 355.244 1072.56C354.503 1072.27 353.495 1071.97 352.218 1071.64C350.686 1071.23 349.448 1070.83 348.503 1070.45C347.559 1070.04 346.754 1069.44 346.091 1068.65C345.427 1067.86 345.095 1066.8 345.095 1065.47C345.095 1064.5 345.389 1063.61 345.976 1062.79C346.563 1061.95 347.38 1061.28 348.427 1060.8C349.474 1060.31 350.661 1060.07 351.988 1060.07C354.158 1060.07 355.907 1060.62 357.235 1061.72C358.588 1062.79 359.316 1064.28 359.418 1066.2H357.694C357.618 1064.82 357.082 1063.7 356.086 1062.83C355.09 1061.96 353.712 1061.53 351.95 1061.53C350.469 1061.53 349.244 1061.91 348.274 1062.67C347.303 1063.44 346.818 1064.37 346.818 1065.47C346.818 1066.44 347.086 1067.23 347.623 1067.84C348.184 1068.43 348.861 1068.89 349.652 1069.22C350.469 1069.53 351.542 1069.86 352.869 1070.22C354.324 1070.6 355.486 1070.99 356.354 1071.37C357.248 1071.73 358.001 1072.26 358.614 1072.98C359.226 1073.67 359.533 1074.6 359.533 1075.77C359.533 1076.84 359.239 1077.81 358.652 1078.68C358.065 1079.55 357.248 1080.23 356.201 1080.71C355.154 1081.2 353.98 1081.44 352.678 1081.44ZM364.131 1081.25C363.697 1081.25 363.34 1081.11 363.059 1080.83C362.778 1080.55 362.637 1080.19 362.637 1079.76C362.637 1079.32 362.778 1078.96 363.059 1078.68C363.34 1078.4 363.697 1078.26 364.131 1078.26C364.539 1078.26 364.884 1078.4 365.165 1078.68C365.446 1078.96 365.586 1079.32 365.586 1079.76C365.586 1080.19 365.446 1080.55 365.165 1080.83C364.884 1081.11 364.539 1081.25 364.131 1081.25Z" fill="black"/>
<path d="M235.012 732.117L160.417 906.828H120.595L195.751 736.604H99.8426V702.952H235.012V732.117ZM255.723 801.945C255.723 769.602 261.519 744.269 273.11 725.947C284.888 707.626 304.332 698.465 331.44 698.465C358.549 698.465 377.899 707.626 389.49 725.947C401.269 744.269 407.158 769.602 407.158 801.945C407.158 834.476 401.269 859.995 389.49 878.504C377.899 897.013 358.549 906.267 331.44 906.267C304.332 906.267 284.888 897.013 273.11 878.504C261.519 859.995 255.723 834.476 255.723 801.945ZM368.458 801.945C368.458 788.111 367.523 776.519 365.653 767.171C363.971 757.637 360.419 749.878 354.997 743.895C349.762 737.913 341.91 734.921 331.44 734.921C320.971 734.921 313.025 737.913 307.603 743.895C302.369 749.878 298.816 757.637 296.947 767.171C295.264 776.519 294.423 788.111 294.423 801.945C294.423 816.154 295.264 828.119 296.947 837.841C298.629 847.376 302.182 855.135 307.603 861.117C313.025 866.913 320.971 869.811 331.44 869.811C341.91 869.811 349.856 866.913 355.277 861.117C360.699 855.135 364.251 847.376 365.934 837.841C367.616 828.119 368.458 816.154 368.458 801.945ZM429.728 752.589C429.728 738.38 433.842 727.256 442.068 719.217C450.481 711.178 461.231 707.158 474.318 707.158C487.405 707.158 498.061 711.178 506.287 719.217C514.7 727.256 518.907 738.38 518.907 752.589C518.907 766.984 514.7 778.202 506.287 786.241C498.061 794.28 487.405 798.3 474.318 798.3C461.231 798.3 450.481 794.28 442.068 786.241C433.842 778.202 429.728 766.984 429.728 752.589ZM609.768 710.524L499.557 906.828H461.418L571.348 710.524H609.768ZM474.037 730.715C463.755 730.715 458.613 738.006 458.613 752.589C458.613 767.358 463.755 774.743 474.037 774.743C479.085 774.743 483.011 772.967 485.816 769.415C488.62 765.676 490.022 760.067 490.022 752.589C490.022 738.006 484.694 730.715 474.037 730.715ZM552.84 864.482C552.84 850.087 556.953 838.963 565.179 831.111C573.592 823.071 584.342 819.052 597.429 819.052C610.516 819.052 621.079 823.071 629.118 831.111C637.344 838.963 641.457 850.087 641.457 864.482C641.457 878.878 637.344 890.095 629.118 898.135C621.079 906.174 610.516 910.193 597.429 910.193C584.155 910.193 573.405 906.174 565.179 898.135C556.953 890.095 552.84 878.878 552.84 864.482ZM597.148 842.608C586.492 842.608 581.163 849.9 581.163 864.482C581.163 879.252 586.492 886.637 597.148 886.637C607.618 886.637 612.853 879.252 612.853 864.482C612.853 849.9 607.618 842.608 597.148 842.608Z" fill="#1104AC"/>
<path d="M277.827 1600.83C279.718 1600.83 281.531 1600.06 282.867 1598.7C284.203 1597.34 284.955 1595.5 284.955 1593.58C284.955 1591.65 284.203 1589.81 282.867 1588.45C281.531 1587.09 279.718 1586.33 277.827 1586.33C275.937 1586.33 274.124 1587.09 272.787 1588.45C271.45 1589.81 270.699 1591.65 270.699 1593.58C270.704 1595.5 271.455 1597.34 272.791 1598.7C274.128 1600.06 275.938 1600.82 277.827 1600.83L277.827 1600.83Z" fill="#CCCCCC"/>
<path d="M288.211 1605.49H267.349C265.171 1605.5 263.407 1607.29 263.398 1609.5V1633.32H268.387V1616.02H270.699V1667.24H276.678V1637.23H278.991V1667.22H284.97V1616H287.267V1633.32H292.224V1609.5C292.219 1608.43 291.793 1607.4 291.039 1606.65C290.286 1605.89 289.268 1605.48 288.211 1605.49V1605.49Z" fill="#CCCCCC"/>
<path d="M277.827 1414.02C279.718 1414.02 281.531 1413.26 282.867 1411.9C284.203 1410.54 284.955 1408.7 284.955 1406.77C284.955 1404.85 284.203 1403.01 282.867 1401.65C281.531 1400.29 279.718 1399.52 277.827 1399.52C275.937 1399.52 274.124 1400.29 272.787 1401.65C271.45 1403.01 270.699 1404.85 270.699 1406.77C270.704 1408.7 271.455 1410.54 272.791 1411.9C274.128 1413.26 275.938 1414.02 277.827 1414.02L277.827 1414.02Z" fill="#CCCCCC"/>
<path d="M288.211 1418.68H267.349C265.171 1418.69 263.407 1420.49 263.398 1422.7V1446.52H268.387V1429.22H270.699V1480.43H276.678V1450.42H278.991V1480.42H284.97V1429.2H287.267V1446.52H292.224V1422.7C292.219 1421.63 291.793 1420.6 291.039 1419.84C290.286 1419.09 289.268 1418.67 288.211 1418.69V1418.68Z" fill="#CCCCCC"/>
<path d="M509.393 1507.47C511.284 1507.47 513.097 1506.71 514.433 1505.35C515.77 1503.99 516.522 1502.14 516.522 1500.22C516.522 1498.3 515.77 1496.45 514.433 1495.09C513.097 1493.73 511.284 1492.97 509.393 1492.97C507.503 1492.97 505.69 1493.73 504.353 1495.09C503.016 1496.45 502.266 1498.3 502.266 1500.22C502.27 1502.14 503.022 1503.98 504.357 1505.34C505.694 1506.7 507.504 1507.47 509.393 1507.47L509.393 1507.47Z" fill="#CCCCCC"/>
<path d="M519.774 1512.13H498.911C496.734 1512.14 494.97 1513.93 494.961 1516.15V1539.96H499.949V1522.66H502.262V1573.88H508.241V1543.87H510.553V1573.86H516.532V1522.65H518.83V1539.96H523.786V1516.15C523.782 1515.07 523.356 1514.04 522.602 1513.29C521.849 1512.53 520.83 1512.12 519.774 1512.13V1512.13Z" fill="#CCCCCC"/>
<path d="M509.393 1320.64C511.284 1320.64 513.097 1319.88 514.433 1318.52C515.77 1317.16 516.522 1315.31 516.522 1313.39C516.522 1311.47 515.77 1309.62 514.433 1308.26C513.097 1306.9 511.284 1306.14 509.393 1306.14C507.503 1306.14 505.69 1306.9 504.353 1308.26C503.016 1309.62 502.266 1311.47 502.266 1313.39C502.27 1315.31 503.022 1317.15 504.357 1318.51C505.694 1319.87 507.504 1320.64 509.393 1320.64L509.393 1320.64Z" fill="#CCCCCC"/>
<path d="M519.774 1325.3H498.911C496.734 1325.31 494.97 1327.1 494.961 1329.32V1353.13H499.949V1335.83H502.262V1387.05H508.241V1357.04H510.553V1387.03H516.532V1335.82H518.83V1353.13H523.786V1329.32C523.782 1328.24 523.356 1327.21 522.602 1326.46C521.849 1325.7 520.83 1325.29 519.774 1325.3V1325.3Z" fill="#CCCCCC"/>
<path d="M509.393 1694.24C511.284 1694.24 513.097 1693.48 514.433 1692.12C515.77 1690.76 516.522 1688.91 516.522 1686.99C516.522 1685.07 515.77 1683.22 514.433 1681.86C513.097 1680.5 511.284 1679.74 509.393 1679.74C507.503 1679.74 505.69 1680.5 504.353 1681.86C503.016 1683.22 502.266 1685.07 502.266 1686.99C502.27 1688.91 503.022 1690.75 504.357 1692.11C505.694 1693.47 507.504 1694.24 509.393 1694.24L509.393 1694.24Z" fill="#CCCCCC"/>
<path d="M519.774 1698.9H498.911C496.734 1698.91 494.97 1700.7 494.961 1702.92V1726.73H499.949V1709.43H502.262V1760.65H508.241V1730.64H510.553V1760.64H516.532V1709.42H518.83V1726.74H523.786V1702.92C523.782 1701.84 523.356 1700.82 522.602 1700.06C521.849 1699.31 520.83 1698.89 519.774 1698.9V1698.9Z" fill="#CCCCCC"/>
<path d="M277.827 1507.44C279.718 1507.44 281.531 1506.68 282.867 1505.32C284.203 1503.96 284.955 1502.11 284.955 1500.19C284.955 1498.27 284.203 1496.42 282.867 1495.06C281.531 1493.7 279.718 1492.94 277.827 1492.94C275.937 1492.94 274.124 1493.7 272.787 1495.06C271.45 1496.42 270.699 1498.27 270.699 1500.19C270.704 1502.11 271.455 1503.95 272.791 1505.31C274.128 1506.67 275.938 1507.44 277.827 1507.44L277.827 1507.44Z" fill="#CCCCCC"/>
<path d="M288.211 1512.1H267.349C265.171 1512.11 263.407 1513.9 263.398 1516.12V1539.93H268.387V1522.63H270.699V1573.85H276.678V1543.84H278.991V1573.84H284.97V1522.62H287.267V1539.94H292.224V1516.12C292.219 1515.04 291.793 1514.02 291.039 1513.26C290.286 1512.51 289.268 1512.09 288.211 1512.1V1512.1Z" fill="#CCCCCC"/>
<path d="M277.827 1320.64C279.718 1320.64 281.531 1319.88 282.867 1318.52C284.203 1317.16 284.955 1315.31 284.955 1313.39C284.955 1311.47 284.203 1309.62 282.867 1308.26C281.531 1306.9 279.718 1306.14 277.827 1306.14C275.937 1306.14 274.124 1306.9 272.787 1308.26C271.45 1309.62 270.699 1311.47 270.699 1313.39C270.704 1315.31 271.455 1317.15 272.791 1318.51C274.128 1319.87 275.938 1320.64 277.827 1320.64L277.827 1320.64Z" fill="#CCCCCC"/>
<path d="M288.211 1325.3H267.349C265.171 1325.31 263.407 1327.1 263.398 1329.32V1353.13H268.387V1335.83H270.699V1387.05H276.678V1357.04H278.991V1387.03H284.97V1335.82H287.267V1353.13H292.224V1329.32C292.219 1328.24 291.793 1327.21 291.039 1326.46C290.286 1325.7 289.268 1325.29 288.211 1325.3V1325.3Z" fill="#CCCCCC"/>
<path d="M509.393 1414.08C511.284 1414.08 513.097 1413.32 514.433 1411.96C515.77 1410.6 516.522 1408.76 516.522 1406.83C516.522 1404.91 515.77 1403.06 514.433 1401.7C513.097 1400.34 511.284 1399.58 509.393 1399.58C507.503 1399.58 505.69 1400.34 504.353 1401.7C503.016 1403.06 502.266 1404.91 502.266 1406.83C502.27 1408.75 503.022 1410.6 504.357 1411.95C505.694 1413.31 507.504 1414.08 509.393 1414.08L509.393 1414.08Z" fill="#CCCCCC"/>
<path d="M519.774 1418.74H498.911C496.734 1418.75 494.97 1420.54 494.961 1422.76V1446.58H499.949V1429.27H502.262V1480.49H508.241V1450.48H510.553V1480.48H516.532V1429.26H518.83V1446.58H523.786V1422.76C523.782 1421.68 523.356 1420.66 522.602 1419.9C521.849 1419.15 520.83 1418.73 519.774 1418.74V1418.74Z" fill="#CCCCCC"/>
<path d="M277.827 1694.21C279.718 1694.21 281.531 1693.45 282.867 1692.09C284.203 1690.73 284.955 1688.89 284.955 1686.96C284.955 1685.04 284.203 1683.2 282.867 1681.84C281.531 1680.48 279.718 1679.71 277.827 1679.71C275.937 1679.71 274.124 1680.48 272.787 1681.84C271.45 1683.2 270.699 1685.04 270.699 1686.96C270.704 1688.88 271.455 1690.73 272.791 1692.08C274.128 1693.44 275.938 1694.21 277.827 1694.21L277.827 1694.21Z" fill="#CCCCCC"/>
<path d="M288.211 1698.87H267.349C265.171 1698.88 263.407 1700.67 263.398 1702.89V1726.71H268.387V1709.4H270.699V1760.62H276.678V1730.61H278.991V1760.61H284.97V1709.39H287.267V1726.71H292.224V1702.89C292.219 1701.82 291.793 1700.79 291.039 1700.03C290.286 1699.28 289.268 1698.86 288.211 1698.87V1698.87Z" fill="#CCCCCC"/>
<path d="M509.393 1600.86C511.284 1600.86 513.097 1600.09 514.433 1598.73C515.77 1597.37 516.522 1595.53 516.522 1593.61C516.522 1591.68 515.77 1589.84 514.433 1588.48C513.097 1587.12 511.284 1586.35 509.393 1586.35C507.503 1586.35 505.69 1587.12 504.353 1588.48C503.016 1589.84 502.266 1591.68 502.266 1593.61C502.27 1595.53 503.022 1597.37 504.357 1598.73C505.694 1600.09 507.504 1600.85 509.393 1600.86L509.393 1600.86Z" fill="#CCCCCC"/>
<path d="M519.774 1605.51H498.911C496.734 1605.52 494.97 1607.32 494.961 1609.53V1633.35H499.949V1616.05H502.262V1667.27H508.241V1637.25H510.553V1667.25H516.532V1616.03H518.83V1633.35H523.786V1609.53C523.782 1608.46 523.356 1607.43 522.602 1606.68C521.849 1605.92 520.83 1605.5 519.774 1605.52V1605.51Z" fill="#CCCCCC"/>
<path d="M369.034 1600.83C370.925 1600.83 372.738 1600.06 374.074 1598.7C375.41 1597.34 376.162 1595.5 376.162 1593.58C376.162 1591.65 375.41 1589.81 374.074 1588.45C372.738 1587.09 370.925 1586.33 369.034 1586.33C367.144 1586.33 365.331 1587.09 363.994 1588.45C362.657 1589.81 361.906 1591.65 361.906 1593.58C361.911 1595.5 362.662 1597.34 363.998 1598.7C365.335 1600.06 367.145 1600.82 369.034 1600.83L369.034 1600.83Z" fill="#CCCCCC"/>
<path d="M379.414 1605.49H358.552C356.374 1605.49 354.611 1607.29 354.602 1609.5V1633.32H359.59V1616.02H361.902V1667.24H367.881V1637.23H370.194V1667.22H376.173V1616H378.47V1633.32H383.427V1609.5C383.422 1608.43 382.996 1607.4 382.242 1606.65C381.49 1605.89 380.471 1605.47 379.414 1605.49V1605.49Z" fill="#CCCCCC"/>
<path d="M369.034 1414.03C370.925 1414.03 372.738 1413.26 374.074 1411.9C375.41 1410.54 376.162 1408.7 376.162 1406.78C376.162 1404.85 375.41 1403.01 374.074 1401.65C372.738 1400.29 370.925 1399.53 369.034 1399.53C367.144 1399.53 365.331 1400.29 363.994 1401.65C362.657 1403.01 361.906 1404.85 361.906 1406.78C361.911 1408.7 362.662 1410.54 363.998 1411.9C365.335 1413.26 367.145 1414.02 369.034 1414.03L369.034 1414.03Z" fill="#CCCCCC"/>
<path d="M379.414 1418.69H358.552C356.374 1418.69 354.611 1420.49 354.602 1422.7V1446.52H359.59V1429.22H361.902V1480.44H367.881V1450.43H370.194V1480.42H376.173V1429.2H378.47V1446.52H383.427V1422.7C383.422 1421.63 382.996 1420.6 382.242 1419.85C381.49 1419.09 380.471 1418.67 379.414 1418.69V1418.69Z" fill="#CCCCCC"/>
<path d="M600.596 1507.47C602.487 1507.47 604.3 1506.71 605.636 1505.35C606.973 1503.99 607.725 1502.14 607.725 1500.22C607.725 1498.3 606.973 1496.45 605.636 1495.09C604.3 1493.73 602.487 1492.97 600.596 1492.97C598.706 1492.97 596.893 1493.73 595.556 1495.09C594.219 1496.45 593.469 1498.3 593.469 1500.22C593.473 1502.14 594.225 1503.98 595.561 1505.34C596.897 1506.7 598.707 1507.47 600.596 1507.47L600.596 1507.47Z" fill="#CCCCCC"/>
<path d="M610.981 1512.13H590.118C587.941 1512.14 586.177 1513.93 586.168 1516.15V1539.96H591.156V1522.66H593.469V1573.88H599.448V1543.87H601.76V1573.86H607.74V1522.65H610.037V1539.96H614.993V1516.15C614.989 1515.07 614.563 1514.04 613.809 1513.29C613.056 1512.53 612.038 1512.12 610.981 1512.13V1512.13Z" fill="#CCCCCC"/>
<path d="M600.596 1320.64C602.487 1320.64 604.3 1319.88 605.636 1318.52C606.973 1317.16 607.725 1315.31 607.725 1313.39C607.725 1311.47 606.973 1309.62 605.636 1308.26C604.3 1306.9 602.487 1306.14 600.596 1306.14C598.706 1306.14 596.893 1306.9 595.556 1308.26C594.219 1309.62 593.469 1311.47 593.469 1313.39C593.473 1315.31 594.225 1317.15 595.561 1318.51C596.897 1319.87 598.707 1320.64 600.596 1320.64L600.596 1320.64Z" fill="#CCCCCC"/>
<path d="M610.981 1325.3H590.118C587.941 1325.31 586.177 1327.1 586.168 1329.32V1353.13H591.156V1335.83H593.469V1387.05H599.448V1357.04H601.76V1387.03H607.74V1335.82H610.037V1353.13H614.993V1329.32C614.989 1328.24 614.563 1327.21 613.809 1326.46C613.056 1325.7 612.038 1325.29 610.981 1325.3V1325.3Z" fill="#CCCCCC"/>
<path d="M600.596 1694.24C602.487 1694.24 604.3 1693.48 605.636 1692.12C606.973 1690.76 607.725 1688.92 607.725 1686.99C607.725 1685.07 606.973 1683.22 605.636 1681.86C604.3 1680.5 602.487 1679.74 600.596 1679.74C598.706 1679.74 596.893 1680.5 595.556 1681.86C594.219 1683.22 593.469 1685.07 593.469 1686.99C593.473 1688.91 594.225 1690.76 595.561 1692.11C596.897 1693.47 598.707 1694.24 600.596 1694.24L600.596 1694.24Z" fill="#CCCCCC"/>
<path d="M610.981 1698.9H590.118C587.941 1698.91 586.177 1700.7 586.168 1702.92V1726.74H591.156V1709.43H593.469V1760.65H599.448V1730.64H601.76V1760.64H607.74V1709.42H610.037V1726.74H614.993V1702.92C614.989 1701.84 614.563 1700.82 613.809 1700.06C613.056 1699.31 612.038 1698.89 610.981 1698.9V1698.9Z" fill="#CCCCCC"/>
<path d="M369.034 1507.44C370.925 1507.44 372.738 1506.68 374.074 1505.32C375.41 1503.96 376.162 1502.11 376.162 1500.19C376.162 1498.27 375.41 1496.42 374.074 1495.06C372.738 1493.7 370.925 1492.94 369.034 1492.94C367.144 1492.94 365.331 1493.7 363.994 1495.06C362.657 1496.42 361.906 1498.27 361.906 1500.19C361.911 1502.11 362.662 1503.95 363.998 1505.31C365.335 1506.67 367.145 1507.44 369.034 1507.44L369.034 1507.44Z" fill="#CCCCCC"/>
<path d="M379.414 1512.1H358.552C356.374 1512.11 354.611 1513.9 354.602 1516.12V1539.93H359.59V1522.63H361.902V1573.85H367.881V1543.84H370.194V1573.84H376.173V1522.62H378.47V1539.93H383.427V1516.12C383.422 1515.04 382.996 1514.01 382.242 1513.26C381.49 1512.51 380.471 1512.09 379.414 1512.1V1512.1Z" fill="#CCCCCC"/>
<path d="M369.034 1320.64C370.925 1320.64 372.738 1319.88 374.074 1318.52C375.41 1317.16 376.162 1315.31 376.162 1313.39C376.162 1311.47 375.41 1309.62 374.074 1308.26C372.738 1306.9 370.925 1306.14 369.034 1306.14C367.144 1306.14 365.331 1306.9 363.994 1308.26C362.657 1309.62 361.906 1311.47 361.906 1313.39C361.911 1315.31 362.662 1317.15 363.998 1318.51C365.335 1319.87 367.145 1320.64 369.034 1320.64L369.034 1320.64Z" fill="#CCCCCC"/>
<path d="M379.414 1325.3H358.552C356.374 1325.31 354.611 1327.1 354.602 1329.32V1353.13H359.59V1335.83H361.902V1387.05H367.881V1357.04H370.194V1387.03H376.173V1335.82H378.47V1353.13H383.427V1329.32C383.422 1328.24 382.996 1327.21 382.242 1326.46C381.49 1325.7 380.471 1325.29 379.414 1325.3V1325.3Z" fill="#CCCCCC"/>
<path d="M600.596 1414.08C602.487 1414.08 604.3 1413.32 605.636 1411.96C606.973 1410.6 607.725 1408.76 607.725 1406.83C607.725 1404.91 606.973 1403.07 605.636 1401.71C604.3 1400.35 602.487 1399.58 600.596 1399.58C598.706 1399.58 596.893 1400.35 595.556 1401.71C594.219 1403.07 593.469 1404.91 593.469 1406.83C593.473 1408.75 594.225 1410.6 595.561 1411.96C596.897 1413.31 598.707 1414.08 600.596 1414.08L600.596 1414.08Z" fill="#CCCCCC"/>
<path d="M610.981 1418.74H590.118C587.941 1418.75 586.177 1420.54 586.168 1422.76V1446.58H591.156V1429.27H593.469V1480.49H599.448V1450.48H601.76V1480.48H607.74V1429.26H610.037V1446.58H614.993V1422.76C614.989 1421.69 614.563 1420.66 613.809 1419.9C613.056 1419.15 612.038 1418.73 610.981 1418.74V1418.74Z" fill="#CCCCCC"/>
<path d="M369.034 1694.21C370.925 1694.21 372.738 1693.45 374.074 1692.09C375.41 1690.73 376.162 1688.89 376.162 1686.96C376.162 1685.04 375.41 1683.2 374.074 1681.84C372.738 1680.48 370.925 1679.71 369.034 1679.71C367.144 1679.71 365.331 1680.48 363.994 1681.84C362.657 1683.2 361.906 1685.04 361.906 1686.96C361.911 1688.88 362.662 1690.73 363.998 1692.08C365.335 1693.44 367.145 1694.21 369.034 1694.21L369.034 1694.21Z" fill="#CCCCCC"/>
<path d="M379.414 1698.87H358.552C356.374 1698.88 354.611 1700.67 354.602 1702.89V1726.71H359.59V1709.4H361.902V1760.62H367.881V1730.61H370.194V1760.61H376.173V1709.39H378.47V1726.71H383.427V1702.89C383.422 1701.82 382.996 1700.79 382.242 1700.03C381.49 1699.28 380.471 1698.86 379.414 1698.87V1698.87Z" fill="#CCCCCC"/>
<path d="M600.596 1600.86C602.487 1600.86 604.3 1600.09 605.636 1598.73C606.973 1597.37 607.725 1595.53 607.725 1593.61C607.725 1591.68 606.973 1589.84 605.636 1588.48C604.3 1587.12 602.487 1586.35 600.596 1586.35C598.706 1586.35 596.893 1587.12 595.556 1588.48C594.219 1589.84 593.469 1591.68 593.469 1593.61C593.473 1595.53 594.225 1597.37 595.561 1598.73C596.897 1600.09 598.707 1600.85 600.596 1600.86L600.596 1600.86Z" fill="#CCCCCC"/>
<path d="M610.981 1605.51H590.118C587.941 1605.52 586.177 1607.32 586.168 1609.53V1633.35H591.156V1616.05H593.469V1667.27H599.448V1637.25H601.76V1667.25H607.74V1616.03H610.037V1633.35H614.993V1609.53C614.989 1608.46 614.563 1607.43 613.809 1606.68C613.056 1605.92 612.038 1605.5 610.981 1605.52V1605.51Z" fill="#CCCCCC"/>
<path d="M332.578 1615.67L336.197 1629.85L341.546 1628.25L336.417 1609.81C336.072 1608.6 335.401 1607.5 334.482 1606.66C333.563 1605.81 332.43 1605.24 331.21 1605.01C326.09 1604.13 320.862 1604.13 315.744 1605.01C314.521 1605.23 313.386 1605.8 312.465 1606.65C311.545 1607.5 310.876 1608.59 310.535 1609.81L305.391 1628.21L310.756 1629.82L314.36 1615.63L316.594 1616.23L310.582 1639.92H316.875L316.876 1667.22H322.399V1641.61H324.696V1667.22H330.109L330.108 1639.92H336.401L330.344 1616.26L332.578 1615.67Z" fill="#CCCCCC"/>
<path d="M323.472 1600.83C325.362 1600.83 327.175 1600.06 328.512 1598.7C329.849 1597.34 330.6 1595.5 330.6 1593.58C330.6 1591.65 329.849 1589.81 328.512 1588.45C327.175 1587.09 325.362 1586.33 323.472 1586.33C321.581 1586.33 319.768 1587.09 318.432 1588.45C317.096 1589.81 316.344 1591.65 316.344 1593.58C316.344 1595.5 317.096 1597.34 318.432 1598.7C319.768 1600.06 321.581 1600.83 323.472 1600.83Z" fill="#CCCCCC"/>
<path d="M332.578 1428.86L336.197 1443.05L341.546 1441.44L336.417 1423.01C336.072 1421.79 335.401 1420.7 334.482 1419.86C333.563 1419.01 332.43 1418.44 331.21 1418.2C326.09 1417.33 320.862 1417.33 315.744 1418.2C314.521 1418.43 313.386 1419 312.465 1419.85C311.545 1420.7 310.876 1421.79 310.535 1423.01L305.391 1441.41L310.756 1443.01L314.36 1428.83L316.594 1429.42L310.582 1453.11H316.875L316.876 1480.42H322.399V1454.81H324.696V1480.42H330.109L330.108 1453.11H336.401L330.344 1429.46L332.578 1428.86Z" fill="#CCCCCC"/>
<path d="M323.472 1414.02C325.362 1414.02 327.175 1413.26 328.512 1411.9C329.849 1410.54 330.6 1408.7 330.6 1406.77C330.6 1404.85 329.849 1403.01 328.512 1401.65C327.175 1400.29 325.362 1399.52 323.472 1399.52C321.581 1399.52 319.768 1400.29 318.432 1401.65C317.096 1403.01 316.344 1404.85 316.344 1406.77C316.344 1408.7 317.096 1410.54 318.432 1411.9C319.768 1413.26 321.581 1414.02 323.472 1414.02Z" fill="#CCCCCC"/>
<path d="M564.145 1522.31L567.763 1536.49L573.113 1534.89L567.984 1516.45C567.638 1515.24 566.968 1514.15 566.049 1513.3C565.129 1512.45 563.997 1511.88 562.776 1511.65C557.656 1510.77 552.429 1510.77 547.31 1511.65C546.087 1511.88 544.953 1512.44 544.032 1513.29C543.111 1514.14 542.443 1515.24 542.101 1516.45L536.957 1534.86L542.323 1536.46L545.926 1522.28L548.16 1522.87L542.148 1546.56H548.441L548.443 1573.86H553.965V1548.25H556.262V1573.86H561.675L561.674 1546.56H567.967L561.91 1522.9L564.145 1522.31Z" fill="#CCCCCC"/>
<path d="M555.035 1507.47C556.925 1507.47 558.738 1506.71 560.075 1505.35C561.411 1503.99 562.162 1502.14 562.162 1500.22C562.162 1498.3 561.411 1496.45 560.075 1495.09C558.738 1493.73 556.925 1492.97 555.035 1492.97C553.144 1492.97 551.331 1493.73 549.995 1495.09C548.658 1496.45 547.906 1498.3 547.906 1500.22C547.906 1502.14 548.658 1503.99 549.995 1505.35C551.33 1506.71 553.144 1507.47 555.035 1507.47Z" fill="#CCCCCC"/>
<path d="M564.145 1335.48L567.763 1349.66L573.113 1348.06L567.984 1329.62C567.638 1328.41 566.968 1327.32 566.049 1326.47C565.129 1325.62 563.997 1325.05 562.776 1324.82C557.656 1323.94 552.429 1323.94 547.31 1324.82C546.087 1325.05 544.953 1325.61 544.032 1326.46C543.111 1327.31 542.443 1328.41 542.101 1329.62L536.957 1348.03L542.323 1349.63L545.926 1335.45L548.16 1336.04L542.148 1359.73H548.441L548.443 1387.03H553.965V1361.42H556.262V1387.03H561.675L561.674 1359.73H567.967L561.91 1336.07L564.145 1335.48Z" fill="#CCCCCC"/>
<path d="M555.035 1320.64C556.925 1320.64 558.738 1319.88 560.075 1318.52C561.411 1317.16 562.162 1315.31 562.162 1313.39C562.162 1311.47 561.411 1309.62 560.075 1308.26C558.738 1306.9 556.925 1306.14 555.035 1306.14C553.144 1306.14 551.331 1306.9 549.995 1308.26C548.658 1309.62 547.906 1311.47 547.906 1313.39C547.906 1315.31 548.658 1317.16 549.995 1318.52C551.33 1319.88 553.144 1320.64 555.035 1320.64Z" fill="#CCCCCC"/>
<path d="M564.145 1709.08L567.763 1723.26L573.113 1721.66L567.984 1703.22C567.638 1702.01 566.968 1700.92 566.049 1700.07C565.129 1699.22 563.997 1698.65 562.776 1698.42C557.656 1697.55 552.429 1697.55 547.31 1698.42C546.087 1698.65 544.953 1699.22 544.032 1700.07C543.111 1700.92 542.443 1702.01 542.101 1703.22L536.957 1721.63L542.323 1723.23L545.926 1709.05L548.16 1709.64L542.148 1733.33H548.441L548.443 1760.64H553.965V1735.03H556.262V1760.64H561.675L561.674 1733.33H567.967L561.91 1709.67L564.145 1709.08Z" fill="#CCCCCC"/>
<path d="M555.035 1694.24C556.925 1694.24 558.738 1693.48 560.075 1692.12C561.411 1690.76 562.162 1688.92 562.162 1686.99C562.162 1685.07 561.411 1683.22 560.075 1681.86C558.738 1680.5 556.925 1679.74 555.035 1679.74C553.144 1679.74 551.331 1680.5 549.995 1681.86C548.658 1683.22 547.906 1685.07 547.906 1686.99C547.906 1688.92 548.658 1690.76 549.995 1692.12C551.33 1693.48 553.144 1694.24 555.035 1694.24Z" fill="#CCCCCC"/>
<path d="M332.578 1522.28L336.197 1536.46L341.546 1534.86L336.417 1516.42C336.072 1515.21 335.401 1514.12 334.482 1513.27C333.563 1512.42 332.43 1511.85 331.21 1511.62C326.09 1510.75 320.862 1510.75 315.744 1511.62C314.521 1511.85 313.386 1512.42 312.465 1513.26C311.545 1514.11 310.876 1515.21 310.535 1516.42L305.391 1534.83L310.756 1536.43L314.36 1522.25L316.594 1522.84L310.582 1546.53H316.875L316.876 1573.84H322.399V1548.23H324.696V1573.84H330.109L330.108 1546.53H336.401L330.344 1522.87L332.578 1522.28Z" fill="#CCCCCC"/>
<path d="M323.472 1507.44C325.362 1507.44 327.175 1506.68 328.512 1505.32C329.849 1503.96 330.6 1502.11 330.6 1500.19C330.6 1498.27 329.849 1496.42 328.512 1495.06C327.175 1493.7 325.362 1492.94 323.472 1492.94C321.581 1492.94 319.768 1493.7 318.432 1495.06C317.096 1496.42 316.344 1498.27 316.344 1500.19C316.344 1502.11 317.096 1503.96 318.432 1505.32C319.768 1506.68 321.581 1507.44 323.472 1507.44Z" fill="#CCCCCC"/>
<path d="M332.578 1335.48L336.197 1349.66L341.546 1348.06L336.417 1329.62C336.072 1328.41 335.401 1327.32 334.482 1326.47C333.563 1325.62 332.43 1325.05 331.21 1324.82C326.09 1323.94 320.862 1323.94 315.744 1324.82C314.521 1325.05 313.386 1325.61 312.465 1326.46C311.545 1327.31 310.876 1328.41 310.535 1329.62L305.391 1348.03L310.756 1349.63L314.36 1335.45L316.594 1336.04L310.582 1359.73H316.875L316.876 1387.03H322.399V1361.42H324.696V1387.03H330.109L330.108 1359.73H336.401L330.344 1336.07L332.578 1335.48Z" fill="#CCCCCC"/>
<path d="M323.472 1320.64C325.362 1320.64 327.175 1319.88 328.512 1318.52C329.849 1317.16 330.6 1315.31 330.6 1313.39C330.6 1311.47 329.849 1309.62 328.512 1308.26C327.175 1306.9 325.362 1306.14 323.472 1306.14C321.581 1306.14 319.768 1306.9 318.432 1308.26C317.096 1309.62 316.344 1311.47 316.344 1313.39C316.344 1315.31 317.096 1317.16 318.432 1318.52C319.768 1319.88 321.581 1320.64 323.472 1320.64Z" fill="#CCCCCC"/>
<path d="M564.145 1428.92L567.763 1443.1L573.113 1441.5L567.984 1423.06C567.638 1421.85 566.968 1420.76 566.049 1419.91C565.129 1419.07 563.997 1418.49 562.776 1418.26C557.656 1417.39 552.429 1417.39 547.31 1418.26C546.087 1418.49 544.953 1419.06 544.032 1419.91C543.111 1420.76 542.443 1421.85 542.101 1423.06L536.957 1441.47L542.323 1443.07L545.926 1428.89L548.16 1429.48L542.148 1453.17H548.441L548.443 1480.48H553.965V1454.87H556.262V1480.48H561.675L561.674 1453.17H567.967L561.91 1429.51L564.145 1428.92Z" fill="#CCCCCC"/>
<path d="M555.035 1414.08C556.925 1414.08 558.738 1413.32 560.075 1411.96C561.411 1410.6 562.162 1408.76 562.162 1406.83C562.162 1404.91 561.411 1403.07 560.075 1401.71C558.738 1400.35 556.925 1399.58 555.035 1399.58C553.144 1399.58 551.331 1400.35 549.995 1401.71C548.658 1403.07 547.906 1404.91 547.906 1406.83C547.906 1408.76 548.658 1410.6 549.995 1411.96C551.33 1413.32 553.144 1414.08 555.035 1414.08Z" fill="#CCCCCC"/>
<path d="M332.578 1709.05L336.197 1723.23L341.546 1721.63L336.417 1703.19C336.072 1701.98 335.401 1700.89 334.482 1700.04C333.563 1699.2 332.43 1698.62 331.21 1698.39C326.09 1697.52 320.862 1697.52 315.744 1698.39C314.521 1698.62 313.386 1699.19 312.465 1700.04C311.545 1700.89 310.876 1701.98 310.535 1703.19L305.391 1721.6L310.756 1723.2L314.36 1709.02L316.594 1709.61L310.582 1733.3H316.875L316.876 1760.61H322.399V1735H324.696V1760.61H330.109L330.108 1733.3H336.401L330.344 1709.64L332.578 1709.05Z" fill="#CCCCCC"/>
<path d="M323.472 1694.21C325.362 1694.21 327.175 1693.45 328.512 1692.09C329.849 1690.73 330.6 1688.89 330.6 1686.96C330.6 1685.04 329.849 1683.2 328.512 1681.84C327.175 1680.48 325.362 1679.71 323.472 1679.71C321.581 1679.71 319.768 1680.48 318.432 1681.84C317.096 1683.2 316.344 1685.04 316.344 1686.96C316.344 1688.89 317.096 1690.73 318.432 1692.09C319.768 1693.45 321.581 1694.21 323.472 1694.21Z" fill="#CCCCCC"/>
<path d="M564.145 1615.7L567.763 1629.88L573.113 1628.28L567.984 1609.84C567.638 1608.62 566.968 1607.53 566.049 1606.69C565.129 1605.84 563.997 1605.27 562.776 1605.04C557.656 1604.16 552.429 1604.16 547.31 1605.04C546.087 1605.26 544.953 1605.83 544.032 1606.68C543.111 1607.53 542.443 1608.62 542.101 1609.84L536.957 1628.24L542.323 1629.84L545.926 1615.66L548.16 1616.25L542.148 1639.94H548.441L548.443 1667.25H553.965V1641.64H556.262V1667.25H561.675L561.674 1639.94H567.967L561.91 1616.29L564.145 1615.7Z" fill="#CCCCCC"/>
<path d="M555.035 1600.86C556.925 1600.86 558.738 1600.09 560.075 1598.73C561.411 1597.37 562.162 1595.53 562.162 1593.61C562.162 1591.68 561.411 1589.84 560.075 1588.48C558.738 1587.12 556.925 1586.35 555.035 1586.35C553.144 1586.35 551.331 1587.12 549.995 1588.48C548.658 1589.84 547.906 1591.68 547.906 1593.61C547.906 1595.53 548.658 1597.37 549.995 1598.73C551.33 1600.09 553.144 1600.86 555.035 1600.86Z" fill="#CCCCCC"/>
<path d="M423.781 1615.67L427.4 1629.85L432.749 1628.25L427.621 1609.81C427.275 1608.6 426.604 1607.51 425.686 1606.66C424.766 1605.81 423.633 1605.24 422.413 1605.01C417.293 1604.13 412.066 1604.13 406.947 1605.01C405.724 1605.23 404.589 1605.8 403.668 1606.65C402.748 1607.5 402.079 1608.59 401.738 1609.81L396.594 1628.22L401.96 1629.82L405.563 1615.63L407.797 1616.23L401.785 1639.92H408.078L408.079 1667.22H413.602V1641.61H415.899V1667.22H421.312L421.311 1639.92H427.604L421.547 1616.26L423.781 1615.67Z" fill="#CCCCCC"/>
<path d="M414.671 1600.83C416.561 1600.83 418.375 1600.06 419.711 1598.7C421.048 1597.34 421.799 1595.5 421.799 1593.58C421.799 1591.65 421.048 1589.81 419.711 1588.45C418.375 1587.09 416.562 1586.33 414.671 1586.33C412.78 1586.33 410.967 1587.09 409.632 1588.45C408.295 1589.81 407.543 1591.65 407.543 1593.58C407.543 1595.5 408.295 1597.34 409.632 1598.7C410.967 1600.06 412.78 1600.83 414.671 1600.83Z" fill="#CCCCCC"/>
<path d="M423.781 1428.87L427.4 1443.05L432.749 1441.45L427.621 1423.01C427.275 1421.79 426.604 1420.7 425.686 1419.86C424.766 1419.01 423.633 1418.44 422.413 1418.21C417.293 1417.33 412.066 1417.33 406.947 1418.21C405.724 1418.43 404.589 1419 403.668 1419.85C402.748 1420.7 402.079 1421.79 401.738 1423.01L396.594 1441.41L401.96 1443.01L405.563 1428.83L407.797 1429.42L401.785 1453.11H408.078L408.079 1480.42H413.602V1454.81H415.899V1480.42H421.312L421.311 1453.11H427.604L421.547 1429.46L423.781 1428.87Z" fill="#CCCCCC"/>
<path d="M414.675 1414.03C416.565 1414.03 418.378 1413.26 419.715 1411.9C421.052 1410.54 421.803 1408.7 421.803 1406.78C421.803 1404.85 421.052 1403.01 419.715 1401.65C418.379 1400.29 416.565 1399.53 414.675 1399.53C412.784 1399.53 410.971 1400.29 409.635 1401.65C408.299 1403.01 407.547 1404.85 407.547 1406.78C407.547 1408.7 408.299 1410.54 409.635 1411.9C410.971 1413.26 412.784 1414.03 414.675 1414.03Z" fill="#CCCCCC"/>
<path d="M655.348 1522.31L658.966 1536.49L664.316 1534.89L659.187 1516.45C658.841 1515.24 658.171 1514.15 657.252 1513.3C656.332 1512.45 655.2 1511.88 653.979 1511.65C648.859 1510.77 643.632 1510.77 638.513 1511.65C637.29 1511.88 636.156 1512.44 635.235 1513.29C634.314 1514.14 633.646 1515.24 633.304 1516.45L628.16 1534.86L633.526 1536.46L637.129 1522.28L639.364 1522.87L633.352 1546.56H639.645L639.646 1573.86H645.168V1548.25H647.465V1573.86H652.878L652.877 1546.56H659.17L653.113 1522.9L655.348 1522.31Z" fill="#CCCCCC"/>
<path d="M646.238 1507.47C648.128 1507.47 649.941 1506.71 651.278 1505.35C652.615 1503.99 653.365 1502.14 653.365 1500.22C653.365 1498.3 652.615 1496.45 651.278 1495.09C649.941 1493.73 648.128 1492.97 646.238 1492.97C644.347 1492.97 642.534 1493.73 641.198 1495.09C639.861 1496.45 639.109 1498.3 639.109 1500.22C639.109 1502.14 639.861 1503.99 641.198 1505.35C642.534 1506.71 644.347 1507.47 646.238 1507.47Z" fill="#CCCCCC"/>
<path d="M655.348 1335.48L658.966 1349.66L664.316 1348.06L659.187 1329.62C658.841 1328.41 658.171 1327.32 657.252 1326.47C656.332 1325.62 655.2 1325.05 653.979 1324.82C648.859 1323.94 643.632 1323.94 638.513 1324.82C637.29 1325.05 636.156 1325.61 635.235 1326.46C634.314 1327.31 633.646 1328.41 633.304 1329.62L628.16 1348.03L633.526 1349.63L637.129 1335.45L639.364 1336.04L633.352 1359.73H639.645L639.646 1387.03H645.168V1361.42H647.465V1387.03H652.878L652.877 1359.73H659.17L653.113 1336.07L655.348 1335.48Z" fill="#CCCCCC"/>
<path d="M646.238 1320.64C648.128 1320.64 649.941 1319.88 651.278 1318.52C652.615 1317.16 653.365 1315.31 653.365 1313.39C653.365 1311.47 652.615 1309.62 651.278 1308.26C649.941 1306.9 648.128 1306.14 646.238 1306.14C644.347 1306.14 642.534 1306.9 641.198 1308.26C639.861 1309.62 639.109 1311.47 639.109 1313.39C639.109 1315.31 639.861 1317.16 641.198 1318.52C642.534 1319.88 644.347 1320.64 646.238 1320.64Z" fill="#CCCCCC"/>
<path d="M655.348 1709.08L658.966 1723.26L664.316 1721.66L659.187 1703.22C658.841 1702.01 658.171 1700.92 657.252 1700.07C656.332 1699.22 655.2 1698.65 653.979 1698.42C648.859 1697.55 643.632 1697.55 638.513 1698.42C637.29 1698.65 636.156 1699.22 635.235 1700.07C634.314 1700.92 633.646 1702.01 633.304 1703.22L628.16 1721.63L633.526 1723.23L637.129 1709.05L639.364 1709.64L633.352 1733.33H639.645L639.646 1760.64H645.168V1735.03H647.465V1760.64H652.878L652.877 1733.33H659.17L653.113 1709.67L655.348 1709.08Z" fill="#CCCCCC"/>
<path d="M646.238 1694.24C648.128 1694.24 649.941 1693.48 651.278 1692.12C652.615 1690.76 653.365 1688.92 653.365 1686.99C653.365 1685.07 652.615 1683.22 651.278 1681.86C649.941 1680.5 648.128 1679.74 646.238 1679.74C644.347 1679.74 642.534 1680.5 641.198 1681.86C639.861 1683.22 639.109 1685.07 639.109 1686.99C639.109 1688.92 639.861 1690.76 641.198 1692.12C642.534 1693.48 644.347 1694.24 646.238 1694.24Z" fill="#CCCCCC"/>
<path d="M423.781 1522.28L427.4 1536.46L432.749 1534.86L427.621 1516.42C427.275 1515.21 426.604 1514.12 425.686 1513.27C424.766 1512.42 423.633 1511.85 422.413 1511.62C417.293 1510.75 412.066 1510.75 406.947 1511.62C405.724 1511.85 404.589 1512.42 403.668 1513.27C402.748 1514.11 402.079 1515.21 401.738 1516.42L396.594 1534.83L401.96 1536.43L405.563 1522.25L407.797 1522.84L401.785 1546.53H408.078L408.079 1573.84H413.602V1548.23H415.899V1573.84H421.312L421.311 1546.53H427.604L421.547 1522.87L423.781 1522.28Z" fill="#CCCCCC"/>
<path d="M414.671 1507.44C416.561 1507.44 418.375 1506.68 419.711 1505.32C421.048 1503.96 421.799 1502.11 421.799 1500.19C421.799 1498.27 421.048 1496.42 419.711 1495.06C418.375 1493.7 416.562 1492.94 414.671 1492.94C412.78 1492.94 410.967 1493.7 409.632 1495.06C408.295 1496.42 407.543 1498.27 407.543 1500.19C407.543 1502.11 408.295 1503.96 409.632 1505.32C410.967 1506.68 412.78 1507.44 414.671 1507.44Z" fill="#CCCCCC"/>
<path d="M423.781 1335.48L427.4 1349.66L432.749 1348.06L427.621 1329.62C427.275 1328.41 426.604 1327.32 425.686 1326.47C424.766 1325.62 423.633 1325.05 422.413 1324.82C417.293 1323.94 412.066 1323.94 406.947 1324.82C405.724 1325.05 404.589 1325.61 403.668 1326.46C402.748 1327.31 402.079 1328.41 401.738 1329.62L396.594 1348.03L401.96 1349.63L405.563 1335.45L407.797 1336.04L401.785 1359.73H408.078L408.079 1387.03H413.602V1361.42H415.899V1387.03H421.312L421.311 1359.73H427.604L421.547 1336.07L423.781 1335.48Z" fill="#CCCCCC"/>
<path d="M414.675 1320.64C416.565 1320.64 418.378 1319.88 419.715 1318.52C421.052 1317.16 421.803 1315.31 421.803 1313.39C421.803 1311.47 421.052 1309.62 419.715 1308.26C418.379 1306.9 416.565 1306.14 414.675 1306.14C412.784 1306.14 410.971 1306.9 409.635 1308.26C408.299 1309.62 407.547 1311.47 407.547 1313.39C407.547 1315.31 408.299 1317.16 409.635 1318.52C410.971 1319.88 412.784 1320.64 414.675 1320.64Z" fill="#CCCCCC"/>
<path d="M655.348 1428.92L658.966 1443.1L664.316 1441.5L659.187 1423.06C658.841 1421.85 658.171 1420.76 657.252 1419.91C656.332 1419.06 655.2 1418.49 653.979 1418.26C648.859 1417.39 643.632 1417.39 638.513 1418.26C637.29 1418.49 636.156 1419.06 635.235 1419.91C634.314 1420.75 633.646 1421.85 633.304 1423.06L628.16 1441.47L633.526 1443.07L637.129 1428.89L639.364 1429.48L633.352 1453.17H639.645L639.646 1480.48H645.168V1454.87H647.465V1480.48H652.878L652.877 1453.17H659.17L653.113 1429.51L655.348 1428.92Z" fill="#CCCCCC"/>
<path d="M646.238 1414.08C648.128 1414.08 649.941 1413.32 651.278 1411.96C652.615 1410.6 653.365 1408.76 653.365 1406.83C653.365 1404.91 652.615 1403.06 651.278 1401.7C649.941 1400.34 648.128 1399.58 646.238 1399.58C644.347 1399.58 642.534 1400.34 641.198 1401.7C639.861 1403.06 639.109 1404.91 639.109 1406.83C639.109 1408.76 639.861 1410.6 641.198 1411.96C642.534 1413.32 644.347 1414.08 646.238 1414.08Z" fill="#CCCCCC"/>
<path d="M423.781 1709.05L427.4 1723.23L432.749 1721.63L427.621 1703.19C427.275 1701.98 426.604 1700.89 425.686 1700.04C424.766 1699.2 423.633 1698.62 422.413 1698.39C417.293 1697.52 412.066 1697.52 406.947 1698.39C405.724 1698.62 404.589 1699.19 403.668 1700.04C402.748 1700.89 402.079 1701.98 401.738 1703.19L396.594 1721.6L401.96 1723.2L405.563 1709.02L407.797 1709.61L401.785 1733.3H408.078L408.079 1760.61H413.602V1735H415.899V1760.61H421.312L421.311 1733.3H427.604L421.547 1709.64L423.781 1709.05Z" fill="#CCCCCC"/>
<path d="M414.671 1694.21C416.561 1694.21 418.375 1693.45 419.711 1692.09C421.048 1690.73 421.799 1688.89 421.799 1686.96C421.799 1685.04 421.048 1683.2 419.711 1681.84C418.375 1680.48 416.562 1679.71 414.671 1679.71C412.78 1679.71 410.967 1680.48 409.632 1681.84C408.295 1683.2 407.543 1685.04 407.543 1686.96C407.543 1688.89 408.295 1690.73 409.632 1692.09C410.967 1693.45 412.78 1694.21 414.671 1694.21Z" fill="#CCCCCC"/>
<path d="M655.348 1615.69L658.966 1629.88L664.316 1628.28L659.187 1609.84C658.841 1608.62 658.171 1607.53 657.252 1606.69C656.332 1605.84 655.2 1605.27 653.979 1605.03C648.859 1604.16 643.632 1604.16 638.513 1605.03C637.29 1605.26 636.156 1605.83 635.235 1606.68C634.314 1607.53 633.646 1608.62 633.304 1609.84L628.16 1628.24L633.526 1629.84L637.129 1615.66L639.364 1616.25L633.352 1639.94H639.645L639.646 1667.25H645.168V1641.64H647.465V1667.25H652.878L652.877 1639.94H659.17L653.113 1616.29L655.348 1615.69Z" fill="#CCCCCC"/>
<path d="M646.238 1600.86C648.128 1600.86 649.941 1600.09 651.278 1598.73C652.615 1597.37 653.365 1595.53 653.365 1593.61C653.365 1591.68 652.615 1589.84 651.278 1588.48C649.941 1587.12 648.128 1586.35 646.238 1586.35C644.347 1586.35 642.534 1587.12 641.198 1588.48C639.861 1589.84 639.109 1591.68 639.109 1593.61C639.109 1595.53 639.861 1597.37 641.198 1598.73C642.534 1600.09 644.347 1600.86 646.238 1600.86Z" fill="#CCCCCC"/>
<path d="M241.25 1615.67L244.869 1629.85L250.218 1628.25L245.089 1609.81C244.744 1608.59 244.073 1607.5 243.154 1606.66C242.235 1605.81 241.102 1605.24 239.882 1605.01C234.762 1604.13 229.534 1604.13 224.415 1605.01C223.193 1605.23 222.058 1605.8 221.137 1606.65C220.216 1607.5 219.548 1608.59 219.207 1609.81L214.062 1628.21L219.428 1629.81L223.031 1615.63L225.266 1616.22L219.254 1639.91H225.547L225.548 1667.22H231.071V1641.61H233.368V1667.22H238.781L238.78 1639.91H245.073L239.015 1616.26L241.25 1615.67Z" fill="#CCCCCC"/>
<path d="M232.144 1600.83C234.034 1600.83 235.847 1600.06 237.184 1598.7C238.521 1597.34 239.272 1595.5 239.272 1593.58C239.272 1591.65 238.521 1589.81 237.184 1588.45C235.847 1587.09 234.034 1586.33 232.144 1586.33C230.253 1586.33 228.44 1587.09 227.104 1588.45C225.767 1589.81 225.016 1591.65 225.016 1593.58C225.016 1595.5 225.767 1597.34 227.104 1598.7C228.44 1600.06 230.253 1600.83 232.144 1600.83Z" fill="#CCCCCC"/>
<path d="M241.25 1428.87L244.869 1443.05L250.218 1441.45L245.089 1423.01C244.744 1421.79 244.073 1420.7 243.154 1419.86C242.235 1419.01 241.102 1418.44 239.882 1418.21C234.762 1417.33 229.534 1417.33 224.415 1418.21C223.193 1418.43 222.058 1419 221.137 1419.85C220.216 1420.7 219.548 1421.79 219.207 1423.01L214.062 1441.41L219.428 1443.01L223.031 1428.83L225.266 1429.42L219.254 1453.11H225.547L225.548 1480.42H231.071V1454.81H233.368V1480.42H238.781L238.78 1453.11H245.073L239.015 1429.46L241.25 1428.87Z" fill="#CCCCCC"/>
<path d="M232.144 1414.03C234.034 1414.03 235.847 1413.26 237.184 1411.9C238.521 1410.54 239.272 1408.7 239.272 1406.78C239.272 1404.85 238.521 1403.01 237.184 1401.65C235.847 1400.29 234.034 1399.53 232.144 1399.53C230.253 1399.53 228.44 1400.29 227.104 1401.65C225.767 1403.01 225.016 1404.85 225.016 1406.78C225.016 1408.7 225.767 1410.54 227.104 1411.9C228.44 1413.26 230.253 1414.03 232.144 1414.03Z" fill="#CCCCCC"/>
<path d="M472.817 1522.31L476.435 1536.49L481.784 1534.89L476.656 1516.45C476.31 1515.24 475.639 1514.15 474.721 1513.3C473.801 1512.45 472.668 1511.88 471.448 1511.65C466.328 1510.77 461.101 1510.77 455.982 1511.65C454.759 1511.88 453.624 1512.44 452.704 1513.29C451.783 1514.14 451.114 1515.24 450.773 1516.45L445.629 1534.86L450.995 1536.46L454.598 1522.28L456.832 1522.87L450.82 1546.56H457.113L457.114 1573.86H462.637V1548.25H464.934V1573.86H470.347L470.346 1546.56H476.639L470.582 1522.9L472.817 1522.31Z" fill="#CCCCCC"/>
<path d="M463.707 1507.47C465.597 1507.47 467.41 1506.71 468.747 1505.35C470.083 1503.99 470.834 1502.14 470.834 1500.22C470.834 1498.3 470.083 1496.45 468.747 1495.09C467.41 1493.73 465.597 1492.97 463.707 1492.97C461.816 1492.97 460.002 1493.73 458.667 1495.09C457.33 1496.45 456.578 1498.3 456.578 1500.22C456.578 1502.14 457.33 1503.99 458.667 1505.35C460.002 1506.71 461.815 1507.47 463.707 1507.47Z" fill="#CCCCCC"/>
<path d="M472.817 1335.48L476.435 1349.66L481.784 1348.06L476.656 1329.62C476.31 1328.41 475.639 1327.32 474.721 1326.47C473.801 1325.62 472.668 1325.05 471.448 1324.82C466.328 1323.94 461.101 1323.94 455.982 1324.82C454.759 1325.05 453.624 1325.61 452.704 1326.46C451.783 1327.31 451.114 1328.41 450.773 1329.62L445.629 1348.03L450.995 1349.63L454.598 1335.45L456.832 1336.04L450.82 1359.73H457.113L457.114 1387.03H462.637V1361.42H464.934V1387.03H470.347L470.346 1359.73H476.639L470.582 1336.07L472.817 1335.48Z" fill="#CCCCCC"/>
<path d="M463.707 1320.64C465.597 1320.64 467.41 1319.88 468.747 1318.52C470.083 1317.16 470.834 1315.31 470.834 1313.39C470.834 1311.47 470.083 1309.62 468.747 1308.26C467.41 1306.9 465.597 1306.14 463.707 1306.14C461.816 1306.14 460.002 1306.9 458.667 1308.26C457.33 1309.62 456.578 1311.47 456.578 1313.39C456.578 1315.31 457.33 1317.16 458.667 1318.52C460.002 1319.88 461.815 1320.64 463.707 1320.64Z" fill="#CCCCCC"/>
<path d="M472.817 1709.08L476.435 1723.26L481.784 1721.66L476.656 1703.22C476.31 1702.01 475.639 1700.92 474.721 1700.07C473.801 1699.22 472.668 1698.65 471.448 1698.42C466.328 1697.55 461.101 1697.55 455.982 1698.42C454.759 1698.65 453.624 1699.22 452.704 1700.07C451.783 1700.92 451.114 1702.01 450.773 1703.22L445.629 1721.63L450.995 1723.23L454.598 1709.05L456.832 1709.64L450.82 1733.33H457.113L457.114 1760.64H462.637V1735.03H464.934V1760.64H470.347L470.346 1733.33H476.639L470.582 1709.67L472.817 1709.08Z" fill="#CCCCCC"/>
<path d="M463.707 1694.24C465.597 1694.24 467.41 1693.48 468.747 1692.12C470.083 1690.76 470.834 1688.92 470.834 1686.99C470.834 1685.07 470.083 1683.22 468.747 1681.86C467.41 1680.5 465.597 1679.74 463.707 1679.74C461.816 1679.74 460.002 1680.5 458.667 1681.86C457.33 1683.22 456.578 1685.07 456.578 1686.99C456.578 1688.92 457.33 1690.76 458.667 1692.12C460.002 1693.48 461.815 1694.24 463.707 1694.24Z" fill="#CCCCCC"/>
<path d="M241.25 1522.28L244.869 1536.46L250.218 1534.86L245.089 1516.42C244.744 1515.21 244.073 1514.12 243.154 1513.27C242.235 1512.42 241.102 1511.85 239.882 1511.62C234.762 1510.75 229.534 1510.75 224.415 1511.62C223.193 1511.85 222.058 1512.42 221.137 1513.26C220.216 1514.11 219.548 1515.21 219.207 1516.42L214.062 1534.83L219.428 1536.43L223.031 1522.25L225.266 1522.84L219.254 1546.53H225.547L225.548 1573.84H231.071V1548.23H233.368V1573.84H238.781L238.78 1546.53H245.073L239.015 1522.87L241.25 1522.28Z" fill="#CCCCCC"/>
<path d="M232.144 1507.44C234.034 1507.44 235.847 1506.68 237.184 1505.32C238.521 1503.96 239.272 1502.11 239.272 1500.19C239.272 1498.27 238.521 1496.42 237.184 1495.06C235.847 1493.7 234.034 1492.94 232.144 1492.94C230.253 1492.94 228.44 1493.7 227.104 1495.06C225.767 1496.42 225.016 1498.27 225.016 1500.19C225.016 1502.11 225.767 1503.96 227.104 1505.32C228.44 1506.68 230.253 1507.44 232.144 1507.44Z" fill="#CCCCCC"/>
<path d="M241.25 1335.48L244.869 1349.66L250.218 1348.06L245.089 1329.62C244.744 1328.41 244.073 1327.32 243.154 1326.47C242.235 1325.62 241.102 1325.05 239.882 1324.82C234.762 1323.94 229.534 1323.94 224.415 1324.82C223.193 1325.05 222.058 1325.61 221.137 1326.46C220.216 1327.31 219.548 1328.41 219.207 1329.62L214.062 1348.03L219.428 1349.63L223.031 1335.45L225.266 1336.04L219.254 1359.73H225.547L225.548 1387.03H231.071V1361.42H233.368V1387.03H238.781L238.78 1359.73H245.073L239.015 1336.07L241.25 1335.48Z" fill="#CCCCCC"/>
<path d="M232.144 1320.64C234.034 1320.64 235.847 1319.88 237.184 1318.52C238.521 1317.16 239.272 1315.31 239.272 1313.39C239.272 1311.47 238.521 1309.62 237.184 1308.26C235.847 1306.9 234.034 1306.14 232.144 1306.14C230.253 1306.14 228.44 1306.9 227.104 1308.26C225.767 1309.62 225.016 1311.47 225.016 1313.39C225.016 1315.31 225.767 1317.16 227.104 1318.52C228.44 1319.88 230.253 1320.64 232.144 1320.64Z" fill="#CCCCCC"/>
<path d="M472.817 1428.92L476.435 1443.1L481.784 1441.5L476.656 1423.06C476.31 1421.85 475.639 1420.76 474.721 1419.91C473.801 1419.07 472.668 1418.49 471.448 1418.26C466.328 1417.39 461.101 1417.39 455.982 1418.26C454.759 1418.49 453.624 1419.06 452.704 1419.91C451.783 1420.76 451.114 1421.85 450.773 1423.06L445.629 1441.47L450.995 1443.07L454.598 1428.89L456.832 1429.48L450.82 1453.17H457.113L457.114 1480.48H462.637V1454.87H464.934V1480.48H470.347L470.346 1453.17H476.639L470.582 1429.51L472.817 1428.92Z" fill="#CCCCCC"/>
<path d="M463.707 1414.08C465.597 1414.08 467.41 1413.32 468.747 1411.96C470.083 1410.6 470.834 1408.76 470.834 1406.83C470.834 1404.91 470.083 1403.07 468.747 1401.71C467.41 1400.35 465.597 1399.58 463.707 1399.58C461.816 1399.58 460.002 1400.35 458.667 1401.71C457.33 1403.07 456.578 1404.91 456.578 1406.83C456.578 1408.76 457.33 1410.6 458.667 1411.96C460.002 1413.32 461.815 1414.08 463.707 1414.08Z" fill="#CCCCCC"/>
<path d="M241.25 1709.05L244.869 1723.23L250.218 1721.63L245.089 1703.19C244.744 1701.98 244.073 1700.89 243.154 1700.04C242.235 1699.2 241.102 1698.62 239.882 1698.39C234.762 1697.52 229.534 1697.52 224.415 1698.39C223.193 1698.62 222.058 1699.19 221.137 1700.04C220.216 1700.89 219.548 1701.98 219.207 1703.19L214.062 1721.6L219.428 1723.2L223.031 1709.02L225.266 1709.61L219.254 1733.3H225.547L225.548 1760.61H231.071V1735H233.368V1760.61H238.781L238.78 1733.3H245.073L239.015 1709.64L241.25 1709.05Z" fill="#CCCCCC"/>
<path d="M232.144 1694.21C234.034 1694.21 235.847 1693.45 237.184 1692.09C238.521 1690.73 239.272 1688.89 239.272 1686.96C239.272 1685.04 238.521 1683.2 237.184 1681.84C235.847 1680.48 234.034 1679.71 232.144 1679.71C230.253 1679.71 228.44 1680.48 227.104 1681.84C225.767 1683.2 225.016 1685.04 225.016 1686.96C225.016 1688.89 225.767 1690.73 227.104 1692.09C228.44 1693.45 230.253 1694.21 232.144 1694.21Z" fill="#CCCCCC"/>
<path d="M472.817 1615.7L476.435 1629.88L481.784 1628.28L476.656 1609.84C476.31 1608.62 475.639 1607.53 474.721 1606.69C473.801 1605.84 472.668 1605.27 471.448 1605.04C466.328 1604.16 461.101 1604.16 455.982 1605.04C454.759 1605.26 453.624 1605.83 452.704 1606.68C451.783 1607.53 451.114 1608.62 450.773 1609.84L445.629 1628.24L450.995 1629.84L454.598 1615.66L456.832 1616.25L450.82 1639.94H457.113L457.114 1667.25H462.637V1641.64H464.934V1667.25H470.347L470.346 1639.94H476.639L470.582 1616.29L472.817 1615.7Z" fill="#CCCCCC"/>
<path d="M463.707 1600.86C465.597 1600.86 467.41 1600.09 468.747 1598.73C470.083 1597.37 470.834 1595.53 470.834 1593.61C470.834 1591.68 470.083 1589.84 468.747 1588.48C467.41 1587.12 465.597 1586.35 463.707 1586.35C461.816 1586.35 460.002 1587.12 458.667 1588.48C457.33 1589.84 456.578 1591.68 456.578 1593.61C456.578 1595.53 457.33 1597.37 458.667 1598.73C460.002 1600.09 461.815 1600.86 463.707 1600.86Z" fill="#CCCCCC"/>
<defs>
<filter id="filter0_d_423_6912" x="126.831" y="0.0641601" width="529.342" height="529.342" filterUnits="userSpaceOnUse" color-interpolation-filters="sRGB">
<feFlood flood-opacity="0" result="BackgroundImageFix"/>
<feColorMatrix in="SourceAlpha" type="matrix" values="0 0 0 0 0 0 0 0 0 0 0 0 0 0 0 0 0 0 127 0" result="hardAlpha"/>
<feOffset dy="3.40413"/>
<feGaussianBlur stdDeviation="8.51031"/>
<feComposite in2="hardAlpha" operator="out"/>
<feColorMatrix type="matrix" values="0 0 0 0 0 0 0 0 0 0 0 0 0 0 0 0 0 0 0.25 0"/>
<feBlend mode="normal" in2="BackgroundImageFix" result="effect1_dropShadow_423_6912"/>
<feBlend mode="normal" in="SourceGraphic" in2="effect1_dropShadow_423_6912" result="shape"/>
</filter>
</defs>
</svg>
