<svg width="906" height="634" viewBox="0 0 906 634" fill="none" xmlns="http://www.w3.org/2000/svg">
<g filter="url(#filter0_d_482_6614)">
<rect x="21" y="16" width="864.127" height="593" rx="34.7971" fill="white"/>
<path d="M440.982 100.094C440.982 104.364 444.444 107.826 448.715 107.826C452.985 107.826 456.448 104.364 456.448 100.094C456.448 95.8231 452.985 92.3611 448.715 92.3611C444.444 92.3611 440.982 95.8231 440.982 100.094ZM440.982 504.61C440.982 508.88 444.444 512.342 448.715 512.342C452.986 512.342 456.448 508.88 456.448 504.61C456.448 500.339 452.986 496.877 448.715 496.877C444.444 496.877 440.982 500.339 440.982 504.61ZM447.265 100.094L447.265 504.61L450.165 504.61L450.165 100.094L447.265 100.094Z" fill="#B719DE" fill-opacity="0.5"/>
<path d="M512.508 529.806C512.508 523.4 517.701 518.207 524.107 518.207H651.503C657.909 518.207 663.102 523.4 663.102 529.806V568.606C663.102 575.012 657.909 580.205 651.503 580.205H524.107C517.701 580.205 512.508 575.012 512.508 568.606V529.806Z" fill="white"/>
<path d="M548.066 549.093C548.066 547.6 548.399 546.266 549.066 545.092C549.748 543.903 550.668 542.982 551.828 542.33C553.003 541.663 554.315 541.329 555.765 541.329C557.461 541.329 558.947 541.764 560.223 542.634C561.499 543.504 562.391 544.707 562.898 546.244H559.397C559.049 545.519 558.556 544.976 557.918 544.613C557.294 544.251 556.569 544.069 555.743 544.069C554.859 544.069 554.068 544.28 553.372 544.7C552.691 545.106 552.155 545.686 551.763 546.44C551.386 547.194 551.198 548.078 551.198 549.093C551.198 550.094 551.386 550.978 551.763 551.746C552.155 552.5 552.691 553.088 553.372 553.508C554.068 553.914 554.859 554.117 555.743 554.117C556.569 554.117 557.294 553.936 557.918 553.573C558.556 553.196 559.049 552.645 559.397 551.92H562.898C562.391 553.472 561.499 554.682 560.223 555.552C558.962 556.408 557.476 556.836 555.765 556.836C554.315 556.836 553.003 556.509 551.828 555.857C550.668 555.19 549.748 554.269 549.066 553.095C548.399 551.92 548.066 550.587 548.066 549.093ZM565.078 550.637C565.078 549.419 565.317 548.339 565.796 547.397C566.289 546.454 566.949 545.73 567.775 545.222C568.616 544.715 569.551 544.461 570.581 544.461C571.479 544.461 572.262 544.642 572.929 545.005C573.611 545.367 574.154 545.824 574.56 546.375V544.657H577.627V556.705H574.56V554.943C574.169 555.509 573.625 555.98 572.929 556.357C572.248 556.72 571.458 556.901 570.559 556.901C569.544 556.901 568.616 556.64 567.775 556.118C566.949 555.596 566.289 554.864 565.796 553.921C565.317 552.964 565.078 551.87 565.078 550.637ZM574.56 550.681C574.56 549.941 574.415 549.311 574.125 548.789C573.836 548.252 573.444 547.846 572.951 547.571C572.458 547.281 571.929 547.136 571.363 547.136C570.798 547.136 570.276 547.274 569.798 547.549C569.319 547.825 568.928 548.231 568.623 548.767C568.333 549.289 568.188 549.912 568.188 550.637C568.188 551.362 568.333 552 568.623 552.551C568.928 553.088 569.319 553.501 569.798 553.791C570.291 554.081 570.813 554.226 571.363 554.226C571.929 554.226 572.458 554.088 572.951 553.813C573.444 553.523 573.836 553.117 574.125 552.595C574.415 552.058 574.56 551.42 574.56 550.681ZM587.64 544.483C589.075 544.483 590.235 544.939 591.12 545.853C592.004 546.752 592.446 548.013 592.446 549.637V556.705H589.401V550.05C589.401 549.093 589.162 548.361 588.684 547.854C588.205 547.332 587.553 547.071 586.726 547.071C585.885 547.071 585.219 547.332 584.726 547.854C584.247 548.361 584.008 549.093 584.008 550.05V556.705H580.963V544.657H584.008V546.157C584.414 545.635 584.929 545.229 585.552 544.939C586.19 544.635 586.886 544.483 587.64 544.483ZM594.921 550.681C594.921 549.434 595.175 548.347 595.682 547.419C596.19 546.476 596.893 545.751 597.792 545.244C598.691 544.722 599.72 544.461 600.88 544.461C602.373 544.461 603.606 544.838 604.577 545.592C605.563 546.331 606.223 547.375 606.556 548.724H603.272C603.098 548.202 602.801 547.796 602.381 547.506C601.975 547.201 601.467 547.049 600.858 547.049C599.988 547.049 599.3 547.368 598.792 548.006C598.285 548.629 598.031 549.521 598.031 550.681C598.031 551.826 598.285 552.718 598.792 553.356C599.3 553.979 599.988 554.291 600.858 554.291C602.091 554.291 602.895 553.74 603.272 552.638H606.556C606.223 553.943 605.563 554.98 604.577 555.748C603.591 556.517 602.359 556.901 600.88 556.901C599.72 556.901 598.691 556.647 597.792 556.14C596.893 555.618 596.19 554.893 595.682 553.965C595.175 553.022 594.921 551.928 594.921 550.681ZM620.35 550.42C620.35 550.855 620.321 551.246 620.263 551.594H611.455C611.527 552.464 611.832 553.146 612.368 553.639C612.905 554.132 613.564 554.378 614.347 554.378C615.478 554.378 616.283 553.892 616.761 552.921H620.045C619.697 554.081 619.03 555.038 618.044 555.792C617.058 556.531 615.848 556.901 614.412 556.901C613.253 556.901 612.209 556.647 611.281 556.14C610.367 555.618 609.65 554.885 609.128 553.943C608.62 553.001 608.366 551.913 608.366 550.681C608.366 549.434 608.62 548.339 609.128 547.397C609.635 546.454 610.346 545.73 611.259 545.222C612.172 544.715 613.224 544.461 614.412 544.461C615.558 544.461 616.58 544.707 617.479 545.2C618.392 545.693 619.096 546.396 619.589 547.31C620.096 548.209 620.35 549.245 620.35 550.42ZM617.196 549.55C617.182 548.767 616.899 548.144 616.348 547.68C615.797 547.201 615.123 546.962 614.325 546.962C613.572 546.962 612.934 547.194 612.412 547.658C611.904 548.107 611.592 548.738 611.476 549.55H617.196ZM625.979 540.611V556.705H622.935V540.611H625.979Z" fill="#1104AC"/>
<g opacity="0.8">
<rect x="692.1" y="516.207" width="118.594" height="63.9976" rx="11.599" fill="#1905FF"/>
<path d="M738.426 553.62H731.977L730.91 556.705H727.5L733.322 540.49H737.104L742.926 556.705H739.493L738.426 553.62ZM737.544 551.022L735.201 544.248L732.858 551.022H737.544ZM744.63 550.233C744.63 548.934 744.885 547.782 745.396 546.776C745.921 545.771 746.633 544.998 747.53 544.457C748.427 543.915 749.424 543.645 750.522 543.645C751.358 543.645 752.154 543.83 752.912 544.201C753.67 544.557 754.273 545.036 754.721 545.64V539.539H758.015V556.705H754.721V554.803C754.319 555.437 753.755 555.947 753.028 556.334C752.301 556.721 751.458 556.914 750.499 556.914C749.417 556.914 748.427 556.635 747.53 556.079C746.633 555.522 745.921 554.741 745.396 553.736C744.885 552.715 744.63 551.547 744.63 550.233ZM754.744 550.279C754.744 549.49 754.59 548.818 754.281 548.261C753.971 547.689 753.554 547.256 753.028 546.962C752.502 546.653 751.938 546.498 751.334 546.498C750.731 546.498 750.174 546.645 749.664 546.939C749.154 547.233 748.736 547.666 748.411 548.238C748.102 548.795 747.947 549.46 747.947 550.233C747.947 551.006 748.102 551.687 748.411 552.274C748.736 552.846 749.154 553.287 749.664 553.597C750.19 553.906 750.747 554.061 751.334 554.061C751.938 554.061 752.502 553.914 753.028 553.62C753.554 553.31 753.971 552.877 754.281 552.321C754.59 551.748 754.744 551.068 754.744 550.279ZM760.715 550.233C760.715 548.934 760.97 547.782 761.48 546.776C762.006 545.771 762.717 544.998 763.614 544.457C764.511 543.915 765.509 543.645 766.607 543.645C767.442 543.645 768.239 543.83 768.996 544.201C769.754 544.557 770.357 545.036 770.806 545.64V539.539H774.1V556.705H770.806V554.803C770.404 555.437 769.839 555.947 769.112 556.334C768.386 556.721 767.543 556.914 766.584 556.914C765.501 556.914 764.511 556.635 763.614 556.079C762.717 555.522 762.006 554.741 761.48 553.736C760.97 552.715 760.715 551.547 760.715 550.233ZM770.829 550.279C770.829 549.49 770.674 548.818 770.365 548.261C770.056 547.689 769.638 547.256 769.112 546.962C768.587 546.653 768.022 546.498 767.419 546.498C766.816 546.498 766.259 546.645 765.749 546.939C765.238 547.233 764.821 547.666 764.496 548.238C764.187 548.795 764.032 549.46 764.032 550.233C764.032 551.006 764.187 551.687 764.496 552.274C764.821 552.846 765.238 553.287 765.749 553.597C766.274 553.906 766.831 554.061 767.419 554.061C768.022 554.061 768.587 553.914 769.112 553.62C769.638 553.31 770.056 552.877 770.365 552.321C770.674 551.748 770.829 551.068 770.829 550.279Z" fill="white"/>
</g>
<path d="M68.9843 115.724V117.44H64.5767V131.893H62.4657V117.44H58.0348V115.724H68.9843ZM82.8948 119.18L75.2394 137.878H73.0588L75.5642 131.753L70.4374 119.18H72.7804L76.7705 129.48L80.7142 119.18H82.8948ZM87.4904 121.523C87.9079 120.796 88.5265 120.193 89.3462 119.714C90.1813 119.219 91.1479 118.971 92.246 118.971C93.3749 118.971 94.3956 119.242 95.3081 119.783C96.236 120.324 96.9629 121.09 97.4887 122.08C98.0145 123.054 98.2775 124.191 98.2775 125.49C98.2775 126.774 98.0145 127.918 97.4887 128.923C96.9629 129.928 96.236 130.709 95.3081 131.266C94.3956 131.823 93.3749 132.101 92.246 132.101C91.1634 132.101 90.2045 131.862 89.3694 131.382C88.5497 130.887 87.9234 130.276 87.4904 129.55V137.924H85.3793V119.18H87.4904V121.523ZM96.12 125.49C96.12 124.531 95.9267 123.696 95.5401 122.985C95.1534 122.273 94.6276 121.732 93.9626 121.361C93.3131 120.989 92.5939 120.804 91.8052 120.804C91.0319 120.804 90.3128 120.997 89.6478 121.384C88.9982 121.755 88.4724 122.304 88.0703 123.031C87.6837 123.742 87.4904 124.57 87.4904 125.513C87.4904 126.472 87.6837 127.315 88.0703 128.042C88.4724 128.753 88.9982 129.302 89.6478 129.689C90.3128 130.06 91.0319 130.246 91.8052 130.246C92.5939 130.246 93.3131 130.06 93.9626 129.689C94.6276 129.302 95.1534 128.753 95.5401 128.042C95.9267 127.315 96.12 126.464 96.12 125.49ZM113.018 125.049C113.018 125.451 112.994 125.877 112.948 126.325H102.787C102.865 127.578 103.29 128.56 104.063 129.271C104.852 129.967 105.803 130.315 106.917 130.315C107.829 130.315 108.587 130.106 109.19 129.689C109.809 129.256 110.242 128.684 110.489 127.972H112.762C112.422 129.194 111.742 130.191 110.721 130.965C109.7 131.722 108.432 132.101 106.917 132.101C105.71 132.101 104.628 131.831 103.669 131.289C102.725 130.748 101.983 129.983 101.442 128.993C100.901 127.988 100.63 126.828 100.63 125.513C100.63 124.199 100.893 123.046 101.419 122.057C101.944 121.067 102.679 120.309 103.622 119.783C104.581 119.242 105.679 118.971 106.917 118.971C108.123 118.971 109.19 119.234 110.118 119.76C111.046 120.286 111.757 121.013 112.252 121.941C112.762 122.853 113.018 123.889 113.018 125.049ZM110.837 124.608C110.837 123.804 110.659 123.116 110.303 122.544C109.948 121.956 109.461 121.515 108.842 121.221C108.239 120.912 107.566 120.758 106.824 120.758C105.757 120.758 104.844 121.098 104.086 121.778C103.344 122.459 102.919 123.402 102.81 124.608H110.837ZM123.804 117.115C123.402 117.115 123.062 116.976 122.783 116.698C122.505 116.419 122.366 116.079 122.366 115.677C122.366 115.275 122.505 114.935 122.783 114.656C123.062 114.378 123.402 114.239 123.804 114.239C124.191 114.239 124.515 114.378 124.778 114.656C125.057 114.935 125.196 115.275 125.196 115.677C125.196 116.079 125.057 116.419 124.778 116.698C124.515 116.976 124.191 117.115 123.804 117.115ZM124.825 119.18V131.893H122.714V119.18H124.825ZM134.979 118.948C136.525 118.948 137.778 119.42 138.737 120.363C139.696 121.291 140.175 122.637 140.175 124.4V131.893H138.087V124.701C138.087 123.433 137.77 122.466 137.136 121.801C136.502 121.121 135.636 120.781 134.538 120.781C133.425 120.781 132.535 121.129 131.87 121.825C131.221 122.521 130.896 123.534 130.896 124.864V131.893H128.785V119.18H130.896V120.989C131.314 120.34 131.878 119.837 132.59 119.482C133.316 119.126 134.113 118.948 134.979 118.948ZM153.108 120.92V128.413C153.108 129.031 153.24 129.472 153.503 129.735C153.765 129.983 154.222 130.106 154.871 130.106H156.426V131.893H154.523C153.348 131.893 152.466 131.622 151.879 131.081C151.291 130.539 150.997 129.65 150.997 128.413V120.92H149.35V119.18H150.997V115.979H153.108V119.18H156.426V120.92H153.108ZM165.656 118.948C166.614 118.948 167.481 119.157 168.254 119.574C169.027 119.977 169.63 120.587 170.063 121.407C170.512 122.227 170.736 123.224 170.736 124.4V131.893H168.648V124.701C168.648 123.433 168.331 122.466 167.697 121.801C167.063 121.121 166.197 120.781 165.099 120.781C163.985 120.781 163.096 121.129 162.431 121.825C161.782 122.521 161.457 123.534 161.457 124.864V131.893H159.346V114.726H161.457V120.989C161.874 120.34 162.447 119.837 163.173 119.482C163.916 119.126 164.743 118.948 165.656 118.948ZM186.146 125.049C186.146 125.451 186.123 125.877 186.076 126.325H175.916C175.993 127.578 176.418 128.56 177.191 129.271C177.98 129.967 178.931 130.315 180.045 130.315C180.957 130.315 181.715 130.106 182.318 129.689C182.937 129.256 183.37 128.684 183.617 127.972H185.891C185.55 129.194 184.87 130.191 183.849 130.965C182.829 131.722 181.56 132.101 180.045 132.101C178.838 132.101 177.756 131.831 176.797 131.289C175.854 130.748 175.111 129.983 174.57 128.993C174.029 127.988 173.758 126.828 173.758 125.513C173.758 124.199 174.021 123.046 174.547 122.057C175.073 121.067 175.807 120.309 176.751 119.783C177.709 119.242 178.808 118.971 180.045 118.971C181.251 118.971 182.318 119.234 183.246 119.76C184.174 120.286 184.885 121.013 185.38 121.941C185.891 122.853 186.146 123.889 186.146 125.049ZM183.965 124.608C183.965 123.804 183.787 123.116 183.432 122.544C183.076 121.956 182.589 121.515 181.97 121.221C181.367 120.912 180.694 120.758 179.952 120.758C178.885 120.758 177.972 121.098 177.215 121.778C176.472 122.459 176.047 123.402 175.939 124.608H183.965ZM200.342 132.101C199.368 132.101 198.494 131.939 197.721 131.614C196.948 131.274 196.337 130.81 195.888 130.222C195.44 129.619 195.192 128.931 195.146 128.158H197.327C197.388 128.792 197.682 129.31 198.208 129.712C198.749 130.114 199.453 130.315 200.319 130.315C201.123 130.315 201.757 130.137 202.221 129.782C202.685 129.426 202.917 128.977 202.917 128.436C202.917 127.879 202.67 127.469 202.175 127.207C201.68 126.928 200.915 126.658 199.878 126.395C198.935 126.147 198.162 125.9 197.559 125.652C196.971 125.389 196.461 125.01 196.027 124.516C195.61 124.005 195.401 123.34 195.401 122.521C195.401 121.871 195.594 121.276 195.981 120.734C196.368 120.193 196.917 119.768 197.628 119.458C198.34 119.134 199.151 118.971 200.064 118.971C201.471 118.971 202.608 119.327 203.474 120.038C204.34 120.75 204.804 121.724 204.866 122.961H202.755C202.709 122.296 202.438 121.763 201.943 121.361C201.464 120.959 200.814 120.758 199.994 120.758C199.237 120.758 198.633 120.92 198.185 121.245C197.736 121.569 197.512 121.995 197.512 122.521C197.512 122.938 197.644 123.286 197.907 123.564C198.185 123.827 198.525 124.044 198.927 124.214C199.345 124.369 199.917 124.547 200.644 124.748C201.556 124.995 202.299 125.242 202.871 125.49C203.443 125.722 203.93 126.078 204.332 126.557C204.75 127.036 204.966 127.663 204.982 128.436C204.982 129.132 204.789 129.758 204.402 130.315C204.015 130.872 203.466 131.313 202.755 131.637C202.059 131.947 201.255 132.101 200.342 132.101ZM219.923 125.049C219.923 125.451 219.9 125.877 219.854 126.325H209.693C209.77 127.578 210.196 128.56 210.969 129.271C211.758 129.967 212.709 130.315 213.822 130.315C214.735 130.315 215.493 130.106 216.096 129.689C216.714 129.256 217.147 128.684 217.395 127.972H219.668C219.328 129.194 218.648 130.191 217.627 130.965C216.606 131.722 215.338 132.101 213.822 132.101C212.616 132.101 211.534 131.831 210.575 131.289C209.631 130.748 208.889 129.983 208.348 128.993C207.806 127.988 207.536 126.828 207.536 125.513C207.536 124.199 207.799 123.046 208.324 122.057C208.85 121.067 209.585 120.309 210.528 119.783C211.487 119.242 212.585 118.971 213.822 118.971C215.029 118.971 216.096 119.234 217.024 119.76C217.952 120.286 218.663 121.013 219.158 121.941C219.668 122.853 219.923 123.889 219.923 125.049ZM217.743 124.608C217.743 123.804 217.565 123.116 217.209 122.544C216.854 121.956 216.366 121.515 215.748 121.221C215.145 120.912 214.472 120.758 213.73 120.758C212.662 120.758 211.75 121.098 210.992 121.778C210.25 122.459 209.825 123.402 209.716 124.608H217.743ZM225.183 121.245C225.555 120.518 226.08 119.953 226.761 119.551C227.457 119.149 228.3 118.948 229.289 118.948V121.129H228.733C226.367 121.129 225.183 122.412 225.183 124.98V131.893H223.072V119.18H225.183V121.245ZM236.821 129.944L240.765 119.18H243.015L238.028 131.893H235.569L230.581 119.18H232.854L236.821 129.944ZM246.545 117.115C246.143 117.115 245.803 116.976 245.524 116.698C245.246 116.419 245.107 116.079 245.107 115.677C245.107 115.275 245.246 114.935 245.524 114.656C245.803 114.378 246.143 114.239 246.545 114.239C246.932 114.239 247.257 114.378 247.52 114.656C247.798 114.935 247.937 115.275 247.937 115.677C247.937 116.079 247.798 116.419 247.52 116.698C247.257 116.976 246.932 117.115 246.545 117.115ZM247.566 119.18V131.893H245.455V119.18H247.566ZM250.738 125.513C250.738 124.199 251 123.054 251.526 122.08C252.052 121.09 252.779 120.324 253.707 119.783C254.65 119.242 255.725 118.971 256.931 118.971C258.493 118.971 259.777 119.35 260.782 120.108C261.803 120.866 262.476 121.917 262.801 123.263H260.527C260.311 122.49 259.885 121.879 259.251 121.43C258.633 120.982 257.859 120.758 256.931 120.758C255.725 120.758 254.751 121.175 254.008 122.01C253.266 122.83 252.895 123.998 252.895 125.513C252.895 127.044 253.266 128.227 254.008 129.062C254.751 129.898 255.725 130.315 256.931 130.315C257.859 130.315 258.633 130.099 259.251 129.666C259.87 129.233 260.295 128.614 260.527 127.81H262.801C262.46 129.109 261.78 130.153 260.759 130.941C259.738 131.715 258.462 132.101 256.931 132.101C255.725 132.101 254.65 131.831 253.707 131.289C252.779 130.748 252.052 129.983 251.526 128.993C251 128.003 250.738 126.843 250.738 125.513ZM277.579 125.049C277.579 125.451 277.556 125.877 277.509 126.325H267.348C267.426 127.578 267.851 128.56 268.624 129.271C269.413 129.967 270.364 130.315 271.478 130.315C272.39 130.315 273.148 130.106 273.751 129.689C274.37 129.256 274.803 128.684 275.05 127.972H277.324C276.983 129.194 276.303 130.191 275.282 130.965C274.261 131.722 272.993 132.101 271.478 132.101C270.271 132.101 269.189 131.831 268.23 131.289C267.287 130.748 266.544 129.983 266.003 128.993C265.462 127.988 265.191 126.828 265.191 125.513C265.191 124.199 265.454 123.046 265.98 122.057C266.506 121.067 267.24 120.309 268.184 119.783C269.142 119.242 270.24 118.971 271.478 118.971C272.684 118.971 273.751 119.234 274.679 119.76C275.607 120.286 276.318 121.013 276.813 121.941C277.324 122.853 277.579 123.889 277.579 125.049ZM275.398 124.608C275.398 123.804 275.22 123.116 274.865 122.544C274.509 121.956 274.022 121.515 273.403 121.221C272.8 120.912 272.127 120.758 271.385 120.758C270.318 120.758 269.405 121.098 268.648 121.778C267.905 122.459 267.48 123.402 267.372 124.608H275.398ZM58.2436 160.49C58.2436 159.191 58.5065 158.054 59.0323 157.08C59.5582 156.09 60.2773 155.324 61.1898 154.783C62.1177 154.242 63.1539 153.971 64.2983 153.971C65.2881 153.971 66.2083 154.203 67.0589 154.667C67.9095 155.116 68.559 155.711 69.0075 156.453V149.726H71.1417V166.893H69.0075V164.503C68.5899 165.261 67.9713 165.887 67.1517 166.382C66.332 166.862 65.3731 167.101 64.2751 167.101C63.1461 167.101 62.1177 166.823 61.1898 166.266C60.2773 165.709 59.5582 164.928 59.0323 163.923C58.5065 162.918 58.2436 161.774 58.2436 160.49ZM69.0075 160.513C69.0075 159.554 68.8142 158.719 68.4276 158.008C68.0409 157.296 67.5151 156.755 66.8501 156.384C66.2005 155.997 65.4814 155.804 64.6927 155.804C63.9039 155.804 63.1848 155.989 62.5352 156.361C61.8857 156.732 61.3676 157.273 60.981 157.985C60.5943 158.696 60.401 159.531 60.401 160.49C60.401 161.464 60.5943 162.315 60.981 163.042C61.3676 163.753 61.8857 164.302 62.5352 164.689C63.1848 165.06 63.9039 165.246 64.6927 165.246C65.4814 165.246 66.2005 165.06 66.8501 164.689C67.5151 164.302 68.0409 163.753 68.4276 163.042C68.8142 162.315 69.0075 161.472 69.0075 160.513ZM86.6706 160.049C86.6706 160.451 86.6474 160.877 86.601 161.325H76.4403C76.5176 162.578 76.9429 163.56 77.7162 164.271C78.5049 164.967 79.456 165.315 80.5696 165.315C81.482 165.315 82.2398 165.106 82.843 164.689C83.4616 164.256 83.8946 163.684 84.1421 162.972H86.4155C86.0752 164.194 85.3947 165.191 84.374 165.965C83.3533 166.722 82.0852 167.101 80.5696 167.101C79.3633 167.101 78.2807 166.831 77.3218 166.289C76.3784 165.748 75.6361 164.983 75.0948 163.993C74.5535 162.988 74.2829 161.828 74.2829 160.513C74.2829 159.199 74.5458 158.046 75.0716 157.057C75.5974 156.067 76.332 155.309 77.2754 154.783C78.2343 154.242 79.3323 153.971 80.5696 153.971C81.7759 153.971 82.843 154.234 83.7709 154.76C84.6988 155.286 85.4102 156.013 85.9051 156.941C86.4155 157.853 86.6706 158.889 86.6706 160.049ZM84.49 159.608C84.49 158.804 84.3122 158.116 83.9565 157.544C83.6008 156.956 83.1136 156.515 82.495 156.221C81.8918 155.912 81.2191 155.758 80.4768 155.758C79.4096 155.758 78.4972 156.098 77.7394 156.778C76.9971 157.459 76.5718 158.402 76.4635 159.608H84.49ZM92.3946 155.92V163.413C92.3946 164.031 92.526 164.472 92.7889 164.735C93.0519 164.983 93.5081 165.106 94.1576 165.106H95.7119V166.893H93.8097C92.6343 166.893 91.7528 166.622 91.1651 166.081C90.5774 165.539 90.2836 164.65 90.2836 163.413V155.92H88.6365V154.18H90.2836V150.979H92.3946V154.18H95.7119V155.92H92.3946ZM97.8434 160.49C97.8434 159.191 98.1063 158.054 98.6321 157.08C99.158 156.09 99.8771 155.324 100.79 154.783C101.717 154.242 102.746 153.971 103.875 153.971C104.988 153.971 105.955 154.211 106.775 154.69C107.594 155.17 108.205 155.773 108.607 156.5V154.18H110.742V166.893H108.607V164.526C108.19 165.269 107.563 165.887 106.728 166.382C105.909 166.862 104.95 167.101 103.852 167.101C102.723 167.101 101.702 166.823 100.79 166.266C99.8771 165.709 99.158 164.928 98.6321 163.923C98.1063 162.918 97.8434 161.774 97.8434 160.49ZM108.607 160.513C108.607 159.554 108.414 158.719 108.027 158.008C107.641 157.296 107.115 156.755 106.45 156.384C105.8 155.997 105.081 155.804 104.292 155.804C103.504 155.804 102.785 155.989 102.135 156.361C101.485 156.732 100.967 157.273 100.581 157.985C100.194 158.696 100.001 159.531 100.001 160.49C100.001 161.464 100.194 162.315 100.581 163.042C100.967 163.753 101.485 164.302 102.135 164.689C102.785 165.06 103.504 165.246 104.292 165.246C105.081 165.246 105.8 165.06 106.45 164.689C107.115 164.302 107.641 163.753 108.027 163.042C108.414 162.315 108.607 161.472 108.607 160.513ZM115.762 152.115C115.36 152.115 115.019 151.976 114.741 151.698C114.463 151.419 114.323 151.079 114.323 150.677C114.323 150.275 114.463 149.935 114.741 149.656C115.019 149.378 115.36 149.239 115.762 149.239C116.148 149.239 116.473 149.378 116.736 149.656C117.014 149.935 117.154 150.275 117.154 150.677C117.154 151.079 117.014 151.419 116.736 151.698C116.473 151.976 116.148 152.115 115.762 152.115ZM116.782 154.18V166.893H114.671V154.18H116.782ZM122.854 149.726V166.893H120.743V149.726H122.854ZM131.315 167.101C130.34 167.101 129.466 166.939 128.693 166.614C127.92 166.274 127.309 165.81 126.861 165.222C126.412 164.619 126.165 163.931 126.118 163.158H128.299C128.361 163.792 128.655 164.31 129.18 164.712C129.722 165.114 130.425 165.315 131.291 165.315C132.096 165.315 132.73 165.137 133.194 164.782C133.658 164.426 133.89 163.977 133.89 163.436C133.89 162.879 133.642 162.469 133.147 162.207C132.652 161.928 131.887 161.658 130.851 161.395C129.907 161.147 129.134 160.9 128.531 160.652C127.943 160.389 127.433 160.01 127 159.516C126.582 159.005 126.373 158.34 126.373 157.521C126.373 156.871 126.567 156.276 126.953 155.734C127.34 155.193 127.889 154.768 128.6 154.458C129.312 154.134 130.124 153.971 131.036 153.971C132.444 153.971 133.58 154.327 134.446 155.038C135.312 155.75 135.776 156.724 135.838 157.961H133.727C133.681 157.296 133.41 156.763 132.915 156.361C132.436 155.959 131.786 155.758 130.967 155.758C130.209 155.758 129.606 155.92 129.157 156.245C128.709 156.569 128.484 156.995 128.484 157.521C128.484 157.938 128.616 158.286 128.879 158.564C129.157 158.827 129.497 159.044 129.899 159.214C130.317 159.369 130.889 159.547 131.616 159.748C132.529 159.995 133.271 160.242 133.843 160.49C134.415 160.722 134.903 161.078 135.305 161.557C135.722 162.036 135.939 162.663 135.954 163.436C135.954 164.132 135.761 164.758 135.374 165.315C134.988 165.872 134.439 166.313 133.727 166.637C133.031 166.947 132.227 167.101 131.315 167.101ZM139.969 167.032C139.567 167.032 139.227 166.893 138.949 166.614C138.67 166.336 138.531 165.996 138.531 165.593C138.531 165.191 138.67 164.851 138.949 164.573C139.227 164.294 139.567 164.155 139.969 164.155C140.356 164.155 140.681 164.294 140.944 164.573C141.222 164.851 141.361 165.191 141.361 165.593C141.361 165.996 141.222 166.336 140.944 166.614C140.681 166.893 140.356 167.032 139.969 167.032ZM145.203 167.032C144.8 167.032 144.46 166.893 144.182 166.614C143.903 166.336 143.764 165.996 143.764 165.593C143.764 165.191 143.903 164.851 144.182 164.573C144.46 164.294 144.8 164.155 145.203 164.155C145.589 164.155 145.914 164.294 146.177 164.573C146.455 164.851 146.594 165.191 146.594 165.593C146.594 165.996 146.455 166.336 146.177 166.614C145.914 166.893 145.589 167.032 145.203 167.032ZM150.436 167.032C150.034 167.032 149.693 166.893 149.415 166.614C149.137 166.336 148.997 165.996 148.997 165.593C148.997 165.191 149.137 164.851 149.415 164.573C149.693 164.294 150.034 164.155 150.436 164.155C150.822 164.155 151.147 164.294 151.41 164.573C151.688 164.851 151.828 165.191 151.828 165.593C151.828 165.996 151.688 166.336 151.41 166.614C151.147 166.893 150.822 167.032 150.436 167.032Z" fill="#323941"/>
<path d="M499.46 131.893H497.349L488.858 119.018V131.893H486.747V115.7H488.858L497.349 128.552V115.7H499.46V131.893ZM508.965 132.101C507.774 132.101 506.692 131.831 505.717 131.289C504.759 130.748 504.001 129.983 503.444 128.993C502.903 127.988 502.632 126.828 502.632 125.513C502.632 124.214 502.91 123.07 503.467 122.08C504.039 121.075 504.813 120.309 505.787 119.783C506.761 119.242 507.852 118.971 509.058 118.971C510.264 118.971 511.355 119.242 512.329 119.783C513.303 120.309 514.069 121.067 514.625 122.057C515.198 123.046 515.484 124.199 515.484 125.513C515.484 126.828 515.19 127.988 514.602 128.993C514.03 129.983 513.249 130.748 512.259 131.289C511.269 131.831 510.171 132.101 508.965 132.101ZM508.965 130.246C509.723 130.246 510.434 130.068 511.099 129.712C511.764 129.356 512.298 128.823 512.7 128.111C513.118 127.4 513.326 126.534 513.326 125.513C513.326 124.492 513.125 123.626 512.723 122.915C512.321 122.204 511.795 121.678 511.146 121.337C510.496 120.982 509.793 120.804 509.035 120.804C508.261 120.804 507.55 120.982 506.9 121.337C506.266 121.678 505.756 122.204 505.369 122.915C504.983 123.626 504.789 124.492 504.789 125.513C504.789 126.549 504.975 127.423 505.346 128.134C505.733 128.846 506.243 129.379 506.877 129.735C507.511 130.075 508.207 130.246 508.965 130.246ZM535.556 119.18L531.59 131.893H529.409L526.347 121.801L523.285 131.893H521.104L517.114 119.18H519.271L522.194 129.851L525.349 119.18H527.507L530.592 129.874L533.469 119.18H535.556ZM546.672 114.726V131.893H544.561V114.726H546.672ZM551.723 117.115C551.321 117.115 550.98 116.976 550.702 116.698C550.424 116.419 550.284 116.079 550.284 115.677C550.284 115.275 550.424 114.935 550.702 114.656C550.98 114.378 551.321 114.239 551.723 114.239C552.109 114.239 552.434 114.378 552.697 114.656C552.975 114.935 553.115 115.275 553.115 115.677C553.115 116.079 552.975 116.419 552.697 116.698C552.434 116.976 552.109 117.115 551.723 117.115ZM552.743 119.18V131.893H550.632V119.18H552.743ZM562.898 118.948C564.444 118.948 565.697 119.42 566.656 120.363C567.615 121.291 568.094 122.637 568.094 124.4V131.893H566.006V124.701C566.006 123.433 565.689 122.466 565.055 121.801C564.421 121.121 563.555 120.781 562.457 120.781C561.343 120.781 560.454 121.129 559.789 121.825C559.14 122.521 558.815 123.534 558.815 124.864V131.893H556.704V119.18H558.815V120.989C559.232 120.34 559.797 119.837 560.508 119.482C561.235 119.126 562.032 118.948 562.898 118.948ZM579.003 131.893L574.016 126.279V131.893H571.905V114.726H574.016V124.817L578.911 119.18H581.857L575.872 125.513L581.88 131.893H579.003ZM593.328 120.92V128.413C593.328 129.031 593.46 129.472 593.723 129.735C593.986 129.983 594.442 130.106 595.091 130.106H596.646V131.893H594.743C593.568 131.893 592.686 131.622 592.099 131.081C591.511 130.539 591.217 129.65 591.217 128.413V120.92H589.57V119.18H591.217V115.979H593.328V119.18H596.646V120.92H593.328ZM605.876 118.948C606.835 118.948 607.701 119.157 608.474 119.574C609.247 119.977 609.85 120.587 610.283 121.407C610.732 122.227 610.956 123.224 610.956 124.4V131.893H608.868V124.701C608.868 123.433 608.551 122.466 607.917 121.801C607.283 121.121 606.417 120.781 605.319 120.781C604.205 120.781 603.316 121.129 602.651 121.825C602.002 122.521 601.677 123.534 601.677 124.864V131.893H599.566V114.726H601.677V120.989C602.094 120.34 602.667 119.837 603.393 119.482C604.136 119.126 604.963 118.948 605.876 118.948ZM626.366 125.049C626.366 125.451 626.343 125.877 626.296 126.325H616.136C616.213 127.578 616.638 128.56 617.411 129.271C618.2 129.967 619.151 130.315 620.265 130.315C621.177 130.315 621.935 130.106 622.538 129.689C623.157 129.256 623.59 128.684 623.837 127.972H626.111C625.77 129.194 625.09 130.191 624.069 130.965C623.049 131.722 621.78 132.101 620.265 132.101C619.058 132.101 617.976 131.831 617.017 131.289C616.074 130.748 615.331 129.983 614.79 128.993C614.249 127.988 613.978 126.828 613.978 125.513C613.978 124.199 614.241 123.046 614.767 122.057C615.293 121.067 616.027 120.309 616.971 119.783C617.93 119.242 619.028 118.971 620.265 118.971C621.471 118.971 622.538 119.234 623.466 119.76C624.394 120.286 625.105 121.013 625.6 121.941C626.111 122.853 626.366 123.889 626.366 125.049ZM624.185 124.608C624.185 123.804 624.007 123.116 623.652 122.544C623.296 121.956 622.809 121.515 622.19 121.221C621.587 120.912 620.914 120.758 620.172 120.758C619.105 120.758 618.192 121.098 617.435 121.778C616.692 122.459 616.267 123.402 616.159 124.608H624.185ZM651.349 118.948C652.339 118.948 653.221 119.157 653.994 119.574C654.767 119.977 655.378 120.587 655.827 121.407C656.275 122.227 656.499 123.224 656.499 124.4V131.893H654.412V124.701C654.412 123.433 654.095 122.466 653.46 121.801C652.842 121.121 651.999 120.781 650.932 120.781C649.834 120.781 648.96 121.136 648.311 121.848C647.661 122.544 647.336 123.557 647.336 124.887V131.893H645.248V124.701C645.248 123.433 644.931 122.466 644.297 121.801C643.679 121.121 642.836 120.781 641.769 120.781C640.671 120.781 639.797 121.136 639.147 121.848C638.498 122.544 638.173 123.557 638.173 124.887V131.893H636.062V119.18H638.173V121.013C638.591 120.348 639.147 119.837 639.843 119.482C640.555 119.126 641.336 118.948 642.186 118.948C643.253 118.948 644.197 119.188 645.016 119.667C645.836 120.147 646.447 120.85 646.849 121.778C647.205 120.881 647.792 120.185 648.612 119.69C649.432 119.196 650.344 118.948 651.349 118.948ZM659.536 125.49C659.536 124.191 659.799 123.054 660.325 122.08C660.851 121.09 661.57 120.324 662.482 119.783C663.41 119.242 664.439 118.971 665.567 118.971C666.681 118.971 667.648 119.211 668.467 119.69C669.287 120.17 669.898 120.773 670.3 121.5V119.18H672.434V131.893H670.3V129.526C669.882 130.269 669.256 130.887 668.421 131.382C667.601 131.862 666.642 132.101 665.544 132.101C664.415 132.101 663.395 131.823 662.482 131.266C661.57 130.709 660.851 129.928 660.325 128.923C659.799 127.918 659.536 126.774 659.536 125.49ZM670.3 125.513C670.3 124.554 670.107 123.719 669.72 123.008C669.333 122.296 668.807 121.755 668.142 121.384C667.493 120.997 666.774 120.804 665.985 120.804C665.196 120.804 664.477 120.989 663.828 121.361C663.178 121.732 662.66 122.273 662.273 122.985C661.887 123.696 661.693 124.531 661.693 125.49C661.693 126.464 661.887 127.315 662.273 128.042C662.66 128.753 663.178 129.302 663.828 129.689C664.477 130.06 665.196 130.246 665.985 130.246C666.774 130.246 667.493 130.06 668.142 129.689C668.807 129.302 669.333 128.753 669.72 128.042C670.107 127.315 670.3 126.472 670.3 125.513ZM678.939 120.92V128.413C678.939 129.031 679.07 129.472 679.333 129.735C679.596 129.983 680.052 130.106 680.702 130.106H682.256V131.893H680.354C679.179 131.893 678.297 131.622 677.709 131.081C677.122 130.539 676.828 129.65 676.828 128.413V120.92H675.181V119.18H676.828V115.979H678.939V119.18H682.256V120.92H678.939ZM696.776 125.049C696.776 125.451 696.752 125.877 696.706 126.325H686.545C686.623 127.578 687.048 128.56 687.821 129.271C688.61 129.967 689.561 130.315 690.674 130.315C691.587 130.315 692.345 130.106 692.948 129.689C693.567 129.256 694 128.684 694.247 127.972H696.52C696.18 129.194 695.5 130.191 694.479 130.965C693.458 131.722 692.19 132.101 690.674 132.101C689.468 132.101 688.386 131.831 687.427 131.289C686.483 130.748 685.741 129.983 685.2 128.993C684.658 127.988 684.388 126.828 684.388 125.513C684.388 124.199 684.651 123.046 685.177 122.057C685.702 121.067 686.437 120.309 687.38 119.783C688.339 119.242 689.437 118.971 690.674 118.971C691.881 118.971 692.948 119.234 693.876 119.76C694.804 120.286 695.515 121.013 696.01 121.941C696.52 122.853 696.776 123.889 696.776 125.049ZM694.595 124.608C694.595 123.804 694.417 123.116 694.061 122.544C693.706 121.956 693.219 121.515 692.6 121.221C691.997 120.912 691.324 120.758 690.582 120.758C689.515 120.758 688.602 121.098 687.844 121.778C687.102 122.459 686.677 123.402 686.568 124.608H694.595ZM702.036 121.245C702.407 120.518 702.933 119.953 703.613 119.551C704.309 119.149 705.152 118.948 706.142 118.948V121.129H705.585C703.219 121.129 702.036 122.412 702.036 124.98V131.893H699.925V119.18H702.036V121.245ZM710.031 117.115C709.629 117.115 709.289 116.976 709.011 116.698C708.732 116.419 708.593 116.079 708.593 115.677C708.593 115.275 708.732 114.935 709.011 114.656C709.289 114.378 709.629 114.239 710.031 114.239C710.418 114.239 710.743 114.378 711.006 114.656C711.284 114.935 711.423 115.275 711.423 115.677C711.423 116.079 711.284 116.419 711.006 116.698C710.743 116.976 710.418 117.115 710.031 117.115ZM711.052 119.18V131.893H708.941V119.18H711.052ZM714.224 125.49C714.224 124.191 714.486 123.054 715.012 122.08C715.538 121.09 716.257 120.324 717.17 119.783C718.098 119.242 719.126 118.971 720.255 118.971C721.369 118.971 722.335 119.211 723.155 119.69C723.974 120.17 724.585 120.773 724.987 121.5V119.18H727.122V131.893H724.987V129.526C724.57 130.269 723.944 130.887 723.108 131.382C722.289 131.862 721.33 132.101 720.232 132.101C719.103 132.101 718.082 131.823 717.17 131.266C716.257 130.709 715.538 129.928 715.012 128.923C714.486 127.918 714.224 126.774 714.224 125.49ZM724.987 125.513C724.987 124.554 724.794 123.719 724.408 123.008C724.021 122.296 723.495 121.755 722.83 121.384C722.181 120.997 721.461 120.804 720.673 120.804C719.884 120.804 719.165 120.989 718.515 121.361C717.866 121.732 717.348 122.273 716.961 122.985C716.574 123.696 716.381 124.531 716.381 125.49C716.381 126.464 716.574 127.315 716.961 128.042C717.348 128.753 717.866 129.302 718.515 129.689C719.165 130.06 719.884 130.246 720.673 130.246C721.461 130.246 722.181 130.06 722.83 129.689C723.495 129.302 724.021 128.753 724.408 128.042C724.794 127.315 724.987 126.472 724.987 125.513ZM733.163 114.726V131.893H731.052V114.726H733.163ZM745.01 110.04L738.654 135.836H736.566L742.899 110.04H745.01ZM753.019 132.101C752.044 132.101 751.17 131.939 750.397 131.614C749.624 131.274 749.013 130.81 748.564 130.222C748.116 129.619 747.869 128.931 747.822 128.158H750.003C750.065 128.792 750.358 129.31 750.884 129.712C751.426 130.114 752.129 130.315 752.995 130.315C753.8 130.315 754.434 130.137 754.898 129.782C755.362 129.426 755.593 128.977 755.593 128.436C755.593 127.879 755.346 127.469 754.851 127.207C754.356 126.928 753.591 126.658 752.555 126.395C751.611 126.147 750.838 125.9 750.235 125.652C749.647 125.389 749.137 125.01 748.704 124.516C748.286 124.005 748.077 123.34 748.077 122.521C748.077 121.871 748.271 121.276 748.657 120.734C749.044 120.193 749.593 119.768 750.304 119.458C751.016 119.134 751.828 118.971 752.74 118.971C754.147 118.971 755.284 119.327 756.15 120.038C757.016 120.75 757.48 121.724 757.542 122.961H755.431C755.385 122.296 755.114 121.763 754.619 121.361C754.14 120.959 753.49 120.758 752.671 120.758C751.913 120.758 751.31 120.92 750.861 121.245C750.413 121.569 750.188 121.995 750.188 122.521C750.188 122.938 750.32 123.286 750.583 123.564C750.861 123.827 751.201 124.044 751.603 124.214C752.021 124.369 752.593 124.547 753.32 124.748C754.233 124.995 754.975 125.242 755.547 125.49C756.119 125.722 756.606 126.078 757.009 126.557C757.426 127.036 757.643 127.663 757.658 128.436C757.658 129.132 757.465 129.758 757.078 130.315C756.692 130.872 756.143 131.313 755.431 131.637C754.735 131.947 753.931 132.101 753.019 132.101ZM498.021 154.18V166.893H495.91V165.014C495.508 165.663 494.944 166.173 494.217 166.545C493.506 166.9 492.717 167.078 491.851 167.078C490.861 167.078 489.972 166.877 489.183 166.475C488.394 166.057 487.768 165.439 487.304 164.619C486.855 163.8 486.631 162.802 486.631 161.627V154.18H488.719V161.348C488.719 162.601 489.036 163.568 489.67 164.248C490.304 164.913 491.17 165.246 492.268 165.246C493.397 165.246 494.287 164.898 494.936 164.202C495.586 163.506 495.91 162.493 495.91 161.163V154.18H498.021ZM506.449 167.101C505.474 167.101 504.601 166.939 503.827 166.614C503.054 166.274 502.443 165.81 501.995 165.222C501.546 164.619 501.299 163.931 501.252 163.158H503.433C503.495 163.792 503.789 164.31 504.314 164.712C504.856 165.114 505.559 165.315 506.425 165.315C507.23 165.315 507.864 165.137 508.328 164.782C508.792 164.426 509.024 163.977 509.024 163.436C509.024 162.879 508.776 162.469 508.281 162.207C507.786 161.928 507.021 161.658 505.985 161.395C505.041 161.147 504.268 160.9 503.665 160.652C503.077 160.389 502.567 160.01 502.134 159.516C501.716 159.005 501.507 158.34 501.507 157.521C501.507 156.871 501.701 156.276 502.087 155.734C502.474 155.193 503.023 154.768 503.734 154.458C504.446 154.134 505.258 153.971 506.17 153.971C507.578 153.971 508.714 154.327 509.58 155.038C510.446 155.75 510.91 156.724 510.972 157.961H508.861C508.815 157.296 508.544 156.763 508.049 156.361C507.57 155.959 506.92 155.758 506.101 155.758C505.343 155.758 504.74 155.92 504.291 156.245C503.843 156.569 503.619 156.995 503.619 157.521C503.619 157.938 503.75 158.286 504.013 158.564C504.291 158.827 504.631 159.044 505.034 159.214C505.451 159.369 506.023 159.547 506.75 159.748C507.663 159.995 508.405 160.242 508.977 160.49C509.549 160.722 510.037 161.078 510.439 161.557C510.856 162.036 511.073 162.663 511.088 163.436C511.088 164.132 510.895 164.758 510.508 165.315C510.122 165.872 509.573 166.313 508.861 166.637C508.165 166.947 507.361 167.101 506.449 167.101ZM526.03 160.049C526.03 160.451 526.007 160.877 525.96 161.325H515.799C515.877 162.578 516.302 163.56 517.075 164.271C517.864 164.967 518.815 165.315 519.929 165.315C520.841 165.315 521.599 165.106 522.202 164.689C522.821 164.256 523.254 163.684 523.501 162.972H525.775C525.434 164.194 524.754 165.191 523.733 165.965C522.712 166.722 521.444 167.101 519.929 167.101C518.722 167.101 517.64 166.831 516.681 166.289C515.738 165.748 514.995 164.983 514.454 163.993C513.913 162.988 513.642 161.828 513.642 160.513C513.642 159.199 513.905 158.046 514.431 157.057C514.957 156.067 515.691 155.309 516.635 154.783C517.593 154.242 518.691 153.971 519.929 153.971C521.135 153.971 522.202 154.234 523.13 154.76C524.058 155.286 524.769 156.013 525.264 156.941C525.775 157.853 526.03 158.889 526.03 160.049ZM523.849 159.608C523.849 158.804 523.671 158.116 523.316 157.544C522.96 156.956 522.473 156.515 521.854 156.221C521.251 155.912 520.578 155.758 519.836 155.758C518.769 155.758 517.856 156.098 517.099 156.778C516.356 157.459 515.931 158.402 515.823 159.608H523.849ZM528.39 160.49C528.39 159.191 528.653 158.054 529.179 157.08C529.705 156.09 530.424 155.324 531.336 154.783C532.264 154.242 533.3 153.971 534.445 153.971C535.435 153.971 536.355 154.203 537.205 154.667C538.056 155.116 538.705 155.711 539.154 156.453V149.726H541.288V166.893H539.154V164.503C538.736 165.261 538.118 165.887 537.298 166.382C536.478 166.862 535.52 167.101 534.422 167.101C533.293 167.101 532.264 166.823 531.336 166.266C530.424 165.709 529.705 164.928 529.179 163.923C528.653 162.918 528.39 161.774 528.39 160.49ZM539.154 160.513C539.154 159.554 538.961 158.719 538.574 158.008C538.187 157.296 537.662 156.755 536.997 156.384C536.347 155.997 535.628 155.804 534.839 155.804C534.05 155.804 533.331 155.989 532.682 156.361C532.032 156.732 531.514 157.273 531.127 157.985C530.741 158.696 530.547 159.531 530.547 160.49C530.547 161.464 530.741 162.315 531.127 163.042C531.514 163.753 532.032 164.302 532.682 164.689C533.331 165.06 534.05 165.246 534.839 165.246C535.628 165.246 536.347 165.06 536.997 164.689C537.662 164.302 538.187 163.753 538.574 163.042C538.961 162.315 539.154 161.472 539.154 160.513ZM556.938 155.92H554.271V166.893H552.16V155.92H550.512V154.18H552.16V153.275C552.16 151.853 552.523 150.816 553.25 150.167C553.992 149.502 555.175 149.169 556.799 149.169V150.932C555.871 150.932 555.214 151.118 554.827 151.489C554.456 151.845 554.271 152.44 554.271 153.275V154.18H556.938V155.92ZM561.873 156.245C562.244 155.518 562.77 154.953 563.451 154.551C564.147 154.149 564.989 153.948 565.979 153.948V156.129H565.422C563.056 156.129 561.873 157.412 561.873 159.98V166.893H559.762V154.18H561.873V156.245ZM574.323 167.101C573.132 167.101 572.049 166.831 571.075 166.289C570.116 165.748 569.359 164.983 568.802 163.993C568.26 162.988 567.99 161.828 567.99 160.513C567.99 159.214 568.268 158.07 568.825 157.08C569.397 156.075 570.17 155.309 571.145 154.783C572.119 154.242 573.209 153.971 574.416 153.971C575.622 153.971 576.712 154.242 577.687 154.783C578.661 155.309 579.426 156.067 579.983 157.057C580.555 158.046 580.842 159.199 580.842 160.513C580.842 161.828 580.548 162.988 579.96 163.993C579.388 164.983 578.607 165.748 577.617 166.289C576.627 166.831 575.529 167.101 574.323 167.101ZM574.323 165.246C575.081 165.246 575.792 165.068 576.457 164.712C577.122 164.356 577.656 163.823 578.058 163.111C578.475 162.4 578.684 161.534 578.684 160.513C578.684 159.492 578.483 158.626 578.081 157.915C577.679 157.204 577.153 156.678 576.504 156.337C575.854 155.982 575.15 155.804 574.392 155.804C573.619 155.804 572.908 155.982 572.258 156.337C571.624 156.678 571.114 157.204 570.727 157.915C570.341 158.626 570.147 159.492 570.147 160.513C570.147 161.549 570.333 162.423 570.704 163.134C571.091 163.846 571.601 164.379 572.235 164.735C572.869 165.075 573.565 165.246 574.323 165.246ZM599.267 153.948C600.257 153.948 601.138 154.157 601.912 154.574C602.685 154.977 603.296 155.587 603.744 156.407C604.193 157.227 604.417 158.224 604.417 159.4V166.893H602.329V159.701C602.329 158.433 602.012 157.466 601.378 156.801C600.76 156.121 599.917 155.781 598.85 155.781C597.752 155.781 596.878 156.136 596.228 156.848C595.579 157.544 595.254 158.557 595.254 159.887V166.893H593.166V159.701C593.166 158.433 592.849 157.466 592.215 156.801C591.596 156.121 590.753 155.781 589.686 155.781C588.588 155.781 587.714 156.136 587.065 156.848C586.415 157.544 586.091 158.557 586.091 159.887V166.893H583.98V154.18H586.091V156.013C586.508 155.348 587.065 154.837 587.761 154.482C588.472 154.126 589.253 153.948 590.104 153.948C591.171 153.948 592.114 154.188 592.934 154.667C593.754 155.147 594.365 155.85 594.767 156.778C595.122 155.881 595.71 155.185 596.53 154.69C597.349 154.196 598.262 153.948 599.267 153.948ZM615.88 152.115C615.478 152.115 615.137 151.976 614.859 151.698C614.581 151.419 614.442 151.079 614.442 150.677C614.442 150.275 614.581 149.935 614.859 149.656C615.137 149.378 615.478 149.239 615.88 149.239C616.266 149.239 616.591 149.378 616.854 149.656C617.133 149.935 617.272 150.275 617.272 150.677C617.272 151.079 617.133 151.419 616.854 151.698C616.591 151.976 616.266 152.115 615.88 152.115ZM616.901 154.18V166.893H614.79V154.18H616.901ZM627.055 153.948C628.601 153.948 629.854 154.42 630.813 155.363C631.772 156.291 632.251 157.637 632.251 159.4V166.893H630.163V159.701C630.163 158.433 629.846 157.466 629.212 156.801C628.578 156.121 627.712 155.781 626.614 155.781C625.5 155.781 624.611 156.129 623.946 156.825C623.297 157.521 622.972 158.534 622.972 159.864V166.893H620.861V154.18H622.972V155.989C623.389 155.34 623.954 154.837 624.665 154.482C625.392 154.126 626.189 153.948 627.055 153.948ZM640.794 164.944L644.738 154.18H646.988L642.001 166.893H639.542L634.554 154.18H636.827L640.794 164.944ZM661.027 160.049C661.027 160.451 661.004 160.877 660.957 161.325H650.797C650.874 162.578 651.299 163.56 652.073 164.271C652.861 164.967 653.812 165.315 654.926 165.315C655.838 165.315 656.596 165.106 657.199 164.689C657.818 164.256 658.251 163.684 658.498 162.972H660.772C660.432 164.194 659.751 165.191 658.73 165.965C657.71 166.722 656.442 167.101 654.926 167.101C653.72 167.101 652.637 166.831 651.678 166.289C650.735 165.748 649.992 164.983 649.451 163.993C648.91 162.988 648.639 161.828 648.639 160.513C648.639 159.199 648.902 158.046 649.428 157.057C649.954 156.067 650.688 155.309 651.632 154.783C652.591 154.242 653.689 153.971 654.926 153.971C656.132 153.971 657.199 154.234 658.127 154.76C659.055 155.286 659.767 156.013 660.261 156.941C660.772 157.853 661.027 158.889 661.027 160.049ZM658.846 159.608C658.846 158.804 658.669 158.116 658.313 157.544C657.957 156.956 657.47 156.515 656.851 156.221C656.248 155.912 655.575 155.758 654.833 155.758C653.766 155.758 652.854 156.098 652.096 156.778C651.353 157.459 650.928 158.402 650.82 159.608H658.846ZM670.37 153.948C671.916 153.948 673.169 154.42 674.128 155.363C675.087 156.291 675.566 157.637 675.566 159.4V166.893H673.478V159.701C673.478 158.433 673.161 157.466 672.527 156.801C671.893 156.121 671.027 155.781 669.929 155.781C668.816 155.781 667.926 156.129 667.261 156.825C666.612 157.521 666.287 158.534 666.287 159.864V166.893H664.176V154.18H666.287V155.989C666.705 155.34 667.269 154.837 667.98 154.482C668.707 154.126 669.504 153.948 670.37 153.948ZM681.952 155.92V163.413C681.952 164.031 682.083 164.472 682.346 164.735C682.609 164.983 683.066 165.106 683.715 165.106H685.269V166.893H683.367C682.192 166.893 681.31 166.622 680.723 166.081C680.135 165.539 679.841 164.65 679.841 163.413V155.92H678.194V154.18H679.841V150.979H681.952V154.18H685.269V155.92H681.952ZM693.734 167.101C692.543 167.101 691.46 166.831 690.486 166.289C689.527 165.748 688.77 164.983 688.213 163.993C687.671 162.988 687.401 161.828 687.401 160.513C687.401 159.214 687.679 158.07 688.236 157.08C688.808 156.075 689.581 155.309 690.556 154.783C691.53 154.242 692.62 153.971 693.827 153.971C695.033 153.971 696.123 154.242 697.098 154.783C698.072 155.309 698.837 156.067 699.394 157.057C699.966 158.046 700.253 159.199 700.253 160.513C700.253 161.828 699.959 162.988 699.371 163.993C698.799 164.983 698.018 165.748 697.028 166.289C696.038 166.831 694.94 167.101 693.734 167.101ZM693.734 165.246C694.492 165.246 695.203 165.068 695.868 164.712C696.533 164.356 697.067 163.823 697.469 163.111C697.886 162.4 698.095 161.534 698.095 160.513C698.095 159.492 697.894 158.626 697.492 157.915C697.09 157.204 696.564 156.678 695.915 156.337C695.265 155.982 694.561 155.804 693.803 155.804C693.03 155.804 692.319 155.982 691.669 156.337C691.035 156.678 690.525 157.204 690.138 157.915C689.752 158.626 689.558 159.492 689.558 160.513C689.558 161.549 689.744 162.423 690.115 163.134C690.502 163.846 691.012 164.379 691.646 164.735C692.28 165.075 692.976 165.246 693.734 165.246ZM705.502 156.245C705.873 155.518 706.399 154.953 707.079 154.551C707.775 154.149 708.618 153.948 709.608 153.948V156.129H709.051C706.685 156.129 705.502 157.412 705.502 159.98V166.893H703.391V154.18H705.502V156.245ZM723.357 154.18L715.701 172.878H713.521L716.026 166.753L710.899 154.18H713.242L717.232 164.48L721.176 154.18H723.357ZM726.514 167.032C726.112 167.032 725.771 166.893 725.493 166.614C725.215 166.336 725.076 165.996 725.076 165.593C725.076 165.191 725.215 164.851 725.493 164.573C725.771 164.294 726.112 164.155 726.514 164.155C726.9 164.155 727.225 164.294 727.488 164.573C727.767 164.851 727.906 165.191 727.906 165.593C727.906 165.996 727.767 166.336 727.488 166.614C727.225 166.893 726.9 167.032 726.514 167.032ZM731.747 167.032C731.345 167.032 731.005 166.893 730.726 166.614C730.448 166.336 730.309 165.996 730.309 165.593C730.309 165.191 730.448 164.851 730.726 164.573C731.005 164.294 731.345 164.155 731.747 164.155C732.134 164.155 732.458 164.294 732.721 164.573C733 164.851 733.139 165.191 733.139 165.593C733.139 165.996 733 166.336 732.721 166.614C732.458 166.893 732.134 167.032 731.747 167.032ZM736.98 167.032C736.578 167.032 736.238 166.893 735.959 166.614C735.681 166.336 735.542 165.996 735.542 165.593C735.542 165.191 735.681 164.851 735.959 164.573C736.238 164.294 736.578 164.155 736.98 164.155C737.367 164.155 737.692 164.294 737.954 164.573C738.233 164.851 738.372 165.191 738.372 165.593C738.372 165.996 738.233 166.336 737.954 166.614C737.692 166.893 737.367 167.032 736.98 167.032Z" fill="#323941"/>
<path d="M666.657 317.879V331.824H665.744V319.787L660.385 331.824H659.654L654.275 319.787V331.824H653.362V317.879H654.336L660.02 330.627L665.703 317.879H666.657ZM674.864 331.987C673.836 331.987 672.909 331.757 672.083 331.296C671.258 330.836 670.608 330.18 670.134 329.328C669.674 328.461 669.444 327.453 669.444 326.303C669.444 325.166 669.681 324.172 670.155 323.319C670.628 322.453 671.278 321.797 672.103 321.35C672.942 320.89 673.876 320.66 674.905 320.66C675.933 320.66 676.86 320.89 677.685 321.35C678.511 321.797 679.154 322.446 679.614 323.299C680.087 324.151 680.324 325.153 680.324 326.303C680.324 327.453 680.087 328.461 679.614 329.328C679.14 330.18 678.484 330.836 677.645 331.296C676.819 331.757 675.892 331.987 674.864 331.987ZM674.864 331.175C675.662 331.175 676.407 330.999 677.097 330.647C677.8 330.282 678.362 329.733 678.782 329.003C679.201 328.272 679.411 327.372 679.411 326.303C679.411 325.248 679.201 324.354 678.782 323.624C678.362 322.893 677.807 322.352 677.117 322C676.427 321.634 675.683 321.452 674.884 321.452C674.086 321.452 673.342 321.634 672.651 322C671.975 322.352 671.427 322.893 671.007 323.624C670.588 324.354 670.378 325.248 670.378 326.303C670.378 327.372 670.581 328.272 670.987 329.003C671.406 329.733 671.955 330.282 672.631 330.647C673.321 330.999 674.066 331.175 674.864 331.175ZM684.009 323.076C684.28 322.264 684.76 321.648 685.45 321.229C686.14 320.795 687.02 320.579 688.089 320.579V321.533H687.784C686.702 321.533 685.802 321.844 685.085 322.467C684.368 323.076 684.009 324.077 684.009 325.471V331.824H683.096V320.802H684.009V323.076ZM700.118 325.572C700.118 326.06 700.104 326.425 700.077 326.668H690.557C690.584 327.656 690.801 328.489 691.207 329.165C691.613 329.842 692.147 330.349 692.81 330.688C693.474 331.026 694.198 331.195 694.982 331.195C696.065 331.195 696.972 330.931 697.702 330.403C698.433 329.862 698.893 329.131 699.083 328.211H700.037C699.82 329.334 699.265 330.248 698.372 330.951C697.479 331.642 696.349 331.987 694.982 331.987C693.954 331.987 693.034 331.757 692.222 331.296C691.41 330.836 690.774 330.18 690.314 329.328C689.854 328.461 689.624 327.453 689.624 326.303C689.624 325.153 689.847 324.151 690.294 323.299C690.754 322.446 691.39 321.797 692.202 321.35C693.013 320.89 693.94 320.66 694.982 320.66C696.038 320.66 696.951 320.89 697.723 321.35C698.508 321.797 699.103 322.399 699.509 323.157C699.915 323.901 700.118 324.706 700.118 325.572ZM699.204 325.917C699.245 324.943 699.069 324.118 698.677 323.441C698.298 322.764 697.777 322.264 697.114 321.939C696.451 321.601 695.733 321.431 694.962 321.431C694.191 321.431 693.474 321.601 692.81 321.939C692.161 322.264 691.626 322.764 691.207 323.441C690.801 324.118 690.584 324.943 690.557 325.917H699.204ZM709.521 317.575V331.824H708.607V317.575H709.521ZM717.842 320.579C719.155 320.579 720.224 320.985 721.049 321.797C721.875 322.595 722.287 323.786 722.287 325.369V331.824H721.394V325.43C721.394 324.118 721.063 323.116 720.4 322.426C719.737 321.722 718.837 321.371 717.7 321.371C716.509 321.371 715.555 321.75 714.838 322.507C714.134 323.265 713.782 324.388 713.782 325.877V331.824H712.869V320.802H713.782V323.137C714.094 322.311 714.608 321.682 715.325 321.249C716.056 320.802 716.895 320.579 717.842 320.579ZM729.251 330.83L733.31 320.802H734.285L729.718 331.824H728.764L724.196 320.802H725.191L729.251 330.83ZM746.225 325.572C746.225 326.06 746.212 326.425 746.185 326.668H736.665C736.692 327.656 736.908 328.489 737.314 329.165C737.72 329.842 738.255 330.349 738.918 330.688C739.581 331.026 740.305 331.195 741.09 331.195C742.172 331.195 743.079 330.931 743.81 330.403C744.54 329.862 745 329.131 745.19 328.211H746.144C745.927 329.334 745.373 330.248 744.479 330.951C743.586 331.642 742.456 331.987 741.09 331.987C740.061 331.987 739.141 331.757 738.329 331.296C737.517 330.836 736.881 330.18 736.421 329.328C735.961 328.461 735.731 327.453 735.731 326.303C735.731 325.153 735.954 324.151 736.401 323.299C736.861 322.446 737.497 321.797 738.309 321.35C739.121 320.89 740.048 320.66 741.09 320.66C742.145 320.66 743.059 320.89 743.83 321.35C744.615 321.797 745.21 322.399 745.616 323.157C746.022 323.901 746.225 324.706 746.225 325.572ZM745.312 325.917C745.352 324.943 745.176 324.118 744.784 323.441C744.405 322.764 743.884 322.264 743.221 321.939C742.558 321.601 741.841 321.431 741.069 321.431C740.298 321.431 739.581 321.601 738.918 321.939C738.268 322.264 737.734 322.764 737.314 323.441C736.908 324.118 736.692 324.943 736.665 325.917H745.312ZM753.959 320.579C755.271 320.579 756.34 320.985 757.166 321.797C757.991 322.595 758.404 323.786 758.404 325.369V331.824H757.511V325.43C757.511 324.118 757.179 323.116 756.516 322.426C755.853 321.722 754.953 321.371 753.817 321.371C752.626 321.371 751.672 321.75 750.955 322.507C750.251 323.265 749.899 324.388 749.899 325.877V331.824H748.986V320.802H749.899V323.137C750.21 322.311 750.725 321.682 751.442 321.249C752.173 320.802 753.012 320.579 753.959 320.579ZM762.992 321.594V328.881C762.992 329.693 763.141 330.254 763.439 330.566C763.737 330.863 764.264 331.012 765.022 331.012H766.26V331.824H764.88C763.919 331.824 763.209 331.601 762.749 331.154C762.302 330.694 762.079 329.936 762.079 328.881V321.594H760.415V320.802H762.079V318.001H762.992V320.802H766.26V321.594H762.992ZM773.521 331.987C772.492 331.987 771.565 331.757 770.74 331.296C769.914 330.836 769.265 330.18 768.791 329.328C768.331 328.461 768.101 327.453 768.101 326.303C768.101 325.166 768.338 324.172 768.812 323.319C769.285 322.453 769.935 321.797 770.76 321.35C771.599 320.89 772.533 320.66 773.561 320.66C774.59 320.66 775.517 320.89 776.342 321.35C777.168 321.797 777.81 322.446 778.271 323.299C778.744 324.151 778.981 325.153 778.981 326.303C778.981 327.453 778.744 328.461 778.271 329.328C777.797 330.18 777.141 330.836 776.302 331.296C775.476 331.757 774.549 331.987 773.521 331.987ZM773.521 331.175C774.319 331.175 775.063 330.999 775.754 330.647C776.457 330.282 777.019 329.733 777.438 329.003C777.858 328.272 778.068 327.372 778.068 326.303C778.068 325.248 777.858 324.354 777.438 323.624C777.019 322.893 776.464 322.352 775.774 322C775.084 321.634 774.339 321.452 773.541 321.452C772.743 321.452 771.998 321.634 771.308 322C770.632 322.352 770.084 322.893 769.664 323.624C769.245 324.354 769.035 325.248 769.035 326.303C769.035 327.372 769.238 328.272 769.644 329.003C770.063 329.733 770.611 330.282 771.288 330.647C771.978 330.999 772.722 331.175 773.521 331.175ZM782.666 323.076C782.936 322.264 783.417 321.648 784.107 321.229C784.797 320.795 785.677 320.579 786.746 320.579V321.533H786.441C785.359 321.533 784.459 321.844 783.742 322.467C783.024 323.076 782.666 324.077 782.666 325.471V331.824H781.752V320.802H782.666V323.076ZM797.455 320.802L791.041 337H790.107L792.157 331.824L787.529 320.802H788.524L792.665 330.809L796.522 320.802H797.455Z" fill="black"/>
<circle cx="826.246" cy="324.824" r="19.5733" fill="white" stroke="#1104AC" stroke-width="1.44988"/>
<path d="M826.246 316.365V333.28" stroke="#1104AC" stroke-width="2.89976" stroke-linecap="round" stroke-linejoin="round"/>
<path d="M817.789 324.822H834.704" stroke="#1104AC" stroke-width="2.89976" stroke-linecap="round" stroke-linejoin="round"/>
<path d="M67.3978 196.51H405.219C408.823 196.51 411.744 199.431 411.744 203.035V275.528C411.744 279.132 408.823 282.053 405.219 282.053H67.3978C63.7945 282.053 60.8734 279.132 60.8734 275.528V203.035C60.8734 199.431 63.7945 196.51 67.3978 196.51Z" fill="white" stroke="#D5D8DE" stroke-width="1.44988"/>
<path opacity="0.8" d="M97.8445 250.783H95.7335L87.243 237.908V250.783H85.132V234.591H87.243L95.7335 247.443V234.591H97.8445V250.783ZM100.654 244.381C100.654 243.081 100.917 241.945 101.443 240.97C101.969 239.981 102.688 239.215 103.6 238.674C104.528 238.133 105.557 237.862 106.686 237.862C107.799 237.862 108.766 238.102 109.586 238.581C110.405 239.06 111.016 239.664 111.418 240.39V238.071H113.552V250.783H111.418V248.417C111.001 249.159 110.374 249.778 109.539 250.273C108.72 250.752 107.761 250.992 106.663 250.992C105.534 250.992 104.513 250.714 103.6 250.157C102.688 249.6 101.969 248.819 101.443 247.814C100.917 246.809 100.654 245.664 100.654 244.381ZM111.418 244.404C111.418 243.445 111.225 242.61 110.838 241.898C110.452 241.187 109.926 240.646 109.261 240.274C108.611 239.888 107.892 239.695 107.103 239.695C106.315 239.695 105.596 239.88 104.946 240.251C104.296 240.622 103.778 241.164 103.392 241.875C103.005 242.587 102.812 243.422 102.812 244.381C102.812 245.355 103.005 246.205 103.392 246.932C103.778 247.644 104.296 248.193 104.946 248.579C105.596 248.951 106.315 249.136 107.103 249.136C107.892 249.136 108.611 248.951 109.261 248.579C109.926 248.193 110.452 247.644 110.838 246.932C111.225 246.205 111.418 245.363 111.418 244.404ZM132.407 237.839C133.397 237.839 134.279 238.047 135.052 238.465C135.825 238.867 136.436 239.478 136.885 240.298C137.333 241.117 137.557 242.115 137.557 243.29V250.783H135.47V243.592C135.47 242.324 135.152 241.357 134.518 240.692C133.9 240.012 133.057 239.671 131.99 239.671C130.892 239.671 130.018 240.027 129.368 240.738C128.719 241.434 128.394 242.447 128.394 243.777V250.783H126.306V243.592C126.306 242.324 125.989 241.357 125.355 240.692C124.737 240.012 123.894 239.671 122.827 239.671C121.729 239.671 120.855 240.027 120.205 240.738C119.556 241.434 119.231 242.447 119.231 243.777V250.783H117.12V238.071H119.231V239.903C119.648 239.238 120.205 238.728 120.901 238.372C121.613 238.017 122.394 237.839 123.244 237.839C124.311 237.839 125.255 238.078 126.074 238.558C126.894 239.037 127.505 239.741 127.907 240.669C128.263 239.772 128.85 239.076 129.67 238.581C130.49 238.086 131.402 237.839 132.407 237.839ZM152.619 243.94C152.619 244.342 152.596 244.767 152.55 245.216H142.389C142.466 246.468 142.892 247.45 143.665 248.162C144.454 248.858 145.405 249.206 146.518 249.206C147.431 249.206 148.188 248.997 148.792 248.579C149.41 248.146 149.843 247.574 150.091 246.863H152.364C152.024 248.084 151.343 249.082 150.323 249.855C149.302 250.613 148.034 250.992 146.518 250.992C145.312 250.992 144.229 250.721 143.27 250.18C142.327 249.639 141.585 248.873 141.043 247.883C140.502 246.878 140.231 245.718 140.231 244.404C140.231 243.089 140.494 241.937 141.02 240.947C141.546 239.957 142.281 239.2 143.224 238.674C144.183 238.133 145.281 237.862 146.518 237.862C147.724 237.862 148.792 238.125 149.719 238.651C150.647 239.176 151.359 239.903 151.854 240.831C152.364 241.744 152.619 242.78 152.619 243.94ZM150.439 243.499C150.439 242.695 150.261 242.007 149.905 241.434C149.549 240.847 149.062 240.406 148.444 240.112C147.84 239.803 147.168 239.648 146.425 239.648C145.358 239.648 144.446 239.988 143.688 240.669C142.946 241.349 142.52 242.293 142.412 243.499H150.439Z" fill="#323941"/>
<path d="M722.742 197.959H838.732C842.335 197.959 845.256 200.88 845.256 204.484V276.978C845.256 280.581 842.335 283.502 838.732 283.502H722.742C719.138 283.502 716.217 280.581 716.217 276.978V204.484C716.217 200.88 719.138 197.959 722.742 197.959Z" fill="white" stroke="#D5D8DE" stroke-width="1.44988"/>
<path opacity="0.8" d="M750.033 248.637H742.981L741.682 252.232H739.455L745.301 236.156H747.737L753.559 252.232H751.332L750.033 248.637ZM749.43 246.92L746.507 238.754L743.584 246.92H749.43ZM771.395 239.288C772.384 239.288 773.266 239.497 774.039 239.914C774.813 240.316 775.423 240.927 775.872 241.747C776.32 242.567 776.545 243.564 776.545 244.739V252.232H774.457V245.041C774.457 243.773 774.14 242.806 773.506 242.141C772.887 241.461 772.044 241.121 770.977 241.121C769.879 241.121 769.005 241.476 768.356 242.188C767.706 242.884 767.381 243.897 767.381 245.227V252.232H765.294V245.041C765.294 243.773 764.977 242.806 764.343 242.141C763.724 241.461 762.881 241.121 761.814 241.121C760.716 241.121 759.842 241.476 759.193 242.188C758.543 242.884 758.218 243.897 758.218 245.227V252.232H756.107V239.52H758.218V241.353C758.636 240.688 759.193 240.177 759.888 239.821C760.6 239.466 761.381 239.288 762.231 239.288C763.299 239.288 764.242 239.528 765.062 240.007C765.881 240.486 766.492 241.19 766.894 242.118C767.25 241.221 767.838 240.525 768.657 240.03C769.477 239.535 770.389 239.288 771.395 239.288ZM785.552 252.441C784.361 252.441 783.278 252.171 782.304 251.629C781.345 251.088 780.587 250.322 780.031 249.333C779.489 248.327 779.219 247.168 779.219 245.853C779.219 244.554 779.497 243.409 780.054 242.42C780.626 241.414 781.399 240.649 782.374 240.123C783.348 239.582 784.438 239.311 785.645 239.311C786.851 239.311 787.941 239.582 788.916 240.123C789.89 240.649 790.655 241.407 791.212 242.396C791.784 243.386 792.071 244.538 792.071 245.853C792.071 247.168 791.777 248.327 791.189 249.333C790.617 250.322 789.836 251.088 788.846 251.629C787.856 252.171 786.758 252.441 785.552 252.441ZM785.552 250.585C786.31 250.585 787.021 250.408 787.686 250.052C788.351 249.696 788.885 249.163 789.287 248.451C789.704 247.74 789.913 246.874 789.913 245.853C789.913 244.832 789.712 243.966 789.31 243.255C788.908 242.543 788.382 242.018 787.732 241.677C787.083 241.322 786.379 241.144 785.621 241.144C784.848 241.144 784.137 241.322 783.487 241.677C782.853 242.018 782.343 242.543 781.956 243.255C781.57 243.966 781.376 244.832 781.376 245.853C781.376 246.889 781.562 247.763 781.933 248.474C782.32 249.186 782.83 249.719 783.464 250.075C784.098 250.415 784.794 250.585 785.552 250.585ZM806.12 239.52V252.232H804.009V250.353C803.607 251.003 803.043 251.513 802.316 251.884C801.604 252.24 800.816 252.418 799.95 252.418C798.96 252.418 798.071 252.217 797.282 251.815C796.493 251.397 795.867 250.779 795.403 249.959C794.954 249.139 794.73 248.142 794.73 246.966V239.52H796.818V246.688C796.818 247.941 797.135 248.907 797.769 249.588C798.403 250.253 799.269 250.585 800.367 250.585C801.496 250.585 802.385 250.237 803.035 249.541C803.685 248.846 804.009 247.833 804.009 246.503V239.52H806.12ZM815.879 239.288C817.425 239.288 818.678 239.76 819.637 240.703C820.596 241.631 821.075 242.976 821.075 244.739V252.232H818.987V245.041C818.987 243.773 818.67 242.806 818.036 242.141C817.402 241.461 816.536 241.121 815.438 241.121C814.324 241.121 813.435 241.469 812.77 242.164C812.121 242.86 811.796 243.873 811.796 245.203V252.232H809.685V239.52H811.796V241.329C812.213 240.68 812.778 240.177 813.489 239.821C814.216 239.466 815.013 239.288 815.879 239.288ZM827.098 241.26V248.753C827.098 249.371 827.23 249.812 827.493 250.075C827.756 250.322 828.212 250.446 828.861 250.446H830.416V252.232H828.513C827.338 252.232 826.456 251.962 825.869 251.42C825.281 250.879 824.987 249.99 824.987 248.753V241.26H823.34V239.52H824.987V236.319H827.098V239.52H830.416V241.26H827.098Z" fill="#323941"/>
<path d="M492.21 197.959H705.342C708.946 197.959 711.867 200.88 711.867 204.484V276.978C711.867 280.581 708.946 283.502 705.342 283.502H492.21C488.607 283.502 485.686 280.581 485.686 276.978V204.484C485.686 200.88 488.607 197.959 492.21 197.959Z" fill="white" stroke="#D5D8DE" stroke-width="1.44988"/>
<path opacity="0.8" d="M515.071 252.395C514.004 252.395 513.045 252.209 512.195 251.838C511.36 251.451 510.702 250.926 510.223 250.261C509.743 249.58 509.496 248.799 509.48 247.918H511.731C511.808 248.675 512.117 249.317 512.659 249.843C513.215 250.353 514.02 250.609 515.071 250.609C516.076 250.609 516.865 250.361 517.437 249.866C518.025 249.356 518.319 248.706 518.319 247.918C518.319 247.299 518.149 246.796 517.809 246.41C517.468 246.023 517.043 245.729 516.533 245.528C516.022 245.327 515.334 245.111 514.468 244.879C513.401 244.6 512.543 244.322 511.893 244.044C511.259 243.765 510.71 243.332 510.246 242.744C509.798 242.141 509.573 241.337 509.573 240.332C509.573 239.45 509.798 238.669 510.246 237.989C510.695 237.308 511.321 236.783 512.125 236.411C512.945 236.04 513.88 235.855 514.932 235.855C516.448 235.855 517.685 236.234 518.644 236.991C519.618 237.749 520.167 238.754 520.291 240.007H517.971C517.894 239.388 517.569 238.847 516.997 238.383C516.424 237.904 515.667 237.664 514.723 237.664C513.842 237.664 513.123 237.896 512.566 238.36C512.009 238.808 511.731 239.443 511.731 240.262C511.731 240.85 511.893 241.329 512.218 241.701C512.558 242.072 512.968 242.358 513.447 242.559C513.942 242.744 514.63 242.961 515.512 243.208C516.579 243.502 517.437 243.796 518.087 244.09C518.737 244.368 519.293 244.809 519.757 245.412C520.221 246 520.453 246.804 520.453 247.825C520.453 248.614 520.244 249.356 519.827 250.052C519.409 250.748 518.791 251.312 517.971 251.745C517.151 252.178 516.185 252.395 515.071 252.395ZM535.159 245.389C535.159 245.791 535.136 246.216 535.089 246.665H524.928C525.006 247.918 525.431 248.9 526.204 249.611C526.993 250.307 527.944 250.655 529.058 250.655C529.97 250.655 530.728 250.446 531.331 250.029C531.95 249.596 532.383 249.023 532.63 248.312H534.904C534.563 249.534 533.883 250.531 532.862 251.305C531.841 252.062 530.573 252.441 529.058 252.441C527.851 252.441 526.769 252.171 525.81 251.629C524.867 251.088 524.124 250.322 523.583 249.333C523.042 248.327 522.771 247.168 522.771 245.853C522.771 244.538 523.034 243.386 523.56 242.396C524.086 241.407 524.82 240.649 525.764 240.123C526.722 239.582 527.82 239.311 529.058 239.311C530.264 239.311 531.331 239.574 532.259 240.1C533.187 240.626 533.898 241.353 534.393 242.28C534.904 243.193 535.159 244.229 535.159 245.389ZM532.978 244.948C532.978 244.144 532.8 243.456 532.445 242.884C532.089 242.296 531.602 241.855 530.983 241.561C530.38 241.252 529.707 241.097 528.965 241.097C527.898 241.097 526.985 241.438 526.227 242.118C525.485 242.799 525.06 243.742 524.952 244.948H532.978ZM540.056 235.066V252.232H537.945V235.066H540.056ZM555.253 245.389C555.253 245.791 555.23 246.216 555.184 246.665H545.023C545.1 247.918 545.525 248.9 546.299 249.611C547.087 250.307 548.039 250.655 549.152 250.655C550.065 250.655 550.822 250.446 551.425 250.029C552.044 249.596 552.477 249.023 552.725 248.312H554.998C554.658 249.534 553.977 250.531 552.957 251.305C551.936 252.062 550.668 252.441 549.152 252.441C547.946 252.441 546.863 252.171 545.904 251.629C544.961 251.088 544.219 250.322 543.677 249.333C543.136 248.327 542.865 247.168 542.865 245.853C542.865 244.538 543.128 243.386 543.654 242.396C544.18 241.407 544.915 240.649 545.858 240.123C546.817 239.582 547.915 239.311 549.152 239.311C550.358 239.311 551.425 239.574 552.353 240.1C553.281 240.626 553.993 241.353 554.488 242.28C554.998 243.193 555.253 244.229 555.253 245.389ZM553.073 244.948C553.073 244.144 552.895 243.456 552.539 242.884C552.183 242.296 551.696 241.855 551.077 241.561C550.474 241.252 549.802 241.097 549.059 241.097C547.992 241.097 547.08 241.438 546.322 242.118C545.58 242.799 545.154 243.742 545.046 244.948H553.073ZM557.251 245.853C557.251 244.538 557.514 243.394 558.04 242.42C558.565 241.43 559.292 240.664 560.22 240.123C561.164 239.582 562.238 239.311 563.445 239.311C565.007 239.311 566.29 239.69 567.296 240.448C568.316 241.206 568.989 242.257 569.314 243.603H567.04C566.824 242.829 566.399 242.219 565.765 241.77C565.146 241.322 564.373 241.097 563.445 241.097C562.238 241.097 561.264 241.515 560.522 242.35C559.779 243.17 559.408 244.337 559.408 245.853C559.408 247.384 559.779 248.567 560.522 249.402C561.264 250.237 562.238 250.655 563.445 250.655C564.373 250.655 565.146 250.438 565.765 250.005C566.383 249.572 566.808 248.954 567.04 248.15H569.314C568.974 249.449 568.293 250.493 567.272 251.281C566.252 252.055 564.976 252.441 563.445 252.441C562.238 252.441 561.164 252.171 560.22 251.629C559.292 251.088 558.565 250.322 558.04 249.333C557.514 248.343 557.251 247.183 557.251 245.853ZM574.706 241.26V248.753C574.706 249.371 574.837 249.812 575.1 250.075C575.363 250.322 575.819 250.446 576.469 250.446H578.023V252.232H576.121C574.945 252.232 574.064 251.962 573.476 251.42C572.888 250.879 572.595 249.99 572.595 248.753V241.26H570.948V239.52H572.595V236.319H574.706V239.52H578.023V241.26H574.706ZM588.876 236.063V252.232H586.765V236.063H588.876ZM598.668 239.288C600.215 239.288 601.467 239.76 602.426 240.703C603.385 241.631 603.864 242.976 603.864 244.739V252.232H601.777V245.041C601.777 243.773 601.46 242.806 600.826 242.141C600.191 241.461 599.325 241.121 598.227 241.121C597.114 241.121 596.225 241.469 595.56 242.164C594.91 242.86 594.585 243.873 594.585 245.203V252.232H592.474V239.52H594.585V241.329C595.003 240.68 595.567 240.177 596.279 239.821C597.006 239.466 597.802 239.288 598.668 239.288ZM612.045 250.284L615.989 239.52H618.239L613.252 252.232H610.793L605.805 239.52H608.078L612.045 250.284ZM631.915 245.389C631.915 245.791 631.892 246.216 631.846 246.665H621.685C621.762 247.918 622.188 248.9 622.961 249.611C623.75 250.307 624.701 250.655 625.814 250.655C626.727 250.655 627.485 250.446 628.088 250.029C628.706 249.596 629.139 249.023 629.387 248.312H631.66C631.32 249.534 630.64 250.531 629.619 251.305C628.598 252.062 627.33 252.441 625.814 252.441C624.608 252.441 623.525 252.171 622.567 251.629C621.623 251.088 620.881 250.322 620.34 249.333C619.798 248.327 619.528 247.168 619.528 245.853C619.528 244.538 619.791 243.386 620.316 242.396C620.842 241.407 621.577 240.649 622.52 240.123C623.479 239.582 624.577 239.311 625.814 239.311C627.021 239.311 628.088 239.574 629.016 240.1C629.944 240.626 630.655 241.353 631.15 242.28C631.66 243.193 631.915 244.229 631.915 245.389ZM629.735 244.948C629.735 244.144 629.557 243.456 629.201 242.884C628.846 242.296 628.358 241.855 627.74 241.561C627.137 241.252 626.464 241.097 625.722 241.097C624.654 241.097 623.742 241.438 622.984 242.118C622.242 242.799 621.817 243.742 621.708 244.948H629.735ZM640.896 239.288C642.442 239.288 643.695 239.76 644.654 240.703C645.613 241.631 646.092 242.976 646.092 244.739V252.232H644.004V245.041C644.004 243.773 643.687 242.806 643.053 242.141C642.419 241.461 641.553 241.121 640.455 241.121C639.342 241.121 638.452 241.469 637.787 242.164C637.138 242.86 636.813 243.873 636.813 245.203V252.232H634.702V239.52H636.813V241.329C637.23 240.68 637.795 240.177 638.506 239.821C639.233 239.466 640.03 239.288 640.896 239.288ZM652.115 241.26V248.753C652.115 249.371 652.247 249.812 652.51 250.075C652.773 250.322 653.229 250.446 653.879 250.446H655.433V252.232H653.531C652.355 252.232 651.474 251.962 650.886 251.42C650.298 250.879 650.004 249.99 650.004 248.753V241.26H648.357V239.52H650.004V236.319H652.115V239.52H655.433V241.26H652.115ZM663.535 252.441C662.344 252.441 661.261 252.171 660.287 251.629C659.328 251.088 658.571 250.322 658.014 249.333C657.472 248.327 657.202 247.168 657.202 245.853C657.202 244.554 657.48 243.409 658.037 242.42C658.609 241.414 659.382 240.649 660.357 240.123C661.331 239.582 662.421 239.311 663.628 239.311C664.834 239.311 665.924 239.582 666.899 240.123C667.873 240.649 668.638 241.407 669.195 242.396C669.767 243.386 670.054 244.538 670.054 245.853C670.054 247.168 669.76 248.327 669.172 249.333C668.6 250.322 667.819 251.088 666.829 251.629C665.839 252.171 664.741 252.441 663.535 252.441ZM663.535 250.585C664.293 250.585 665.004 250.408 665.669 250.052C666.334 249.696 666.868 249.163 667.27 248.451C667.687 247.74 667.896 246.874 667.896 245.853C667.896 244.832 667.695 243.966 667.293 243.255C666.891 242.543 666.365 242.018 665.716 241.677C665.066 241.322 664.362 241.144 663.604 241.144C662.831 241.144 662.12 241.322 661.47 241.677C660.836 242.018 660.326 242.543 659.939 243.255C659.553 243.966 659.359 244.832 659.359 245.853C659.359 246.889 659.545 247.763 659.916 248.474C660.303 249.186 660.813 249.719 661.447 250.075C662.081 250.415 662.777 250.585 663.535 250.585ZM674.94 241.585C675.311 240.858 675.837 240.293 676.518 239.891C677.214 239.489 678.056 239.288 679.046 239.288V241.469H678.489C676.123 241.469 674.94 242.752 674.94 245.319V252.232H672.829V239.52H674.94V241.585ZM692.433 239.52L684.777 258.218H682.597L685.102 252.093L679.975 239.52H682.318L686.308 249.82L690.252 239.52H692.433Z" fill="#323941"/>
<rect x="60.8695" y="302.35" width="350.87" height="85.5428" rx="6.52445" fill="white" stroke="#B719DE" stroke-width="1.44988"/>
<path opacity="0.8" d="M84.0919 333.401C84.0919 332.217 84.3587 331.156 84.8922 330.217C85.4258 329.266 86.1507 328.523 87.067 327.99C87.995 327.456 89.0215 327.189 90.1466 327.189C91.4689 327.189 92.623 327.508 93.6089 328.146C94.5948 328.784 95.3139 329.689 95.7663 330.86H93.8699C93.5335 330.13 93.0463 329.567 92.4084 329.173C91.782 328.778 91.0281 328.581 90.1466 328.581C89.2998 328.581 88.5401 328.778 87.8674 329.173C87.1946 329.567 86.6669 330.13 86.2841 330.86C85.9013 331.58 85.71 332.426 85.71 333.401C85.71 334.363 85.9013 335.21 86.2841 335.941C86.6669 336.66 87.1946 337.217 87.8674 337.611C88.5401 338.005 89.2998 338.203 90.1466 338.203C91.0281 338.203 91.782 338.011 92.4084 337.628C93.0463 337.234 93.5335 336.671 93.8699 335.941H95.7663C95.3139 337.101 94.5948 338 93.6089 338.638C92.623 339.264 91.4689 339.577 90.1466 339.577C89.0215 339.577 87.995 339.316 87.067 338.794C86.1507 338.261 85.4258 337.524 84.8922 336.584C84.3587 335.645 84.0919 334.584 84.0919 333.401ZM97.5316 334.671C97.5316 333.696 97.7288 332.844 98.1231 332.113C98.5175 331.371 99.0568 330.797 99.7412 330.391C100.437 329.985 101.208 329.782 102.055 329.782C102.89 329.782 103.615 329.961 104.23 330.321C104.845 330.681 105.303 331.133 105.604 331.678V329.938H107.205V339.473H105.604V337.698C105.291 338.255 104.822 338.719 104.195 339.09C103.58 339.449 102.861 339.629 102.038 339.629C101.191 339.629 100.426 339.42 99.7412 339.003C99.0568 338.585 98.5175 338 98.1231 337.246C97.7288 336.492 97.5316 335.633 97.5316 334.671ZM105.604 334.688C105.604 333.969 105.46 333.343 105.17 332.809C104.88 332.275 104.485 331.869 103.986 331.591C103.499 331.301 102.96 331.156 102.368 331.156C101.777 331.156 101.237 331.295 100.75 331.574C100.263 331.852 99.8746 332.258 99.5846 332.792C99.2946 333.325 99.1496 333.952 99.1496 334.671C99.1496 335.401 99.2946 336.039 99.5846 336.584C99.8746 337.118 100.263 337.53 100.75 337.82C101.237 338.098 101.777 338.237 102.368 338.237C102.96 338.237 103.499 338.098 103.986 337.82C104.485 337.53 104.88 337.118 105.17 336.584C105.46 336.039 105.604 335.407 105.604 334.688ZM111.812 331.243V336.863C111.812 337.327 111.911 337.657 112.108 337.855C112.305 338.04 112.647 338.133 113.134 338.133H114.3V339.473H112.873C111.992 339.473 111.331 339.27 110.89 338.864C110.449 338.458 110.229 337.791 110.229 336.863V331.243H108.993V329.938H110.229V327.537H111.812V329.938H114.3V331.243H111.812ZM124.918 334.34C124.918 334.642 124.9 334.961 124.865 335.297H117.245C117.303 336.237 117.622 336.973 118.202 337.507C118.793 338.029 119.507 338.29 120.342 338.29C121.026 338.29 121.594 338.133 122.047 337.82C122.511 337.495 122.836 337.066 123.021 336.532H124.726C124.471 337.449 123.961 338.197 123.195 338.777C122.43 339.345 121.478 339.629 120.342 339.629C119.437 339.629 118.625 339.426 117.906 339.02C117.198 338.614 116.642 338.04 116.236 337.298C115.83 336.544 115.627 335.674 115.627 334.688C115.627 333.702 115.824 332.838 116.218 332.096C116.613 331.353 117.164 330.785 117.871 330.391C118.59 329.985 119.414 329.782 120.342 329.782C121.246 329.782 122.047 329.979 122.743 330.373C123.439 330.768 123.972 331.313 124.343 332.009C124.726 332.693 124.918 333.47 124.918 334.34ZM123.282 334.01C123.282 333.406 123.149 332.89 122.882 332.461C122.615 332.02 122.25 331.69 121.786 331.469C121.333 331.237 120.829 331.121 120.272 331.121C119.472 331.121 118.787 331.377 118.219 331.887C117.662 332.397 117.343 333.105 117.262 334.01H123.282ZM130.939 329.782C131.763 329.782 132.482 329.961 133.097 330.321C133.723 330.681 134.187 331.133 134.489 331.678V329.938H136.089V339.681C136.089 340.551 135.904 341.323 135.533 341.995C135.162 342.68 134.628 343.213 133.932 343.596C133.248 343.979 132.447 344.17 131.531 344.17C130.278 344.17 129.234 343.874 128.399 343.283C127.564 342.691 127.071 341.885 126.92 340.865H128.486C128.66 341.444 129.02 341.908 129.565 342.256C130.11 342.616 130.765 342.796 131.531 342.796C132.401 342.796 133.108 342.523 133.654 341.978C134.21 341.433 134.489 340.667 134.489 339.681V337.681C134.176 338.237 133.712 338.701 133.097 339.072C132.482 339.444 131.763 339.629 130.939 339.629C130.093 339.629 129.321 339.42 128.625 339.003C127.941 338.585 127.402 338 127.007 337.246C126.613 336.492 126.416 335.633 126.416 334.671C126.416 333.696 126.613 332.844 127.007 332.113C127.402 331.371 127.941 330.797 128.625 330.391C129.321 329.985 130.093 329.782 130.939 329.782ZM134.489 334.688C134.489 333.969 134.344 333.343 134.054 332.809C133.764 332.275 133.369 331.869 132.871 331.591C132.384 331.301 131.844 331.156 131.253 331.156C130.661 331.156 130.122 331.295 129.635 331.574C129.147 331.852 128.759 332.258 128.469 332.792C128.179 333.325 128.034 333.952 128.034 334.671C128.034 335.401 128.179 336.039 128.469 336.584C128.759 337.118 129.147 337.53 129.635 337.82C130.122 338.098 130.661 338.237 131.253 338.237C131.844 338.237 132.384 338.098 132.871 337.82C133.369 337.53 133.764 337.118 134.054 336.584C134.344 336.039 134.489 335.407 134.489 334.688ZM142.923 339.629C142.03 339.629 141.218 339.426 140.487 339.02C139.768 338.614 139.2 338.04 138.782 337.298C138.376 336.544 138.173 335.674 138.173 334.688C138.173 333.714 138.382 332.855 138.8 332.113C139.229 331.359 139.809 330.785 140.54 330.391C141.27 329.985 142.088 329.782 142.993 329.782C143.898 329.782 144.715 329.985 145.446 330.391C146.177 330.785 146.751 331.353 147.169 332.096C147.598 332.838 147.812 333.702 147.812 334.688C147.812 335.674 147.592 336.544 147.151 337.298C146.722 338.04 146.136 338.614 145.394 339.02C144.652 339.426 143.828 339.629 142.923 339.629ZM142.923 338.237C143.492 338.237 144.025 338.104 144.524 337.837C145.023 337.57 145.423 337.17 145.724 336.637C146.038 336.103 146.194 335.454 146.194 334.688C146.194 333.923 146.043 333.273 145.742 332.739C145.44 332.206 145.046 331.812 144.559 331.556C144.072 331.29 143.544 331.156 142.975 331.156C142.396 331.156 141.862 331.29 141.375 331.556C140.899 331.812 140.516 332.206 140.226 332.739C139.937 333.273 139.792 333.923 139.792 334.688C139.792 335.465 139.931 336.121 140.209 336.654C140.499 337.188 140.882 337.588 141.357 337.855C141.833 338.11 142.355 338.237 142.923 338.237ZM151.477 331.487C151.756 330.942 152.15 330.518 152.66 330.217C153.182 329.915 153.814 329.764 154.557 329.764V331.4H154.139C152.365 331.4 151.477 332.362 151.477 334.288V339.473H149.894V329.938H151.477V331.487ZM164.597 329.938L158.855 343.961H157.22L159.099 339.368L155.254 329.938H157.011L160.003 337.663L162.961 329.938H164.597Z" fill="#323941"/>
<path d="M88.1921 369.995H93.5277V372.57H84.9444V356.378H88.1921V369.995ZM94.7568 366.098C94.7568 364.799 95.012 363.647 95.5224 362.642C96.0482 361.636 96.7519 360.863 97.6334 360.322C98.5304 359.78 99.5279 359.51 100.626 359.51C101.585 359.51 102.42 359.703 103.131 360.09C103.858 360.476 104.438 360.964 104.871 361.551V359.719H108.142V372.57H104.871V370.691C104.454 371.294 103.874 371.797 103.131 372.199C102.404 372.586 101.562 372.779 100.603 372.779C99.5202 372.779 98.5304 372.501 97.6334 371.944C96.7519 371.387 96.0482 370.606 95.5224 369.601C95.012 368.58 94.7568 367.413 94.7568 366.098ZM104.871 366.144C104.871 365.356 104.717 364.683 104.407 364.126C104.098 363.554 103.68 363.121 103.155 362.827C102.629 362.518 102.064 362.363 101.461 362.363C100.858 362.363 100.301 362.51 99.7908 362.804C99.2804 363.098 98.8629 363.531 98.5381 364.103C98.2288 364.66 98.0741 365.325 98.0741 366.098C98.0741 366.871 98.2288 367.552 98.5381 368.139C98.8629 368.712 99.2804 369.152 99.7908 369.462C100.317 369.771 100.873 369.926 101.461 369.926C102.064 369.926 102.629 369.779 103.155 369.485C103.68 369.176 104.098 368.743 104.407 368.186C104.717 367.614 104.871 366.933 104.871 366.144ZM116.232 372.779C115.18 372.779 114.237 372.594 113.402 372.222C112.567 371.836 111.902 371.318 111.407 370.668C110.927 370.019 110.665 369.299 110.618 368.511H113.889C113.951 369.006 114.191 369.415 114.608 369.74C115.041 370.065 115.575 370.227 116.209 370.227C116.827 370.227 117.307 370.104 117.647 369.856C118.003 369.609 118.181 369.292 118.181 368.905C118.181 368.487 117.964 368.178 117.531 367.977C117.114 367.761 116.441 367.529 115.513 367.281C114.554 367.049 113.765 366.809 113.147 366.562C112.544 366.315 112.018 365.936 111.569 365.425C111.136 364.915 110.92 364.227 110.92 363.361C110.92 362.649 111.121 362 111.523 361.412C111.94 360.824 112.528 360.36 113.286 360.02C114.059 359.68 114.964 359.51 116 359.51C117.531 359.51 118.753 359.896 119.665 360.67C120.578 361.428 121.08 362.456 121.173 363.755H118.065C118.018 363.245 117.802 362.843 117.415 362.549C117.044 362.239 116.541 362.085 115.907 362.085C115.32 362.085 114.863 362.193 114.539 362.41C114.229 362.626 114.075 362.928 114.075 363.314C114.075 363.747 114.291 364.08 114.724 364.312C115.157 364.528 115.83 364.753 116.742 364.985C117.67 365.217 118.436 365.456 119.039 365.704C119.642 365.951 120.16 366.338 120.593 366.864C121.042 367.374 121.274 368.054 121.289 368.905C121.289 369.647 121.08 370.312 120.663 370.9C120.261 371.488 119.673 371.952 118.9 372.292C118.142 372.617 117.253 372.779 116.232 372.779ZM135.902 365.866C135.902 366.33 135.871 366.748 135.809 367.119H126.414C126.492 368.047 126.816 368.774 127.388 369.299C127.961 369.825 128.664 370.088 129.5 370.088C130.706 370.088 131.564 369.57 132.075 368.534H135.577C135.206 369.771 134.495 370.792 133.443 371.596C132.392 372.385 131.1 372.779 129.569 372.779C128.332 372.779 127.218 372.508 126.229 371.967C125.254 371.41 124.489 370.629 123.932 369.624C123.391 368.619 123.12 367.459 123.12 366.144C123.12 364.814 123.391 363.647 123.932 362.642C124.473 361.636 125.231 360.863 126.205 360.322C127.18 359.78 128.301 359.51 129.569 359.51C130.791 359.51 131.881 359.773 132.84 360.299C133.814 360.824 134.564 361.574 135.09 362.549C135.632 363.508 135.902 364.613 135.902 365.866ZM132.538 364.938C132.523 364.103 132.221 363.438 131.634 362.943C131.046 362.433 130.327 362.178 129.476 362.178C128.672 362.178 127.992 362.425 127.435 362.92C126.894 363.399 126.561 364.072 126.437 364.938H132.538ZM141.52 361.714C141.938 361.033 142.479 360.5 143.144 360.113C143.825 359.726 144.598 359.533 145.464 359.533V362.943H144.606C143.585 362.943 142.812 363.183 142.286 363.662C141.776 364.142 141.52 364.977 141.52 366.168V372.57H138.273V359.719H141.52V361.714Z" fill="#323941"/>
<rect x="21.7249" y="16.7249" width="862.677" height="591.55" rx="34.0721" stroke="#B719DE" stroke-opacity="0.5" stroke-width="1.44988"/>
</g>
<defs>
<filter id="filter0_d_482_6614" x="0.701712" y="0.0513449" width="904.724" height="633.597" filterUnits="userSpaceOnUse" color-interpolation-filters="sRGB">
<feFlood flood-opacity="0" result="BackgroundImageFix"/>
<feColorMatrix in="SourceAlpha" type="matrix" values="0 0 0 0 0 0 0 0 0 0 0 0 0 0 0 0 0 0 127 0" result="hardAlpha"/>
<feOffset dy="4.34963"/>
<feGaussianBlur stdDeviation="10.1491"/>
<feComposite in2="hardAlpha" operator="out"/>
<feColorMatrix type="matrix" values="0 0 0 0 0 0 0 0 0 0 0 0 0 0 0 0 0 0 0.1 0"/>
<feBlend mode="normal" in2="BackgroundImageFix" result="effect1_dropShadow_482_6614"/>
<feBlend mode="normal" in="SourceGraphic" in2="effect1_dropShadow_482_6614" result="shape"/>
</filter>
</defs>
</svg>
