<svg width="386" height="255" viewBox="0 0 386 255" fill="none" xmlns="http://www.w3.org/2000/svg">
<g filter="url(#filter0_d_467_6591)">
<path d="M280.46 29.3085C280.46 42.732 270.692 53.6153 258.641 53.6153C246.591 53.6153 236.822 42.732 236.822 29.3085C236.822 15.8837 246.591 5 258.641 5C270.692 5 280.46 15.8833 280.46 29.3085Z" fill="#1C1C1C"/>
<path d="M211.124 29.3085C211.124 42.732 201.355 53.6153 189.305 53.6153C177.255 53.6153 167.486 42.732 167.486 29.3085C167.486 15.8837 177.255 5 189.305 5C201.355 5 211.124 15.8833 211.124 29.3085Z" fill="#1C1C1C"/>
<path d="M141.788 29.3085C141.788 42.732 132.02 53.6153 119.969 53.6153C107.919 53.6153 98.1504 42.732 98.1504 29.3085C98.1504 15.8837 107.919 5 119.969 5C132.02 5 141.788 15.8833 141.788 29.3085Z" fill="url(#paint0_linear_467_6591)"/>
<path d="M72.4564 29.3085C72.4564 42.732 62.6877 53.6153 50.6374 53.6153C38.587 53.6153 28.8184 42.732 28.8184 29.3085C28.8184 15.8837 38.587 5 50.6374 5C62.6877 5 72.4564 15.8833 72.4564 29.3085Z" fill="url(#paint1_linear_467_6591)"/>
<path d="M333.843 59.8838C309.753 59.8838 290.207 81.6595 290.207 108.499V136.099C290.207 140.91 293.844 144.962 298.162 144.962C302.481 144.962 306.118 140.91 306.118 136.099V108.499C306.118 101.917 308.163 95.5864 311.345 90.5209V234.342C311.345 240.42 315.663 245.484 321.345 245.484C327.027 245.484 331.345 240.672 331.345 234.342V151.29H337.027V234.342C337.027 240.42 341.346 245.484 347.028 245.484C352.709 245.484 357.028 240.672 357.028 234.342V90.5209C360.21 95.5846 362.255 101.662 362.255 108.499V136.099C362.255 140.91 365.891 144.962 370.21 144.962C374.529 144.962 378.165 140.91 378.165 136.099V108.499C377.709 81.66 357.935 59.8838 333.843 59.8838V59.8838Z" fill="#E1E1E1"/>
<path d="M355.708 29.3085C355.708 42.732 345.939 53.6153 333.889 53.6153C321.839 53.6153 312.07 42.732 312.07 29.3085C312.07 15.8837 321.839 5 333.889 5C345.939 5 355.708 15.8833 355.708 29.3085Z" fill="#E1E1E1"/>
<path d="M258.64 59.9443C234.55 59.9443 215.004 81.72 215.004 108.56V136.159C215.004 140.97 218.641 145.022 222.959 145.022C227.278 145.022 230.915 140.97 230.915 136.159V108.56C230.915 101.977 232.96 95.6468 236.141 90.5813V234.402C236.141 240.48 240.46 245.544 246.142 245.544C251.824 245.544 256.142 240.732 256.142 234.402V151.351H261.824V234.402C261.824 240.48 266.143 245.544 271.824 245.544C277.506 245.544 281.825 240.732 281.825 234.402V90.5813C285.006 95.645 287.052 101.723 287.052 108.56V136.159C287.052 140.97 290.688 145.022 295.007 145.022C299.326 145.022 302.962 140.97 302.962 136.159V108.56C302.277 81.7205 282.732 59.9443 258.64 59.9443V59.9443Z" fill="#1C1C1C"/>
<path d="M189.304 59.9443C165.214 59.9443 145.668 81.72 145.668 108.56V136.159C145.668 140.97 149.305 145.022 153.623 145.022C157.942 145.022 161.579 140.97 161.579 136.159V108.56C161.579 101.977 163.624 95.6468 166.806 90.5813V234.402C166.806 240.48 171.124 245.544 176.806 245.544C182.488 245.544 186.806 240.732 186.806 234.402V151.351H192.488V234.402C192.488 240.48 196.807 245.544 202.488 245.544C208.17 245.544 212.489 240.732 212.489 234.402V90.5813C215.671 95.645 217.716 101.723 217.716 108.56V136.159C217.716 140.97 221.352 145.022 225.671 145.022C229.99 145.022 233.626 140.97 233.626 136.159V108.56C232.942 81.7205 213.396 59.9443 189.304 59.9443V59.9443Z" fill="#1C1C1C"/>
<path d="M119.97 59.9443C95.8798 59.9443 76.334 81.72 76.334 108.56V136.159C76.334 140.97 79.9707 145.022 84.2893 145.022C88.6079 145.022 92.2447 140.97 92.2447 136.159V108.56C92.2447 101.977 94.2897 95.6468 97.4715 90.5813V234.402C97.4715 240.48 101.79 245.544 107.472 245.544C113.154 245.544 117.472 240.732 117.472 234.402V151.351H123.154V234.402C123.154 240.48 127.473 245.544 133.154 245.544C138.836 245.544 143.155 240.732 143.155 234.402V90.5813C146.337 95.645 148.382 101.723 148.382 108.56V136.159C148.382 140.97 152.018 145.022 156.337 145.022C160.656 145.022 164.292 140.97 164.292 136.159V108.56C163.608 81.7205 144.062 59.9443 119.97 59.9443V59.9443Z" fill="url(#paint2_linear_467_6591)"/>
<path d="M50.6363 59.9443C26.5458 59.9443 7 81.72 7 108.56V136.159C7 140.97 10.6367 145.022 14.9553 145.022C19.2739 145.022 22.9107 140.97 22.9107 136.159V108.56C22.9107 101.977 24.9558 95.6468 28.1375 90.5813V234.402C28.1375 240.48 32.4561 245.544 38.1379 245.544C43.8197 245.544 48.1383 240.732 48.1383 234.402V151.351H53.8201V234.402C53.8201 240.48 58.1387 245.544 63.8205 245.544C69.5023 245.544 73.8209 240.732 73.8209 234.402V90.5813C77.0026 95.645 79.0477 101.723 79.0477 108.56V136.159C79.0477 140.97 82.6844 145.022 87.0031 145.022C91.3217 145.022 94.9584 140.97 94.9584 136.159V108.56C94.2735 81.7205 74.7279 59.9443 50.6363 59.9443V59.9443Z" fill="url(#paint3_linear_467_6591)"/>
</g>
<defs>
<filter id="filter0_d_467_6591" x="0.159144" y="0.439429" width="384.848" height="254.226" filterUnits="userSpaceOnUse" color-interpolation-filters="sRGB">
<feFlood flood-opacity="0" result="BackgroundImageFix"/>
<feColorMatrix in="SourceAlpha" type="matrix" values="0 0 0 0 0 0 0 0 0 0 0 0 0 0 0 0 0 0 127 0" result="hardAlpha"/>
<feOffset dy="2.28028"/>
<feGaussianBlur stdDeviation="3.42043"/>
<feComposite in2="hardAlpha" operator="out"/>
<feColorMatrix type="matrix" values="0 0 0 0 0 0 0 0 0 0 0 0 0 0 0 0 0 0 0.25 0"/>
<feBlend mode="normal" in2="BackgroundImageFix" result="effect1_dropShadow_467_6591"/>
<feBlend mode="normal" in="SourceGraphic" in2="effect1_dropShadow_467_6591" result="shape"/>
</filter>
<linearGradient id="paint0_linear_467_6591" x1="119.969" y1="5" x2="119.969" y2="53.6153" gradientUnits="userSpaceOnUse">
<stop stop-opacity="0.83"/>
<stop offset="1"/>
</linearGradient>
<linearGradient id="paint1_linear_467_6591" x1="50.6374" y1="5" x2="50.6374" y2="53.6153" gradientUnits="userSpaceOnUse">
<stop stop-opacity="0.83"/>
<stop offset="1"/>
</linearGradient>
<linearGradient id="paint2_linear_467_6591" x1="120.313" y1="59.9443" x2="120.313" y2="245.544" gradientUnits="userSpaceOnUse">
<stop stop-opacity="0.83"/>
<stop offset="1"/>
</linearGradient>
<linearGradient id="paint3_linear_467_6591" x1="50.9792" y1="59.9443" x2="50.9792" y2="245.544" gradientUnits="userSpaceOnUse">
<stop stop-opacity="0.83"/>
<stop offset="1"/>
</linearGradient>
</defs>
</svg>
