<svg width="262" height="262" viewBox="0 0 262 262" fill="none" xmlns="http://www.w3.org/2000/svg">
<path d="M261.576 130.788C261.576 203.02 203.02 261.576 130.788 261.576C58.5558 261.576 0 203.02 0 130.788C0 58.5558 58.5558 0 130.788 0C203.02 0 261.576 58.5558 261.576 130.788ZM19.4405 130.788C19.4405 192.284 69.2924 242.135 130.788 242.135C192.284 242.135 242.135 192.284 242.135 130.788C242.135 69.2924 192.284 19.4405 130.788 19.4405C69.2924 19.4405 19.4405 69.2924 19.4405 130.788Z" fill="black"/>
<path d="M130.788 0C151.432 2.4618e-07 171.783 4.88695 190.176 14.2611C208.57 23.6353 224.482 37.2304 236.613 53.9344C248.744 70.6384 256.749 89.9768 259.972 110.368C263.195 130.759 261.546 151.623 255.158 171.255C248.771 190.886 237.827 208.726 223.222 223.316C208.617 237.907 190.765 248.832 171.127 255.2C151.49 261.567 130.623 263.195 110.236 259.951C89.8479 256.707 70.5177 248.683 53.8261 236.535L130.788 130.788L130.788 0Z" fill="black"/>
</svg>
