<svg width="255" height="348" viewBox="0 0 255 348" fill="none" xmlns="http://www.w3.org/2000/svg">
<g filter="url(#filter0_d_495_6712)">
<rect x="31.7656" y="18.7666" width="175.467" height="193.295" rx="6.01893" fill="white"/>
<path d="M48.9198 48.249V37.5896H53.5589C54.0393 37.5896 54.4797 37.6897 54.8801 37.8899C55.2804 38.0901 55.6257 38.3553 55.916 38.6856C56.2162 39.0159 56.4464 39.3862 56.6066 39.7966C56.7767 40.2069 56.8618 40.6273 56.8618 41.0577C56.8618 41.5281 56.7767 41.9785 56.6066 42.4089C56.4364 42.8393 56.1912 43.2096 55.8709 43.5199C55.5607 43.8301 55.1953 44.0553 54.775 44.1955L57.2822 48.249H55.3905L53.0785 44.5408H50.6013V48.249H48.9198ZM50.6013 43.0545H53.5439C53.8542 43.0545 54.1294 42.9644 54.3696 42.7842C54.6098 42.6041 54.8 42.3638 54.9401 42.0636C55.0802 41.7533 55.1503 41.418 55.1503 41.0577C55.1503 40.6874 55.0702 40.3571 54.9101 40.0668C54.7499 39.7666 54.5398 39.5263 54.2795 39.3462C54.0293 39.166 53.7541 39.0759 53.4538 39.0759H50.6013V43.0545ZM61.9442 48.3992C61.3337 48.3992 60.7782 48.2941 60.2778 48.0839C59.7873 47.8637 59.362 47.5684 59.0017 47.1981C58.6413 46.8178 58.3611 46.3874 58.1609 45.907C57.9707 45.4165 57.8757 44.8961 57.8757 44.3456C57.8757 43.6049 58.0458 42.9293 58.3861 42.3188C58.7264 41.6983 59.2018 41.2028 59.8124 40.8325C60.4229 40.4522 61.1385 40.262 61.9593 40.262C62.78 40.262 63.4856 40.4522 64.0761 40.8325C64.6766 41.2028 65.1421 41.6933 65.4723 42.3038C65.8026 42.9143 65.9678 43.5699 65.9678 44.2705C65.9678 44.3906 65.9628 44.5057 65.9528 44.6158C65.9428 44.7159 65.9328 44.801 65.9227 44.871H59.6322C59.6622 45.3315 59.7873 45.7368 60.0075 46.0871C60.2377 46.4274 60.528 46.6977 60.8783 46.8978C61.2286 47.088 61.6039 47.1831 62.0043 47.1831C62.4447 47.1831 62.86 47.073 63.2504 46.8528C63.6507 46.6326 63.921 46.3423 64.0611 45.982L65.4723 46.3874C65.3022 46.7677 65.042 47.113 64.6917 47.4233C64.3514 47.7236 63.946 47.9638 63.4756 48.1439C63.0052 48.3141 62.4947 48.3992 61.9442 48.3992ZM59.5872 43.7751H64.3313C64.3013 43.3247 64.1712 42.9293 63.941 42.589C63.7208 42.2387 63.4356 41.9685 63.0852 41.7783C62.7449 41.5782 62.3646 41.4781 61.9442 41.4781C61.5339 41.4781 61.1535 41.5782 60.8032 41.7783C60.4629 41.9685 60.1827 42.2387 59.9625 42.589C59.7423 42.9293 59.6172 43.3247 59.5872 43.7751ZM66.7444 45.952C66.7444 45.4516 66.8845 45.0162 67.1647 44.6459C67.455 44.2655 67.8503 43.9753 68.3508 43.7751C68.8512 43.5649 69.4317 43.4598 70.0923 43.4598C70.4426 43.4598 70.7979 43.4848 71.1583 43.5349C71.5286 43.5849 71.8539 43.665 72.1341 43.7751V43.2796C72.1341 42.7292 71.969 42.2988 71.6387 41.9885C71.3084 41.6782 70.833 41.5231 70.2124 41.5231C69.772 41.5231 69.3567 41.6032 68.9663 41.7633C68.576 41.9134 68.1606 42.1286 67.7202 42.4089L67.1647 41.2979C67.6852 40.9476 68.2057 40.6874 68.7261 40.5172C69.2566 40.3471 69.8121 40.262 70.3926 40.262C71.4435 40.262 72.2692 40.5422 72.8698 41.1027C73.4803 41.6532 73.7856 42.4389 73.7856 43.4598V46.3874C73.7856 46.5776 73.8156 46.7127 73.8756 46.7927C73.9457 46.8728 74.0608 46.9179 74.2209 46.9279V48.249C74.0708 48.279 73.9357 48.2991 73.8156 48.3091C73.6955 48.3191 73.5954 48.3241 73.5153 48.3241C73.165 48.3241 72.8998 48.239 72.7196 48.0689C72.5395 47.8987 72.4344 47.6985 72.4043 47.4683L72.3593 47.0179C72.019 47.4583 71.5836 47.7986 71.0532 48.0388C70.5227 48.279 69.9872 48.3992 69.4467 48.3992C68.9263 48.3992 68.4609 48.2941 68.0505 48.0839C67.6402 47.8637 67.3199 47.5684 67.0897 47.1981C66.8595 46.8278 66.7444 46.4124 66.7444 45.952ZM71.7438 46.4324C71.8639 46.3023 71.959 46.1722 72.029 46.0421C72.0991 45.912 72.1341 45.7969 72.1341 45.6968V44.796C71.8539 44.6859 71.5586 44.6058 71.2483 44.5558C70.9381 44.4957 70.6328 44.4657 70.3325 44.4657C69.732 44.4657 69.2416 44.5858 68.8612 44.826C68.4909 45.0662 68.3057 45.3965 68.3057 45.8169C68.3057 46.0471 68.3658 46.2673 68.4859 46.4775C68.616 46.6876 68.7962 46.8578 69.0264 46.9879C69.2666 47.118 69.5618 47.1831 69.9122 47.1831C70.2725 47.1831 70.6178 47.113 70.9481 46.9729C71.2784 46.8328 71.5436 46.6526 71.7438 46.4324ZM79.3473 48.3992C78.7367 48.3992 78.1812 48.2941 77.6808 48.0839C77.1904 47.8637 76.765 47.5634 76.4047 47.1831C76.0443 46.8028 75.7641 46.3674 75.5639 45.8769C75.3738 45.3865 75.2787 44.866 75.2787 44.3156C75.2787 43.5749 75.4438 42.8993 75.7741 42.2888C76.1144 41.6782 76.5848 41.1878 77.1854 40.8175C77.7959 40.4472 78.5165 40.262 79.3473 40.262C80.148 40.262 80.8436 40.4422 81.4341 40.8025C82.0346 41.1528 82.475 41.6232 82.7553 42.2137L81.1488 42.7242C80.9687 42.3939 80.7135 42.1386 80.3832 41.9585C80.0629 41.7683 79.7076 41.6732 79.3172 41.6732C78.8768 41.6732 78.4765 41.7883 78.1162 42.0185C77.7659 42.2387 77.4856 42.549 77.2754 42.9494C77.0753 43.3397 76.9752 43.7951 76.9752 44.3156C76.9752 44.816 77.0803 45.2714 77.2904 45.6818C77.5006 46.0821 77.7809 46.4024 78.1312 46.6426C78.4915 46.8728 78.8919 46.9879 79.3322 46.9879C79.6025 46.9879 79.8627 46.9429 80.1129 46.8528C80.3732 46.7527 80.5984 46.6226 80.7885 46.4625C80.9787 46.2923 81.1138 46.1071 81.1939 45.907L82.8153 46.3874C82.6452 46.7777 82.3899 47.123 82.0496 47.4233C81.7193 47.7236 81.324 47.9638 80.8636 48.1439C80.4132 48.3141 79.9078 48.3992 79.3473 48.3992ZM91.2166 48.249H89.5652V43.8502C89.5652 43.1395 89.435 42.6091 89.1748 42.2587C88.9146 41.9084 88.5493 41.7333 88.0788 41.7333C87.7886 41.7333 87.4883 41.8134 87.1781 41.9735C86.8678 42.1336 86.5925 42.3538 86.3523 42.6341C86.1121 42.9043 85.937 43.2196 85.8269 43.5799V48.249H84.1754V37.2894H85.8269V41.9735C86.1271 41.443 86.5375 41.0277 87.0579 40.7274C87.5784 40.4171 88.1389 40.262 88.7394 40.262C89.2299 40.262 89.6352 40.3471 89.9555 40.5172C90.2758 40.6874 90.526 40.9226 90.7062 41.2228C90.8963 41.5131 91.0264 41.8534 91.0965 42.2437C91.1766 42.6241 91.2166 43.0294 91.2166 43.4598V48.249Z" fill="#292929"/>
<g clip-path="url(#clip0_495_6712)">
<path d="M53.4664 74.9453L55.6433 78.5297L57.839 74.9453H58.5521L55.9717 79.1302V81.6074H55.3149V79.1115L52.7439 74.9453H53.4664ZM60.6593 81.7013C60.309 81.7013 59.9837 81.6356 59.6835 81.5042C59.3832 81.3666 59.1236 81.182 58.9047 80.9506C58.6857 80.7129 58.5137 80.4408 58.3886 80.1343C58.2697 79.8277 58.2103 79.4993 58.2103 79.149C58.2103 78.6924 58.3135 78.2732 58.5199 77.8917C58.7326 77.5101 59.0235 77.2067 59.3926 76.9815C59.7617 76.75 60.1808 76.6343 60.6499 76.6343C61.1316 76.6343 61.5507 76.75 61.9073 76.9815C62.2701 77.2129 62.5547 77.5194 62.7612 77.901C62.9676 78.2764 63.0708 78.6892 63.0708 79.1396C63.0708 79.1897 63.0708 79.2397 63.0708 79.2898C63.0708 79.3335 63.0677 79.368 63.0614 79.393H58.8765C58.9078 79.7433 59.0047 80.0561 59.1674 80.3313C59.3363 80.6003 59.5521 80.8161 59.8148 80.9787C60.0838 81.1351 60.3747 81.2133 60.6875 81.2133C61.0065 81.2133 61.3068 81.132 61.5883 80.9694C61.876 80.8067 62.0762 80.594 62.1888 80.3313L62.7424 80.4814C62.6423 80.7129 62.4891 80.9224 62.2826 81.1101C62.0762 81.2978 61.8322 81.4448 61.5507 81.5511C61.2755 81.6512 60.9784 81.7013 60.6593 81.7013ZM58.8577 78.9332H62.4703C62.4453 78.5766 62.3483 78.2639 62.1794 77.9949C62.0168 77.7259 61.801 77.5163 61.532 77.3662C61.2692 77.2098 60.9784 77.1316 60.6593 77.1316C60.3403 77.1316 60.0494 77.2098 59.7867 77.3662C59.5239 77.5163 59.3081 77.729 59.1392 78.0043C58.9766 78.2732 58.8828 78.5829 58.8577 78.9332ZM63.6612 80.1999C63.6612 79.8934 63.7487 79.6307 63.9239 79.4117C64.099 79.1865 64.3399 79.0145 64.6464 78.8957C64.9592 78.7705 65.3189 78.708 65.7255 78.708C65.9632 78.708 66.2103 78.7268 66.4668 78.7643C66.7232 78.8018 66.9516 78.8581 67.1517 78.9332V78.5203C67.1517 78.1075 67.0297 77.7791 66.7858 77.5351C66.5418 77.2911 66.204 77.1691 65.7724 77.1691C65.5097 77.1691 65.2501 77.2192 64.9936 77.3193C64.7434 77.4131 64.4806 77.5539 64.2054 77.7415L63.9614 77.2911C64.2805 77.0722 64.5932 76.9095 64.8997 76.8032C65.2063 76.6906 65.519 76.6343 65.8381 76.6343C66.4386 76.6343 66.914 76.8063 67.2643 77.1504C67.6146 77.4944 67.7898 77.9698 67.7898 78.5766V80.838C67.7898 80.9256 67.8086 80.9913 67.8461 81.035C67.8836 81.0726 67.9431 81.0945 68.0244 81.1007V81.6074C67.9556 81.6137 67.8961 81.6199 67.8461 81.6262C67.796 81.6324 67.7585 81.6324 67.7335 81.6262C67.5771 81.6199 67.4583 81.5699 67.3769 81.4761C67.2956 81.3822 67.2518 81.2821 67.2456 81.1758L67.2362 80.8192C67.0172 81.1007 66.7326 81.3197 66.3823 81.4761C66.032 81.6262 65.6754 81.7013 65.3126 81.7013C64.9998 81.7013 64.7152 81.6356 64.4587 81.5042C64.2085 81.3666 64.0115 81.1852 63.8676 80.96C63.73 80.7285 63.6612 80.4752 63.6612 80.1999ZM66.9359 80.5753C67.0047 80.4877 67.0579 80.4032 67.0954 80.3219C67.133 80.2406 67.1517 80.1687 67.1517 80.1061V79.393C66.939 79.3117 66.717 79.2491 66.4855 79.2053C66.2603 79.1615 66.032 79.1396 65.8005 79.1396C65.3439 79.1396 64.9748 79.2303 64.6933 79.4117C64.4118 79.5931 64.2711 79.8402 64.2711 80.153C64.2711 80.3344 64.318 80.5065 64.4118 80.6691C64.5057 80.8255 64.6433 80.9568 64.8247 81.0632C65.0061 81.1633 65.2188 81.2133 65.4627 81.2133C65.7693 81.2133 66.0539 81.1539 66.3166 81.035C66.5856 80.9162 66.792 80.7629 66.9359 80.5753ZM71.608 77.2817C71.1827 77.2942 70.8073 77.4131 70.4821 77.6383C70.163 77.8635 69.9378 78.1731 69.8065 78.5672V81.6074H69.1684V76.7187H69.7689V77.8917C69.9378 77.5476 70.1599 77.2692 70.4351 77.0565C70.7166 76.8439 71.0138 76.725 71.3265 76.7C71.3891 76.6937 71.4423 76.6906 71.4861 76.6906C71.5361 76.6906 71.5768 76.6937 71.608 76.7V77.2817ZM76.9756 81.3728C76.9255 81.3916 76.8473 81.426 76.741 81.4761C76.6346 81.5261 76.5064 81.5699 76.3563 81.6074C76.2061 81.645 76.0435 81.6637 75.8683 81.6637C75.6869 81.6637 75.5149 81.6293 75.3523 81.5605C75.1959 81.4917 75.0708 81.3885 74.9769 81.2509C74.8831 81.107 74.8362 80.9318 74.8362 80.7254V77.2254H74.1606V76.7187H74.8362V75.0673H75.4742V76.7187H76.6002V77.2254H75.4742V80.5471C75.4868 80.7223 75.5493 80.8536 75.6619 80.9412C75.7808 81.0288 75.9153 81.0726 76.0654 81.0726C76.2405 81.0726 76.4001 81.0444 76.5439 80.9881C76.6878 80.9256 76.7754 80.8818 76.8067 80.8568L76.9756 81.3728ZM79.7734 81.7013C79.4231 81.7013 79.0978 81.6356 78.7975 81.5042C78.5035 81.3666 78.247 81.182 78.0281 80.9506C77.8154 80.7129 77.6496 80.4439 77.5308 80.1436C77.4119 79.8371 77.3525 79.515 77.3525 79.1772C77.3525 78.8268 77.4119 78.5016 77.5308 78.2013C77.6496 77.8948 77.8185 77.6258 78.0375 77.3943C78.2564 77.1566 78.5129 76.9721 78.8069 76.8407C79.1072 76.7031 79.4325 76.6343 79.7828 76.6343C80.1331 76.6343 80.4552 76.7031 80.7492 76.8407C81.0433 76.9721 81.2997 77.1566 81.5187 77.3943C81.7376 77.6258 81.9065 77.8948 82.0254 78.2013C82.1442 78.5016 82.2037 78.8268 82.2037 79.1772C82.2037 79.515 82.1442 79.8371 82.0254 80.1436C81.9065 80.4439 81.7376 80.7129 81.5187 80.9506C81.306 81.182 81.0495 81.3666 80.7492 81.5042C80.4552 81.6356 80.13 81.7013 79.7734 81.7013ZM78 79.1865C78 79.5494 78.0781 79.8809 78.2345 80.1812C78.3972 80.4752 78.613 80.7098 78.882 80.8849C79.151 81.0538 79.4481 81.1383 79.7734 81.1383C80.0987 81.1383 80.3958 81.0507 80.6648 80.8755C80.9338 80.7004 81.1496 80.4627 81.3122 80.1624C81.4749 79.8559 81.5562 79.5243 81.5562 79.1678C81.5562 78.805 81.4749 78.4734 81.3122 78.1731C81.1496 77.8729 80.9338 77.6352 80.6648 77.46C80.3958 77.2849 80.0987 77.1973 79.7734 77.1973C79.4481 77.1973 79.151 77.288 78.882 77.4694C78.6192 77.6508 78.4066 77.8917 78.2439 78.1919C78.0813 78.4859 78 78.8175 78 79.1865ZM85.334 79.1772C85.334 78.7143 85.4278 78.292 85.6155 77.9104C85.8094 77.5226 86.0753 77.2129 86.4131 76.9815C86.7509 76.75 87.1356 76.6343 87.5672 76.6343C87.9738 76.6343 88.3366 76.7438 88.6557 76.9627C88.981 77.1754 89.2343 77.435 89.4157 77.7415V74.7576H90.0538V80.838C90.0538 80.9256 90.0725 80.9913 90.1101 81.035C90.1476 81.0726 90.2039 81.0945 90.279 81.1007V81.6074C90.1539 81.6262 90.0569 81.6324 89.9881 81.6262C89.8567 81.6199 89.741 81.5668 89.6409 81.4667C89.5408 81.3666 89.4908 81.2571 89.4908 81.1383V80.6597C89.2969 80.9787 89.0341 81.2321 88.7026 81.4198C88.371 81.6074 88.027 81.7013 87.6704 81.7013C87.3326 81.7013 87.0199 81.6324 86.7321 81.4948C86.4506 81.3572 86.2035 81.1695 85.9908 80.9318C85.7844 80.6941 85.6217 80.4251 85.5029 80.1249C85.3903 79.8183 85.334 79.5024 85.334 79.1772ZM89.4157 79.9278V78.4171C89.3344 78.1919 89.203 77.9886 89.0216 77.8072C88.8402 77.6195 88.6338 77.4725 88.4023 77.3662C88.1771 77.2536 87.9519 77.1973 87.7267 77.1973C87.464 77.1973 87.2263 77.2536 87.0136 77.3662C86.8009 77.4725 86.6164 77.6195 86.46 77.8072C86.3099 77.9949 86.1941 78.2076 86.1128 78.4453C86.0315 78.683 85.9908 78.9269 85.9908 79.1772C85.9908 79.4399 86.0346 79.6901 86.1222 79.9278C86.216 80.1655 86.3474 80.3782 86.5163 80.5659C86.6852 80.7473 86.8791 80.888 87.098 80.9881C87.317 81.0882 87.5547 81.1383 87.8112 81.1383C87.9738 81.1383 88.1427 81.107 88.3179 81.0444C88.493 80.9819 88.6588 80.8974 88.8152 80.7911C88.9778 80.6785 89.1123 80.5471 89.2187 80.397C89.325 80.2468 89.3907 80.0905 89.4157 79.9278ZM91.1054 80.1999C91.1054 79.8934 91.1929 79.6307 91.3681 79.4117C91.5432 79.1865 91.7841 79.0145 92.0906 78.8957C92.4034 78.7705 92.7631 78.708 93.1697 78.708C93.4074 78.708 93.6545 78.7268 93.911 78.7643C94.1674 78.8018 94.3958 78.8581 94.5959 78.9332V78.5203C94.5959 78.1075 94.474 77.7791 94.23 77.5351C93.986 77.2911 93.6482 77.1691 93.2166 77.1691C92.9539 77.1691 92.6943 77.2192 92.4378 77.3193C92.1876 77.4131 91.9248 77.5539 91.6496 77.7415L91.4056 77.2911C91.7247 77.0722 92.0374 76.9095 92.344 76.8032C92.6505 76.6906 92.9632 76.6343 93.2823 76.6343C93.8828 76.6343 94.3582 76.8063 94.7085 77.1504C95.0588 77.4944 95.234 77.9698 95.234 78.5766V80.838C95.234 80.9256 95.2528 80.9913 95.2903 81.035C95.3278 81.0726 95.3873 81.0945 95.4686 81.1007V81.6074C95.3998 81.6137 95.3403 81.6199 95.2903 81.6262C95.2403 81.6324 95.2027 81.6324 95.1777 81.6262C95.0213 81.6199 94.9025 81.5699 94.8211 81.4761C94.7398 81.3822 94.696 81.2821 94.6898 81.1758L94.6804 80.8192C94.4614 81.1007 94.1768 81.3197 93.8265 81.4761C93.4762 81.6262 93.1196 81.7013 92.7568 81.7013C92.444 81.7013 92.1594 81.6356 91.9029 81.5042C91.6527 81.3666 91.4557 81.1852 91.3118 80.96C91.1742 80.7285 91.1054 80.4752 91.1054 80.1999ZM94.3801 80.5753C94.4489 80.4877 94.5021 80.4032 94.5396 80.3219C94.5772 80.2406 94.5959 80.1687 94.5959 80.1061V79.393C94.3832 79.3117 94.1612 79.2491 93.9297 79.2053C93.7045 79.1615 93.4762 79.1396 93.2447 79.1396C92.7881 79.1396 92.419 79.2303 92.1375 79.4117C91.856 79.5931 91.7153 79.8402 91.7153 80.153C91.7153 80.3344 91.7622 80.5065 91.856 80.6691C91.9499 80.8255 92.0875 80.9568 92.2689 81.0632C92.4503 81.1633 92.663 81.2133 92.9069 81.2133C93.2135 81.2133 93.4981 81.1539 93.7608 81.035C94.0298 80.9162 94.2362 80.7629 94.3801 80.5753ZM98.9218 81.3728C98.8717 81.3916 98.7935 81.426 98.6872 81.4761C98.5808 81.5261 98.4526 81.5699 98.3025 81.6074C98.1523 81.645 97.9897 81.6637 97.8145 81.6637C97.6331 81.6637 97.4611 81.6293 97.2985 81.5605C97.1421 81.4917 97.017 81.3885 96.9231 81.2509C96.8293 81.107 96.7824 80.9318 96.7824 80.7254V77.2254H96.1068V76.7187H96.7824V75.0673H97.4204V76.7187H98.5464V77.2254H97.4204V80.5471C97.433 80.7223 97.4955 80.8536 97.6081 80.9412C97.727 81.0288 97.8615 81.0726 98.0116 81.0726C98.1867 81.0726 98.3463 81.0444 98.4901 80.9881C98.634 80.9256 98.7216 80.8818 98.7529 80.8568L98.9218 81.3728ZM101.748 81.7013C101.397 81.7013 101.072 81.6356 100.772 81.5042C100.472 81.3666 100.212 81.182 99.9931 80.9506C99.7741 80.7129 99.6021 80.4408 99.477 80.1343C99.3581 79.8277 99.2987 79.4993 99.2987 79.149C99.2987 78.6924 99.4019 78.2732 99.6084 77.8917C99.821 77.5101 100.112 77.2067 100.481 76.9815C100.85 76.75 101.269 76.6343 101.738 76.6343C102.22 76.6343 102.639 76.75 102.996 76.9815C103.359 77.2129 103.643 77.5194 103.85 77.901C104.056 78.2764 104.159 78.6892 104.159 79.1396C104.159 79.1897 104.159 79.2397 104.159 79.2898C104.159 79.3335 104.156 79.368 104.15 79.393H99.9649C99.9962 79.7433 100.093 80.0561 100.256 80.3313C100.425 80.6003 100.641 80.8161 100.903 80.9787C101.172 81.1351 101.463 81.2133 101.776 81.2133C102.095 81.2133 102.395 81.132 102.677 80.9694C102.964 80.8067 103.165 80.594 103.277 80.3313L103.831 80.4814C103.731 80.7129 103.577 80.9224 103.371 81.1101C103.165 81.2978 102.921 81.4448 102.639 81.5511C102.364 81.6512 102.067 81.7013 101.748 81.7013ZM99.9462 78.9332H103.559C103.534 78.5766 103.437 78.2639 103.268 77.9949C103.105 77.7259 102.889 77.5163 102.62 77.3662C102.358 77.2098 102.067 77.1316 101.748 77.1316C101.429 77.1316 101.138 77.2098 100.875 77.3662C100.612 77.5163 100.397 77.729 100.228 78.0043C100.065 78.2732 99.9712 78.5829 99.9462 78.9332Z" fill="#292929"/>
<path d="M131.412 76.8301L134.227 79.6451L137.042 76.8301" stroke="#292929" stroke-width="0.750661" stroke-linecap="round" stroke-linejoin="round"/>
<rect x="49.1213" y="67.259" width="94.2079" height="21.9568" rx="2.53348" stroke="#6F6F6F" stroke-width="0.562996" stroke-linecap="round"/>
</g>
<path d="M48.9943 130.038C49.7907 128.315 51.3639 125.7 53.4429 123.538C55.5479 121.35 57.9621 119.839 60.4512 119.839V117.024C56.8278 117.024 53.7238 119.185 51.4141 121.587C49.0785 124.015 47.3408 126.907 46.4393 128.856L48.9943 130.038ZM60.4512 119.839C61.7777 119.839 63.0178 120.568 64.3354 122.046C65.6598 123.531 66.8628 125.544 68.1555 127.718C69.4097 129.828 70.7536 132.098 72.2944 133.826C73.8421 135.561 75.7856 136.974 78.2794 136.974V134.159C76.953 134.159 75.7128 133.43 74.3953 131.952C73.0709 130.467 71.8679 128.454 70.5751 126.28C69.321 124.17 67.9771 121.9 66.4362 120.172C64.8886 118.437 62.9451 117.024 60.4512 117.024V119.839ZM78.2794 136.974C80.8969 136.974 82.9379 135.097 84.597 132.997C86.2881 130.856 87.9552 127.979 89.6547 125.306C91.3988 122.563 93.2249 119.949 95.344 118.019C97.4386 116.112 99.7423 114.944 102.475 114.944V112.129C98.8402 112.129 95.8909 113.714 93.4488 115.938C91.0313 118.139 89.037 121.032 87.2792 123.796C85.4767 126.631 83.9602 129.262 82.3881 131.252C80.7841 133.282 79.4823 134.159 78.2794 134.159V136.974ZM102.475 114.944C105.134 114.944 107.829 116.419 110.735 118.989C113.629 121.548 116.499 124.974 119.554 128.528C122.57 132.037 125.754 135.654 129.174 138.387C132.6 141.124 136.407 143.093 140.678 143.093V140.278C137.309 140.278 134.112 138.729 130.931 136.188C127.746 133.643 124.722 130.223 121.689 126.694C118.695 123.21 115.675 119.599 112.6 116.88C109.537 114.172 106.183 112.129 102.475 112.129V114.944ZM140.678 143.093C144.947 143.093 148.013 141.356 150.35 138.814C152.626 136.337 154.219 133.084 155.642 130.044C157.108 126.914 158.385 124.036 160.054 121.898C161.663 119.836 163.519 118.615 166.147 118.615V115.8C162.408 115.8 159.807 117.639 157.834 120.167C155.921 122.618 154.493 125.861 153.093 128.85C151.651 131.929 150.219 134.796 148.277 136.909C146.396 138.956 144.05 140.278 140.678 140.278V143.093ZM166.147 118.615C168.917 118.615 170.615 119.583 171.933 121.026C173.346 122.573 174.319 124.645 175.563 127.037C176.761 129.339 178.181 131.859 180.463 133.776C182.796 135.735 185.914 136.974 190.342 136.974V134.159C186.493 134.159 184.04 133.103 182.274 131.62C180.457 130.094 179.251 128.025 178.061 125.738C176.917 123.54 175.741 121.021 174.011 119.127C172.185 117.128 169.744 115.8 166.147 115.8V118.615Z" fill="#DCDCDC"/>
<path d="M48.9943 130.038C49.7907 128.315 51.3639 125.7 53.4429 123.538C55.5479 121.35 57.9621 119.839 60.4512 119.839V117.024C56.8278 117.024 53.7238 119.185 51.4141 121.587C49.0785 124.015 47.3408 126.907 46.4393 128.856L48.9943 130.038ZM60.4512 119.839C61.7777 119.839 63.0178 120.568 64.3354 122.046C65.6598 123.531 66.8628 125.544 68.1555 127.718C69.4097 129.828 70.7536 132.098 72.2944 133.826C73.8421 135.561 75.7856 136.974 78.2794 136.974V134.159C76.953 134.159 75.7128 133.43 74.3953 131.952C73.0709 130.467 71.8679 128.454 70.5751 126.28C69.321 124.17 67.9771 121.9 66.4362 120.172C64.8886 118.437 62.9451 117.024 60.4512 117.024V119.839ZM78.2794 136.974C80.8969 136.974 82.9379 135.097 84.597 132.997C86.2881 130.856 87.9552 127.979 89.6547 125.306C91.3988 122.563 93.2249 119.949 95.344 118.019C97.4386 116.112 99.7423 114.944 102.475 114.944V112.129C98.8402 112.129 95.8909 113.714 93.4488 115.938C91.0313 118.139 89.037 121.032 87.2792 123.796C85.4767 126.631 83.9602 129.262 82.3881 131.252C80.7841 133.282 79.4823 134.159 78.2794 134.159V136.974ZM102.475 114.944C105.134 114.944 107.829 116.419 110.735 118.989C113.629 121.548 116.499 124.974 119.554 128.528C122.57 132.037 125.754 135.654 129.174 138.387C132.6 141.124 136.407 143.093 140.678 143.093V140.278C137.309 140.278 134.112 138.729 130.931 136.188C127.746 133.643 124.722 130.223 121.689 126.694C118.695 123.21 115.675 119.599 112.6 116.88C109.537 114.172 106.183 112.129 102.475 112.129V114.944Z" fill="#FF007A"/>
<path d="M63.1415 185.142V188.114H51.8216V185.142H55.9352V169.948C55.775 170.188 55.5048 170.459 55.1245 170.759C54.7642 171.039 54.3538 171.319 53.8934 171.6C53.433 171.86 52.9526 172.08 52.4521 172.26C51.9717 172.44 51.5313 172.531 51.131 172.531V169.468C51.6714 169.468 52.2119 169.328 52.7524 169.047C53.3129 168.767 53.8333 168.447 54.3138 168.087C54.7942 167.706 55.1745 167.366 55.4548 167.066C55.755 166.765 55.9152 166.605 55.9352 166.585H59.3282V185.142H63.1415ZM71.8445 188.415C70.3032 188.415 68.9219 188.074 67.7009 187.394C66.4998 186.693 65.569 185.742 64.9084 184.541L66.8901 182.649C67.4506 183.51 68.1713 184.201 69.0521 184.721C69.9328 185.222 70.8737 185.472 71.8745 185.472C72.6953 185.472 73.4259 185.302 74.0665 184.961C74.707 184.601 75.2075 184.111 75.5678 183.49C75.9481 182.87 76.1383 182.149 76.1383 181.328C76.1383 180.528 75.9581 179.827 75.5978 179.226C75.2575 178.606 74.7771 178.125 74.1565 177.785C73.556 177.445 72.8754 177.275 72.1147 177.275C71.3541 177.275 70.6334 177.445 69.9528 177.785C69.2923 178.125 68.7618 178.606 68.3614 179.226H65.4189L67.851 166.795H78.2702V169.828H70.2531L69.1722 175.623C69.5325 175.263 69.9929 174.973 70.5534 174.752C71.1339 174.532 71.7945 174.422 72.5351 174.422C73.8763 174.422 75.0673 174.712 76.1083 175.293C77.1692 175.873 77.9999 176.674 78.6005 177.695C79.221 178.716 79.5313 179.897 79.5313 181.238C79.5313 182.659 79.191 183.911 78.5104 184.992C77.8298 186.052 76.909 186.893 75.7479 187.514C74.6069 188.114 73.3058 188.415 71.8445 188.415ZM82.5482 188.114V184.271H85.2806V188.114H82.5482ZM104.044 181.028C104.044 179.687 103.714 178.486 103.053 177.425C102.412 176.344 101.532 175.483 100.411 174.843C99.3097 174.202 98.0586 173.882 96.6574 173.882C95.9167 173.882 95.2161 174.002 94.5555 174.242C93.8949 174.482 93.3144 174.823 92.814 175.263C92.3336 175.683 91.9432 176.194 91.643 176.794C91.663 175.253 91.8732 173.942 92.2735 172.861C92.6939 171.78 93.2744 170.959 94.015 170.399C94.7757 169.818 95.6465 169.528 96.6273 169.528C97.6082 169.528 98.499 169.778 99.2997 170.279C100.12 170.759 100.761 171.42 101.221 172.26L103.173 170.219C102.472 169.098 101.552 168.227 100.411 167.606C99.2897 166.966 98.0486 166.645 96.6874 166.645C95.046 166.645 93.6147 167.106 92.3936 168.027C91.1725 168.947 90.2217 170.319 89.5411 172.14C88.8805 173.962 88.5502 176.234 88.5502 178.956C88.5502 180.918 88.8705 182.609 89.5111 184.031C90.1717 185.452 91.0825 186.543 92.2435 187.304C93.4245 188.044 94.7957 188.415 96.3571 188.415C97.7984 188.415 99.0995 188.084 100.261 187.424C101.442 186.763 102.362 185.872 103.023 184.751C103.704 183.63 104.044 182.389 104.044 181.028ZM96.3571 185.592C95.5564 185.592 94.8057 185.382 94.1051 184.961C93.4245 184.541 92.874 183.991 92.4537 183.31C92.0333 182.609 91.8231 181.849 91.8231 181.028C91.8231 180.207 92.0233 179.457 92.4236 178.776C92.844 178.095 93.4045 177.555 94.1051 177.155C94.8057 176.734 95.5564 176.524 96.3571 176.524C97.1978 176.524 97.9585 176.734 98.6391 177.155C99.3197 177.555 99.8602 178.095 100.261 178.776C100.681 179.457 100.891 180.207 100.891 181.028C100.891 181.849 100.681 182.609 100.261 183.31C99.8602 184.011 99.3097 184.571 98.6091 184.992C97.9285 185.392 97.1778 185.592 96.3571 185.592Z" fill="#292929"/>
<path d="M109.825 188.114V180.12H110.839V188.114H109.825ZM119.359 187.213V188.114H115.384V187.213H116.916V181.077C116.856 181.167 116.758 181.268 116.623 181.381C116.488 181.486 116.33 181.591 116.15 181.696C115.977 181.794 115.801 181.876 115.621 181.944C115.441 182.011 115.275 182.045 115.125 182.045V181.122C115.328 181.122 115.531 181.069 115.733 180.964C115.944 180.859 116.135 180.735 116.308 180.593C116.488 180.45 116.63 180.322 116.735 180.21C116.848 180.097 116.908 180.037 116.916 180.03H117.929V187.213H119.359ZM123.496 188.227C122.948 188.212 122.464 188.08 122.043 187.833C121.623 187.585 121.27 187.262 120.985 186.864C120.707 186.459 120.497 186.024 120.354 185.558C120.212 185.085 120.141 184.624 120.141 184.173C120.141 183.693 120.216 183.212 120.366 182.732C120.523 182.252 120.749 181.816 121.041 181.426C121.334 181.028 121.687 180.713 122.1 180.48C122.513 180.24 122.978 180.12 123.496 180.12C124.051 180.12 124.536 180.247 124.949 180.503C125.369 180.758 125.718 181.088 125.996 181.493C126.281 181.899 126.495 182.338 126.637 182.811C126.78 183.284 126.851 183.738 126.851 184.173C126.851 184.661 126.773 185.145 126.615 185.626C126.465 186.099 126.243 186.53 125.951 186.921C125.658 187.311 125.305 187.626 124.892 187.867C124.479 188.099 124.014 188.219 123.496 188.227ZM121.165 184.173C121.18 184.541 121.236 184.909 121.334 185.277C121.432 185.645 121.578 185.982 121.773 186.29C121.968 186.598 122.209 186.846 122.494 187.033C122.779 187.221 123.113 187.315 123.496 187.315C123.894 187.315 124.239 187.217 124.532 187.022C124.825 186.819 125.065 186.56 125.253 186.245C125.448 185.922 125.59 185.581 125.68 185.22C125.778 184.853 125.827 184.504 125.827 184.173C125.827 183.805 125.774 183.438 125.669 183.07C125.572 182.702 125.421 182.364 125.219 182.056C125.016 181.749 124.772 181.501 124.487 181.313C124.202 181.126 123.871 181.032 123.496 181.032C123.098 181.032 122.753 181.133 122.46 181.336C122.167 181.531 121.923 181.79 121.728 182.113C121.541 182.428 121.398 182.77 121.3 183.137C121.21 183.498 121.165 183.843 121.165 184.173ZM131.27 188.227C130.722 188.212 130.238 188.08 129.818 187.833C129.397 187.585 129.044 187.262 128.759 186.864C128.481 186.459 128.271 186.024 128.129 185.558C127.986 185.085 127.915 184.624 127.915 184.173C127.915 183.693 127.99 183.212 128.14 182.732C128.298 182.252 128.523 181.816 128.815 181.426C129.108 181.028 129.461 180.713 129.874 180.48C130.287 180.24 130.752 180.12 131.27 180.12C131.826 180.12 132.31 180.247 132.723 180.503C133.143 180.758 133.492 181.088 133.77 181.493C134.055 181.899 134.269 182.338 134.412 182.811C134.554 183.284 134.626 183.738 134.626 184.173C134.626 184.661 134.547 185.145 134.389 185.626C134.239 186.099 134.018 186.53 133.725 186.921C133.432 187.311 133.079 187.626 132.666 187.867C132.254 188.099 131.788 188.219 131.27 188.227ZM128.939 184.173C128.954 184.541 129.011 184.909 129.108 185.277C129.206 185.645 129.352 185.982 129.547 186.29C129.743 186.598 129.983 186.846 130.268 187.033C130.553 187.221 130.887 187.315 131.27 187.315C131.668 187.315 132.013 187.217 132.306 187.022C132.599 186.819 132.839 186.56 133.027 186.245C133.222 185.922 133.364 185.581 133.455 185.22C133.552 184.853 133.601 184.504 133.601 184.173C133.601 183.805 133.548 183.438 133.443 183.07C133.346 182.702 133.196 182.364 132.993 182.056C132.79 181.749 132.546 181.501 132.261 181.313C131.976 181.126 131.645 181.032 131.27 181.032C130.872 181.032 130.527 181.133 130.234 181.336C129.941 181.531 129.698 181.79 129.502 182.113C129.315 182.428 129.172 182.77 129.074 183.137C128.984 183.498 128.939 183.843 128.939 184.173Z" fill="#292929"/>
<path d="M159.508 177.478C159.508 178.469 159.748 179.37 160.229 180.181C160.724 180.991 161.392 181.637 162.233 182.117C163.089 182.598 164.027 182.838 165.048 182.838C165.619 182.838 166.144 182.748 166.624 182.568C167.12 182.388 167.555 182.132 167.931 181.802C168.306 181.472 168.599 181.089 168.809 180.654C168.809 181.795 168.651 182.778 168.336 183.604C168.021 184.414 167.585 185.03 167.03 185.45C166.474 185.871 165.821 186.081 165.071 186.081C164.35 186.081 163.682 185.893 163.066 185.518C162.451 185.142 161.97 184.647 161.625 184.032L160.161 185.563C160.687 186.419 161.377 187.087 162.233 187.567C163.089 188.033 164.027 188.265 165.048 188.265C166.279 188.265 167.345 187.92 168.246 187.229C169.162 186.524 169.867 185.488 170.363 184.122C170.873 182.755 171.128 181.051 171.128 179.01C171.128 177.523 170.881 176.255 170.385 175.204C169.905 174.153 169.229 173.35 168.358 172.794C167.503 172.224 166.482 171.938 165.296 171.938C164.215 171.938 163.231 172.186 162.346 172.682C161.475 173.162 160.784 173.823 160.274 174.663C159.763 175.504 159.508 176.442 159.508 177.478ZM165.273 174.033C165.889 174.033 166.452 174.19 166.962 174.506C167.488 174.821 167.908 175.241 168.223 175.767C168.539 176.277 168.696 176.848 168.696 177.478C168.696 178.079 168.539 178.634 168.223 179.145C167.923 179.655 167.51 180.068 166.985 180.383C166.474 180.684 165.911 180.834 165.296 180.834C164.68 180.834 164.11 180.684 163.584 180.383C163.074 180.068 162.661 179.655 162.346 179.145C162.045 178.634 161.895 178.071 161.895 177.456C161.895 176.84 162.045 176.27 162.346 175.744C162.661 175.219 163.074 174.806 163.584 174.506C164.095 174.19 164.658 174.033 165.273 174.033ZM176.633 178.514C175.973 178.514 175.365 178.364 174.809 178.064C174.269 177.763 173.833 177.366 173.503 176.87C173.188 176.36 173.03 175.797 173.03 175.181C173.03 174.551 173.188 173.988 173.503 173.492C173.833 172.982 174.269 172.576 174.809 172.276C175.365 171.976 175.973 171.826 176.633 171.826C177.294 171.826 177.894 171.976 178.435 172.276C178.975 172.576 179.403 172.982 179.719 173.492C180.034 173.988 180.191 174.543 180.191 175.159C180.191 175.774 180.034 176.337 179.719 176.848C179.403 177.358 178.975 177.763 178.435 178.064C177.894 178.364 177.294 178.514 176.633 178.514ZM176.611 177.231C176.956 177.231 177.264 177.14 177.534 176.96C177.819 176.765 178.037 176.51 178.187 176.195C178.352 175.879 178.435 175.542 178.435 175.181C178.435 174.791 178.352 174.438 178.187 174.123C178.022 173.808 177.797 173.56 177.512 173.38C177.241 173.199 176.949 173.109 176.633 173.109C176.288 173.109 175.973 173.207 175.687 173.402C175.417 173.582 175.2 173.83 175.034 174.145C174.869 174.461 174.787 174.798 174.787 175.159C174.787 175.549 174.869 175.902 175.034 176.217C175.215 176.517 175.44 176.765 175.71 176.96C175.995 177.14 176.295 177.231 176.611 177.231ZM184.898 188.265C184.237 188.265 183.637 188.115 183.096 187.815C182.556 187.515 182.121 187.109 181.79 186.599C181.475 186.088 181.317 185.525 181.317 184.91C181.317 184.294 181.475 183.739 181.79 183.243C182.121 182.733 182.556 182.328 183.096 182.027C183.637 181.727 184.237 181.577 184.898 181.577C185.574 181.577 186.182 181.727 186.722 182.027C187.263 182.312 187.691 182.71 188.006 183.221C188.321 183.731 188.479 184.294 188.479 184.91C188.479 185.525 188.321 186.088 188.006 186.599C187.691 187.109 187.263 187.515 186.722 187.815C186.182 188.115 185.574 188.265 184.898 188.265ZM184.898 186.982C185.243 186.982 185.551 186.884 185.821 186.689C186.107 186.494 186.324 186.246 186.474 185.946C186.64 185.63 186.722 185.293 186.722 184.932C186.722 184.542 186.64 184.189 186.474 183.874C186.309 183.559 186.084 183.311 185.799 183.131C185.529 182.951 185.228 182.86 184.898 182.86C184.568 182.86 184.26 182.958 183.975 183.153C183.705 183.333 183.487 183.581 183.322 183.896C183.157 184.212 183.074 184.549 183.074 184.91C183.074 185.285 183.157 185.63 183.322 185.946C183.502 186.261 183.727 186.516 183.997 186.711C184.268 186.892 184.568 186.982 184.898 186.982ZM174.044 187.139L180.372 179.64L186.317 171.916L187.488 172.929L181.272 180.338L175.192 188.175L174.044 187.139Z" fill="#FF007A"/>
<rect x="31.9806" y="18.9816" width="175.037" height="192.865" rx="5.80397" stroke="#BBBBBB" stroke-width="0.429924" stroke-linecap="round"/>
</g>
<rect x="13.2346" y="0.234582" width="212.531" height="230.359" rx="7.27203" stroke="#6F6F6F" stroke-width="0.469163" stroke-linecap="round" stroke-dasharray="5.63 5.63"/>
<path d="M18.75 297.562C18.75 296.009 20.0092 294.75 21.5625 294.75H233.437C234.991 294.75 236.25 296.009 236.25 297.563V325.688C236.25 327.241 234.991 328.5 233.437 328.5H21.5625C20.0092 328.5 18.75 327.241 18.75 325.687V297.562Z" fill="#ECECEC"/>
<rect x="127.5" y="297.562" width="105.938" height="28.125" rx="2.8125" fill="white"/>
<path d="M50.1469 311.4C50.1469 310.831 50.2475 310.276 50.4488 309.733C50.65 309.182 50.9431 308.683 51.3281 308.237C51.7219 307.782 52.1988 307.423 52.7588 307.161C53.3188 306.889 53.9531 306.754 54.6619 306.754C55.5019 306.754 56.2281 306.946 56.8406 307.331C57.4531 307.707 57.9081 308.193 58.2056 308.788L57.0506 309.562C56.8756 309.186 56.6525 308.889 56.3813 308.67C56.1188 308.451 55.83 308.298 55.515 308.211C55.2088 308.123 54.9069 308.079 54.6094 308.079C54.1194 308.079 53.6906 308.18 53.3231 308.381C52.9556 308.574 52.645 308.832 52.3913 309.156C52.1463 309.479 51.9581 309.842 51.8269 310.245C51.7044 310.647 51.6431 311.05 51.6431 311.452C51.6431 311.899 51.7175 312.332 51.8663 312.752C52.015 313.163 52.2206 313.531 52.4831 313.854C52.7544 314.169 53.0738 314.419 53.4413 314.602C53.8088 314.786 54.2113 314.878 54.6488 314.878C54.9463 314.878 55.2569 314.826 55.5806 314.721C55.9044 314.616 56.2019 314.454 56.4731 314.235C56.7531 314.007 56.9719 313.71 57.1294 313.342L58.35 314.038C58.1575 314.502 57.8556 314.896 57.4444 315.219C57.0419 315.543 56.5869 315.788 56.0794 315.954C55.5806 316.121 55.0863 316.204 54.5963 316.204C53.94 316.204 53.3406 316.068 52.7981 315.797C52.2556 315.517 51.7875 315.149 51.3938 314.694C51 314.231 50.6938 313.714 50.475 313.146C50.2563 312.568 50.1469 311.986 50.1469 311.4ZM62.5975 316.256C62.055 316.256 61.5694 316.164 61.1406 315.981C60.7119 315.788 60.34 315.526 60.025 315.193C59.7187 314.861 59.4825 314.484 59.3162 314.064C59.15 313.636 59.0669 313.181 59.0669 312.699C59.0669 312.218 59.15 311.763 59.3162 311.334C59.4825 310.906 59.7187 310.529 60.025 310.206C60.34 309.873 60.7119 309.615 61.1406 309.431C61.5781 309.239 62.0637 309.142 62.5975 309.142C63.1312 309.142 63.6125 309.239 64.0412 309.431C64.4787 309.615 64.8506 309.873 65.1569 310.206C65.4719 310.529 65.7125 310.906 65.8787 311.334C66.045 311.763 66.1281 312.218 66.1281 312.699C66.1281 313.181 66.045 313.636 65.8787 314.064C65.7125 314.484 65.4719 314.861 65.1569 315.193C64.8506 315.526 64.4787 315.788 64.0412 315.981C63.6125 316.164 63.1312 316.256 62.5975 316.256ZM60.55 312.712C60.55 313.15 60.6419 313.544 60.8256 313.894C61.0094 314.244 61.2544 314.519 61.5606 314.721C61.8669 314.922 62.2125 315.022 62.5975 315.022C62.9737 315.022 63.315 314.922 63.6212 314.721C63.9362 314.511 64.1856 314.231 64.3694 313.881C64.5531 313.522 64.645 313.128 64.645 312.699C64.645 312.262 64.5531 311.868 64.3694 311.518C64.1856 311.168 63.9362 310.892 63.6212 310.691C63.315 310.481 62.9737 310.376 62.5975 310.376C62.2125 310.376 61.8669 310.481 61.5606 310.691C61.2544 310.901 61.0094 311.181 60.8256 311.531C60.6419 311.872 60.55 312.266 60.55 312.712ZM73.5642 316.125H72.1205V312.279C72.1205 311.641 72.0155 311.172 71.8055 310.875C71.6042 310.577 71.3024 310.429 70.8999 310.429C70.6199 310.429 70.3399 310.499 70.0599 310.639C69.7886 310.779 69.5436 310.971 69.3249 311.216C69.1061 311.452 68.9486 311.728 68.8524 312.043V316.125H67.4086V309.261H68.7211V310.639C68.8961 310.332 69.1236 310.07 69.4036 309.851C69.6924 309.624 70.0161 309.449 70.3749 309.326C70.7336 309.204 71.1142 309.142 71.5167 309.142C71.928 309.142 72.2649 309.217 72.5274 309.366C72.7986 309.514 73.0086 309.72 73.1574 309.982C73.3149 310.236 73.4199 310.534 73.4724 310.875C73.5336 311.207 73.5642 311.562 73.5642 311.938V316.125ZM79.0081 315.771C78.8856 315.832 78.7325 315.897 78.5488 315.967C78.365 316.037 78.155 316.099 77.9188 316.151C77.6913 316.204 77.455 316.23 77.21 316.23C76.9125 316.23 76.6369 316.178 76.3831 316.072C76.1294 315.967 75.9238 315.801 75.7663 315.574C75.6175 315.337 75.5431 315.036 75.5431 314.668V310.376H74.6375V309.261H75.5431V307.003H76.9869V309.261H78.4831V310.376H76.9869V314.209C77.0044 314.445 77.0788 314.62 77.21 314.734C77.35 314.847 77.5206 314.904 77.7219 314.904C77.9231 314.904 78.1156 314.869 78.2994 314.799C78.4831 314.729 78.6188 314.672 78.7063 314.629L79.0081 315.771ZM83.029 316.256C82.4952 316.256 82.0096 316.164 81.5721 315.981C81.1434 315.788 80.7715 315.53 80.4565 315.206C80.1415 314.874 79.8965 314.497 79.7215 314.077C79.5552 313.649 79.4721 313.194 79.4721 312.712C79.4721 312.065 79.6209 311.474 79.9184 310.941C80.2159 310.398 80.6315 309.965 81.1652 309.641C81.699 309.309 82.3246 309.142 83.0421 309.142C83.7596 309.142 84.3765 309.309 84.8927 309.641C85.4177 309.965 85.8246 310.394 86.1134 310.927C86.4021 311.461 86.5465 312.034 86.5465 312.647C86.5465 312.752 86.5421 312.852 86.5334 312.949C86.5246 313.036 86.5159 313.111 86.5071 313.172H81.0077C81.034 313.574 81.1434 313.929 81.3359 314.235C81.5371 314.532 81.7909 314.769 82.0971 314.944C82.4034 315.11 82.7315 315.193 83.0815 315.193C83.4665 315.193 83.8296 315.097 84.1709 314.904C84.5209 314.712 84.7571 314.458 84.8796 314.143L86.1134 314.497C85.9646 314.83 85.7371 315.132 85.4309 315.403C85.1334 315.666 84.779 315.876 84.3677 316.033C83.9565 316.182 83.5102 316.256 83.029 316.256ZM80.9684 312.214H85.1159C85.0896 311.82 84.9759 311.474 84.7746 311.177C84.5821 310.871 84.3327 310.634 84.0265 310.468C83.729 310.293 83.3965 310.206 83.029 310.206C82.6702 310.206 82.3377 310.293 82.0315 310.468C81.734 310.634 81.489 310.871 81.2965 311.177C81.104 311.474 80.9946 311.82 80.9684 312.214ZM93.8798 316.125H92.436V312.279C92.436 311.641 92.331 311.172 92.121 310.875C91.9198 310.577 91.6179 310.429 91.2154 310.429C90.9354 310.429 90.6554 310.499 90.3754 310.639C90.1042 310.779 89.8592 310.971 89.6404 311.216C89.4217 311.452 89.2642 311.728 89.1679 312.043V316.125H87.7242V309.261H89.0367V310.639C89.2117 310.332 89.4392 310.07 89.7192 309.851C90.0079 309.624 90.3317 309.449 90.6904 309.326C91.0492 309.204 91.4298 309.142 91.8323 309.142C92.2435 309.142 92.5804 309.217 92.8429 309.366C93.1142 309.514 93.3242 309.72 93.4729 309.982C93.6304 310.236 93.7354 310.534 93.7879 310.875C93.8492 311.207 93.8798 311.562 93.8798 311.938V316.125ZM99.3237 315.771C99.2012 315.832 99.0481 315.897 98.8643 315.967C98.6806 316.037 98.4706 316.099 98.2343 316.151C98.0068 316.204 97.7706 316.23 97.5256 316.23C97.2281 316.23 96.9524 316.178 96.6987 316.072C96.4449 315.967 96.2393 315.801 96.0818 315.574C95.9331 315.337 95.8587 315.036 95.8587 314.668V310.376H94.9531V309.261H95.8587V307.003H97.3024V309.261H98.7987V310.376H97.3024V314.209C97.3199 314.445 97.3943 314.62 97.5256 314.734C97.6656 314.847 97.8362 314.904 98.0374 314.904C98.2387 314.904 98.4312 314.869 98.6149 314.799C98.7987 314.729 98.9343 314.672 99.0218 314.629L99.3237 315.771Z" fill="#878787"/>
<path d="M153.863 316.125V306.806H160.071V308.106H155.333V310.888H159.296V312.109H155.333V316.125H153.863ZM160.114 314.117C160.114 313.679 160.237 313.299 160.482 312.975C160.735 312.642 161.081 312.389 161.519 312.214C161.956 312.03 162.464 311.938 163.041 311.938C163.347 311.938 163.658 311.96 163.973 312.004C164.297 312.047 164.581 312.117 164.826 312.214V311.781C164.826 311.299 164.682 310.923 164.393 310.652C164.104 310.381 163.689 310.245 163.146 310.245C162.761 310.245 162.398 310.315 162.057 310.455C161.715 310.586 161.352 310.774 160.967 311.019L160.482 310.048C160.937 309.742 161.392 309.514 161.847 309.366C162.31 309.217 162.796 309.142 163.304 309.142C164.222 309.142 164.944 309.387 165.469 309.877C166.003 310.359 166.27 311.046 166.27 311.938V314.497C166.27 314.664 166.296 314.782 166.349 314.852C166.41 314.922 166.51 314.961 166.65 314.97V316.125C166.519 316.151 166.401 316.169 166.296 316.178C166.191 316.186 166.104 316.191 166.034 316.191C165.727 316.191 165.495 316.116 165.338 315.967C165.18 315.819 165.089 315.644 165.062 315.442L165.023 315.049C164.725 315.434 164.345 315.731 163.881 315.941C163.417 316.151 162.949 316.256 162.477 316.256C162.022 316.256 161.615 316.164 161.256 315.981C160.897 315.788 160.617 315.53 160.416 315.206C160.215 314.882 160.114 314.519 160.114 314.117ZM164.485 314.537C164.59 314.423 164.673 314.309 164.734 314.196C164.795 314.082 164.826 313.981 164.826 313.894V313.106C164.581 313.01 164.323 312.94 164.052 312.896C163.78 312.844 163.514 312.817 163.251 312.817C162.726 312.817 162.297 312.922 161.965 313.132C161.641 313.342 161.479 313.631 161.479 313.999C161.479 314.2 161.532 314.392 161.637 314.576C161.75 314.76 161.908 314.909 162.109 315.022C162.319 315.136 162.577 315.193 162.884 315.193C163.199 315.193 163.5 315.132 163.789 315.009C164.078 314.887 164.31 314.729 164.485 314.537ZM169.707 316.125L167.095 309.261H168.591L170.547 314.786L172.503 309.261H173.894L171.282 316.125H169.707ZM177.784 316.256C177.241 316.256 176.756 316.164 176.327 315.981C175.898 315.788 175.526 315.526 175.211 315.193C174.905 314.861 174.669 314.484 174.502 314.064C174.336 313.636 174.253 313.181 174.253 312.699C174.253 312.218 174.336 311.763 174.502 311.334C174.669 310.906 174.905 310.529 175.211 310.206C175.526 309.873 175.898 309.615 176.327 309.431C176.764 309.239 177.25 309.142 177.784 309.142C178.317 309.142 178.799 309.239 179.227 309.431C179.665 309.615 180.037 309.873 180.343 310.206C180.658 310.529 180.899 310.906 181.065 311.334C181.231 311.763 181.314 312.218 181.314 312.699C181.314 313.181 181.231 313.636 181.065 314.064C180.899 314.484 180.658 314.861 180.343 315.193C180.037 315.526 179.665 315.788 179.227 315.981C178.799 316.164 178.317 316.256 177.784 316.256ZM175.736 312.712C175.736 313.15 175.828 313.544 176.012 313.894C176.196 314.244 176.441 314.519 176.747 314.721C177.053 314.922 177.399 315.022 177.784 315.022C178.16 315.022 178.501 314.922 178.807 314.721C179.122 314.511 179.372 314.231 179.556 313.881C179.739 313.522 179.831 313.128 179.831 312.699C179.831 312.262 179.739 311.868 179.556 311.518C179.372 311.168 179.122 310.892 178.807 310.691C178.501 310.481 178.16 310.376 177.784 310.376C177.399 310.376 177.053 310.481 176.747 310.691C176.441 310.901 176.196 311.181 176.012 311.531C175.828 311.872 175.736 312.266 175.736 312.712ZM186.454 310.507C185.894 310.516 185.395 310.643 184.957 310.888C184.529 311.133 184.222 311.479 184.039 311.925V316.125H182.595V309.261H183.934V310.796C184.17 310.324 184.48 309.947 184.865 309.667C185.25 309.379 185.657 309.221 186.086 309.195C186.174 309.195 186.244 309.195 186.296 309.195C186.357 309.195 186.41 309.199 186.454 309.208V310.507ZM187.504 316.125V309.261H188.948V316.125H187.504ZM187.504 308.132V306.544H188.948V308.132H187.504ZM194.502 315.771C194.379 315.832 194.226 315.897 194.043 315.967C193.859 316.037 193.649 316.099 193.413 316.151C193.185 316.204 192.949 316.23 192.704 316.23C192.406 316.23 192.131 316.178 191.877 316.072C191.623 315.967 191.418 315.801 191.26 315.574C191.111 315.337 191.037 315.036 191.037 314.668V310.376H190.131V309.261H191.037V307.003H192.481V309.261H193.977V310.376H192.481V314.209C192.498 314.445 192.573 314.62 192.704 314.734C192.844 314.847 193.014 314.904 193.216 314.904C193.417 314.904 193.609 314.869 193.793 314.799C193.977 314.729 194.113 314.672 194.2 314.629L194.502 315.771ZM198.523 316.256C197.989 316.256 197.503 316.164 197.066 315.981C196.637 315.788 196.265 315.53 195.95 315.206C195.635 314.874 195.39 314.497 195.215 314.077C195.049 313.649 194.966 313.194 194.966 312.712C194.966 312.065 195.115 311.474 195.412 310.941C195.71 310.398 196.125 309.965 196.659 309.641C197.193 309.309 197.818 309.142 198.536 309.142C199.253 309.142 199.87 309.309 200.387 309.641C200.912 309.965 201.318 310.394 201.607 310.927C201.896 311.461 202.04 312.034 202.04 312.647C202.04 312.752 202.036 312.852 202.027 312.949C202.018 313.036 202.01 313.111 202.001 313.172H196.502C196.528 313.574 196.637 313.929 196.83 314.235C197.031 314.532 197.285 314.769 197.591 314.944C197.897 315.11 198.225 315.193 198.575 315.193C198.96 315.193 199.323 315.097 199.665 314.904C200.015 314.712 200.251 314.458 200.373 314.143L201.607 314.497C201.458 314.83 201.231 315.132 200.925 315.403C200.627 315.666 200.273 315.876 199.862 316.033C199.45 316.182 199.004 316.256 198.523 316.256ZM196.462 312.214H200.61C200.583 311.82 200.47 311.474 200.268 311.177C200.076 310.871 199.827 310.634 199.52 310.468C199.223 310.293 198.89 310.206 198.523 310.206C198.164 310.206 197.832 310.293 197.525 310.468C197.228 310.634 196.983 310.871 196.79 311.177C196.598 311.474 196.488 311.82 196.462 312.214ZM205.659 316.256C205.082 316.256 204.535 316.164 204.019 315.981C203.502 315.788 203.06 315.504 202.693 315.127L203.231 314.156C203.625 314.506 204.019 314.76 204.412 314.917C204.815 315.075 205.213 315.154 205.607 315.154C206.009 315.154 206.337 315.079 206.591 314.931C206.845 314.773 206.972 314.546 206.972 314.248C206.972 314.029 206.906 313.867 206.775 313.762C206.644 313.657 206.451 313.566 206.197 313.487C205.952 313.408 205.655 313.321 205.305 313.224C204.815 313.076 204.404 312.922 204.071 312.765C203.739 312.599 203.489 312.397 203.323 312.161C203.157 311.925 203.074 311.623 203.074 311.256C203.074 310.809 203.187 310.429 203.415 310.114C203.642 309.799 203.957 309.558 204.36 309.392C204.771 309.226 205.244 309.142 205.777 309.142C206.276 309.142 206.735 309.221 207.155 309.379C207.584 309.527 207.96 309.764 208.284 310.087L207.667 311.046C207.361 310.766 207.046 310.56 206.722 310.429C206.407 310.297 206.066 310.232 205.699 310.232C205.489 310.232 205.287 310.258 205.095 310.311C204.902 310.354 204.74 310.442 204.609 310.573C204.487 310.696 204.425 310.871 204.425 311.098C204.425 311.282 204.478 311.431 204.583 311.544C204.688 311.658 204.845 311.754 205.055 311.833C205.265 311.912 205.524 311.999 205.83 312.096C206.364 312.253 206.819 312.411 207.195 312.568C207.571 312.717 207.86 312.914 208.061 313.159C208.271 313.395 208.376 313.723 208.376 314.143C208.376 314.808 208.127 315.329 207.628 315.705C207.138 316.072 206.482 316.256 205.659 316.256Z" fill="black"/>
<rect x="0.234375" y="276.234" width="254.531" height="70.7812" rx="7.26562" stroke="#6F6F6F" stroke-width="0.46875" stroke-linecap="round" stroke-dasharray="5.62 5.62"/>
<defs>
<filter id="filter0_d_495_6712" x="28.3262" y="15.3272" width="182.346" height="200.174" filterUnits="userSpaceOnUse" color-interpolation-filters="sRGB">
<feFlood flood-opacity="0" result="BackgroundImageFix"/>
<feColorMatrix in="SourceAlpha" type="matrix" values="0 0 0 0 0 0 0 0 0 0 0 0 0 0 0 0 0 0 127 0" result="hardAlpha"/>
<feOffset/>
<feGaussianBlur stdDeviation="1.7197"/>
<feComposite in2="hardAlpha" operator="out"/>
<feColorMatrix type="matrix" values="0 0 0 0 0 0 0 0 0 0 0 0 0 0 0 0 0 0 0.1 0"/>
<feBlend mode="normal" in2="BackgroundImageFix" result="effect1_dropShadow_495_6712"/>
<feBlend mode="normal" in="SourceGraphic" in2="effect1_dropShadow_495_6712" result="shape"/>
</filter>
<clipPath id="clip0_495_6712">
<rect width="94.7709" height="22.5198" fill="white" transform="translate(48.8398 66.9775)"/>
</clipPath>
</defs>
</svg>
