<svg width="321" height="181" viewBox="0 0 321 181" fill="none" xmlns="http://www.w3.org/2000/svg">
<path d="M111.065 113.653C111.065 120.281 109.253 126.081 105.628 131.052C102.107 136.023 97.2907 139.907 91.1802 142.704C85.1732 145.396 78.5966 146.743 71.4504 146.743C64.097 146.743 57.4687 145.293 51.5653 142.393C45.6619 139.389 40.9495 135.35 37.4282 130.275C33.9069 125.201 32.1462 119.401 32.1462 112.876C32.1462 108.526 33.1301 104.642 35.0979 101.225C37.0657 97.7032 39.4996 94.6997 42.3995 92.2141C45.2994 89.7285 48.2511 87.8124 51.2546 86.466C48.4582 85.1197 45.869 83.4108 43.4869 81.3394C41.2084 79.1645 39.3442 76.6788 37.8943 73.8825C36.5479 71.0862 35.8747 68.0827 35.8747 64.872C35.8747 60.1079 36.9104 55.9134 38.9817 52.2885C41.1567 48.56 44.0048 45.453 47.5261 42.9674C51.0474 40.3781 54.8795 38.4621 59.0222 37.2193C63.2685 35.8729 67.463 35.1997 71.6057 35.1997C75.8521 35.1997 80.0466 35.8729 84.1893 37.2193C88.4356 38.4621 92.3194 40.3264 95.8407 42.812C99.4656 45.2976 102.314 48.4047 104.385 52.1331C106.56 55.758 107.648 59.9526 107.648 64.7167C107.648 67.9273 106.923 70.9826 105.473 73.8825C104.126 76.6788 102.21 79.1645 99.7246 81.3394C97.3425 83.5144 94.7533 85.2232 91.9569 86.466C95.2711 87.916 98.3782 89.9356 101.278 92.5248C104.282 95.114 106.664 98.1693 108.424 101.691C110.185 105.212 111.065 109.199 111.065 113.653ZM93.8212 112.565C93.8212 109.562 93.148 106.869 91.8016 104.487C90.5588 102.105 88.8499 100.137 86.6749 98.5835C84.5 96.9265 82.1179 95.6836 79.5287 94.8551C76.9395 94.0265 74.2985 93.6123 71.6057 93.6123C67.7737 93.6123 64.2006 94.389 60.8864 95.9426C57.5722 97.4961 54.8795 99.7228 52.8081 102.623C50.7367 105.419 49.701 108.733 49.701 112.565C49.701 115.465 50.3225 118.106 51.5653 120.488C52.8081 122.767 54.4652 124.735 56.5366 126.392C58.7115 128.049 61.0936 129.292 63.6828 130.12C66.3755 130.949 69.0683 131.363 71.7611 131.363C75.4896 131.363 79.0109 130.586 82.3251 129.033C85.7428 127.376 88.4874 125.149 90.5588 122.352C92.7337 119.453 93.8212 116.19 93.8212 112.565ZM53.1188 65.4935C53.1188 68.7041 54.0509 71.4486 55.9151 73.7271C57.7794 76.0056 60.1614 77.7145 63.0614 78.8538C65.9613 79.993 68.8094 80.5627 71.6057 80.5627C74.5057 80.5627 77.3538 79.993 80.1501 78.8538C83.0501 77.611 85.4321 75.8503 87.2964 73.5718C89.2642 71.2933 90.248 68.4969 90.248 65.1828C90.248 62.1793 89.3677 59.5901 87.6071 57.4151C85.8464 55.1366 83.5161 53.4277 80.6162 52.2885C77.8199 51.0457 74.8164 50.4243 71.6057 50.4243C68.3951 50.4243 65.3399 51.0457 62.44 52.2885C59.6436 53.5313 57.3651 55.292 55.6044 57.5705C53.9473 59.7454 53.1188 62.3864 53.1188 65.4935ZM158.383 147.054C150.409 147.054 143.262 145.293 136.945 141.772C130.731 138.147 125.915 133.227 122.497 127.013L132.75 117.226C135.65 121.679 139.379 125.252 143.936 127.945C148.493 130.534 153.36 131.829 158.539 131.829C162.785 131.829 166.565 130.949 169.88 129.188C173.194 127.324 175.783 124.786 177.647 121.576C179.615 118.365 180.599 114.637 180.599 110.39C180.599 106.248 179.667 102.623 177.803 99.5157C176.042 96.305 173.556 93.8194 170.346 92.0587C167.239 90.2981 163.717 89.4177 159.782 89.4177C155.846 89.4177 152.118 90.2981 148.596 92.0587C145.179 93.8194 142.434 96.305 140.363 99.5157H125.138L137.722 35.1997H191.629V50.8903H150.15L144.557 80.8734C146.421 79.0091 148.803 77.5074 151.703 76.3681C154.707 75.2289 158.125 74.6593 161.957 74.6593C168.896 74.6593 175.058 76.161 180.444 79.1645C185.933 82.168 190.231 86.3107 193.338 91.5927C196.548 96.8747 198.154 102.985 198.154 109.924C198.154 117.278 196.393 123.751 192.872 129.343C189.35 134.832 184.586 139.182 178.579 142.393C172.676 145.5 165.944 147.054 158.383 147.054ZM233.182 79.7859C228.625 79.7859 224.431 78.7502 220.598 76.6788C216.87 74.6075 213.867 71.8629 211.588 68.4452C209.413 64.9238 208.326 61.04 208.326 56.7937C208.326 52.4439 209.413 48.56 211.588 45.1423C213.867 41.621 216.87 38.8246 220.598 36.7532C224.431 34.6819 228.625 33.6462 233.182 33.6462C237.739 33.6462 241.882 34.6819 245.61 36.7532C249.339 38.8246 252.29 41.621 254.465 45.1423C256.64 48.56 257.728 52.3921 257.728 56.6384C257.728 60.8847 256.64 64.7685 254.465 68.2898C252.29 71.8111 249.339 74.6075 245.61 76.6788C241.882 78.7502 237.739 79.7859 233.182 79.7859ZM233.027 70.9308C235.409 70.9308 237.532 70.3094 239.396 69.0666C241.364 67.7202 242.866 65.9595 243.901 63.7846C245.041 61.6096 245.61 59.2794 245.61 56.7937C245.61 54.1009 245.041 51.6671 243.901 49.4922C242.762 47.3172 241.209 45.6083 239.241 44.3655C237.377 43.1227 235.357 42.5013 233.182 42.5013C230.8 42.5013 228.625 43.1745 226.657 44.5209C224.793 45.7637 223.291 47.4726 222.152 49.6475C221.013 51.8224 220.443 54.1527 220.443 56.6384C220.443 59.3311 221.013 61.765 222.152 63.9399C223.395 66.0113 224.948 67.7202 226.813 69.0666C228.78 70.3094 230.852 70.9308 233.027 70.9308ZM290.196 147.054C285.639 147.054 281.497 146.018 277.768 143.946C274.04 141.875 271.036 139.079 268.758 135.557C266.583 132.036 265.495 128.152 265.495 123.906C265.495 119.66 266.583 115.828 268.758 112.41C271.036 108.889 274.04 106.092 277.768 104.021C281.497 101.95 285.639 100.914 290.196 100.914C294.857 100.914 299.052 101.95 302.78 104.021C306.508 105.989 309.46 108.733 311.635 112.255C313.81 115.776 314.897 119.66 314.897 123.906C314.897 128.152 313.81 132.036 311.635 135.557C309.46 139.079 306.508 141.875 302.78 143.946C299.052 146.018 294.857 147.054 290.196 147.054ZM290.196 138.198C292.578 138.198 294.702 137.525 296.566 136.179C298.534 134.832 300.035 133.124 301.071 131.052C302.21 128.877 302.78 126.547 302.78 124.061C302.78 121.369 302.21 118.935 301.071 116.76C299.932 114.585 298.378 112.876 296.411 111.633C294.546 110.39 292.475 109.769 290.196 109.769C287.918 109.769 285.795 110.442 283.827 111.789C281.963 113.031 280.461 114.74 279.322 116.915C278.182 119.09 277.613 121.42 277.613 123.906C277.613 126.495 278.182 128.877 279.322 131.052C280.565 133.227 282.118 134.988 283.982 136.334C285.847 137.577 287.918 138.198 290.196 138.198ZM215.317 139.286L258.971 87.5535L299.984 34.2676L308.062 41.2585L265.185 92.3694L223.239 146.432L215.317 139.286Z" fill="black"/>
</svg>
