<svg width="383" height="182" viewBox="0 0 383 182" fill="none" xmlns="http://www.w3.org/2000/svg">
<path d="M53.4413 146V119.279H4.19452V104.055L58.7232 35.6997H70.53V103.899H84.2011V119.279H70.53V146H53.4413ZM21.594 103.899H55.3055V61.6436L21.594 103.899ZM135.797 146V64.7506H152.886V146H135.797ZM135.797 51.3903V32.5927H152.886V51.3903H135.797ZM244.729 146H227.64V100.482C227.64 92.9212 226.397 87.3803 223.911 83.859C221.529 80.3377 217.956 78.577 213.192 78.577C209.878 78.577 206.564 79.4056 203.25 81.0627C200.039 82.7197 197.139 84.9983 194.55 87.8982C191.961 90.6945 190.096 93.9569 188.957 97.6854V146H171.868V64.7506H187.404V81.0627C189.475 77.4378 192.168 74.3307 195.482 71.7415C198.9 69.0487 202.732 66.9774 206.978 65.5274C211.224 64.0775 215.73 63.3525 220.494 63.3525C225.361 63.3525 229.349 64.2328 232.456 65.9935C235.667 67.7541 238.152 70.188 239.913 73.295C241.777 76.2985 243.02 79.8198 243.641 83.859C244.366 87.7946 244.729 91.9891 244.729 96.4426V146ZM377.206 109.337C377.206 102.398 375.497 96.1836 372.079 90.6945C368.765 85.1018 364.208 80.6484 358.408 77.3342C352.712 74.02 346.239 72.3629 338.989 72.3629C335.157 72.3629 331.532 72.9843 328.114 74.2271C324.696 75.47 321.693 77.2306 319.104 79.5091C316.618 81.6841 314.599 84.3251 313.045 87.4321C313.149 79.4573 314.236 72.6736 316.307 67.0809C318.482 61.4882 321.486 57.2419 325.318 54.342C329.253 51.3385 333.759 49.8368 338.834 49.8368C343.908 49.8368 348.517 51.1314 352.66 53.7206C356.906 56.2063 360.22 59.624 362.602 63.9739L372.7 53.4099C369.075 47.6101 364.311 43.1049 358.408 39.8942C352.608 36.5801 346.187 34.923 339.144 34.923C330.652 34.923 323.246 37.305 316.929 42.0692C310.611 46.8333 305.692 53.9278 302.17 63.3525C298.753 72.7772 297.044 84.5322 297.044 98.6175C297.044 108.767 298.701 117.519 302.015 124.872C305.433 132.225 310.145 137.87 316.152 141.805C322.263 145.638 329.357 147.554 337.435 147.554C344.892 147.554 351.624 145.845 357.631 142.427C363.742 139.009 368.506 134.4 371.924 128.601C375.445 122.801 377.206 116.379 377.206 109.337ZM337.435 132.95C333.293 132.95 329.409 131.863 325.784 129.688C322.263 127.513 319.414 124.665 317.24 121.144C315.065 117.519 313.977 113.583 313.977 109.337C313.977 105.091 315.013 101.207 317.084 97.6854C319.259 94.164 322.159 91.3677 325.784 89.2963C329.409 87.1214 333.293 86.0339 337.435 86.0339C341.785 86.0339 345.721 87.1214 349.242 89.2963C352.763 91.3677 355.56 94.164 357.631 97.6854C359.806 101.207 360.894 105.091 360.894 109.337C360.894 113.583 359.806 117.519 357.631 121.144C355.56 124.768 352.712 127.668 349.087 129.843C345.565 131.915 341.682 132.95 337.435 132.95Z" fill="black"/>
</svg>
