<svg width="355" height="108" viewBox="0 0 355 108" fill="none" xmlns="http://www.w3.org/2000/svg">
<g filter="url(#filter0_d_516_6562)">
<path d="M48.5848 62.1106H43.5486V36.6712C43.5486 35.7669 42.7739 34.9922 41.8695 34.9922H9.71524C8.81086 34.9922 8.03622 35.7669 8.03622 36.6712V61.9815H3V36.6712C3 32.9268 6.09944 29.8271 9.84409 29.8271H41.7401C45.4845 29.8271 48.5842 32.9266 48.5842 36.6712L48.5848 62.1106Z" fill="black"/>
<path d="M29.0872 103.433H22.372C18.7562 103.433 15.5279 100.464 15.2694 96.8478L13.0742 45.1943H18.2391L20.5631 96.4604C20.5631 97.4936 21.4674 98.2683 22.4997 98.2683H29.2149C30.2481 98.2683 31.1515 97.3639 31.1515 96.4604L33.3485 45.1943H38.3847L36.1886 96.8478C35.931 100.464 32.7027 103.433 29.087 103.433" fill="black"/>
<path d="M25.3392 9.03599C22.2398 9.03599 19.6571 11.6184 19.6571 14.7181C19.6571 17.8178 22.2395 20.4002 25.3392 20.4002C28.4386 20.4002 31.0213 17.8178 31.0213 14.7181C31.0213 11.6184 28.4389 9.03599 25.3392 9.03599ZM25.3392 25.4362C19.3986 25.4362 14.6211 20.6585 14.6211 14.7181C14.6211 8.77772 19.3988 4 25.3392 4C31.2796 4 36.0573 8.77772 36.0573 14.7181C36.0573 20.6578 31.2796 25.4362 25.3392 25.4362Z" fill="black"/>
</g>
<g filter="url(#filter1_d_516_6562)">
<path d="M85.638 9.16489C82.5386 9.16489 79.9559 11.7473 79.9559 14.847C79.9559 17.9464 82.5384 20.5291 85.638 20.5291C88.7375 20.5291 91.3201 17.9467 91.3201 14.847C91.3201 11.6187 88.8664 9.16489 85.638 9.16489ZM85.638 25.4362C79.6974 25.4362 74.9199 20.6585 74.9199 14.7181C74.9199 8.77772 79.6976 4 85.638 4C91.5784 4 96.3561 8.77772 96.3561 14.7181C96.4849 20.6578 91.5784 25.4362 85.638 25.4362Z" fill="black"/>
<path d="M108.756 61.9803H103.72V36.7992C103.72 35.8949 102.945 35.1202 102.041 35.1202L70.1449 35.1211C69.2405 35.1211 68.4659 35.8958 68.4659 36.8001V61.9812H63.4297V36.8001C63.4297 33.0557 66.5291 29.9561 70.2738 29.9561H102.041C105.785 29.9561 108.885 33.0555 108.885 36.8001V61.9812L108.756 61.9803Z" fill="black"/>
<path d="M96.8758 80.0603H75.1809C73.3731 80.0603 71.5651 79.2856 70.4032 77.8651C69.2412 76.5734 68.7241 74.6368 69.1115 72.8289L73.3729 46.873H78.5378L74.0176 73.7329C74.0176 74.1202 74.0176 74.3787 74.1464 74.6372C74.2752 74.8958 74.6626 75.0246 75.0508 75.0246H96.7448C97.1321 75.0246 97.3907 74.8958 97.6492 74.6372C97.778 74.3787 97.9077 74.1211 97.778 73.7329L93.3877 46.873H98.5526L102.943 72.8289C103.201 74.6368 102.814 76.4447 101.651 77.8651C100.491 79.2857 98.8121 80.0603 96.8753 80.0603" fill="black"/>
<path d="M89.386 103.303H82.6708C79.055 103.303 75.8267 100.334 75.5682 96.7179L73.373 82.6416H78.5379L80.8619 96.4594C80.8619 97.4926 81.7663 98.2672 82.7985 98.2672H89.5137C90.5469 98.2672 91.4503 97.3628 91.4503 96.4594L93.6473 82.6416H98.6835L96.3596 96.717C96.2299 100.334 93.1303 103.303 89.3859 103.303" fill="black"/>
</g>
<g filter="url(#filter2_d_516_6562)">
<path d="M169.315 62.1106H164.279V36.6712C164.279 35.7669 163.504 34.9922 162.6 34.9922H130.446C129.541 34.9922 128.767 35.7669 128.767 36.6712V61.9815H123.73V36.6712C123.73 32.9268 126.83 29.8271 130.575 29.8271H162.471C166.215 29.8271 169.315 32.9266 169.315 36.6712L169.315 62.1106Z" fill="black"/>
<path d="M149.818 103.433H143.102C139.487 103.433 136.258 100.464 136 96.8478L133.805 45.1943H138.97L141.294 96.4604C141.294 97.4936 142.198 98.2683 143.23 98.2683H149.945C150.979 98.2683 151.882 97.3639 151.882 96.4604L154.079 45.1943H159.115L156.919 96.8478C156.661 100.464 153.433 103.433 149.817 103.433" fill="black"/>
<path d="M146.07 9.03599C142.97 9.03599 140.388 11.6184 140.388 14.7181C140.388 17.8178 142.97 20.4002 146.07 20.4002C149.169 20.4002 151.752 17.8178 151.752 14.7181C151.752 11.6184 149.169 9.03599 146.07 9.03599ZM146.07 25.4362C140.129 25.4362 135.352 20.6585 135.352 14.7181C135.352 8.77772 140.129 4 146.07 4C152.01 4 156.788 8.77772 156.788 14.7181C156.788 20.6578 152.01 25.4362 146.07 25.4362Z" fill="black"/>
</g>
<g filter="url(#filter3_d_516_6562)">
<path d="M206.374 9.16489C203.275 9.16489 200.692 11.7473 200.692 14.847C200.692 17.9464 203.275 20.5291 206.374 20.5291C209.474 20.5291 212.056 17.9467 212.056 14.847C212.056 11.6187 209.603 9.16489 206.374 9.16489ZM206.374 25.4362C200.434 25.4362 195.656 20.6585 195.656 14.7181C195.656 8.77772 200.434 4 206.374 4C212.315 4 217.092 8.77772 217.092 14.7181C217.221 20.6578 212.315 25.4362 206.374 25.4362Z" fill="black"/>
<path d="M229.487 61.9803H224.45V36.7992C224.45 35.8949 223.676 35.1202 222.771 35.1202L190.875 35.1211C189.971 35.1211 189.196 35.8958 189.196 36.8001V61.9812H184.16V36.8001C184.16 33.0557 187.26 29.9561 191.004 29.9561H222.771C226.516 29.9561 229.615 33.0555 229.615 36.8001V61.9812L229.487 61.9803Z" fill="black"/>
<path d="M217.606 80.0603H195.911C194.104 80.0603 192.296 79.2856 191.134 77.8651C189.972 76.5734 189.455 74.6368 189.842 72.8289L194.103 46.873H199.268L194.748 73.7329C194.748 74.1202 194.748 74.3787 194.877 74.6372C195.006 74.8958 195.393 75.0246 195.781 75.0246H217.475C217.863 75.0246 218.121 74.8958 218.38 74.6372C218.508 74.3787 218.638 74.1211 218.508 73.7329L214.118 46.873H219.283L223.673 72.8289C223.932 74.6368 223.545 76.4447 222.382 77.8651C221.221 79.2857 219.543 80.0603 217.606 80.0603" fill="black"/>
<path d="M210.116 103.303H203.401C199.786 103.303 196.557 100.334 196.299 96.7179L194.104 82.6416H199.268L201.592 96.4594C201.592 97.4926 202.497 98.2672 203.529 98.2672H210.244C211.277 98.2672 212.181 97.3628 212.181 96.4594L214.378 82.6416H219.414L217.09 96.717C216.96 100.334 213.861 103.303 210.116 103.303" fill="black"/>
</g>
<g filter="url(#filter4_d_516_6562)">
<path d="M290.046 62.1106H285.009V36.6712C285.009 35.7669 284.235 34.9922 283.33 34.9922H251.176C250.272 34.9922 249.497 35.7669 249.497 36.6712V61.9815H244.461V36.6712C244.461 32.9268 247.56 29.8271 251.305 29.8271H283.201C286.945 29.8271 290.045 32.9266 290.045 36.6712L290.046 62.1106Z" fill="white"/>
<path d="M270.546 103.433H263.831C260.215 103.433 256.987 100.464 256.728 96.8478L254.533 45.1943H259.698L262.022 96.4604C262.022 97.4936 262.926 98.2683 263.959 98.2683H270.674C271.707 98.2683 272.611 97.3639 272.611 96.4604L274.807 45.1943H279.844L277.648 96.8478C277.39 100.464 274.162 103.433 270.546 103.433" fill="white"/>
<path d="M266.8 9.03599C263.701 9.03599 261.118 11.6184 261.118 14.7181C261.118 17.8178 263.7 20.4002 266.8 20.4002C269.9 20.4002 272.482 17.8178 272.482 14.7181C272.482 11.6184 269.9 9.03599 266.8 9.03599ZM266.8 25.4362C260.86 25.4362 256.082 20.6585 256.082 14.7181C256.082 8.77772 260.86 4 266.8 4C272.741 4 277.518 8.77772 277.518 14.7181C277.518 20.6578 272.741 25.4362 266.8 25.4362Z" fill="white"/>
</g>
<g filter="url(#filter5_d_516_6562)">
<path d="M327.103 9.16489C324.003 9.16489 321.421 11.7473 321.421 14.847C321.421 17.9464 324.003 20.5291 327.103 20.5291C330.202 20.5291 332.785 17.9467 332.785 14.847C332.785 11.6187 330.331 9.16489 327.103 9.16489ZM327.103 25.4362C321.162 25.4362 316.385 20.6585 316.385 14.7181C316.385 8.77772 321.162 4 327.103 4C333.043 4 337.821 8.77772 337.821 14.7181C337.95 20.6578 333.043 25.4362 327.103 25.4362Z" fill="white"/>
<path d="M350.217 61.9803H345.181V36.7992C345.181 35.8949 344.406 35.1202 343.502 35.1202L311.606 35.1211C310.701 35.1211 309.927 35.8958 309.927 36.8001V61.9812H304.891V36.8001C304.891 33.0557 307.99 29.9561 311.735 29.9561H343.502C347.246 29.9561 350.346 33.0555 350.346 36.8001V61.9812L350.217 61.9803Z" fill="white"/>
<path d="M338.337 80.0603H316.642C314.834 80.0603 313.026 79.2856 311.864 77.8651C310.702 76.5734 310.185 74.6368 310.572 72.8289L314.834 46.873H319.999L315.479 73.7329C315.479 74.1202 315.479 74.3787 315.607 74.6372C315.736 74.8958 316.124 75.0246 316.512 75.0246H338.206C338.593 75.0246 338.852 74.8958 339.11 74.6372C339.239 74.3787 339.369 74.1211 339.239 73.7329L334.849 46.873H340.014L344.404 72.8289C344.662 74.6368 344.275 76.4447 343.112 77.8651C341.952 79.2857 340.273 80.0603 338.336 80.0603" fill="white"/>
<path d="M330.847 103.303H324.132C320.516 103.303 317.288 100.334 317.029 96.7179L314.834 82.6416H319.999L322.323 96.4594C322.323 97.4926 323.227 98.2672 324.259 98.2672H330.975C332.008 98.2672 332.911 97.3628 332.911 96.4594L335.108 82.6416H340.144L337.821 96.717C337.691 100.334 334.591 103.303 330.847 103.303" fill="white"/>
</g>
<defs>
<filter id="filter0_d_516_6562" x="0.891123" y="2.41834" width="49.8017" height="103.651" filterUnits="userSpaceOnUse" color-interpolation-filters="sRGB">
<feFlood flood-opacity="0" result="BackgroundImageFix"/>
<feColorMatrix in="SourceAlpha" type="matrix" values="0 0 0 0 0 0 0 0 0 0 0 0 0 0 0 0 0 0 127 0" result="hardAlpha"/>
<feOffset dy="0.527219"/>
<feGaussianBlur stdDeviation="1.05444"/>
<feComposite in2="hardAlpha" operator="out"/>
<feColorMatrix type="matrix" values="0 0 0 0 0 0 0 0 0 0 0 0 0 0 0 0 0 0 0.25 0"/>
<feBlend mode="normal" in2="BackgroundImageFix" result="effect1_dropShadow_516_6562"/>
<feBlend mode="normal" in="SourceGraphic" in2="effect1_dropShadow_516_6562" result="shape"/>
</filter>
<filter id="filter1_d_516_6562" x="61.3208" y="2.41834" width="49.6728" height="103.521" filterUnits="userSpaceOnUse" color-interpolation-filters="sRGB">
<feFlood flood-opacity="0" result="BackgroundImageFix"/>
<feColorMatrix in="SourceAlpha" type="matrix" values="0 0 0 0 0 0 0 0 0 0 0 0 0 0 0 0 0 0 127 0" result="hardAlpha"/>
<feOffset dy="0.527219"/>
<feGaussianBlur stdDeviation="1.05444"/>
<feComposite in2="hardAlpha" operator="out"/>
<feColorMatrix type="matrix" values="0 0 0 0 0 0 0 0 0 0 0 0 0 0 0 0 0 0 0.25 0"/>
<feBlend mode="normal" in2="BackgroundImageFix" result="effect1_dropShadow_516_6562"/>
<feBlend mode="normal" in="SourceGraphic" in2="effect1_dropShadow_516_6562" result="shape"/>
</filter>
<filter id="filter2_d_516_6562" x="121.622" y="2.41834" width="49.8017" height="103.651" filterUnits="userSpaceOnUse" color-interpolation-filters="sRGB">
<feFlood flood-opacity="0" result="BackgroundImageFix"/>
<feColorMatrix in="SourceAlpha" type="matrix" values="0 0 0 0 0 0 0 0 0 0 0 0 0 0 0 0 0 0 127 0" result="hardAlpha"/>
<feOffset dy="0.527219"/>
<feGaussianBlur stdDeviation="1.05444"/>
<feComposite in2="hardAlpha" operator="out"/>
<feColorMatrix type="matrix" values="0 0 0 0 0 0 0 0 0 0 0 0 0 0 0 0 0 0 0.25 0"/>
<feBlend mode="normal" in2="BackgroundImageFix" result="effect1_dropShadow_516_6562"/>
<feBlend mode="normal" in="SourceGraphic" in2="effect1_dropShadow_516_6562" result="shape"/>
</filter>
<filter id="filter3_d_516_6562" x="182.051" y="2.41834" width="49.6728" height="103.521" filterUnits="userSpaceOnUse" color-interpolation-filters="sRGB">
<feFlood flood-opacity="0" result="BackgroundImageFix"/>
<feColorMatrix in="SourceAlpha" type="matrix" values="0 0 0 0 0 0 0 0 0 0 0 0 0 0 0 0 0 0 127 0" result="hardAlpha"/>
<feOffset dy="0.527219"/>
<feGaussianBlur stdDeviation="1.05444"/>
<feComposite in2="hardAlpha" operator="out"/>
<feColorMatrix type="matrix" values="0 0 0 0 0 0 0 0 0 0 0 0 0 0 0 0 0 0 0.25 0"/>
<feBlend mode="normal" in2="BackgroundImageFix" result="effect1_dropShadow_516_6562"/>
<feBlend mode="normal" in="SourceGraphic" in2="effect1_dropShadow_516_6562" result="shape"/>
</filter>
<filter id="filter4_d_516_6562" x="240.461" y="0" width="53.584" height="107.434" filterUnits="userSpaceOnUse" color-interpolation-filters="sRGB">
<feFlood flood-opacity="0" result="BackgroundImageFix"/>
<feColorMatrix in="SourceAlpha" type="matrix" values="0 0 0 0 0 0 0 0 0 0 0 0 0 0 0 0 0 0 127 0" result="hardAlpha"/>
<feOffset/>
<feGaussianBlur stdDeviation="2"/>
<feComposite in2="hardAlpha" operator="out"/>
<feColorMatrix type="matrix" values="0 0 0 0 0 0 0 0 0 0 0 0 0 0 0 0 0 0 0.5 0"/>
<feBlend mode="normal" in2="BackgroundImageFix" result="effect1_dropShadow_516_6562"/>
<feBlend mode="normal" in="SourceGraphic" in2="effect1_dropShadow_516_6562" result="shape"/>
</filter>
<filter id="filter5_d_516_6562" x="300.891" y="0" width="53.4551" height="107.304" filterUnits="userSpaceOnUse" color-interpolation-filters="sRGB">
<feFlood flood-opacity="0" result="BackgroundImageFix"/>
<feColorMatrix in="SourceAlpha" type="matrix" values="0 0 0 0 0 0 0 0 0 0 0 0 0 0 0 0 0 0 127 0" result="hardAlpha"/>
<feOffset/>
<feGaussianBlur stdDeviation="2"/>
<feComposite in2="hardAlpha" operator="out"/>
<feColorMatrix type="matrix" values="0 0 0 0 0 0 0 0 0 0 0 0 0 0 0 0 0 0 0.5 0"/>
<feBlend mode="normal" in2="BackgroundImageFix" result="effect1_dropShadow_516_6562"/>
<feBlend mode="normal" in="SourceGraphic" in2="effect1_dropShadow_516_6562" result="shape"/>
</filter>
</defs>
</svg>
