<svg width="283" height="114" viewBox="0 0 283 114" fill="none" xmlns="http://www.w3.org/2000/svg">
<path d="M79.0653 80.1527C79.0653 86.7811 77.2528 92.5809 73.628 97.5522C70.1066 102.523 65.2907 106.407 59.1802 109.204C53.1732 111.896 46.5966 113.243 39.4504 113.243C32.097 113.243 25.4687 111.793 19.5653 108.893C13.6619 105.889 8.94952 101.85 5.4282 96.7755C1.90688 91.7006 0.146215 85.9008 0.146215 79.376C0.146215 75.0261 1.13011 71.1423 3.09791 67.7245C5.06571 64.2032 7.49957 61.1997 10.3995 58.7141C13.2994 56.2285 16.2511 54.3124 19.2546 52.966C16.4582 51.6197 13.869 49.9108 11.4869 47.8394C9.20844 45.6645 7.34421 43.1788 5.89426 40.3825C4.54787 37.5862 3.87467 34.5827 3.87467 31.372C3.87467 26.6079 4.91036 22.4134 6.98172 18.7885C9.15666 15.06 12.0048 11.953 15.5261 9.46735C19.0474 6.87814 22.8795 4.96212 27.0222 3.71931C31.2685 2.37292 35.463 1.69972 39.6057 1.69972C43.8521 1.69972 48.0466 2.37292 52.1893 3.71931C56.4356 4.96212 60.3194 6.82635 63.8407 9.312C67.4656 11.7976 70.3138 14.9047 72.3851 18.6331C74.5601 22.258 75.6475 26.4526 75.6475 31.2167C75.6475 34.4273 74.9225 37.4826 73.4726 40.3825C72.1262 43.1788 70.2102 45.6645 67.7246 47.8394C65.3425 50.0144 62.7533 51.7232 59.9569 52.966C63.2711 54.416 66.3782 56.4356 69.2781 59.0248C72.2816 61.614 74.6636 64.6693 76.4243 68.1906C78.185 71.7119 79.0653 75.6993 79.0653 80.1527ZM61.8212 79.0653C61.8212 76.0618 61.148 73.369 59.8016 70.9869C58.5588 68.6049 56.8499 66.6371 54.6749 65.0835C52.5 63.4265 50.1179 62.1836 47.5287 61.3551C44.9395 60.5265 42.2985 60.1123 39.6057 60.1123C35.7737 60.1123 32.2006 60.889 28.8864 62.4426C25.5722 63.9961 22.8795 66.2228 20.8081 69.1227C18.7367 71.9191 17.701 75.2332 17.701 79.0653C17.701 81.9652 18.3225 84.6062 19.5653 86.9882C20.8081 89.2667 22.4652 91.2345 24.5366 92.8916C26.7115 94.5487 29.0936 95.7916 31.6828 96.6201C34.3755 97.4486 37.0683 97.8629 39.7611 97.8629C43.4896 97.8629 47.0109 97.0862 50.3251 95.5326C53.7428 93.8755 56.4874 91.6488 58.5588 88.8525C60.7337 85.9526 61.8212 82.6902 61.8212 79.0653ZM21.1188 31.9935C21.1188 35.2041 22.0509 37.9486 23.9151 40.2271C25.7794 42.5056 28.1614 44.2145 31.0614 45.3538C33.9613 46.493 36.8094 47.0627 39.6057 47.0627C42.5057 47.0627 45.3538 46.493 48.1501 45.3538C51.0501 44.111 53.4321 42.3503 55.2964 40.0718C57.2642 37.7933 58.248 34.9969 58.248 31.6828C58.248 28.6793 57.3677 26.0901 55.6071 23.9151C53.8464 21.6366 51.5161 19.9277 48.6162 18.7885C45.8199 17.5457 42.8164 16.9243 39.6057 16.9243C36.3951 16.9243 33.3399 17.5457 30.44 18.7885C27.6436 20.0313 25.3651 21.792 23.6044 24.0705C21.9473 26.2454 21.1188 28.8864 21.1188 31.9935ZM126.383 113.554C118.409 113.554 111.262 111.793 104.945 108.272C98.7307 104.647 93.9148 99.7272 90.497 93.5131L100.75 83.7258C103.65 88.1793 107.379 91.7524 111.936 94.4452C116.493 97.0344 121.36 98.329 126.539 98.329C130.785 98.329 134.565 97.4486 137.88 95.688C141.194 93.8238 143.783 91.2863 145.647 88.0757C147.615 84.8651 148.599 81.1366 148.599 76.8903C148.599 72.7476 147.667 69.1227 145.803 66.0157C144.042 62.805 141.556 60.3194 138.346 58.5587C135.239 56.7981 131.717 55.9177 127.782 55.9177C123.846 55.9177 120.118 56.7981 116.596 58.5587C113.179 60.3194 110.434 62.805 108.363 66.0157H93.138L105.722 1.69972H159.629V17.3903H118.15L112.557 47.3734C114.421 45.5091 116.803 44.0074 119.703 42.8681C122.707 41.7289 126.125 41.1593 129.957 41.1593C136.896 41.1593 143.058 42.661 148.444 45.6645C153.933 48.668 158.231 52.8107 161.338 58.0927C164.548 63.3747 166.154 69.4852 166.154 76.4243C166.154 83.7776 164.393 90.2507 160.872 95.8433C157.35 101.332 152.586 105.682 146.579 108.893C140.676 112 133.944 113.554 126.383 113.554ZM201.182 46.2859C196.625 46.2859 192.431 45.2502 188.598 43.1788C184.87 41.1075 181.867 38.3629 179.588 34.9452C177.413 31.4238 176.326 27.54 176.326 23.2937C176.326 18.9439 177.413 15.06 179.588 11.6423C181.867 8.12096 184.87 5.32462 188.598 3.25325C192.431 1.18188 196.625 0.1462 201.182 0.1462C205.739 0.1462 209.882 1.18188 213.61 3.25325C217.339 5.32462 220.29 8.12096 222.465 11.6423C224.64 15.06 225.728 18.8921 225.728 23.1384C225.728 27.3847 224.64 31.2685 222.465 34.7898C220.29 38.3111 217.339 41.1075 213.61 43.1788C209.882 45.2502 205.739 46.2859 201.182 46.2859ZM201.027 37.4308C203.409 37.4308 205.532 36.8094 207.396 35.5666C209.364 34.2202 210.866 32.4595 211.901 30.2846C213.041 28.1096 213.61 25.7794 213.61 23.2937C213.61 20.6009 213.041 18.1671 211.901 15.9922C210.762 13.8172 209.209 12.1083 207.241 10.8655C205.377 9.6227 203.357 9.00129 201.182 9.00129C198.8 9.00129 196.625 9.67448 194.657 11.0209C192.793 12.2637 191.291 13.9726 190.152 16.1475C189.013 18.3224 188.443 20.6527 188.443 23.1384C188.443 25.8311 189.013 28.265 190.152 30.4399C191.395 32.5113 192.948 34.2202 194.813 35.5666C196.78 36.8094 198.852 37.4308 201.027 37.4308ZM258.196 113.554C253.639 113.554 249.497 112.518 245.768 110.446C242.04 108.375 239.036 105.579 236.758 102.057C234.583 98.5361 233.495 94.6523 233.495 90.406C233.495 86.1597 234.583 82.3277 236.758 78.9099C239.036 75.3886 242.04 72.5922 245.768 70.5209C249.497 68.4495 253.639 67.4138 258.196 67.4138C262.857 67.4138 267.052 68.4495 270.78 70.5209C274.508 72.4887 277.46 75.2332 279.635 78.7546C281.81 82.2759 282.897 86.1597 282.897 90.406C282.897 94.6523 281.81 98.5361 279.635 102.057C277.46 105.579 274.508 108.375 270.78 110.446C267.052 112.518 262.857 113.554 258.196 113.554ZM258.196 104.698C260.578 104.698 262.702 104.025 264.566 102.679C266.534 101.332 268.035 99.6236 269.071 97.5522C270.21 95.3773 270.78 93.047 270.78 90.5614C270.78 87.8686 270.21 85.4347 269.071 83.2598C267.932 81.0849 266.378 79.376 264.411 78.1332C262.546 76.8903 260.475 76.2689 258.196 76.2689C255.918 76.2689 253.795 76.9421 251.827 78.2885C249.963 79.5313 248.461 81.2402 247.322 83.4151C246.182 85.5901 245.613 87.9204 245.613 90.406C245.613 92.9952 246.182 95.3773 247.322 97.5522C248.565 99.7272 250.118 101.488 251.982 102.834C253.847 104.077 255.918 104.698 258.196 104.698ZM183.317 105.786L226.971 54.0535L267.984 0.767612L276.062 7.75848L233.185 58.8694L191.239 112.932L183.317 105.786Z" fill="black"/>
</svg>
