<svg width="284" height="114" viewBox="0 0 284 114" fill="none" xmlns="http://www.w3.org/2000/svg">
<path d="M53.5679 17.3903H0.126632V1.69972H80.5992L25.2937 112H6.03003L53.5679 17.3903ZM85.0814 39.1397C85.0814 45.9752 86.7385 52.1893 90.0527 57.782C93.4704 63.3747 98.0792 67.8281 103.879 71.1423C109.782 74.4565 116.255 76.1136 123.298 76.1136C127.234 76.1136 130.859 75.4922 134.173 74.2493C137.591 73.0065 140.594 71.2459 143.183 68.9674C145.772 66.6889 147.792 64.0479 149.242 61.0444C149.242 68.9156 148.154 75.6993 145.98 81.3956C143.805 86.9882 140.801 91.2345 136.969 94.1345C133.137 97.0344 128.632 98.4843 123.453 98.4843C118.482 98.4843 113.873 97.1897 109.627 94.6005C105.381 92.0113 102.067 88.5936 99.6845 84.3473L89.5866 94.9112C93.2115 100.815 97.9756 105.423 103.879 108.738C109.782 111.948 116.255 113.554 123.298 113.554C131.791 113.554 139.144 111.171 145.358 106.407C151.676 101.54 156.544 94.3934 159.961 84.9687C163.483 75.5439 165.243 63.7889 165.243 49.7036C165.243 39.4504 163.534 30.6989 160.117 23.4491C156.802 16.1993 152.142 10.6584 146.135 6.82635C140.232 2.89076 133.189 0.922962 125.007 0.922962C117.55 0.922962 110.766 2.63184 104.656 6.04959C98.6488 9.36378 93.8847 13.9208 90.3634 19.7206C86.842 25.5204 85.0814 31.9935 85.0814 39.1397ZM124.852 15.3707C129.098 15.3707 132.982 16.4582 136.503 18.6331C140.128 20.8081 143.028 23.708 145.203 27.3329C147.378 30.8542 148.465 34.7898 148.465 39.1397C148.465 43.2824 147.378 47.1144 145.203 50.6358C143.131 54.1571 140.283 57.0052 136.658 59.1802C133.137 61.2515 129.253 62.2872 125.007 62.2872C120.761 62.2872 116.825 61.2515 113.2 59.1802C109.679 57.0052 106.831 54.1571 104.656 50.6358C102.584 47.1144 101.549 43.2306 101.549 38.9843C101.549 34.738 102.584 30.8024 104.656 27.1775C106.831 23.5526 109.679 20.7045 113.2 18.6331C116.722 16.4582 120.605 15.3707 124.852 15.3707ZM201.665 46.2859C197.108 46.2859 192.913 45.2502 189.081 43.1788C185.353 41.1075 182.349 38.3629 180.071 34.9452C177.896 31.4238 176.809 27.54 176.809 23.2937C176.809 18.9439 177.896 15.06 180.071 11.6423C182.349 8.12096 185.353 5.32462 189.081 3.25325C192.913 1.18188 197.108 0.1462 201.665 0.1462C206.222 0.1462 210.365 1.18188 214.093 3.25325C217.822 5.32462 220.773 8.12096 222.948 11.6423C225.123 15.06 226.211 18.8921 226.211 23.1384C226.211 27.3847 225.123 31.2685 222.948 34.7898C220.773 38.3111 217.822 41.1075 214.093 43.1788C210.365 45.2502 206.222 46.2859 201.665 46.2859ZM201.51 37.4308C203.892 37.4308 206.015 36.8094 207.879 35.5666C209.847 34.2202 211.349 32.4595 212.384 30.2846C213.524 28.1096 214.093 25.7794 214.093 23.2937C214.093 20.6009 213.524 18.1671 212.384 15.9922C211.245 13.8172 209.691 12.1083 207.724 10.8655C205.859 9.6227 203.84 9.00129 201.665 9.00129C199.283 9.00129 197.108 9.67448 195.14 11.0209C193.276 12.2637 191.774 13.9726 190.635 16.1475C189.496 18.3224 188.926 20.6527 188.926 23.1384C188.926 25.8311 189.496 28.265 190.635 30.4399C191.878 32.5113 193.431 34.2202 195.295 35.5666C197.263 36.8094 199.335 37.4308 201.51 37.4308ZM258.679 113.554C254.122 113.554 249.98 112.518 246.251 110.446C242.523 108.375 239.519 105.579 237.241 102.057C235.066 98.5361 233.978 94.6523 233.978 90.406C233.978 86.1597 235.066 82.3277 237.241 78.9099C239.519 75.3886 242.523 72.5922 246.251 70.5209C249.98 68.4495 254.122 67.4138 258.679 67.4138C263.34 67.4138 267.534 68.4495 271.263 70.5209C274.991 72.4887 277.943 75.2332 280.118 78.7546C282.293 82.2759 283.38 86.1597 283.38 90.406C283.38 94.6523 282.293 98.5361 280.118 102.057C277.943 105.579 274.991 108.375 271.263 110.446C267.534 112.518 263.34 113.554 258.679 113.554ZM258.679 104.698C261.061 104.698 263.185 104.025 265.049 102.679C267.017 101.332 268.518 99.6236 269.554 97.5522C270.693 95.3773 271.263 93.047 271.263 90.5614C271.263 87.8686 270.693 85.4347 269.554 83.2598C268.415 81.0849 266.861 79.376 264.893 78.1332C263.029 76.8903 260.958 76.2689 258.679 76.2689C256.401 76.2689 254.278 76.9421 252.31 78.2885C250.446 79.5313 248.944 81.2402 247.805 83.4151C246.665 85.5901 246.096 87.9204 246.096 90.406C246.096 92.9952 246.665 95.3773 247.805 97.5522C249.047 99.7272 250.601 101.488 252.465 102.834C254.329 104.077 256.401 104.698 258.679 104.698ZM183.799 105.786L227.453 54.0535L268.467 0.767612L276.545 7.75848L233.668 58.8694L191.722 112.932L183.799 105.786Z" fill="black"/>
</svg>
