<svg width="649" height="67" viewBox="0 0 649 67" fill="none" xmlns="http://www.w3.org/2000/svg">
<g clip-path="url(#clip0_448_6806)">
<rect width="649" height="67" rx="1.675" fill="white"/>
<g filter="url(#filter0_i_448_6806)">
<rect width="1390.25" height="67" transform="translate(-740)" fill="white"/>
<rect width="192.625" height="67" transform="translate(-187.25)" fill="#B719DE" fill-opacity="0.1"/>
<rect width="137.35" height="67" transform="translate(8.72461)" fill="#B719DE" fill-opacity="0.1"/>
<path d="M23.0898 33.465C23.0898 32.0848 23.3913 30.852 23.9943 29.7666C24.5973 28.6678 25.4214 27.8169 26.4666 27.2139C27.5118 26.5975 28.6776 26.2893 29.964 26.2893C31.5318 26.2893 32.8718 26.6645 33.984 27.4149C35.1096 28.1519 35.927 29.1971 36.4362 30.5505H34.788C34.386 29.5991 33.7696 28.8554 32.9388 28.3194C32.1214 27.7834 31.1298 27.5154 29.964 27.5154C28.9322 27.5154 28.0009 27.7566 27.1701 28.239C26.3527 28.7214 25.7095 29.4182 25.2405 30.3294C24.7715 31.2272 24.537 32.2724 24.537 33.465C24.537 34.6576 24.7715 35.7028 25.2405 36.6006C25.7095 37.4984 26.3527 38.1885 27.1701 38.6709C28.0009 39.1533 28.9322 39.3945 29.964 39.3945C31.1298 39.3945 32.1214 39.1332 32.9388 38.6106C33.7696 38.0746 34.386 37.3376 34.788 36.3996H36.4362C35.927 37.7396 35.1096 38.7781 33.984 39.5151C32.8584 40.2521 31.5184 40.6206 29.964 40.6206C28.6776 40.6206 27.5118 40.3191 26.4666 39.7161C25.4214 39.0997 24.5973 38.2488 23.9943 37.1634C23.3913 36.078 23.0898 34.8452 23.0898 33.465ZM39.0154 34.9926C39.0154 33.867 39.2365 32.8821 39.6787 32.0379C40.1343 31.1803 40.7574 30.5237 41.548 30.0681C42.352 29.5991 43.2565 29.3646 44.2615 29.3646C45.3067 29.3646 46.2045 29.6058 46.9549 30.0882C47.7187 30.5706 48.2681 31.187 48.6031 31.9374V29.5254H50.0101V40.5H48.6031V38.0679C48.2547 38.8183 47.6986 39.4414 46.9348 39.9372C46.1844 40.4196 45.2866 40.6608 44.2414 40.6608C43.2498 40.6608 42.352 40.4263 41.548 39.9573C40.7574 39.4883 40.1343 38.825 39.6787 37.9674C39.2365 37.1098 39.0154 36.1182 39.0154 34.9926ZM48.6031 35.0127C48.6031 34.1283 48.4222 33.3511 48.0604 32.6811C47.6986 32.0111 47.2028 31.4952 46.573 31.1334C45.9566 30.7716 45.2732 30.5907 44.5228 30.5907C43.7456 30.5907 43.0488 30.7649 42.4324 31.1133C41.816 31.4617 41.3269 31.9709 40.9651 32.6409C40.6167 33.2975 40.4425 34.0814 40.4425 34.9926C40.4425 35.8904 40.6167 36.681 40.9651 37.3644C41.3269 38.0344 41.816 38.5503 42.4324 38.9121C43.0488 39.2605 43.7456 39.4347 44.5228 39.4347C45.2732 39.4347 45.9566 39.2538 46.573 38.892C47.2028 38.5302 47.6986 38.0143 48.0604 37.3443C48.4222 36.6743 48.6031 35.8971 48.6031 35.0127ZM55.0479 31.4751C55.3561 30.7917 55.8251 30.2624 56.4549 29.8872C57.0981 29.512 57.882 29.3244 58.8066 29.3244V30.7917H58.4247C57.4063 30.7917 56.5889 31.0664 55.9725 31.6158C55.3561 32.1652 55.0479 33.0831 55.0479 34.3695V40.5H53.6409V29.5254H55.0479V31.4751ZM63.1711 30.7113V37.5252C63.1711 38.1952 63.2984 38.6575 63.553 38.9121C63.8076 39.1667 64.2565 39.294 64.8997 39.294H66.1861V40.5H64.6786C63.687 40.5 62.95 40.2722 62.4676 39.8166C61.9852 39.3476 61.744 38.5838 61.744 37.5252V30.7113H60.2164V29.5254H61.744V26.7717H63.1711V29.5254H66.1861V30.7113H63.1711ZM70.3323 31.4751C70.6405 30.7917 71.1095 30.2624 71.7393 29.8872C72.3825 29.512 73.1664 29.3244 74.091 29.3244V30.7917H73.7091C72.6907 30.7917 71.8733 31.0664 71.2569 31.6158C70.6405 32.1652 70.3323 33.0831 70.3323 34.3695V40.5H68.9253V29.5254H70.3323V31.4751ZM77.3299 27.4551C77.0485 27.4551 76.8073 27.3546 76.6063 27.1536C76.4053 26.9526 76.3048 26.7047 76.3048 26.4099C76.3048 26.1151 76.4053 25.8739 76.6063 25.6863C76.8073 25.4853 77.0485 25.3848 77.3299 25.3848C77.6113 25.3848 77.8525 25.4853 78.0535 25.6863C78.2545 25.8739 78.355 26.1151 78.355 26.4099C78.355 26.7047 78.2545 26.9526 78.0535 27.1536C77.8525 27.3546 77.6113 27.4551 77.3299 27.4551ZM78.0334 29.5254V40.5H76.6264V29.5254H78.0334ZM80.9951 34.9926C80.9951 33.867 81.2229 32.8821 81.6785 32.0379C82.1341 31.1803 82.7572 30.5237 83.5478 30.0681C84.3518 29.5991 85.2563 29.3646 86.2613 29.3646C87.2261 29.3646 88.0971 29.5991 88.8743 30.0681C89.6515 30.5371 90.221 31.1468 90.5828 31.8972V25.626H91.9898V40.5H90.5828V38.0478C90.2478 38.8116 89.6984 39.4414 88.9346 39.9372C88.1708 40.4196 87.273 40.6608 86.2412 40.6608C85.2362 40.6608 84.3317 40.4263 83.5277 39.9573C82.7371 39.4883 82.114 38.825 81.6584 37.9674C81.2162 37.1098 80.9951 36.1182 80.9951 34.9926ZM90.5828 35.0127C90.5828 34.1283 90.4019 33.3511 90.0401 32.6811C89.6783 32.0111 89.1825 31.4952 88.5527 31.1334C87.9363 30.7716 87.2529 30.5907 86.5025 30.5907C85.7253 30.5907 85.0285 30.7649 84.4121 31.1133C83.7957 31.4617 83.3066 31.9709 82.9448 32.6409C82.5964 33.2975 82.4222 34.0814 82.4222 34.9926C82.4222 35.8904 82.5964 36.681 82.9448 37.3644C83.3066 38.0344 83.7957 38.5503 84.4121 38.9121C85.0285 39.2605 85.7253 39.4347 86.5025 39.4347C87.2529 39.4347 87.9363 39.2538 88.5527 38.892C89.1825 38.5302 89.6783 38.0143 90.0401 37.3443C90.4019 36.6743 90.5828 35.8971 90.5828 35.0127ZM100.223 29.3646C101.255 29.3646 102.153 29.6058 102.917 30.0882C103.681 30.5706 104.23 31.1803 104.565 31.9173V29.5254H105.972V40.7814C105.972 41.7864 105.751 42.6775 105.309 43.4547C104.88 44.2319 104.277 44.8282 103.5 45.2436C102.723 45.6724 101.838 45.8868 100.847 45.8868C99.4396 45.8868 98.2671 45.5518 97.3291 44.8818C96.4045 44.2118 95.8283 43.3006 95.6005 42.1482H96.9874C97.2286 42.912 97.6842 43.5217 98.3542 43.9773C99.0376 44.4329 99.8684 44.6607 100.847 44.6607C101.557 44.6607 102.193 44.5066 102.756 44.1984C103.319 43.9036 103.761 43.4614 104.083 42.8718C104.404 42.2822 104.565 41.5854 104.565 40.7814V38.0679C104.217 38.8183 103.661 39.4414 102.897 39.9372C102.146 40.4196 101.255 40.6608 100.223 40.6608C99.2185 40.6608 98.314 40.4263 97.51 39.9573C96.7194 39.4883 96.0963 38.825 95.6407 37.9674C95.1985 37.1098 94.9774 36.1182 94.9774 34.9926C94.9774 33.867 95.1985 32.8821 95.6407 32.0379C96.0963 31.1803 96.7194 30.5237 97.51 30.0681C98.314 29.5991 99.2185 29.3646 100.223 29.3646ZM104.565 35.0127C104.565 34.1283 104.384 33.3511 104.022 32.6811C103.661 32.0111 103.165 31.4952 102.535 31.1334C101.919 30.7716 101.235 30.5907 100.485 30.5907C99.7076 30.5907 99.0108 30.7649 98.3944 31.1133C97.778 31.4617 97.2889 31.9709 96.9271 32.6409C96.5787 33.2975 96.4045 34.0814 96.4045 34.9926C96.4045 35.8904 96.5787 36.681 96.9271 37.3644C97.2889 38.0344 97.778 38.5503 98.3944 38.9121C99.0108 39.2605 99.7076 39.4347 100.485 39.4347C101.235 39.4347 101.919 39.2538 102.535 38.892C103.165 38.5302 103.661 38.0143 104.022 37.3443C104.384 36.6743 104.565 35.8971 104.565 35.0127ZM119.532 34.4499C119.532 34.9323 119.519 35.3008 119.492 35.5554H110.387C110.427 36.3862 110.628 37.0964 110.99 37.686C111.352 38.2756 111.827 38.7245 112.417 39.0327C113.007 39.3275 113.65 39.4749 114.347 39.4749C115.258 39.4749 116.022 39.2538 116.638 38.8116C117.268 38.3694 117.683 37.7731 117.884 37.0227H119.372C119.104 38.0947 118.527 38.9724 117.643 39.6558C116.772 40.3258 115.673 40.6608 114.347 40.6608C113.315 40.6608 112.39 40.433 111.573 39.9774C110.755 39.5084 110.112 38.8518 109.643 38.0076C109.188 37.15 108.96 36.1517 108.96 35.0127C108.96 33.8737 109.188 32.8754 109.643 32.0178C110.099 31.1602 110.735 30.5036 111.553 30.048C112.37 29.5924 113.301 29.3646 114.347 29.3646C115.392 29.3646 116.303 29.5924 117.08 30.048C117.871 30.5036 118.474 31.12 118.889 31.8972C119.318 32.661 119.532 33.5119 119.532 34.4499ZM118.105 34.4097C118.119 33.5923 117.951 32.8955 117.603 32.3193C117.268 31.7431 116.805 31.3076 116.216 31.0128C115.626 30.718 114.983 30.5706 114.286 30.5706C113.241 30.5706 112.35 30.9056 111.613 31.5756C110.876 32.2456 110.467 33.1903 110.387 34.4097H118.105Z" fill="black"/>
<rect width="164.15" height="67" transform="translate(149.426)" fill="#B719DE" fill-opacity="0.1"/>
<path d="M173.218 27.2943H165.861V32.4399C166.196 31.9709 166.685 31.589 167.329 31.2942C167.972 30.986 168.669 30.8319 169.419 30.8319C170.518 30.8319 171.416 31.0597 172.112 31.5153C172.809 31.9575 173.312 32.5404 173.62 33.264C173.928 33.9742 174.082 34.738 174.082 35.5554C174.082 36.4934 173.901 37.3443 173.539 38.1081C173.191 38.8585 172.648 39.4548 171.911 39.897C171.188 40.3392 170.283 40.5603 169.198 40.5603C167.818 40.5603 166.699 40.2052 165.841 39.495C164.984 38.7714 164.461 37.7999 164.273 36.5805H165.66C165.834 37.4649 166.236 38.1483 166.866 38.6307C167.496 39.1131 168.273 39.3543 169.198 39.3543C170.364 39.3543 171.241 39.0126 171.831 38.3292C172.434 37.6324 172.735 36.7145 172.735 35.5755C172.735 34.4633 172.434 33.599 171.831 32.9826C171.228 32.3528 170.364 32.0379 169.238 32.0379C168.461 32.0379 167.777 32.2188 167.188 32.5806C166.598 32.9424 166.163 33.4315 165.881 34.0479H164.555V26.0682H173.218V27.2943ZM176.957 33.1635C176.957 30.8587 177.312 29.0698 178.022 27.7968C178.732 26.5238 180.005 25.8873 181.841 25.8873C183.677 25.8873 184.95 26.5238 185.66 27.7968C186.37 29.0698 186.725 30.8587 186.725 33.1635C186.725 35.5085 186.37 37.3242 185.66 38.6106C184.95 39.897 183.677 40.5402 181.841 40.5402C179.992 40.5402 178.712 39.897 178.002 38.6106C177.305 37.3242 176.957 35.5085 176.957 33.1635ZM185.339 33.1635C185.339 31.9173 185.251 30.8654 185.077 30.0078C184.903 29.1502 184.561 28.4601 184.052 27.9375C183.543 27.4149 182.806 27.1536 181.841 27.1536C180.876 27.1536 180.139 27.4149 179.63 27.9375C179.121 28.4601 178.779 29.1502 178.605 30.0078C178.431 30.8654 178.344 31.9173 178.344 33.1635C178.344 34.4499 178.431 35.5286 178.605 36.3996C178.779 37.2572 179.121 37.9473 179.63 38.4699C180.139 38.9925 180.876 39.2538 181.841 39.2538C182.806 39.2538 183.543 38.9925 184.052 38.4699C184.561 37.9473 184.903 37.2572 185.077 36.3996C185.251 35.5286 185.339 34.4499 185.339 33.1635Z" fill="black"/>
<rect width="160.8" height="67" transform="translate(316.926)" fill="#B719DE" fill-opacity="0.1"/>
<path d="M331.351 39.3945C333.817 37.5453 335.72 35.8904 337.06 34.4298C338.413 32.9558 339.09 31.5153 339.09 30.1083C339.09 29.1837 338.855 28.4467 338.386 27.8973C337.931 27.3345 337.18 27.0531 336.135 27.0531C335.117 27.0531 334.326 27.3747 333.763 28.0179C333.214 28.6477 332.906 29.4919 332.839 30.5505H331.472C331.552 29.0631 332.008 27.9107 332.839 27.0933C333.683 26.2625 334.782 25.8471 336.135 25.8471C337.435 25.8471 338.487 26.2156 339.291 26.9526C340.095 27.6762 340.497 28.708 340.497 30.048C340.497 31.6694 339.82 33.2439 338.467 34.7715C337.127 36.2857 335.472 37.7664 333.502 39.2136H340.939V40.3995H331.351V39.3945ZM343.273 39.3945C345.738 37.5453 347.641 35.8904 348.981 34.4298C350.334 32.9558 351.011 31.5153 351.011 30.1083C351.011 29.1837 350.777 28.4467 350.308 27.8973C349.852 27.3345 349.102 27.0531 348.056 27.0531C347.038 27.0531 346.247 27.3747 345.685 28.0179C345.135 28.6477 344.827 29.4919 344.76 30.5505H343.393C343.474 29.0631 343.929 27.9107 344.76 27.0933C345.604 26.2625 346.703 25.8471 348.056 25.8471C349.356 25.8471 350.408 26.2156 351.212 26.9526C352.016 27.6762 352.418 28.708 352.418 30.048C352.418 31.6694 351.741 33.2439 350.388 34.7715C349.048 36.2857 347.393 37.7664 345.423 39.2136H352.86V40.3995H343.273V39.3945ZM362.028 21.606L356.48 43.8366H355.093L360.601 21.606H362.028ZM364.766 33.1635C364.766 30.8587 365.121 29.0698 365.832 27.7968C366.542 26.5238 367.815 25.8873 369.651 25.8873C371.486 25.8873 372.759 26.5238 373.47 27.7968C374.18 29.0698 374.535 30.8587 374.535 33.1635C374.535 35.5085 374.18 37.3242 373.47 38.6106C372.759 39.897 371.486 40.5402 369.651 40.5402C367.801 40.5402 366.522 39.897 365.811 38.6106C365.115 37.3242 364.766 35.5085 364.766 33.1635ZM373.148 33.1635C373.148 31.9173 373.061 30.8654 372.887 30.0078C372.712 29.1502 372.371 28.4601 371.862 27.9375C371.352 27.4149 370.615 27.1536 369.651 27.1536C368.686 27.1536 367.949 27.4149 367.44 27.9375C366.93 28.4601 366.589 29.1502 366.414 30.0078C366.24 30.8654 366.153 31.9173 366.153 33.1635C366.153 34.4499 366.24 35.5286 366.414 36.3996C366.589 37.2572 366.93 37.9473 367.44 38.4699C367.949 38.9925 368.686 39.2538 369.651 39.2538C370.615 39.2538 371.352 38.9925 371.862 38.4699C372.371 37.9473 372.712 37.2572 372.887 36.3996C373.061 35.5286 373.148 34.4499 373.148 33.1635ZM386.656 27.2943H379.299V32.4399C379.634 31.9709 380.124 31.589 380.767 31.2942C381.41 30.986 382.107 30.8319 382.857 30.8319C383.956 30.8319 384.854 31.0597 385.551 31.5153C386.247 31.9575 386.75 32.5404 387.058 33.264C387.366 33.9742 387.52 34.738 387.52 35.5554C387.52 36.4934 387.339 37.3443 386.978 38.1081C386.629 38.8585 386.087 39.4548 385.35 39.897C384.626 40.3392 383.721 40.5603 382.636 40.5603C381.256 40.5603 380.137 40.2052 379.279 39.495C378.422 38.7714 377.899 37.7999 377.712 36.5805H379.098C379.273 37.4649 379.675 38.1483 380.304 38.6307C380.934 39.1131 381.711 39.3543 382.636 39.3543C383.802 39.3543 384.68 39.0126 385.269 38.3292C385.872 37.6324 386.174 36.7145 386.174 35.5755C386.174 34.4633 385.872 33.599 385.269 32.9826C384.666 32.3528 383.802 32.0379 382.676 32.0379C381.899 32.0379 381.216 32.2188 380.626 32.5806C380.036 32.9424 379.601 33.4315 379.32 34.0479H377.993V26.0682H386.656V27.2943ZM396.948 21.606L391.4 43.8366H390.013L395.521 21.606H396.948ZM399.405 39.3945C401.87 37.5453 403.773 35.8904 405.113 34.4298C406.466 32.9558 407.143 31.5153 407.143 30.1083C407.143 29.1837 406.909 28.4467 406.44 27.8973C405.984 27.3345 405.234 27.0531 404.188 27.0531C403.17 27.0531 402.379 27.3747 401.817 28.0179C401.267 28.6477 400.959 29.4919 400.892 30.5505H399.525C399.606 29.0631 400.061 27.9107 400.892 27.0933C401.736 26.2625 402.835 25.8471 404.188 25.8471C405.488 25.8471 406.54 26.2156 407.344 26.9526C408.148 27.6762 408.55 28.708 408.55 30.048C408.55 31.6694 407.873 33.2439 406.52 34.7715C405.18 36.2857 403.525 37.7664 401.555 39.2136H408.992V40.3995H399.405V39.3945ZM411.547 29.7666C411.641 28.5472 412.11 27.5891 412.954 26.8923C413.812 26.1821 414.917 25.827 416.271 25.827C417.168 25.827 417.939 25.9878 418.582 26.3094C419.225 26.631 419.708 27.0732 420.029 27.636C420.364 28.1854 420.532 28.8085 420.532 29.5053C420.532 30.3495 420.284 31.0798 419.788 31.6962C419.292 32.3126 418.589 32.6945 417.678 32.8419V32.9424C418.629 33.13 419.386 33.5454 419.949 34.1886C420.512 34.8184 420.793 35.6492 420.793 36.681C420.793 37.8334 420.404 38.7781 419.627 39.5151C418.863 40.2387 417.751 40.6005 416.291 40.6005C414.897 40.6005 413.751 40.2387 412.854 39.5151C411.956 38.7781 411.44 37.7396 411.306 36.3996H412.673C412.793 37.2974 413.168 38.0277 413.798 38.5905C414.428 39.1399 415.259 39.4146 416.291 39.4146C417.309 39.4146 418.086 39.1466 418.622 38.6106C419.172 38.0746 419.446 37.3912 419.446 36.5604C419.446 34.5236 417.979 33.5052 415.044 33.5052H414.602V32.3193H415.065C417.798 32.3193 419.165 31.4282 419.165 29.646C419.165 28.8688 418.91 28.2457 418.401 27.7767C417.892 27.2943 417.168 27.0531 416.23 27.0531C415.319 27.0531 414.562 27.2943 413.959 27.7767C413.369 28.2457 413.021 28.909 412.914 29.7666H411.547Z" fill="black"/>
<rect width="169.175" height="67" transform="translate(481.074)" fill="#B719DE" fill-opacity="0.1"/>
<rect x="532.162" y="5.02539" width="67" height="56.95" rx="13.4" fill="#F8E8FC"/>
<circle cx="567.336" cy="33.5004" r="20.1" fill="#62C655"/>
</g>
</g>
<defs>
<filter id="filter0_i_448_6806" x="-740" y="0" width="1390.25" height="67" filterUnits="userSpaceOnUse" color-interpolation-filters="sRGB">
<feFlood flood-opacity="0" result="BackgroundImageFix"/>
<feBlend mode="normal" in="SourceGraphic" in2="BackgroundImageFix" result="shape"/>
<feColorMatrix in="SourceAlpha" type="matrix" values="0 0 0 0 0 0 0 0 0 0 0 0 0 0 0 0 0 0 127 0" result="hardAlpha"/>
<feOffset dy="-1.6415"/>
<feComposite in2="hardAlpha" operator="arithmetic" k2="-1" k3="1"/>
<feColorMatrix type="matrix" values="0 0 0 0 0 0 0 0 0 0 0 0 0 0 0 0 0 0 0.25 0"/>
<feBlend mode="normal" in2="shape" result="effect1_innerShadow_448_6806"/>
</filter>
<clipPath id="clip0_448_6806">
<rect width="649" height="67" rx="1.675" fill="white"/>
</clipPath>
</defs>
</svg>
