<svg width="569" height="486" viewBox="0 0 569 486" fill="none" xmlns="http://www.w3.org/2000/svg">
<path d="M14.8631 204.117C14.8631 171.774 20.6587 146.441 32.25 128.119C44.0283 109.798 63.4718 100.637 90.5805 100.637C117.689 100.637 137.039 109.798 148.631 128.119C160.409 146.441 166.298 171.774 166.298 204.117C166.298 236.648 160.409 262.167 148.631 280.676C137.039 299.185 117.689 308.439 90.5805 308.439C63.4718 308.439 44.0283 299.185 32.25 280.676C20.6587 262.167 14.8631 236.648 14.8631 204.117ZM127.598 204.117C127.598 190.282 126.663 178.691 124.794 169.343C123.111 159.809 119.559 152.05 114.137 146.067C108.902 140.085 101.05 137.093 90.5805 137.093C80.111 137.093 72.1653 140.085 66.7436 146.067C61.5088 152.05 57.9566 159.809 56.087 169.343C54.4044 178.691 53.5631 190.282 53.5631 204.117C53.5631 218.326 54.4044 230.291 56.087 240.013C57.7696 249.548 61.3218 257.306 66.7436 263.289C72.1653 269.085 80.111 271.983 90.5805 271.983C101.05 271.983 108.996 269.085 114.418 263.289C119.839 257.306 123.391 249.548 125.074 240.013C126.757 230.291 127.598 218.326 127.598 204.117ZM188.869 154.761C188.869 140.552 192.982 129.428 201.208 121.389C209.621 113.35 220.371 109.33 233.458 109.33C246.545 109.33 257.201 113.35 265.427 121.389C273.841 129.428 278.047 140.552 278.047 154.761C278.047 169.156 273.841 180.374 265.427 188.413C257.201 196.452 246.545 200.472 233.458 200.472C220.371 200.472 209.621 196.452 201.208 188.413C192.982 180.374 188.869 169.156 188.869 154.761ZM368.908 112.695L258.697 309H220.558L330.488 112.695H368.908ZM233.177 132.887C222.895 132.887 217.753 140.178 217.753 154.761C217.753 169.53 222.895 176.915 233.177 176.915C238.225 176.915 242.151 175.139 244.956 171.587C247.76 167.848 249.162 162.239 249.162 154.761C249.162 140.178 243.834 132.887 233.177 132.887ZM311.98 266.654C311.98 252.259 316.093 241.135 324.319 233.283C332.732 225.243 343.482 221.224 356.569 221.224C369.656 221.224 380.219 225.243 388.258 233.283C396.484 241.135 400.597 252.259 400.597 266.654C400.597 281.05 396.484 292.267 388.258 300.307C380.219 308.346 369.656 312.365 356.569 312.365C343.295 312.365 332.545 308.346 324.319 300.307C316.093 292.267 311.98 281.05 311.98 266.654ZM356.288 244.78C345.632 244.78 340.304 252.072 340.304 266.654C340.304 281.424 345.632 288.809 356.288 288.809C366.758 288.809 371.993 281.424 371.993 266.654C371.993 252.072 366.758 244.78 356.288 244.78Z" fill="#FF6058"/>
<path d="M31.2921 343.912V346.746H24.0157V370.604H20.5308V346.746H13.2161V343.912H31.2921ZM38.6839 353.026C39.2966 351.826 40.1647 350.895 41.288 350.231C42.4369 349.567 43.8283 349.235 45.4623 349.235V352.835H44.5432C40.637 352.835 38.6839 354.954 38.6839 359.192V370.604H35.1989V349.618H38.6839V353.026ZM47.8002 360.035C47.8002 357.89 48.2342 356.014 49.1023 354.405C49.9703 352.771 51.1575 351.507 52.6638 350.614C54.1957 349.72 55.8935 349.273 57.7573 349.273C59.5955 349.273 61.1912 349.669 62.5443 350.461C63.8975 351.252 64.9059 352.248 65.5697 353.448V349.618H69.093V370.604H65.5697V366.698C64.8804 367.924 63.8464 368.945 62.4677 369.762C61.1146 370.553 59.5317 370.949 57.719 370.949C55.8552 370.949 54.1702 370.49 52.6638 369.57C51.1575 368.651 49.9703 367.362 49.1023 365.703C48.2342 364.043 47.8002 362.154 47.8002 360.035ZM65.5697 360.073C65.5697 358.49 65.2506 357.111 64.6123 355.937C63.9741 354.763 63.106 353.869 62.0082 353.256C60.9359 352.618 59.7487 352.299 58.4466 352.299C57.1445 352.299 55.9573 352.605 54.885 353.218C53.8127 353.831 52.9575 354.724 52.3192 355.899C51.6809 357.073 51.3618 358.452 51.3618 360.035C51.3618 361.643 51.6809 363.047 52.3192 364.247C52.9575 365.422 53.8127 366.328 54.885 366.966C55.9573 367.579 57.1445 367.885 58.4466 367.885C59.7487 367.885 60.9359 367.579 62.0082 366.966C63.106 366.328 63.9741 365.422 64.6123 364.247C65.2506 363.047 65.5697 361.656 65.5697 360.073ZM73.2972 360.073C73.2972 357.903 73.7313 356.014 74.5993 354.405C75.4674 352.771 76.6673 351.507 78.1992 350.614C79.7566 349.72 81.531 349.273 83.5224 349.273C86.101 349.273 88.2201 349.899 89.8796 351.15C91.5646 352.401 92.6752 354.137 93.2114 356.358H89.4583C89.1009 355.082 88.3988 354.073 87.352 353.333C86.3308 352.592 85.0542 352.222 83.5224 352.222C81.531 352.222 79.9225 352.912 78.697 354.29C77.4715 355.643 76.8588 357.571 76.8588 360.073C76.8588 362.601 77.4715 364.554 78.697 365.932C79.9225 367.311 81.531 368 83.5224 368C85.0542 368 86.3308 367.643 87.352 366.928C88.3733 366.213 89.0754 365.192 89.4583 363.864H93.2114C92.6497 366.009 91.5263 367.732 89.8413 369.034C88.1562 370.311 86.0499 370.949 83.5224 370.949C81.531 370.949 79.7566 370.502 78.1992 369.609C76.6673 368.715 75.4674 367.451 74.5993 365.817C73.7313 364.183 73.2972 362.269 73.2972 360.073ZM109.197 370.604L100.963 361.337V370.604H97.4784V342.265H100.963V358.924L109.044 349.618H113.908L104.027 360.073L113.946 370.604H109.197ZM152.008 349.388C154.382 349.388 156.322 350.154 157.829 351.686C159.335 353.192 160.088 355.439 160.088 358.426V370.604H158.403V358.541C158.403 356.065 157.803 354.175 156.603 352.873C155.429 351.546 153.808 350.882 151.74 350.882C149.595 350.882 147.872 351.622 146.57 353.103C145.268 354.584 144.617 356.728 144.617 359.537V370.604H142.931V358.541C142.931 356.065 142.332 354.175 141.132 352.873C139.957 351.546 138.336 350.882 136.268 350.882C134.123 350.882 132.4 351.622 131.098 353.103C129.796 354.584 129.145 356.728 129.145 359.537V370.604H127.421V349.81H129.145V354.329C129.732 352.695 130.677 351.469 131.979 350.652C133.306 349.81 134.825 349.388 136.536 349.388C138.425 349.388 140.046 349.886 141.4 350.882C142.778 351.852 143.723 353.295 144.234 355.209C144.719 353.295 145.663 351.852 147.068 350.882C148.472 349.886 150.118 349.388 152.008 349.388ZM164.749 360.188C164.749 358.043 165.17 356.167 166.013 354.558C166.881 352.95 168.068 351.712 169.574 350.844C171.106 349.975 172.842 349.541 174.782 349.541C176.978 349.541 178.842 350.078 180.374 351.15C181.906 352.222 182.978 353.588 183.591 355.248V349.81H185.314V370.604H183.591V365.128C182.978 366.813 181.893 368.205 180.335 369.302C178.804 370.375 176.953 370.911 174.782 370.911C172.842 370.911 171.106 370.477 169.574 369.609C168.068 368.715 166.881 367.464 166.013 365.856C165.17 364.222 164.749 362.332 164.749 360.188ZM183.591 360.188C183.591 358.375 183.208 356.779 182.442 355.401C181.701 353.997 180.68 352.924 179.378 352.184C178.076 351.418 176.621 351.035 175.012 351.035C173.327 351.035 171.846 351.405 170.57 352.146C169.293 352.86 168.298 353.907 167.583 355.286C166.868 356.665 166.51 358.299 166.51 360.188C166.51 362.077 166.868 363.711 167.583 365.09C168.298 366.468 169.293 367.528 170.57 368.268C171.872 369.009 173.353 369.379 175.012 369.379C176.621 369.379 178.076 369.009 179.378 368.268C180.706 367.502 181.74 366.43 182.48 365.052C183.22 363.647 183.591 362.026 183.591 360.188ZM193.772 351.303V365.052C193.772 366.583 194.053 367.643 194.614 368.23C195.176 368.792 196.172 369.073 197.601 369.073H199.938V370.604H197.333C195.521 370.604 194.18 370.183 193.312 369.341C192.47 368.473 192.048 367.043 192.048 365.052V351.303H188.908V349.81H192.048V344.525H193.772V349.81H199.938V351.303H193.772ZM222.826 358.809C222.826 359.728 222.801 360.418 222.75 360.877H204.789C204.84 362.741 205.248 364.311 206.014 365.588C206.78 366.864 207.789 367.822 209.04 368.46C210.291 369.098 211.657 369.417 213.138 369.417C215.18 369.417 216.891 368.919 218.269 367.924C219.648 366.903 220.516 365.524 220.873 363.788H222.673C222.265 365.907 221.218 367.63 219.533 368.958C217.848 370.26 215.716 370.911 213.138 370.911C211.197 370.911 209.461 370.477 207.929 369.609C206.397 368.741 205.197 367.502 204.329 365.894C203.461 364.26 203.027 362.358 203.027 360.188C203.027 358.018 203.449 356.128 204.291 354.52C205.159 352.912 206.359 351.686 207.891 350.844C209.423 349.975 211.172 349.541 213.138 349.541C215.129 349.541 216.852 349.975 218.308 350.844C219.788 351.686 220.912 352.822 221.678 354.252C222.444 355.656 222.826 357.175 222.826 358.809ZM221.103 359.46C221.18 357.622 220.848 356.065 220.107 354.788C219.393 353.512 218.41 352.567 217.159 351.954C215.908 351.316 214.554 350.997 213.099 350.997C211.644 350.997 210.291 351.316 209.04 351.954C207.814 352.567 206.806 353.512 206.014 354.788C205.248 356.065 204.84 357.622 204.789 359.46H221.103ZM229.375 354.099C229.886 352.567 230.792 351.405 232.094 350.614C233.396 349.797 235.056 349.388 237.073 349.388V351.188H236.498C234.456 351.188 232.758 351.775 231.405 352.95C230.052 354.099 229.375 355.988 229.375 358.618V370.604H227.652V349.81H229.375V354.099ZM241.538 345.176C241.13 345.176 240.785 345.048 240.504 344.793C240.224 344.512 240.083 344.142 240.083 343.682C240.083 343.248 240.224 342.891 240.504 342.61C240.785 342.329 241.13 342.189 241.538 342.189C241.947 342.189 242.292 342.329 242.572 342.61C242.853 342.891 242.994 343.248 242.994 343.682C242.994 344.142 242.853 344.512 242.572 344.793C242.292 345.048 241.947 345.176 241.538 345.176ZM242.381 349.81V370.604H240.658V349.81H242.381ZM247.243 360.188C247.243 358.043 247.664 356.167 248.507 354.558C249.375 352.95 250.562 351.712 252.068 350.844C253.6 349.975 255.336 349.541 257.277 349.541C259.472 349.541 261.336 350.078 262.868 351.15C264.4 352.222 265.472 353.588 266.085 355.248V349.81H267.808V370.604H266.085V365.128C265.472 366.813 264.387 368.205 262.83 369.302C261.298 370.375 259.447 370.911 257.277 370.911C255.336 370.911 253.6 370.477 252.068 369.609C250.562 368.715 249.375 367.464 248.507 365.856C247.664 364.222 247.243 362.332 247.243 360.188ZM266.085 360.188C266.085 358.375 265.702 356.779 264.936 355.401C264.196 353.997 263.174 352.924 261.872 352.184C260.57 351.418 259.115 351.035 257.507 351.035C255.822 351.035 254.341 351.405 253.064 352.146C251.788 352.86 250.792 353.907 250.077 355.286C249.362 356.665 249.005 358.299 249.005 360.188C249.005 362.077 249.362 363.711 250.077 365.09C250.792 366.468 251.788 367.528 253.064 368.268C254.366 369.009 255.847 369.379 257.507 369.379C259.115 369.379 260.57 369.009 261.872 368.268C263.2 367.502 264.234 366.43 264.974 365.052C265.715 363.647 266.085 362.026 266.085 360.188ZM275.424 342.265V370.604H273.7V342.265H275.424ZM292.664 345.176C292.256 345.176 291.911 345.048 291.63 344.793C291.349 344.512 291.209 344.142 291.209 343.682C291.209 343.248 291.349 342.891 291.63 342.61C291.911 342.329 292.256 342.189 292.664 342.189C293.073 342.189 293.417 342.329 293.698 342.61C293.979 342.891 294.119 343.248 294.119 343.682C294.119 344.142 293.979 344.512 293.698 344.793C293.417 345.048 293.073 345.176 292.664 345.176ZM293.507 349.81V370.604H291.783V349.81H293.507ZM308.824 349.388C311.3 349.388 313.317 350.154 314.875 351.686C316.432 353.192 317.211 355.439 317.211 358.426V370.604H315.526V358.541C315.526 356.065 314.9 354.175 313.649 352.873C312.398 351.546 310.7 350.882 308.556 350.882C306.309 350.882 304.509 351.597 303.156 353.026C301.828 354.456 301.165 356.575 301.165 359.384V370.604H299.441V349.81H301.165V354.214C301.752 352.656 302.722 351.469 304.075 350.652C305.454 349.81 307.037 349.388 308.824 349.388ZM329.965 368.728L337.624 349.81H339.463L330.846 370.604H329.046L320.429 349.81H322.306L329.965 368.728ZM361.608 358.809C361.608 359.728 361.582 360.418 361.531 360.877H343.57C343.621 362.741 344.03 364.311 344.795 365.588C345.561 366.864 346.57 367.822 347.821 368.46C349.072 369.098 350.438 369.417 351.919 369.417C353.961 369.417 355.672 368.919 357.05 367.924C358.429 366.903 359.297 365.524 359.654 363.788H361.454C361.046 365.907 359.999 367.63 358.314 368.958C356.629 370.26 354.497 370.911 351.919 370.911C349.978 370.911 348.242 370.477 346.71 369.609C345.178 368.741 343.978 367.502 343.11 365.894C342.242 364.26 341.808 362.358 341.808 360.188C341.808 358.018 342.23 356.128 343.072 354.52C343.94 352.912 345.14 351.686 346.672 350.844C348.204 349.975 349.953 349.541 351.919 349.541C353.91 349.541 355.633 349.975 357.089 350.844C358.569 351.686 359.693 352.822 360.459 354.252C361.225 355.656 361.608 357.175 361.608 358.809ZM359.884 359.46C359.961 357.622 359.629 356.065 358.889 354.788C358.174 353.512 357.191 352.567 355.94 351.954C354.689 351.316 353.336 350.997 351.88 350.997C350.425 350.997 349.072 351.316 347.821 351.954C346.595 352.567 345.587 353.512 344.795 354.788C344.03 356.065 343.621 357.622 343.57 359.46H359.884ZM375.816 349.388C378.292 349.388 380.309 350.154 381.866 351.686C383.424 353.192 384.203 355.439 384.203 358.426V370.604H382.517V358.541C382.517 356.065 381.892 354.175 380.641 352.873C379.39 351.546 377.692 350.882 375.548 350.882C373.301 350.882 371.501 351.597 370.148 353.026C368.82 354.456 368.156 356.575 368.156 359.384V370.604H366.433V349.81H368.156V354.214C368.744 352.656 369.714 351.469 371.067 350.652C372.446 349.81 374.028 349.388 375.816 349.388ZM392.476 351.303V365.052C392.476 366.583 392.757 367.643 393.319 368.23C393.881 368.792 394.876 369.073 396.306 369.073H398.642V370.604H396.038C394.225 370.604 392.885 370.183 392.017 369.341C391.174 368.473 390.753 367.043 390.753 365.052V351.303H387.613V349.81H390.753V344.525H392.476V349.81H398.642V351.303H392.476ZM411.957 370.911C410.017 370.911 408.268 370.477 406.71 369.609C405.153 368.741 403.927 367.502 403.034 365.894C402.166 364.26 401.732 362.358 401.732 360.188C401.732 358.043 402.179 356.167 403.072 354.558C403.966 352.924 405.191 351.686 406.749 350.844C408.332 349.975 410.093 349.541 412.034 349.541C413.974 349.541 415.723 349.975 417.28 350.844C418.838 351.686 420.05 352.912 420.918 354.52C421.812 356.128 422.259 358.018 422.259 360.188C422.259 362.358 421.812 364.26 420.918 365.894C420.025 367.502 418.786 368.741 417.204 369.609C415.646 370.477 413.897 370.911 411.957 370.911ZM411.957 369.379C413.463 369.379 414.867 369.047 416.17 368.383C417.497 367.694 418.557 366.66 419.348 365.281C420.14 363.903 420.535 362.205 420.535 360.188C420.535 358.196 420.14 356.511 419.348 355.133C418.557 353.754 417.51 352.733 416.208 352.069C414.906 351.38 413.502 351.035 411.995 351.035C410.489 351.035 409.085 351.38 407.783 352.069C406.506 352.733 405.472 353.754 404.681 355.133C403.889 356.511 403.493 358.196 403.493 360.188C403.493 362.205 403.876 363.903 404.642 365.281C405.434 366.66 406.468 367.694 407.744 368.383C409.046 369.047 410.451 369.379 411.957 369.379ZM428.828 354.099C429.338 352.567 430.245 351.405 431.547 350.614C432.849 349.797 434.508 349.388 436.525 349.388V351.188H435.951C433.908 351.188 432.211 351.775 430.857 352.95C429.504 354.099 428.828 355.988 428.828 358.618V370.604H427.104V349.81H428.828V354.099ZM456.348 349.81L444.246 380.37H442.485L446.353 370.604L437.621 349.81H439.497L447.31 368.69L454.586 349.81H456.348ZM497.426 349.81L490.877 370.604H489.231L482.605 352.184L475.942 370.604H474.295L467.746 349.81H469.546L475.138 368.651L481.801 349.81H483.448L490.073 368.575L495.665 349.81H497.426ZM501.7 345.176C501.291 345.176 500.947 345.048 500.666 344.793C500.385 344.512 500.245 344.142 500.245 343.682C500.245 343.248 500.385 342.891 500.666 342.61C500.947 342.329 501.291 342.189 501.7 342.189C502.108 342.189 502.453 342.329 502.734 342.61C503.015 342.891 503.155 343.248 503.155 343.682C503.155 344.142 503.015 344.512 502.734 344.793C502.453 345.048 502.108 345.176 501.7 345.176ZM502.542 349.81V370.604H500.819V349.81H502.542ZM511.043 351.303V365.052C511.043 366.583 511.323 367.643 511.885 368.23C512.447 368.792 513.443 369.073 514.872 369.073H517.208V370.604H514.604C512.791 370.604 511.451 370.183 510.583 369.341C509.741 368.473 509.319 367.043 509.319 365.052V351.303H506.179V349.81H509.319V344.525H511.043V349.81H517.208V351.303H511.043ZM530.791 349.388C533.242 349.388 535.246 350.154 536.804 351.686C538.361 353.192 539.14 355.439 539.14 358.426V370.604H537.455V358.541C537.455 356.065 536.829 354.175 535.578 352.873C534.327 351.546 532.63 350.882 530.485 350.882C528.238 350.882 526.438 351.597 525.085 353.026C523.758 354.456 523.094 356.575 523.094 359.384V370.604H521.37V342.265H523.094V354.214C523.681 352.656 524.664 351.469 526.043 350.652C527.421 349.81 529.004 349.388 530.791 349.388ZM13.9821 408.188C13.9821 406.043 14.4033 404.167 15.2459 402.558C16.1139 400.95 17.3011 399.712 18.8074 398.844C20.3393 397.975 22.0754 397.541 24.0157 397.541C26.2114 397.541 28.0752 398.078 29.607 399.15C31.1389 400.222 32.2112 401.588 32.8239 403.248V397.81H34.5472V418.604H32.8239V413.128C32.2112 414.813 31.1261 416.205 29.5687 417.302C28.0369 418.375 26.1859 418.911 24.0157 418.911C22.0754 418.911 20.3393 418.477 18.8074 417.609C17.3011 416.715 16.1139 415.464 15.2459 413.856C14.4033 412.222 13.9821 410.332 13.9821 408.188ZM32.8239 408.188C32.8239 406.375 32.4409 404.779 31.675 403.401C30.9346 401.997 29.9134 400.924 28.6113 400.184C27.3092 399.418 25.854 399.035 24.2455 399.035C22.5605 399.035 21.0797 399.405 19.8031 400.146C18.5266 400.86 17.5309 401.907 16.816 403.286C16.1011 404.665 15.7437 406.299 15.7437 408.188C15.7437 410.077 16.1011 411.711 16.816 413.09C17.5309 414.468 18.5266 415.528 19.8031 416.268C21.1052 417.009 22.586 417.379 24.2455 417.379C25.854 417.379 27.3092 417.009 28.6113 416.268C29.9389 415.502 30.9729 414.43 31.7133 413.052C32.4537 411.647 32.8239 410.026 32.8239 408.188ZM52.5879 403.286C53.1751 401.601 54.2346 400.222 55.7665 399.15C57.3238 398.078 59.2004 397.541 61.396 397.541C63.3364 397.541 65.0597 397.975 66.566 398.844C68.0979 399.712 69.2851 400.95 70.1276 402.558C70.9957 404.167 71.4297 406.043 71.4297 408.188C71.4297 410.332 70.9957 412.222 70.1276 413.856C69.2851 415.464 68.0979 416.715 66.566 417.609C65.0597 418.477 63.3364 418.911 61.396 418.911C59.2259 418.911 57.3621 418.375 55.8047 417.302C54.2729 416.205 53.2006 414.826 52.5879 413.166V428.408H50.8645V397.81H52.5879V403.286ZM69.6681 408.188C69.6681 406.299 69.3106 404.665 68.5958 403.286C67.8809 401.907 66.8724 400.86 65.5703 400.146C64.2938 399.405 62.813 399.035 61.128 399.035C59.5195 399.035 58.0642 399.418 56.7622 400.184C55.4601 400.924 54.4388 401.997 53.6984 403.401C52.958 404.779 52.5879 406.375 52.5879 408.188C52.5879 410.026 52.958 411.647 53.6984 413.052C54.4388 414.43 55.4601 415.502 56.7622 416.268C58.0642 417.009 59.5195 417.379 61.128 417.379C62.813 417.379 64.2938 417.009 65.5703 416.268C66.8724 415.528 67.8809 414.468 68.5958 413.09C69.3106 411.711 69.6681 410.077 69.6681 408.188ZM77.9727 402.099C78.4833 400.567 79.3897 399.405 80.6917 398.614C81.9938 397.797 83.6533 397.388 85.6703 397.388V399.188H85.0958C83.0534 399.188 81.3555 399.775 80.0024 400.95C78.6493 402.099 77.9727 403.988 77.9727 406.618V418.604H76.2494V397.81H77.9727V402.099ZM98.408 418.911C96.4677 418.911 94.7188 418.477 93.1614 417.609C91.604 416.741 90.3785 415.502 89.485 413.894C88.6169 412.26 88.1829 410.358 88.1829 408.188C88.1829 406.043 88.6297 404.167 89.5232 402.558C90.4168 400.924 91.6423 399.686 93.1997 398.844C94.7826 397.975 96.5443 397.541 98.4846 397.541C100.425 397.541 102.174 397.975 103.731 398.844C105.289 399.686 106.501 400.912 107.369 402.52C108.263 404.128 108.71 406.018 108.71 408.188C108.71 410.358 108.263 412.26 107.369 413.894C106.476 415.502 105.238 416.741 103.655 417.609C102.097 418.477 100.348 418.911 98.408 418.911ZM98.408 417.379C99.9143 417.379 101.319 417.047 102.621 416.383C103.948 415.694 105.008 414.66 105.799 413.281C106.591 411.903 106.986 410.205 106.986 408.188C106.986 406.196 106.591 404.511 105.799 403.133C105.008 401.754 103.961 400.733 102.659 400.069C101.357 399.38 99.9526 399.035 98.4463 399.035C96.94 399.035 95.5358 399.38 94.2337 400.069C92.9572 400.733 91.9232 401.754 91.1317 403.133C90.3402 404.511 89.9445 406.196 89.9445 408.188C89.9445 410.205 90.3275 411.903 91.0934 413.281C91.8849 414.66 92.9189 415.694 94.1954 416.383C95.4975 417.047 96.9017 417.379 98.408 417.379ZM122.517 397.541C124.712 397.541 126.576 398.078 128.108 399.15C129.64 400.197 130.712 401.55 131.325 403.209V397.81H133.048V419.256C133.048 421.17 132.627 422.843 131.785 424.272C130.942 425.728 129.806 426.838 128.376 427.604C126.946 428.396 125.351 428.791 123.589 428.791C120.985 428.791 118.828 428.166 117.117 426.915C115.406 425.664 114.283 423.979 113.747 421.86H115.47C115.981 423.519 116.938 424.834 118.342 425.804C119.747 426.8 121.496 427.298 123.589 427.298C125.044 427.298 126.359 426.966 127.534 426.302C128.708 425.664 129.627 424.732 130.291 423.506C130.98 422.306 131.325 420.89 131.325 419.256V413.166C130.712 414.826 129.627 416.205 128.07 417.302C126.538 418.375 124.687 418.911 122.517 418.911C120.576 418.911 118.84 418.477 117.308 417.609C115.802 416.715 114.615 415.464 113.747 413.856C112.904 412.222 112.483 410.332 112.483 408.188C112.483 406.043 112.904 404.167 113.747 402.558C114.615 400.95 115.802 399.712 117.308 398.844C118.84 397.975 120.576 397.541 122.517 397.541ZM131.325 408.188C131.325 406.375 130.942 404.779 130.176 403.401C129.436 401.997 128.414 400.924 127.112 400.184C125.81 399.418 124.355 399.035 122.747 399.035C121.062 399.035 119.581 399.405 118.304 400.146C117.028 400.86 116.032 401.907 115.317 403.286C114.602 404.665 114.245 406.299 114.245 408.188C114.245 410.077 114.602 411.711 115.317 413.09C116.032 414.468 117.028 415.528 118.304 416.268C119.606 417.009 121.087 417.379 122.747 417.379C124.355 417.379 125.81 417.009 127.112 416.268C128.44 415.502 129.474 414.43 130.214 413.052C130.955 411.647 131.325 410.026 131.325 408.188ZM140.664 402.099C141.174 400.567 142.081 399.405 143.383 398.614C144.685 397.797 146.344 397.388 148.361 397.388V399.188H147.787C145.744 399.188 144.046 399.775 142.693 400.95C141.34 402.099 140.664 403.988 140.664 406.618V418.604H138.94V397.81H140.664V402.099ZM150.874 408.188C150.874 406.043 151.295 404.167 152.138 402.558C153.006 400.95 154.193 399.712 155.699 398.844C157.231 397.975 158.967 397.541 160.907 397.541C163.103 397.541 164.967 398.078 166.499 399.15C168.031 400.222 169.103 401.588 169.716 403.248V397.81H171.439V418.604H169.716V413.128C169.103 414.813 168.018 416.205 166.46 417.302C164.929 418.375 163.078 418.911 160.907 418.911C158.967 418.911 157.231 418.477 155.699 417.609C154.193 416.715 153.006 415.464 152.138 413.856C151.295 412.222 150.874 410.332 150.874 408.188ZM169.716 408.188C169.716 406.375 169.333 404.779 168.567 403.401C167.826 401.997 166.805 400.924 165.503 400.184C164.201 399.418 162.746 399.035 161.137 399.035C159.452 399.035 157.971 399.405 156.695 400.146C155.418 400.86 154.423 401.907 153.708 403.286C152.993 404.665 152.635 406.299 152.635 408.188C152.635 410.077 152.993 411.711 153.708 413.09C154.423 414.468 155.418 415.528 156.695 416.268C157.997 417.009 159.478 417.379 161.137 417.379C162.746 417.379 164.201 417.009 165.503 416.268C166.831 415.502 167.865 414.43 168.605 413.052C169.345 411.647 169.716 410.026 169.716 408.188ZM201.917 397.388C204.292 397.388 206.232 398.154 207.738 399.686C209.245 401.192 209.998 403.439 209.998 406.426V418.604H208.313V406.541C208.313 404.065 207.713 402.175 206.513 400.873C205.338 399.546 203.717 398.882 201.649 398.882C199.505 398.882 197.781 399.622 196.479 401.103C195.177 402.584 194.526 404.728 194.526 407.537V418.604H192.841V406.541C192.841 404.065 192.241 402.175 191.041 400.873C189.867 399.546 188.245 398.882 186.177 398.882C184.033 398.882 182.309 399.622 181.007 401.103C179.705 402.584 179.054 404.728 179.054 407.537V418.604H177.331V397.81H179.054V402.329C179.642 400.695 180.586 399.469 181.888 398.652C183.216 397.81 184.735 397.388 186.445 397.388C188.335 397.388 189.956 397.886 191.309 398.882C192.688 399.852 193.632 401.295 194.143 403.209C194.628 401.295 195.573 399.852 196.977 398.882C198.381 397.886 200.028 397.388 201.917 397.388ZM235.309 418.911C233.368 418.911 231.62 418.477 230.062 417.609C228.505 416.741 227.279 415.502 226.386 413.894C225.518 412.26 225.084 410.358 225.084 408.188C225.084 406.043 225.53 404.167 226.424 402.558C227.318 400.924 228.543 399.686 230.1 398.844C231.683 397.975 233.445 397.541 235.385 397.541C237.326 397.541 239.075 397.975 240.632 398.844C242.189 399.686 243.402 400.912 244.27 402.52C245.164 404.128 245.61 406.018 245.61 408.188C245.61 410.358 245.164 412.26 244.27 413.894C243.377 415.502 242.138 416.741 240.555 417.609C238.998 418.477 237.249 418.911 235.309 418.911ZM235.309 417.379C236.815 417.379 238.219 417.047 239.521 416.383C240.849 415.694 241.908 414.66 242.7 413.281C243.491 411.903 243.887 410.205 243.887 408.188C243.887 406.196 243.491 404.511 242.7 403.133C241.908 401.754 240.862 400.733 239.56 400.069C238.258 399.38 236.853 399.035 235.347 399.035C233.841 399.035 232.436 399.38 231.134 400.069C229.858 400.733 228.824 401.754 228.032 403.133C227.241 404.511 226.845 406.196 226.845 408.188C226.845 410.205 227.228 411.903 227.994 413.281C228.786 414.66 229.82 415.694 231.096 416.383C232.398 417.047 233.802 417.379 235.309 417.379ZM252.18 402.099C252.69 400.567 253.596 399.405 254.899 398.614C256.201 397.797 257.86 397.388 259.877 397.388V399.188H259.303C257.26 399.188 255.562 399.775 254.209 400.95C252.856 402.099 252.18 403.988 252.18 406.618V418.604H250.456V397.81H252.18V402.099ZM280.819 418.911C278.496 418.911 276.594 418.4 275.113 417.379C273.658 416.358 272.841 414.903 272.662 413.013H274.423C274.551 414.366 275.164 415.439 276.262 416.23C277.385 417.022 278.904 417.417 280.819 417.417C282.402 417.417 283.653 417.022 284.572 416.23C285.517 415.413 285.989 414.417 285.989 413.243C285.989 412.426 285.734 411.762 285.223 411.252C284.738 410.715 284.125 410.307 283.385 410.026C282.644 409.745 281.636 409.439 280.359 409.107C278.828 408.698 277.589 408.303 276.645 407.92C275.7 407.511 274.896 406.911 274.232 406.12C273.568 405.328 273.236 404.269 273.236 402.941C273.236 401.971 273.53 401.077 274.117 400.261C274.704 399.418 275.521 398.754 276.568 398.269C277.615 397.784 278.802 397.541 280.13 397.541C282.3 397.541 284.049 398.09 285.376 399.188C286.729 400.261 287.457 401.754 287.559 403.669H285.836C285.759 402.29 285.223 401.167 284.227 400.299C283.232 399.431 281.853 398.997 280.091 398.997C278.611 398.997 277.385 399.38 276.415 400.146C275.445 400.912 274.96 401.843 274.96 402.941C274.96 403.911 275.228 404.703 275.764 405.316C276.325 405.903 277.002 406.362 277.794 406.694C278.611 407.001 279.683 407.333 281.01 407.69C282.466 408.073 283.627 408.456 284.495 408.839C285.389 409.196 286.142 409.732 286.755 410.447C287.368 411.137 287.674 412.069 287.674 413.243C287.674 414.315 287.38 415.285 286.793 416.154C286.206 417.022 285.389 417.698 284.342 418.183C283.295 418.668 282.121 418.911 280.819 418.911ZM317.127 397.388C319.501 397.388 321.441 398.154 322.948 399.686C324.454 401.192 325.207 403.439 325.207 406.426V418.604H323.522V406.541C323.522 404.065 322.922 402.175 321.722 400.873C320.548 399.546 318.927 398.882 316.859 398.882C314.714 398.882 312.991 399.622 311.689 401.103C310.386 402.584 309.735 404.728 309.735 407.537V418.604H308.05V406.541C308.05 404.065 307.45 402.175 306.25 400.873C305.076 399.546 303.455 398.882 301.387 398.882C299.242 398.882 297.519 399.622 296.217 401.103C294.915 402.584 294.264 404.728 294.264 407.537V418.604H292.54V397.81H294.264V402.329C294.851 400.695 295.796 399.469 297.098 398.652C298.425 397.81 299.944 397.388 301.655 397.388C303.544 397.388 305.165 397.886 306.519 398.882C307.897 399.852 308.842 401.295 309.352 403.209C309.838 401.295 310.782 399.852 312.186 398.882C313.591 397.886 315.237 397.388 317.127 397.388ZM329.868 408.188C329.868 406.043 330.289 404.167 331.131 402.558C331.999 400.95 333.187 399.712 334.693 398.844C336.225 397.975 337.961 397.541 339.901 397.541C342.097 397.541 343.961 398.078 345.493 399.15C347.024 400.222 348.097 401.588 348.709 403.248V397.81H350.433V418.604H348.709V413.128C348.097 414.813 347.012 416.205 345.454 417.302C343.922 418.375 342.071 418.911 339.901 418.911C337.961 418.911 336.225 418.477 334.693 417.609C333.187 416.715 331.999 415.464 331.131 413.856C330.289 412.222 329.868 410.332 329.868 408.188ZM348.709 408.188C348.709 406.375 348.327 404.779 347.561 403.401C346.82 401.997 345.799 400.924 344.497 400.184C343.195 399.418 341.74 399.035 340.131 399.035C338.446 399.035 336.965 399.405 335.689 400.146C334.412 400.86 333.416 401.907 332.702 403.286C331.987 404.665 331.629 406.299 331.629 408.188C331.629 410.077 331.987 411.711 332.702 413.09C333.416 414.468 334.412 415.528 335.689 416.268C336.991 417.009 338.472 417.379 340.131 417.379C341.74 417.379 343.195 417.009 344.497 416.268C345.825 415.502 346.859 414.43 347.599 413.052C348.339 411.647 348.709 410.026 348.709 408.188ZM358.048 402.099C358.559 400.567 359.465 399.405 360.767 398.614C362.069 397.797 363.729 397.388 365.746 397.388V399.188H365.171C363.129 399.188 361.431 399.775 360.078 400.95C358.725 402.099 358.048 403.988 358.048 406.618V418.604H356.325V397.81H358.048V402.099ZM371.897 399.303V413.052C371.897 414.583 372.177 415.643 372.739 416.23C373.301 416.792 374.296 417.073 375.726 417.073H378.062V418.604H375.458C373.645 418.604 372.305 418.183 371.437 417.341C370.594 416.473 370.173 415.043 370.173 413.052V399.303H367.033V397.81H370.173V392.525H371.897V397.81H378.062V399.303H371.897ZM395.215 399.303V413.052C395.215 414.583 395.496 415.643 396.058 416.23C396.62 416.792 397.615 417.073 399.045 417.073H401.381V418.604H398.777C396.964 418.604 395.624 418.183 394.756 417.341C393.913 416.473 393.492 415.043 393.492 413.052V399.303H390.352V397.81H393.492V392.525H395.215V397.81H401.381V399.303H395.215ZM414.696 418.911C412.756 418.911 411.007 418.477 409.449 417.609C407.892 416.741 406.667 415.502 405.773 413.894C404.905 412.26 404.471 410.358 404.471 408.188C404.471 406.043 404.918 404.167 405.811 402.558C406.705 400.924 407.93 399.686 409.488 398.844C411.071 397.975 412.832 397.541 414.773 397.541C416.713 397.541 418.462 397.975 420.019 398.844C421.577 399.686 422.789 400.912 423.657 402.52C424.551 404.128 424.998 406.018 424.998 408.188C424.998 410.358 424.551 412.26 423.657 413.894C422.764 415.502 421.526 416.741 419.943 417.609C418.385 418.477 416.636 418.911 414.696 418.911ZM414.696 417.379C416.202 417.379 417.607 417.047 418.909 416.383C420.236 415.694 421.296 414.66 422.087 413.281C422.879 411.903 423.274 410.205 423.274 408.188C423.274 406.196 422.879 404.511 422.087 403.133C421.296 401.754 420.249 400.733 418.947 400.069C417.645 399.38 416.241 399.035 414.734 399.035C413.228 399.035 411.824 399.38 410.522 400.069C409.245 400.733 408.211 401.754 407.42 403.133C406.628 404.511 406.233 406.196 406.233 408.188C406.233 410.205 406.615 411.903 407.381 413.281C408.173 414.66 409.207 415.694 410.483 416.383C411.786 417.047 413.19 417.379 414.696 417.379ZM438.996 418.911C437.056 418.911 435.307 418.477 433.75 417.609C432.192 416.741 430.967 415.502 430.073 413.894C429.205 412.26 428.771 410.358 428.771 408.188C428.771 406.043 429.218 404.167 430.112 402.558C431.005 400.924 432.231 399.686 433.788 398.844C435.371 397.975 437.133 397.541 439.073 397.541C441.013 397.541 442.762 397.975 444.32 398.844C445.877 399.686 447.09 400.912 447.958 402.52C448.851 404.128 449.298 406.018 449.298 408.188C449.298 410.358 448.851 412.26 447.958 413.894C447.064 415.502 445.826 416.741 444.243 417.609C442.686 418.477 440.937 418.911 438.996 418.911ZM438.996 417.379C440.503 417.379 441.907 417.047 443.209 416.383C444.537 415.694 445.596 414.66 446.388 413.281C447.179 411.903 447.575 410.205 447.575 408.188C447.575 406.196 447.179 404.511 446.388 403.133C445.596 401.754 444.549 400.733 443.247 400.069C441.945 399.38 440.541 399.035 439.035 399.035C437.528 399.035 436.124 399.38 434.822 400.069C433.545 400.733 432.511 401.754 431.72 403.133C430.929 404.511 430.533 406.196 430.533 408.188C430.533 410.205 430.916 411.903 431.682 413.281C432.473 414.66 433.507 415.694 434.784 416.383C436.086 417.047 437.49 417.379 438.996 417.379ZM455.867 390.265V418.604H454.144V390.265H455.867ZM461.533 418.719C461.099 418.719 460.742 418.579 460.461 418.298C460.18 418.017 460.04 417.66 460.04 417.226C460.04 416.792 460.18 416.434 460.461 416.154C460.742 415.873 461.099 415.732 461.533 415.732C461.942 415.732 462.287 415.873 462.567 416.154C462.848 416.434 462.989 416.792 462.989 417.226C462.989 417.66 462.848 418.017 462.567 418.298C462.287 418.579 461.942 418.719 461.533 418.719Z" fill="#323941"/>
</svg>
