<svg width="792" height="1752" viewBox="0 0 792 1752" fill="none" xmlns="http://www.w3.org/2000/svg">
<g filter="url(#filter0_d_473_6726)">
<circle cx="391.65" cy="261.331" r="247.65" fill="white"/>
</g>
<path opacity="0.7" d="M603.556 261.756C608.256 261.756 612.084 265.568 611.901 270.264C610.333 310.625 597.636 349.828 575.135 383.504C551.055 419.541 516.83 447.629 476.787 464.215C436.745 480.802 392.683 485.141 350.174 476.686C307.664 468.23 268.617 447.359 237.97 416.712C207.323 386.064 186.451 347.017 177.996 304.508C169.54 261.999 173.88 217.937 190.466 177.894C207.052 137.852 235.14 103.627 271.178 79.5471C304.853 57.0459 344.057 44.3483 384.417 42.7805C389.114 42.598 392.926 46.4255 392.926 51.1256L392.926 253.246C392.926 257.946 396.736 261.756 401.436 261.756H603.556Z" fill="#EBECEC"/>
<path opacity="0.78" d="M632.491 270.267C639.542 270.267 645.289 264.548 644.945 257.506C643.481 227.555 636.869 198.047 625.369 170.284C612.239 138.586 592.995 109.784 568.734 85.5232C544.473 61.2624 515.671 42.0176 483.973 28.8877C456.21 17.3881 426.702 10.7763 396.751 9.31179C389.709 8.96746 383.99 14.7153 383.99 21.7655V257.501C383.99 264.551 389.706 270.267 396.756 270.267H632.491Z" fill="#BA3DD9"/>
<path opacity="0.1" fill-rule="evenodd" clip-rule="evenodd" d="M159.223 787.608C193.483 739.903 192.964 665.176 250.762 642.582C309.04 619.801 381.067 649.98 442.753 676.773C498.301 700.899 549.292 736.93 580.57 785.832C609.178 830.558 596.495 881.661 605.587 931.352C615.905 987.748 655.354 1044.13 637.373 1096.29C617.461 1154.05 573.061 1217.9 505.648 1221.26C436.371 1224.71 393.567 1139.8 327.777 1111.71C274.748 1089.07 211.589 1107.7 164.085 1075.43C108.542 1037.71 50.5776 983.166 49.5571 922.751C48.5378 862.412 124.637 835.768 159.223 787.608Z" fill="#7192DB"/>
<path d="M113.541 984.143V1010.84H110.056V998.734H96.4611V1010.84H92.9762V984.143H96.4611V995.862H110.056V984.143H113.541ZM117.807 1000.27C117.807 998.122 118.241 996.245 119.109 994.637C119.977 993.003 121.164 991.739 122.671 990.845C124.202 989.952 125.9 989.505 127.764 989.505C129.602 989.505 131.198 989.901 132.551 990.692C133.904 991.483 134.913 992.479 135.576 993.679V989.849H139.1V1010.84H135.576V1006.93C134.887 1008.16 133.853 1009.18 132.474 1009.99C131.121 1010.78 129.538 1011.18 127.726 1011.18C125.862 1011.18 124.177 1010.72 122.671 1009.8C121.164 1008.88 119.977 1007.59 119.109 1005.93C118.241 1004.27 117.807 1002.39 117.807 1000.27ZM135.576 1000.3C135.576 998.722 135.257 997.343 134.619 996.168C133.981 994.994 133.113 994.1 132.015 993.488C130.943 992.849 129.755 992.53 128.453 992.53C127.151 992.53 125.964 992.837 124.892 993.449C123.819 994.062 122.964 994.956 122.326 996.13C121.688 997.305 121.368 998.683 121.368 1000.27C121.368 1001.87 121.688 1003.28 122.326 1004.48C122.964 1005.65 123.819 1006.56 124.892 1007.2C125.964 1007.81 127.151 1008.12 128.453 1008.12C129.755 1008.12 130.943 1007.81 132.015 1007.2C133.113 1006.56 133.981 1005.65 134.619 1004.48C135.257 1003.28 135.576 1001.89 135.576 1000.3ZM152.418 1007.62L158.929 989.849H162.644L154.41 1010.84H150.35L142.117 989.849H145.87L152.418 1007.62ZM184.838 999.538C184.838 1000.2 184.8 1000.9 184.723 1001.64H167.949C168.077 1003.71 168.779 1005.33 170.056 1006.51C171.358 1007.66 172.928 1008.23 174.766 1008.23C176.273 1008.23 177.524 1007.89 178.519 1007.2C179.541 1006.48 180.255 1005.54 180.664 1004.36H184.417C183.855 1006.38 182.732 1008.03 181.047 1009.3C179.362 1010.56 177.268 1011.18 174.766 1011.18C172.775 1011.18 170.988 1010.73 169.405 1009.84C167.847 1008.95 166.622 1007.68 165.728 1006.05C164.835 1004.39 164.388 1002.47 164.388 1000.3C164.388 998.134 164.822 996.232 165.69 994.598C166.558 992.964 167.771 991.713 169.328 990.845C170.911 989.952 172.724 989.505 174.766 989.505C176.758 989.505 178.519 989.939 180.051 990.807C181.583 991.675 182.757 992.875 183.574 994.407C184.417 995.913 184.838 997.624 184.838 999.538ZM181.238 998.811C181.238 997.483 180.945 996.347 180.358 995.402C179.77 994.432 178.966 993.705 177.945 993.22C176.949 992.709 175.839 992.454 174.613 992.454C172.851 992.454 171.345 993.015 170.094 994.139C168.869 995.262 168.166 996.819 167.988 998.811H181.238ZM202.367 993.258C202.98 992.058 203.848 991.126 204.971 990.462C206.12 989.798 207.512 989.467 209.146 989.467V993.066H208.227C204.32 993.066 202.367 995.185 202.367 999.424V1010.84H198.882V989.849H202.367V993.258ZM231.934 999.538C231.934 1000.2 231.896 1000.9 231.819 1001.64H215.045C215.173 1003.71 215.875 1005.33 217.151 1006.51C218.453 1007.66 220.024 1008.23 221.862 1008.23C223.368 1008.23 224.619 1007.89 225.615 1007.2C226.636 1006.48 227.351 1005.54 227.76 1004.36H231.513C230.951 1006.38 229.828 1008.03 228.142 1009.3C226.457 1010.56 224.364 1011.18 221.862 1011.18C219.87 1011.18 218.083 1010.73 216.5 1009.84C214.943 1008.95 213.717 1007.68 212.824 1006.05C211.93 1004.39 211.484 1002.47 211.484 1000.3C211.484 998.134 211.918 996.232 212.786 994.598C213.654 992.964 214.866 991.713 216.424 990.845C218.007 989.952 219.819 989.505 221.862 989.505C223.853 989.505 225.615 989.939 227.147 990.807C228.679 991.675 229.853 992.875 230.67 994.407C231.513 995.913 231.934 997.624 231.934 999.538ZM228.334 998.811C228.334 997.483 228.04 996.347 227.453 995.402C226.866 994.432 226.062 993.705 225.04 993.22C224.045 992.709 222.934 992.454 221.709 992.454C219.947 992.454 218.441 993.015 217.19 994.139C215.964 995.262 215.262 996.819 215.083 998.811H228.334ZM243.58 1011.18C241.972 1011.18 240.529 1010.91 239.253 1010.38C237.976 1009.81 236.968 1009.05 236.228 1008.08C235.487 1007.08 235.079 1005.95 235.002 1004.67H238.602C238.704 1005.72 239.189 1006.57 240.057 1007.24C240.951 1007.9 242.112 1008.23 243.542 1008.23C244.87 1008.23 245.916 1007.94 246.682 1007.35C247.448 1006.76 247.831 1006.02 247.831 1005.13C247.831 1004.21 247.423 1003.53 246.606 1003.1C245.789 1002.64 244.525 1002.19 242.814 1001.76C241.257 1001.35 239.981 1000.94 238.985 1000.53C238.015 1000.1 237.172 999.475 236.457 998.658C235.768 997.815 235.423 996.717 235.423 995.364C235.423 994.292 235.742 993.309 236.381 992.415C237.019 991.522 237.925 990.82 239.1 990.309C240.274 989.773 241.615 989.505 243.121 989.505C245.444 989.505 247.321 990.092 248.75 991.266C250.18 992.441 250.946 994.049 251.048 996.092H247.563C247.487 994.994 247.04 994.113 246.223 993.449C245.431 992.786 244.359 992.454 243.006 992.454C241.755 992.454 240.759 992.722 240.019 993.258C239.278 993.794 238.908 994.496 238.908 995.364C238.908 996.054 239.125 996.628 239.559 997.088C240.019 997.522 240.581 997.879 241.244 998.16C241.934 998.415 242.878 998.709 244.078 999.041C245.585 999.449 246.81 999.858 247.755 1000.27C248.699 1000.65 249.504 1001.24 250.167 1002.03C250.857 1002.82 251.214 1003.85 251.24 1005.13C251.24 1006.28 250.921 1007.31 250.282 1008.23C249.644 1009.15 248.738 1009.88 247.563 1010.41C246.414 1010.93 245.087 1011.18 243.58 1011.18ZM254.474 1000.3C254.474 998.134 254.908 996.245 255.776 994.637C256.644 993.003 257.844 991.739 259.376 990.845C260.934 989.952 262.708 989.505 264.699 989.505C267.278 989.505 269.397 990.13 271.057 991.381C272.742 992.632 273.852 994.368 274.388 996.59H270.635C270.278 995.313 269.576 994.305 268.529 993.564C267.508 992.824 266.231 992.454 264.699 992.454C262.708 992.454 261.1 993.143 259.874 994.522C258.649 995.875 258.036 997.802 258.036 1000.3C258.036 1002.83 258.649 1004.79 259.874 1006.16C261.1 1007.54 262.708 1008.23 264.699 1008.23C266.231 1008.23 267.508 1007.87 268.529 1007.16C269.55 1006.44 270.252 1005.42 270.635 1004.1H274.388C273.827 1006.24 272.703 1007.96 271.018 1009.27C269.333 1010.54 267.227 1011.18 264.699 1011.18C262.708 1011.18 260.934 1010.73 259.376 1009.84C257.844 1008.95 256.644 1007.68 255.776 1006.05C254.908 1004.41 254.474 1002.5 254.474 1000.3ZM289.072 989.467C290.655 989.467 292.085 989.811 293.361 990.501C294.638 991.164 295.634 992.173 296.348 993.526C297.089 994.879 297.459 996.526 297.459 998.466V1010.84H294.012V998.964C294.012 996.871 293.489 995.275 292.442 994.177C291.395 993.054 289.966 992.492 288.153 992.492C286.315 992.492 284.847 993.066 283.749 994.215C282.677 995.364 282.14 997.036 282.14 999.232V1010.84H278.655V982.497H282.14V992.837C282.83 991.764 283.774 990.935 284.974 990.347C286.2 989.76 287.566 989.467 289.072 989.467ZM321.917 999.538C321.917 1000.2 321.879 1000.9 321.802 1001.64H305.028C305.156 1003.71 305.858 1005.33 307.135 1006.51C308.437 1007.66 310.007 1008.23 311.845 1008.23C313.351 1008.23 314.602 1007.89 315.598 1007.2C316.619 1006.48 317.334 1005.54 317.743 1004.36H321.496C320.934 1006.38 319.811 1008.03 318.126 1009.3C316.441 1010.56 314.347 1011.18 311.845 1011.18C309.854 1011.18 308.066 1010.73 306.483 1009.84C304.926 1008.95 303.701 1007.68 302.807 1006.05C301.913 1004.39 301.467 1002.47 301.467 1000.3C301.467 998.134 301.901 996.232 302.769 994.598C303.637 992.964 304.849 991.713 306.407 990.845C307.99 989.952 309.803 989.505 311.845 989.505C313.836 989.505 315.598 989.939 317.13 990.807C318.662 991.675 319.836 992.875 320.653 994.407C321.496 995.913 321.917 997.624 321.917 999.538ZM318.317 998.811C318.317 997.483 318.023 996.347 317.436 995.402C316.849 994.432 316.045 993.705 315.024 993.22C314.028 992.709 312.917 992.454 311.692 992.454C309.93 992.454 308.424 993.015 307.173 994.139C305.947 995.262 305.245 996.819 305.067 998.811H318.317ZM324.832 1000.27C324.832 998.122 325.266 996.245 326.134 994.637C327.002 993.003 328.189 991.739 329.696 990.845C331.227 989.952 332.938 989.505 334.827 989.505C336.461 989.505 337.98 989.888 339.385 990.654C340.789 991.394 341.861 992.377 342.601 993.603V982.497H346.125V1010.84H342.601V1006.89C341.912 1008.14 340.891 1009.18 339.538 1009.99C338.185 1010.78 336.602 1011.18 334.789 1011.18C332.925 1011.18 331.227 1010.72 329.696 1009.8C328.189 1008.88 327.002 1007.59 326.134 1005.93C325.266 1004.27 324.832 1002.39 324.832 1000.27ZM342.601 1000.3C342.601 998.722 342.282 997.343 341.644 996.168C341.006 994.994 340.138 994.1 339.04 993.488C337.968 992.849 336.78 992.53 335.478 992.53C334.176 992.53 332.989 992.837 331.917 993.449C330.844 994.062 329.989 994.956 329.351 996.13C328.713 997.305 328.394 998.683 328.394 1000.27C328.394 1001.87 328.713 1003.28 329.351 1004.48C329.989 1005.65 330.844 1006.56 331.917 1007.2C332.989 1007.81 334.176 1008.12 335.478 1008.12C336.78 1008.12 337.968 1007.81 339.04 1007.2C340.138 1006.56 341.006 1005.65 341.644 1004.48C342.282 1003.28 342.601 1001.89 342.601 1000.3ZM370.243 989.849V1010.84H366.758V1007.73C366.094 1008.81 365.162 1009.65 363.963 1010.26C362.788 1010.85 361.486 1011.14 360.056 1011.14C358.422 1011.14 356.954 1010.81 355.652 1010.15C354.35 1009.46 353.316 1008.44 352.55 1007.08C351.81 1005.73 351.44 1004.08 351.44 1002.14V989.849H354.886V1001.68C354.886 1003.75 355.41 1005.35 356.456 1006.47C357.503 1007.57 358.933 1008.12 360.746 1008.12C362.609 1008.12 364.077 1007.54 365.15 1006.39C366.222 1005.24 366.758 1003.57 366.758 1001.38V989.849H370.243ZM379.229 982.497V1010.84H375.744V982.497H379.229ZM403.934 999.538C403.934 1000.2 403.896 1000.9 403.819 1001.64H387.045C387.173 1003.71 387.875 1005.33 389.152 1006.51C390.454 1007.66 392.024 1008.23 393.862 1008.23C395.368 1008.23 396.619 1007.89 397.615 1007.2C398.636 1006.48 399.351 1005.54 399.76 1004.36H403.513C402.951 1006.38 401.828 1008.03 400.143 1009.3C398.458 1010.56 396.364 1011.18 393.862 1011.18C391.871 1011.18 390.084 1010.73 388.501 1009.84C386.943 1008.95 385.718 1007.68 384.824 1006.05C383.931 1004.39 383.484 1002.47 383.484 1000.3C383.484 998.134 383.918 996.232 384.786 994.598C385.654 992.964 386.867 991.713 388.424 990.845C390.007 989.952 391.82 989.505 393.862 989.505C395.854 989.505 397.615 989.939 399.147 990.807C400.679 991.675 401.853 992.875 402.67 994.407C403.513 995.913 403.934 997.624 403.934 999.538ZM400.334 998.811C400.334 997.483 400.041 996.347 399.453 995.402C398.866 994.432 398.062 993.705 397.041 993.22C396.045 992.709 394.934 992.454 393.709 992.454C391.947 992.454 390.441 993.015 389.19 994.139C387.964 995.262 387.262 996.819 387.084 998.811H400.334ZM406.849 1000.27C406.849 998.122 407.283 996.245 408.151 994.637C409.019 993.003 410.206 991.739 411.713 990.845C413.245 989.952 414.955 989.505 416.844 989.505C418.478 989.505 419.998 989.888 421.402 990.654C422.806 991.394 423.878 992.377 424.619 993.603V982.497H428.142V1010.84H424.619V1006.89C423.929 1008.14 422.908 1009.18 421.555 1009.99C420.202 1010.78 418.619 1011.18 416.806 1011.18C414.942 1011.18 413.245 1010.72 411.713 1009.8C410.206 1008.88 409.019 1007.59 408.151 1005.93C407.283 1004.27 406.849 1002.39 406.849 1000.27ZM424.619 1000.3C424.619 998.722 424.3 997.343 423.661 996.168C423.023 994.994 422.155 994.1 421.057 993.488C419.985 992.849 418.798 992.53 417.496 992.53C416.193 992.53 415.006 992.837 413.934 993.449C412.862 994.062 412.006 994.956 411.368 996.13C410.73 997.305 410.411 998.683 410.411 1000.27C410.411 1001.87 410.73 1003.28 411.368 1004.48C412.006 1005.65 412.862 1006.56 413.934 1007.2C415.006 1007.81 416.193 1008.12 417.496 1008.12C418.798 1008.12 419.985 1007.81 421.057 1007.2C422.155 1006.56 423.023 1005.65 423.661 1004.48C424.3 1003.28 424.619 1001.89 424.619 1000.3ZM443.193 1000.42C443.193 998.275 443.614 996.398 444.456 994.79C445.325 993.181 446.512 991.943 448.018 991.075C449.55 990.207 451.286 989.773 453.226 989.773C455.422 989.773 457.286 990.309 458.818 991.381C460.349 992.454 461.422 993.82 462.035 995.479V990.041H463.758V1010.84H462.035V1005.36C461.422 1007.04 460.337 1008.44 458.779 1009.53C457.247 1010.61 455.396 1011.14 453.226 1011.14C451.286 1011.14 449.55 1010.71 448.018 1009.84C446.512 1008.95 445.325 1007.7 444.456 1006.09C443.614 1004.45 443.193 1002.56 443.193 1000.42ZM462.035 1000.42C462.035 998.607 461.652 997.011 460.886 995.632C460.145 994.228 459.124 993.156 457.822 992.415C456.52 991.649 455.065 991.266 453.456 991.266C451.771 991.266 450.29 991.637 449.014 992.377C447.737 993.092 446.742 994.139 446.027 995.517C445.312 996.896 444.954 998.53 444.954 1000.42C444.954 1002.31 445.312 1003.94 446.027 1005.32C446.742 1006.7 447.737 1007.76 449.014 1008.5C450.316 1009.24 451.797 1009.61 453.456 1009.61C455.065 1009.61 456.52 1009.24 457.822 1008.5C459.15 1007.73 460.184 1006.66 460.924 1005.28C461.664 1003.88 462.035 1002.26 462.035 1000.42ZM471.373 995.517C471.96 993.832 473.02 992.454 474.552 991.381C476.109 990.309 477.986 989.773 480.181 989.773C482.122 989.773 483.845 990.207 485.351 991.075C486.883 991.943 488.07 993.181 488.913 994.79C489.781 996.398 490.215 998.275 490.215 1000.42C490.215 1002.56 489.781 1004.45 488.913 1006.09C488.07 1007.7 486.883 1008.95 485.351 1009.84C483.845 1010.71 482.122 1011.14 480.181 1011.14C478.011 1011.14 476.147 1010.61 474.59 1009.53C473.058 1008.44 471.986 1007.06 471.373 1005.4V1020.64H469.65V990.041H471.373V995.517ZM488.453 1000.42C488.453 998.53 488.096 996.896 487.381 995.517C486.666 994.139 485.658 993.092 484.356 992.377C483.079 991.637 481.598 991.266 479.913 991.266C478.305 991.266 476.85 991.649 475.548 992.415C474.245 993.156 473.224 994.228 472.484 995.632C471.743 997.011 471.373 998.607 471.373 1000.42C471.373 1002.26 471.743 1003.88 472.484 1005.28C473.224 1006.66 474.245 1007.73 475.548 1008.5C476.85 1009.24 478.305 1009.61 479.913 1009.61C481.598 1009.61 483.079 1009.24 484.356 1008.5C485.658 1007.76 486.666 1006.7 487.381 1005.32C488.096 1003.94 488.453 1002.31 488.453 1000.42ZM496.758 995.517C497.345 993.832 498.405 992.454 499.937 991.381C501.494 990.309 503.371 989.773 505.566 989.773C507.507 989.773 509.23 990.207 510.736 991.075C512.268 991.943 513.455 993.181 514.298 994.79C515.166 996.398 515.6 998.275 515.6 1000.42C515.6 1002.56 515.166 1004.45 514.298 1006.09C513.455 1007.7 512.268 1008.95 510.736 1009.84C509.23 1010.71 507.507 1011.14 505.566 1011.14C503.396 1011.14 501.532 1010.61 499.975 1009.53C498.443 1008.44 497.371 1007.06 496.758 1005.4V1020.64H495.035V990.041H496.758V995.517ZM513.838 1000.42C513.838 998.53 513.481 996.896 512.766 995.517C512.051 994.139 511.043 993.092 509.741 992.377C508.464 991.637 506.983 991.266 505.298 991.266C503.69 991.266 502.234 991.649 500.932 992.415C499.63 993.156 498.609 994.228 497.869 995.632C497.128 997.011 496.758 998.607 496.758 1000.42C496.758 1002.26 497.128 1003.88 497.869 1005.28C498.609 1006.66 499.63 1007.73 500.932 1008.5C502.234 1009.24 503.69 1009.61 505.298 1009.61C506.983 1009.61 508.464 1009.24 509.741 1008.5C511.043 1007.76 512.051 1006.7 512.766 1005.32C513.481 1003.94 513.838 1002.31 513.838 1000.42ZM529.572 1011.14C527.632 1011.14 525.883 1010.71 524.326 1009.84C522.768 1008.97 521.543 1007.73 520.649 1006.13C519.781 1004.49 519.347 1002.59 519.347 1000.42C519.347 998.275 519.794 996.398 520.688 994.79C521.581 993.156 522.807 991.918 524.364 991.075C525.947 990.207 527.709 989.773 529.649 989.773C531.589 989.773 533.338 990.207 534.896 991.075C536.453 991.918 537.666 993.143 538.534 994.751C539.427 996.36 539.874 998.249 539.874 1000.42C539.874 1002.59 539.427 1004.49 538.534 1006.13C537.64 1007.73 536.402 1008.97 534.819 1009.84C533.262 1010.71 531.513 1011.14 529.572 1011.14ZM529.572 1009.61C531.079 1009.61 532.483 1009.28 533.785 1008.61C535.113 1007.93 536.172 1006.89 536.964 1005.51C537.755 1004.13 538.151 1002.44 538.151 1000.42C538.151 998.428 537.755 996.743 536.964 995.364C536.172 993.986 535.125 992.964 533.823 992.3C532.521 991.611 531.117 991.266 529.611 991.266C528.104 991.266 526.7 991.611 525.398 992.3C524.122 992.964 523.088 993.986 522.296 995.364C521.505 996.743 521.109 998.428 521.109 1000.42C521.109 1002.44 521.492 1004.13 522.258 1005.51C523.049 1006.89 524.083 1007.93 525.36 1008.61C526.662 1009.28 528.066 1009.61 529.572 1009.61ZM545.601 985.407C545.192 985.407 544.847 985.279 544.567 985.024C544.286 984.743 544.145 984.373 544.145 983.914C544.145 983.48 544.286 983.122 544.567 982.841C544.847 982.56 545.192 982.42 545.601 982.42C546.009 982.42 546.354 982.56 546.635 982.841C546.915 983.122 547.056 983.48 547.056 983.914C547.056 984.373 546.915 984.743 546.635 985.024C546.354 985.279 546.009 985.407 545.601 985.407ZM546.443 990.041V1010.84H544.72V990.041H546.443ZM561.76 989.62C564.237 989.62 566.254 990.386 567.811 991.918C569.368 993.424 570.147 995.671 570.147 998.658V1010.84H568.462V998.773C568.462 996.296 567.837 994.407 566.586 993.105C565.335 991.777 563.637 991.113 561.492 991.113C559.245 991.113 557.446 991.828 556.092 993.258C554.765 994.688 554.101 996.807 554.101 999.615V1010.84H552.378V990.041H554.101V994.445C554.688 992.888 555.658 991.7 557.011 990.884C558.39 990.041 559.973 989.62 561.76 989.62ZM578.421 991.535V1005.28C578.421 1006.81 578.702 1007.87 579.263 1008.46C579.825 1009.02 580.821 1009.3 582.251 1009.3H584.587V1010.84H581.983C580.17 1010.84 578.829 1010.41 577.961 1009.57C577.119 1008.7 576.698 1007.27 576.698 1005.28V991.535H573.557V990.041H576.698V984.756H578.421V990.041H584.587V991.535H578.421ZM613.335 989.62C615.709 989.62 617.65 990.386 619.156 991.918C620.662 993.424 621.416 995.671 621.416 998.658V1010.84H619.731V998.773C619.731 996.296 619.131 994.407 617.931 993.105C616.756 991.777 615.135 991.113 613.067 991.113C610.922 991.113 609.199 991.854 607.897 993.334C606.595 994.815 605.944 996.96 605.944 999.768V1010.84H604.259V998.773C604.259 996.296 603.659 994.407 602.459 993.105C601.284 991.777 599.663 991.113 597.595 991.113C595.451 991.113 593.727 991.854 592.425 993.334C591.123 994.815 590.472 996.96 590.472 999.768V1010.84H588.749V990.041H590.472V994.56C591.059 992.926 592.004 991.7 593.306 990.884C594.634 990.041 596.153 989.62 597.863 989.62C599.753 989.62 601.374 990.118 602.727 991.113C604.106 992.083 605.05 993.526 605.561 995.441C606.046 993.526 606.991 992.083 608.395 991.113C609.799 990.118 611.446 989.62 613.335 989.62ZM645.875 999.041C645.875 999.96 645.85 1000.65 645.799 1001.11H627.838C627.889 1002.97 628.297 1004.54 629.063 1005.82C629.829 1007.1 630.838 1008.05 632.089 1008.69C633.34 1009.33 634.706 1009.65 636.186 1009.65C638.229 1009.65 639.939 1009.15 641.318 1008.16C642.697 1007.13 643.565 1005.76 643.922 1004.02H645.722C645.314 1006.14 644.267 1007.86 642.582 1009.19C640.897 1010.49 638.765 1011.14 636.186 1011.14C634.246 1011.14 632.51 1010.71 630.978 1009.84C629.446 1008.97 628.246 1007.73 627.378 1006.13C626.51 1004.49 626.076 1002.59 626.076 1000.42C626.076 998.249 626.497 996.36 627.34 994.751C628.208 993.143 629.408 991.918 630.94 991.075C632.472 990.207 634.22 989.773 636.186 989.773C638.178 989.773 639.901 990.207 641.356 991.075C642.837 991.918 643.96 993.054 644.726 994.483C645.492 995.888 645.875 997.407 645.875 999.041ZM644.152 999.692C644.229 997.853 643.897 996.296 643.156 995.02C642.441 993.743 641.458 992.798 640.207 992.186C638.956 991.547 637.603 991.228 636.148 991.228C634.693 991.228 633.34 991.547 632.089 992.186C630.863 992.798 629.855 993.743 629.063 995.02C628.297 996.296 627.889 997.853 627.838 999.692H644.152ZM660.083 989.62C662.56 989.62 664.577 990.386 666.134 991.918C667.692 993.424 668.47 995.671 668.47 998.658V1010.84H666.785V998.773C666.785 996.296 666.16 994.407 664.909 993.105C663.658 991.777 661.96 991.113 659.815 991.113C657.568 991.113 655.769 991.828 654.415 993.258C653.088 994.688 652.424 996.807 652.424 999.615V1010.84H650.701V990.041H652.424V994.445C653.011 992.888 653.981 991.7 655.335 990.884C656.713 990.041 658.296 989.62 660.083 989.62ZM676.744 991.535V1005.28C676.744 1006.81 677.025 1007.87 677.587 1008.46C678.148 1009.02 679.144 1009.3 680.574 1009.3H682.91V1010.84H680.306C678.493 1010.84 677.153 1010.41 676.284 1009.57C675.442 1008.7 675.021 1007.27 675.021 1005.28V991.535H671.88V990.041H675.021V984.756H676.744V990.041H682.91V991.535H676.744ZM694.003 1011.14C691.68 1011.14 689.778 1010.63 688.297 1009.61C686.842 1008.59 686.025 1007.13 685.846 1005.24H687.608C687.736 1006.6 688.348 1007.67 689.446 1008.46C690.57 1009.25 692.089 1009.65 694.003 1009.65C695.586 1009.65 696.837 1009.25 697.756 1008.46C698.701 1007.64 699.173 1006.65 699.173 1005.47C699.173 1004.66 698.918 1003.99 698.408 1003.48C697.922 1002.95 697.31 1002.54 696.569 1002.26C695.829 1001.98 694.82 1001.67 693.544 1001.34C692.012 1000.93 690.774 1000.53 689.829 1000.15C688.884 999.743 688.08 999.143 687.416 998.351C686.753 997.56 686.421 996.5 686.421 995.173C686.421 994.203 686.714 993.309 687.302 992.492C687.889 991.649 688.706 990.986 689.753 990.501C690.799 990.015 691.986 989.773 693.314 989.773C695.484 989.773 697.233 990.322 698.561 991.42C699.914 992.492 700.641 993.986 700.744 995.9H699.02C698.944 994.522 698.408 993.398 697.412 992.53C696.416 991.662 695.037 991.228 693.276 991.228C691.795 991.228 690.57 991.611 689.599 992.377C688.629 993.143 688.144 994.075 688.144 995.173C688.144 996.143 688.412 996.934 688.948 997.547C689.51 998.134 690.187 998.594 690.978 998.926C691.795 999.232 692.867 999.564 694.195 999.921C695.65 1000.3 696.812 1000.69 697.68 1001.07C698.573 1001.43 699.327 1001.96 699.939 1002.68C700.552 1003.37 700.858 1004.3 700.858 1005.47C700.858 1006.55 700.565 1007.52 699.978 1008.38C699.39 1009.25 698.573 1009.93 697.527 1010.41C696.48 1010.9 695.305 1011.14 694.003 1011.14ZM96.4611 1039.5V1067.84H92.9762V1039.5H96.4611ZM100.716 1057.27C100.716 1055.12 101.15 1053.25 102.018 1051.64C102.886 1050 104.073 1048.74 105.579 1047.85C107.111 1046.95 108.809 1046.5 110.673 1046.5C112.511 1046.5 114.107 1046.9 115.46 1047.69C116.813 1048.48 117.821 1049.48 118.485 1050.68V1046.85H122.008V1067.84H118.485V1063.93C117.796 1065.16 116.762 1066.18 115.383 1066.99C114.03 1067.78 112.447 1068.18 110.634 1068.18C108.771 1068.18 107.086 1067.72 105.579 1066.8C104.073 1065.88 102.886 1064.59 102.018 1062.93C101.15 1061.27 100.716 1059.39 100.716 1057.27ZM118.485 1057.3C118.485 1055.72 118.166 1054.34 117.528 1053.17C116.889 1051.99 116.021 1051.1 114.924 1050.49C113.851 1049.85 112.664 1049.53 111.362 1049.53C110.06 1049.53 108.873 1049.84 107.8 1050.45C106.728 1051.06 105.873 1051.96 105.235 1053.13C104.596 1054.3 104.277 1055.68 104.277 1057.27C104.277 1058.87 104.596 1060.28 105.235 1061.48C105.873 1062.65 106.728 1063.56 107.8 1064.2C108.873 1064.81 110.06 1065.12 111.362 1065.12C112.664 1065.12 113.851 1064.81 114.924 1064.2C116.021 1063.56 116.889 1062.65 117.528 1061.48C118.166 1060.28 118.485 1058.89 118.485 1057.3ZM134.944 1068.18C133.336 1068.18 131.893 1067.91 130.617 1067.38C129.34 1066.81 128.332 1066.05 127.591 1065.08C126.851 1064.08 126.442 1062.95 126.366 1061.67H129.966C130.068 1062.72 130.553 1063.57 131.421 1064.24C132.315 1064.9 133.476 1065.23 134.906 1065.23C136.234 1065.23 137.28 1064.94 138.046 1064.35C138.812 1063.76 139.195 1063.02 139.195 1062.13C139.195 1061.21 138.787 1060.53 137.97 1060.1C137.153 1059.64 135.889 1059.19 134.178 1058.76C132.621 1058.35 131.344 1057.94 130.349 1057.53C129.379 1057.1 128.536 1056.47 127.821 1055.66C127.132 1054.82 126.787 1053.72 126.787 1052.36C126.787 1051.29 127.106 1050.31 127.745 1049.42C128.383 1048.52 129.289 1047.82 130.464 1047.31C131.638 1046.77 132.978 1046.5 134.485 1046.5C136.808 1046.5 138.685 1047.09 140.114 1048.27C141.544 1049.44 142.31 1051.05 142.412 1053.09H138.927C138.85 1051.99 138.404 1051.11 137.587 1050.45C136.795 1049.79 135.723 1049.45 134.37 1049.45C133.119 1049.45 132.123 1049.72 131.383 1050.26C130.642 1050.79 130.272 1051.5 130.272 1052.36C130.272 1053.05 130.489 1053.63 130.923 1054.09C131.383 1054.52 131.944 1054.88 132.608 1055.16C133.298 1055.42 134.242 1055.71 135.442 1056.04C136.948 1056.45 138.174 1056.86 139.119 1057.27C140.063 1057.65 140.867 1058.24 141.531 1059.03C142.221 1059.82 142.578 1060.85 142.604 1062.13C142.604 1063.28 142.284 1064.31 141.646 1065.23C141.008 1066.15 140.102 1066.88 138.927 1067.41C137.778 1067.93 136.451 1068.18 134.944 1068.18ZM151.391 1049.72V1062.09C151.391 1063.11 151.608 1063.84 152.042 1064.27C152.476 1064.68 153.229 1064.89 154.302 1064.89H156.867V1067.84H153.727C151.787 1067.84 150.332 1067.39 149.361 1066.5C148.391 1065.6 147.906 1064.13 147.906 1062.09V1049.72H145.187V1046.85H147.906V1041.56H151.391V1046.85H156.867V1049.72H151.391ZM195.771 1046.47C197.405 1046.47 198.86 1046.81 200.137 1047.5C201.414 1048.16 202.422 1049.17 203.162 1050.53C203.903 1051.88 204.273 1053.53 204.273 1055.47V1067.84H200.826V1055.96C200.826 1053.87 200.303 1052.27 199.256 1051.18C198.235 1050.05 196.844 1049.49 195.082 1049.49C193.269 1049.49 191.827 1050.08 190.754 1051.25C189.682 1052.4 189.146 1054.07 189.146 1056.27V1067.84H185.699V1055.96C185.699 1053.87 185.176 1052.27 184.129 1051.18C183.108 1050.05 181.716 1049.49 179.955 1049.49C178.142 1049.49 176.7 1050.08 175.627 1051.25C174.555 1052.4 174.019 1054.07 174.019 1056.27V1067.84H170.534V1046.85H174.019V1049.87C174.708 1048.78 175.627 1047.93 176.776 1047.35C177.951 1046.76 179.24 1046.47 180.644 1046.47C182.406 1046.47 183.963 1046.86 185.316 1047.65C186.669 1048.45 187.678 1049.61 188.342 1051.14C188.929 1049.66 189.899 1048.51 191.252 1047.69C192.605 1046.88 194.112 1046.47 195.771 1046.47ZM211.407 1043.44C210.743 1043.44 210.181 1043.21 209.722 1042.75C209.262 1042.29 209.032 1041.73 209.032 1041.07C209.032 1040.4 209.262 1039.84 209.722 1039.38C210.181 1038.92 210.743 1038.69 211.407 1038.69C212.045 1038.69 212.581 1038.92 213.015 1039.38C213.475 1039.84 213.704 1040.4 213.704 1041.07C213.704 1041.73 213.475 1042.29 213.015 1042.75C212.581 1043.21 212.045 1043.44 211.407 1043.44ZM213.092 1046.85V1067.84H209.607V1046.85H213.092ZM228.873 1046.47C231.426 1046.47 233.495 1047.25 235.077 1048.8C236.66 1050.33 237.452 1052.56 237.452 1055.47V1067.84H234.005V1055.96C234.005 1053.87 233.482 1052.27 232.435 1051.18C231.388 1050.05 229.958 1049.49 228.146 1049.49C226.308 1049.49 224.84 1050.07 223.742 1051.22C222.669 1052.36 222.133 1054.04 222.133 1056.23V1067.84H218.648V1046.85H222.133V1049.84C222.823 1048.76 223.754 1047.93 224.929 1047.35C226.129 1046.76 227.444 1046.47 228.873 1046.47ZM261.374 1046.85V1067.84H257.889V1064.73C257.225 1065.81 256.293 1066.65 255.093 1067.26C253.919 1067.85 252.616 1068.14 251.187 1068.14C249.553 1068.14 248.085 1067.81 246.783 1067.15C245.481 1066.46 244.447 1065.44 243.681 1064.08C242.94 1062.73 242.57 1061.08 242.57 1059.14V1046.85H246.017V1058.68C246.017 1060.75 246.54 1062.35 247.587 1063.47C248.634 1064.57 250.063 1065.12 251.876 1065.12C253.74 1065.12 255.208 1064.54 256.28 1063.39C257.352 1062.24 257.889 1060.57 257.889 1058.38V1046.85H261.374ZM271.126 1049.72V1062.09C271.126 1063.11 271.343 1063.84 271.777 1064.27C272.211 1064.68 272.964 1064.89 274.036 1064.89H276.602V1067.84H273.462C271.521 1067.84 270.066 1067.39 269.096 1066.5C268.126 1065.6 267.641 1064.13 267.641 1062.09V1049.72H264.922V1046.85H267.641V1041.56H271.126V1046.85H276.602V1049.72H271.126ZM299.59 1056.54C299.59 1057.2 299.552 1057.9 299.475 1058.64H282.701C282.829 1060.71 283.531 1062.33 284.807 1063.51C286.109 1064.66 287.68 1065.23 289.518 1065.23C291.024 1065.23 292.275 1064.89 293.271 1064.2C294.292 1063.48 295.007 1062.54 295.416 1061.36H299.169C298.607 1063.38 297.484 1065.03 295.798 1066.3C294.113 1067.56 292.02 1068.18 289.518 1068.18C287.526 1068.18 285.739 1067.73 284.156 1066.84C282.599 1065.95 281.374 1064.68 280.48 1063.05C279.586 1061.39 279.14 1059.47 279.14 1057.3C279.14 1055.13 279.574 1053.23 280.442 1051.6C281.31 1049.96 282.522 1048.71 284.08 1047.85C285.663 1046.95 287.475 1046.5 289.518 1046.5C291.509 1046.5 293.271 1046.94 294.803 1047.81C296.335 1048.67 297.509 1049.87 298.326 1051.41C299.169 1052.91 299.59 1054.62 299.59 1056.54ZM295.99 1055.81C295.99 1054.48 295.696 1053.35 295.109 1052.4C294.522 1051.43 293.718 1050.7 292.696 1050.22C291.701 1049.71 290.59 1049.45 289.365 1049.45C287.603 1049.45 286.097 1050.02 284.846 1051.14C283.62 1052.26 282.918 1053.82 282.739 1055.81H295.99ZM312.753 1057.42C312.753 1055.27 313.174 1053.4 314.017 1051.79C314.885 1050.18 316.072 1048.94 317.578 1048.07C319.11 1047.21 320.846 1046.77 322.787 1046.77C324.906 1046.77 326.744 1047.31 328.301 1048.38C329.859 1049.43 330.957 1050.79 331.595 1052.48V1039.5H333.318V1067.84H331.595V1062.32C330.982 1064.03 329.91 1065.44 328.378 1066.53C326.846 1067.61 324.982 1068.14 322.787 1068.14C320.846 1068.14 319.11 1067.71 317.578 1066.84C316.072 1065.95 314.885 1064.7 314.017 1063.09C313.174 1061.45 312.753 1059.56 312.753 1057.42ZM331.595 1057.42C331.595 1055.61 331.212 1054.01 330.446 1052.63C329.706 1051.23 328.684 1050.16 327.382 1049.42C326.08 1048.65 324.625 1048.27 323.016 1048.27C321.331 1048.27 319.851 1048.64 318.574 1049.38C317.298 1050.09 316.302 1051.14 315.587 1052.52C314.872 1053.9 314.515 1055.53 314.515 1057.42C314.515 1059.31 314.872 1060.94 315.587 1062.32C316.302 1063.7 317.298 1064.76 318.574 1065.5C319.876 1066.24 321.357 1066.61 323.016 1066.61C324.625 1066.61 326.08 1066.24 327.382 1065.5C328.71 1064.73 329.744 1063.66 330.484 1062.28C331.225 1060.88 331.595 1059.26 331.595 1057.42ZM356.788 1047.04V1067.84H355.065V1063.32C354.478 1064.9 353.495 1066.11 352.116 1066.96C350.763 1067.77 349.206 1068.18 347.444 1068.18C344.967 1068.18 342.938 1067.43 341.355 1065.92C339.797 1064.39 339.019 1062.13 339.019 1059.14V1047.04H340.704V1059.03C340.704 1061.5 341.329 1063.41 342.58 1064.73C343.831 1066.04 345.529 1066.69 347.674 1066.69C349.92 1066.69 351.708 1065.97 353.035 1064.54C354.388 1063.11 355.065 1060.99 355.065 1058.19V1047.04H356.788ZM381.415 1056.04C381.415 1056.96 381.389 1057.65 381.338 1058.11H363.377C363.428 1059.97 363.837 1061.54 364.602 1062.82C365.368 1064.1 366.377 1065.05 367.628 1065.69C368.879 1066.33 370.245 1066.65 371.726 1066.65C373.768 1066.65 375.479 1066.15 376.857 1065.16C378.236 1064.13 379.104 1062.76 379.462 1061.02H381.261C380.853 1063.14 379.806 1064.86 378.121 1066.19C376.436 1067.49 374.304 1068.14 371.726 1068.14C369.785 1068.14 368.049 1067.71 366.517 1066.84C364.985 1065.97 363.786 1064.73 362.917 1063.13C362.049 1061.49 361.615 1059.59 361.615 1057.42C361.615 1055.25 362.037 1053.36 362.879 1051.75C363.747 1050.14 364.947 1048.92 366.479 1048.07C368.011 1047.21 369.76 1046.77 371.726 1046.77C373.717 1046.77 375.44 1047.21 376.896 1048.07C378.376 1048.92 379.5 1050.05 380.266 1051.48C381.032 1052.89 381.415 1054.41 381.415 1056.04ZM379.691 1056.69C379.768 1054.85 379.436 1053.3 378.696 1052.02C377.981 1050.74 376.998 1049.8 375.747 1049.19C374.496 1048.55 373.143 1048.23 371.687 1048.23C370.232 1048.23 368.879 1048.55 367.628 1049.19C366.402 1049.8 365.394 1050.74 364.602 1052.02C363.837 1053.3 363.428 1054.85 363.377 1056.69H379.691ZM399.231 1048.53V1062.28C399.231 1063.81 399.512 1064.87 400.074 1065.46C400.635 1066.02 401.631 1066.3 403.061 1066.3H405.397V1067.84H402.793C400.98 1067.84 399.64 1067.41 398.772 1066.57C397.929 1065.7 397.508 1064.27 397.508 1062.28V1048.53H394.367V1047.04H397.508V1041.76H399.231V1047.04H405.397V1048.53H399.231ZM418.712 1068.14C416.771 1068.14 415.023 1067.71 413.465 1066.84C411.908 1065.97 410.682 1064.73 409.789 1063.13C408.921 1061.49 408.487 1059.59 408.487 1057.42C408.487 1055.27 408.933 1053.4 409.827 1051.79C410.721 1050.16 411.946 1048.92 413.503 1048.07C415.086 1047.21 416.848 1046.77 418.788 1046.77C420.729 1046.77 422.478 1047.21 424.035 1048.07C425.592 1048.92 426.805 1050.14 427.673 1051.75C428.567 1053.36 429.013 1055.25 429.013 1057.42C429.013 1059.59 428.567 1061.49 427.673 1063.13C426.78 1064.73 425.541 1065.97 423.958 1066.84C422.401 1067.71 420.652 1068.14 418.712 1068.14ZM418.712 1066.61C420.218 1066.61 421.622 1066.28 422.924 1065.61C424.252 1064.93 425.311 1063.89 426.103 1062.51C426.894 1061.13 427.29 1059.44 427.29 1057.42C427.29 1055.43 426.894 1053.74 426.103 1052.36C425.311 1050.99 424.265 1049.96 422.963 1049.3C421.661 1048.61 420.256 1048.27 418.75 1048.27C417.244 1048.27 415.839 1048.61 414.537 1049.3C413.261 1049.96 412.227 1050.99 411.435 1052.36C410.644 1053.74 410.248 1055.43 410.248 1057.42C410.248 1059.44 410.631 1061.13 411.397 1062.51C412.189 1063.89 413.223 1064.93 414.499 1065.61C415.801 1066.28 417.205 1066.61 418.712 1066.61ZM447.578 1039.5V1067.84H444.093V1039.5H447.578ZM462.287 1068.18C460.321 1068.18 458.534 1067.73 456.926 1066.84C455.343 1065.95 454.092 1064.68 453.173 1063.05C452.279 1061.39 451.832 1059.47 451.832 1057.3C451.832 1055.16 452.292 1053.27 453.211 1051.64C454.156 1049.98 455.432 1048.71 457.041 1047.85C458.649 1046.95 460.449 1046.5 462.441 1046.5C464.432 1046.5 466.232 1046.95 467.84 1047.85C469.449 1048.71 470.713 1049.96 471.632 1051.6C472.576 1053.23 473.049 1055.13 473.049 1057.3C473.049 1059.47 472.564 1061.39 471.593 1063.05C470.649 1064.68 469.359 1065.95 467.725 1066.84C466.091 1067.73 464.279 1068.18 462.287 1068.18ZM462.287 1065.12C463.538 1065.12 464.713 1064.82 465.811 1064.24C466.908 1063.65 467.789 1062.77 468.453 1061.59C469.142 1060.42 469.487 1058.99 469.487 1057.3C469.487 1055.62 469.155 1054.19 468.491 1053.02C467.828 1051.84 466.96 1050.97 465.887 1050.41C464.815 1049.82 463.653 1049.53 462.402 1049.53C461.126 1049.53 459.951 1049.82 458.879 1050.41C457.832 1050.97 456.99 1051.84 456.351 1053.02C455.713 1054.19 455.394 1055.62 455.394 1057.3C455.394 1059.01 455.7 1060.46 456.313 1061.63C456.951 1062.81 457.794 1063.69 458.841 1064.27C459.887 1064.84 461.036 1065.12 462.287 1065.12ZM505.204 1046.85L498.656 1067.84H495.056L490.001 1051.18L484.945 1067.84H481.346L474.759 1046.85H478.32L483.145 1064.47L488.354 1046.85H491.915L497.009 1064.5L501.758 1046.85H505.204ZM519.777 1042.41C519.369 1042.41 519.024 1042.28 518.743 1042.02C518.463 1041.74 518.322 1041.37 518.322 1040.91C518.322 1040.48 518.463 1040.12 518.743 1039.84C519.024 1039.56 519.369 1039.42 519.777 1039.42C520.186 1039.42 520.531 1039.56 520.811 1039.84C521.092 1040.12 521.233 1040.48 521.233 1040.91C521.233 1041.37 521.092 1041.74 520.811 1042.02C520.531 1042.28 520.186 1042.41 519.777 1042.41ZM520.62 1047.04V1067.84H518.897V1047.04H520.62ZM535.937 1046.62C538.414 1046.62 540.43 1047.39 541.988 1048.92C543.545 1050.42 544.324 1052.67 544.324 1055.66V1067.84H542.639V1055.77C542.639 1053.3 542.013 1051.41 540.762 1050.1C539.511 1048.78 537.814 1048.11 535.669 1048.11C533.422 1048.11 531.622 1048.83 530.269 1050.26C528.942 1051.69 528.278 1053.81 528.278 1056.62V1067.84H526.554V1047.04H528.278V1051.45C528.865 1049.89 529.835 1048.7 531.188 1047.88C532.567 1047.04 534.15 1046.62 535.937 1046.62ZM557.078 1065.96L564.738 1047.04H566.576L557.959 1067.84H556.159L547.543 1047.04H549.419L557.078 1065.96ZM588.721 1056.04C588.721 1056.96 588.695 1057.65 588.644 1058.11H570.683C570.734 1059.97 571.143 1061.54 571.909 1062.82C572.675 1064.1 573.683 1065.05 574.934 1065.69C576.185 1066.33 577.551 1066.65 579.032 1066.65C581.074 1066.65 582.785 1066.15 584.164 1065.16C585.542 1064.13 586.41 1062.76 586.768 1061.02H588.568C588.159 1063.14 587.112 1064.86 585.427 1066.19C583.742 1067.49 581.611 1068.14 579.032 1068.14C577.092 1068.14 575.355 1067.71 573.824 1066.84C572.292 1065.97 571.092 1064.73 570.224 1063.13C569.356 1061.49 568.922 1059.59 568.922 1057.42C568.922 1055.25 569.343 1053.36 570.185 1051.75C571.053 1050.14 572.253 1048.92 573.785 1048.07C575.317 1047.21 577.066 1046.77 579.032 1046.77C581.023 1046.77 582.747 1047.21 584.202 1048.07C585.683 1048.92 586.806 1050.05 587.572 1051.48C588.338 1052.89 588.721 1054.41 588.721 1056.04ZM586.998 1056.69C587.074 1054.85 586.742 1053.3 586.002 1052.02C585.287 1050.74 584.304 1049.8 583.053 1049.19C581.802 1048.55 580.449 1048.23 578.994 1048.23C577.538 1048.23 576.185 1048.55 574.934 1049.19C573.709 1049.8 572.7 1050.74 571.909 1052.02C571.143 1053.3 570.734 1054.85 570.683 1056.69H586.998ZM602.929 1046.62C605.405 1046.62 607.422 1047.39 608.98 1048.92C610.537 1050.42 611.316 1052.67 611.316 1055.66V1067.84H609.631V1055.77C609.631 1053.3 609.005 1051.41 607.754 1050.1C606.503 1048.78 604.805 1048.11 602.661 1048.11C600.414 1048.11 598.614 1048.83 597.261 1050.26C595.933 1051.69 595.27 1053.81 595.27 1056.62V1067.84H593.546V1047.04H595.27V1051.45C595.857 1049.89 596.827 1048.7 598.18 1047.88C599.559 1047.04 601.142 1046.62 602.929 1046.62ZM619.59 1048.53V1062.28C619.59 1063.81 619.87 1064.87 620.432 1065.46C620.994 1066.02 621.989 1066.3 623.419 1066.3H625.755V1067.84H623.151C621.338 1067.84 619.998 1067.41 619.13 1066.57C618.288 1065.7 617.866 1064.27 617.866 1062.28V1048.53H614.726V1047.04H617.866V1041.76H619.59V1047.04H625.755V1048.53H619.59ZM639.07 1068.14C637.13 1068.14 635.381 1067.71 633.824 1066.84C632.266 1065.97 631.041 1064.73 630.147 1063.13C629.279 1061.49 628.845 1059.59 628.845 1057.42C628.845 1055.27 629.292 1053.4 630.185 1051.79C631.079 1050.16 632.304 1048.92 633.862 1048.07C635.445 1047.21 637.206 1046.77 639.147 1046.77C641.087 1046.77 642.836 1047.21 644.393 1048.07C645.951 1048.92 647.163 1050.14 648.032 1051.75C648.925 1053.36 649.372 1055.25 649.372 1057.42C649.372 1059.59 648.925 1061.49 648.032 1063.13C647.138 1064.73 645.9 1065.97 644.317 1066.84C642.759 1067.71 641.011 1068.14 639.07 1068.14ZM639.07 1066.61C640.577 1066.61 641.981 1066.28 643.283 1065.61C644.61 1064.93 645.67 1063.89 646.461 1062.51C647.253 1061.13 647.649 1059.44 647.649 1057.42C647.649 1055.43 647.253 1053.74 646.461 1052.36C645.67 1050.99 644.623 1049.96 643.321 1049.3C642.019 1048.61 640.615 1048.27 639.108 1048.27C637.602 1048.27 636.198 1048.61 634.896 1049.3C633.619 1049.96 632.585 1050.99 631.794 1052.36C631.002 1053.74 630.607 1055.43 630.607 1057.42C630.607 1059.44 630.99 1061.13 631.756 1062.51C632.547 1063.89 633.581 1064.93 634.858 1065.61C636.16 1066.28 637.564 1066.61 639.07 1066.61ZM655.941 1051.33C656.452 1049.8 657.358 1048.64 658.66 1047.85C659.962 1047.03 661.622 1046.62 663.639 1046.62V1048.42H663.064C661.022 1048.42 659.324 1049.01 657.971 1050.18C656.618 1051.33 655.941 1053.22 655.941 1055.85V1067.84H654.218V1047.04H655.941V1051.33ZM683.461 1047.04L671.359 1077.6H669.598L673.466 1067.84L664.734 1047.04H666.611L674.423 1065.92L681.699 1047.04H683.461ZM688.073 1063.81L684.473 1073.62H683.171L686.081 1063.81H688.073ZM92.0954 1114.42C92.0954 1112.27 92.5166 1110.4 93.3591 1108.79C94.2272 1107.18 95.4144 1105.94 96.9207 1105.07C98.4526 1104.21 100.189 1103.77 102.129 1103.77C104.325 1103.77 106.188 1104.31 107.72 1105.38C109.252 1106.45 110.324 1107.82 110.937 1109.48V1104.04H112.661V1124.84H110.937V1119.36C110.324 1121.04 109.239 1122.44 107.682 1123.53C106.15 1124.61 104.299 1125.14 102.129 1125.14C100.189 1125.14 98.4526 1124.71 96.9207 1123.84C95.4144 1122.95 94.2272 1121.7 93.3591 1120.09C92.5166 1118.45 92.0954 1116.56 92.0954 1114.42ZM110.937 1114.42C110.937 1112.61 110.554 1111.01 109.788 1109.63C109.048 1108.23 108.027 1107.16 106.725 1106.42C105.423 1105.65 103.967 1105.27 102.359 1105.27C100.674 1105.27 99.193 1105.64 97.9164 1106.38C96.6399 1107.09 95.6442 1108.14 94.9293 1109.52C94.2144 1110.9 93.857 1112.53 93.857 1114.42C93.857 1116.31 94.2144 1117.94 94.9293 1119.32C95.6442 1120.7 96.6399 1121.76 97.9164 1122.5C99.2185 1123.24 100.699 1123.61 102.359 1123.61C103.967 1123.61 105.423 1123.24 106.725 1122.5C108.052 1121.73 109.086 1120.66 109.827 1119.28C110.567 1117.88 110.937 1116.26 110.937 1114.42ZM121.118 1105.53V1119.28C121.118 1120.81 121.399 1121.87 121.961 1122.46C122.523 1123.02 123.518 1123.3 124.948 1123.3H127.284V1124.84H124.68C122.867 1124.84 121.527 1124.41 120.659 1123.57C119.816 1122.7 119.395 1121.27 119.395 1119.28V1105.53H116.255V1104.04H119.395V1098.76H121.118V1104.04H127.284V1105.53H121.118ZM133.169 1096.5V1124.84H131.446V1096.5H133.169ZM157.831 1113.04C157.831 1113.96 157.805 1114.65 157.754 1115.11H139.793C139.844 1116.97 140.253 1118.54 141.019 1119.82C141.785 1121.1 142.793 1122.05 144.044 1122.69C145.295 1123.33 146.661 1123.65 148.142 1123.65C150.184 1123.65 151.895 1123.15 153.274 1122.16C154.652 1121.13 155.52 1119.76 155.878 1118.02H157.678C157.269 1120.14 156.222 1121.86 154.537 1123.19C152.852 1124.49 150.72 1125.14 148.142 1125.14C146.202 1125.14 144.465 1124.71 142.934 1123.84C141.402 1122.97 140.202 1121.73 139.334 1120.13C138.466 1118.49 138.032 1116.59 138.032 1114.42C138.032 1112.25 138.453 1110.36 139.295 1108.75C140.163 1107.14 141.363 1105.92 142.895 1105.07C144.427 1104.21 146.176 1103.77 148.142 1103.77C150.133 1103.77 151.857 1104.21 153.312 1105.07C154.793 1105.92 155.916 1107.05 156.682 1108.48C157.448 1109.89 157.831 1111.41 157.831 1113.04ZM156.108 1113.69C156.184 1111.85 155.852 1110.3 155.112 1109.02C154.397 1107.74 153.414 1106.8 152.163 1106.19C150.912 1105.55 149.559 1105.23 148.104 1105.23C146.648 1105.23 145.295 1105.55 144.044 1106.19C142.819 1106.8 141.81 1107.74 141.019 1109.02C140.253 1110.3 139.844 1111.85 139.793 1113.69H156.108ZM161.584 1114.42C161.584 1112.27 162.005 1110.4 162.848 1108.79C163.716 1107.18 164.903 1105.94 166.409 1105.07C167.941 1104.21 169.677 1103.77 171.618 1103.77C173.813 1103.77 175.677 1104.31 177.209 1105.38C178.741 1106.45 179.813 1107.82 180.426 1109.48V1104.04H182.149V1124.84H180.426V1119.36C179.813 1121.04 178.728 1122.44 177.171 1123.53C175.639 1124.61 173.788 1125.14 171.618 1125.14C169.677 1125.14 167.941 1124.71 166.409 1123.84C164.903 1122.95 163.716 1121.7 162.848 1120.09C162.005 1118.45 161.584 1116.56 161.584 1114.42ZM180.426 1114.42C180.426 1112.61 180.043 1111.01 179.277 1109.63C178.536 1108.23 177.515 1107.16 176.213 1106.42C174.911 1105.65 173.456 1105.27 171.847 1105.27C170.162 1105.27 168.682 1105.64 167.405 1106.38C166.128 1107.09 165.133 1108.14 164.418 1109.52C163.703 1110.9 163.346 1112.53 163.346 1114.42C163.346 1116.31 163.703 1117.94 164.418 1119.32C165.133 1120.7 166.128 1121.76 167.405 1122.5C168.707 1123.24 170.188 1123.61 171.847 1123.61C173.456 1123.61 174.911 1123.24 176.213 1122.5C177.541 1121.73 178.575 1120.66 179.315 1119.28C180.056 1117.88 180.426 1116.26 180.426 1114.42ZM194.973 1125.14C192.649 1125.14 190.747 1124.63 189.267 1123.61C187.811 1122.59 186.994 1121.13 186.816 1119.24H188.577C188.705 1120.6 189.318 1121.67 190.415 1122.46C191.539 1123.25 193.058 1123.65 194.973 1123.65C196.556 1123.65 197.807 1123.25 198.726 1122.46C199.67 1121.64 200.143 1120.65 200.143 1119.47C200.143 1118.66 199.887 1117.99 199.377 1117.48C198.892 1116.95 198.279 1116.54 197.539 1116.26C196.798 1115.98 195.79 1115.67 194.513 1115.34C192.981 1114.93 191.743 1114.53 190.798 1114.15C189.854 1113.74 189.05 1113.14 188.386 1112.35C187.722 1111.56 187.39 1110.5 187.39 1109.17C187.39 1108.2 187.684 1107.31 188.271 1106.49C188.858 1105.65 189.675 1104.99 190.722 1104.5C191.769 1104.02 192.956 1103.77 194.283 1103.77C196.453 1103.77 198.202 1104.32 199.53 1105.42C200.883 1106.49 201.611 1107.99 201.713 1109.9H199.99C199.913 1108.52 199.377 1107.4 198.381 1106.53C197.385 1105.66 196.007 1105.23 194.245 1105.23C192.764 1105.23 191.539 1105.61 190.569 1106.38C189.598 1107.14 189.113 1108.07 189.113 1109.17C189.113 1110.14 189.381 1110.93 189.918 1111.55C190.479 1112.13 191.156 1112.59 191.947 1112.93C192.764 1113.23 193.837 1113.56 195.164 1113.92C196.619 1114.3 197.781 1114.69 198.649 1115.07C199.543 1115.43 200.296 1115.96 200.909 1116.68C201.521 1117.37 201.828 1118.3 201.828 1119.47C201.828 1120.55 201.534 1121.52 200.947 1122.38C200.36 1123.25 199.543 1123.93 198.496 1124.41C197.449 1124.9 196.275 1125.14 194.973 1125.14ZM209.26 1105.53V1119.28C209.26 1120.81 209.541 1121.87 210.102 1122.46C210.664 1123.02 211.66 1123.3 213.09 1123.3H215.426V1124.84H212.822C211.009 1124.84 209.668 1124.41 208.8 1123.57C207.958 1122.7 207.537 1121.27 207.537 1119.28V1105.53H204.396V1104.04H207.537V1098.76H209.26V1104.04H215.426V1105.53H209.26ZM246.404 1099.14H231.698V1110.13C232.387 1109.16 233.396 1108.37 234.723 1107.76C236.051 1107.12 237.494 1106.8 239.051 1106.8C241.119 1106.8 242.804 1107.22 244.106 1108.06C245.434 1108.88 246.391 1109.95 246.978 1111.28C247.566 1112.61 247.859 1114.05 247.859 1115.61C247.859 1117.34 247.54 1118.93 246.902 1120.36C246.263 1121.76 245.255 1122.9 243.876 1123.76C242.523 1124.61 240.813 1125.03 238.745 1125.03C236.243 1125.03 234.175 1124.35 232.541 1123C230.932 1121.62 229.949 1119.77 229.592 1117.44H231.277C231.66 1119.41 232.515 1120.92 233.843 1121.96C235.17 1122.98 236.804 1123.5 238.745 1123.5C241.221 1123.5 243.085 1122.78 244.336 1121.35C245.587 1119.9 246.212 1117.99 246.212 1115.64C246.212 1113.35 245.574 1111.55 244.298 1110.25C243.047 1108.94 241.247 1108.29 238.898 1108.29C237.289 1108.29 235.847 1108.65 234.57 1109.36C233.319 1110.08 232.349 1111.06 231.66 1112.31H230.051V1097.61H246.404V1099.14ZM265.809 1105.53V1119.28C265.809 1120.81 266.089 1121.87 266.651 1122.46C267.213 1123.02 268.208 1123.3 269.638 1123.3H271.974V1124.84H269.37C267.557 1124.84 266.217 1124.41 265.349 1123.57C264.506 1122.7 264.085 1121.27 264.085 1119.28V1105.53H260.945V1104.04H264.085V1098.76H265.809V1104.04H271.974V1105.53H265.809ZM277.017 1099.41C276.609 1099.41 276.264 1099.28 275.983 1099.02C275.702 1098.74 275.562 1098.37 275.562 1097.91C275.562 1097.48 275.702 1097.12 275.983 1096.84C276.264 1096.56 276.609 1096.42 277.017 1096.42C277.426 1096.42 277.77 1096.56 278.051 1096.84C278.332 1097.12 278.472 1097.48 278.472 1097.91C278.472 1098.37 278.332 1098.74 278.051 1099.02C277.77 1099.28 277.426 1099.41 277.017 1099.41ZM277.86 1104.04V1124.84H276.136V1104.04H277.86ZM308.38 1103.62C310.755 1103.62 312.695 1104.39 314.201 1105.92C315.708 1107.42 316.461 1109.67 316.461 1112.66V1124.84H314.776V1112.77C314.776 1110.3 314.176 1108.41 312.976 1107.1C311.802 1105.78 310.18 1105.11 308.112 1105.11C305.968 1105.11 304.244 1105.85 302.942 1107.33C301.64 1108.82 300.989 1110.96 300.989 1113.77V1124.84H299.304V1112.77C299.304 1110.3 298.704 1108.41 297.504 1107.1C296.33 1105.78 294.709 1105.11 292.641 1105.11C290.496 1105.11 288.773 1105.85 287.471 1107.33C286.168 1108.82 285.517 1110.96 285.517 1113.77V1124.84H283.794V1104.04H285.517V1108.56C286.105 1106.93 287.049 1105.7 288.351 1104.88C289.679 1104.04 291.198 1103.62 292.909 1103.62C294.798 1103.62 296.419 1104.12 297.772 1105.11C299.151 1106.08 300.096 1107.53 300.606 1109.44C301.091 1107.53 302.036 1106.08 303.44 1105.11C304.844 1104.12 306.491 1103.62 308.38 1103.62ZM340.921 1113.04C340.921 1113.96 340.895 1114.65 340.844 1115.11H322.883C322.934 1116.97 323.343 1118.54 324.109 1119.82C324.874 1121.1 325.883 1122.05 327.134 1122.69C328.385 1123.33 329.751 1123.65 331.232 1123.65C333.274 1123.65 334.985 1123.15 336.363 1122.16C337.742 1121.13 338.61 1119.76 338.968 1118.02H340.767C340.359 1120.14 339.312 1121.86 337.627 1123.19C335.942 1124.49 333.81 1125.14 331.232 1125.14C329.291 1125.14 327.555 1124.71 326.023 1123.84C324.491 1122.97 323.292 1121.73 322.423 1120.13C321.555 1118.49 321.121 1116.59 321.121 1114.42C321.121 1112.25 321.543 1110.36 322.385 1108.75C323.253 1107.14 324.453 1105.92 325.985 1105.07C327.517 1104.21 329.266 1103.77 331.232 1103.77C333.223 1103.77 334.946 1104.21 336.402 1105.07C337.882 1105.92 339.006 1107.05 339.772 1108.48C340.538 1109.89 340.921 1111.41 340.921 1113.04ZM339.197 1113.69C339.274 1111.85 338.942 1110.3 338.202 1109.02C337.487 1107.74 336.504 1106.8 335.253 1106.19C334.002 1105.55 332.649 1105.23 331.193 1105.23C329.738 1105.23 328.385 1105.55 327.134 1106.19C325.908 1106.8 324.9 1107.74 324.109 1109.02C323.343 1110.3 322.934 1111.85 322.883 1113.69H339.197ZM352.678 1125.14C350.354 1125.14 348.452 1124.63 346.971 1123.61C345.516 1122.59 344.699 1121.13 344.521 1119.24H346.282C346.41 1120.6 347.023 1121.67 348.12 1122.46C349.244 1123.25 350.763 1123.65 352.678 1123.65C354.261 1123.65 355.512 1123.25 356.431 1122.46C357.375 1121.64 357.848 1120.65 357.848 1119.47C357.848 1118.66 357.592 1117.99 357.082 1117.48C356.597 1116.95 355.984 1116.54 355.244 1116.26C354.503 1115.98 353.495 1115.67 352.218 1115.34C350.686 1114.93 349.448 1114.53 348.503 1114.15C347.559 1113.74 346.754 1113.14 346.091 1112.35C345.427 1111.56 345.095 1110.5 345.095 1109.17C345.095 1108.2 345.389 1107.31 345.976 1106.49C346.563 1105.65 347.38 1104.99 348.427 1104.5C349.474 1104.02 350.661 1103.77 351.988 1103.77C354.158 1103.77 355.907 1104.32 357.235 1105.42C358.588 1106.49 359.316 1107.99 359.418 1109.9H357.694C357.618 1108.52 357.082 1107.4 356.086 1106.53C355.09 1105.66 353.712 1105.23 351.95 1105.23C350.469 1105.23 349.244 1105.61 348.274 1106.38C347.303 1107.14 346.818 1108.07 346.818 1109.17C346.818 1110.14 347.086 1110.93 347.623 1111.55C348.184 1112.13 348.861 1112.59 349.652 1112.93C350.469 1113.23 351.542 1113.56 352.869 1113.92C354.324 1114.3 355.486 1114.69 356.354 1115.07C357.248 1115.43 358.001 1115.96 358.614 1116.68C359.226 1117.37 359.533 1118.3 359.533 1119.47C359.533 1120.55 359.239 1121.52 358.652 1122.38C358.065 1123.25 357.248 1123.93 356.201 1124.41C355.154 1124.9 353.98 1125.14 352.678 1125.14ZM364.131 1124.95C363.697 1124.95 363.34 1124.81 363.059 1124.53C362.778 1124.25 362.637 1123.89 362.637 1123.46C362.637 1123.02 362.778 1122.67 363.059 1122.38C363.34 1122.1 363.697 1121.96 364.131 1121.96C364.539 1121.96 364.884 1122.1 365.165 1122.38C365.446 1122.67 365.586 1123.02 365.586 1123.46C365.586 1123.89 365.446 1124.25 365.165 1124.53C364.884 1124.81 364.539 1124.95 364.131 1124.95Z" fill="black"/>
<path d="M235.012 775.818L160.417 950.529H120.595L195.751 780.305H99.8426V746.653H235.012V775.818ZM255.723 845.647C255.723 813.303 261.519 787.97 273.11 769.649C284.888 751.327 304.332 742.166 331.44 742.166C358.549 742.166 377.899 751.327 389.49 769.649C401.269 787.97 407.158 813.303 407.158 845.647C407.158 878.177 401.269 903.697 389.49 922.205C377.899 940.714 358.549 949.968 331.44 949.968C304.332 949.968 284.888 940.714 273.11 922.205C261.519 903.697 255.723 878.177 255.723 845.647ZM368.458 845.647C368.458 831.812 367.523 820.22 365.653 810.873C363.971 801.338 360.419 793.579 354.997 787.596C349.762 781.614 341.91 778.623 331.44 778.623C320.971 778.623 313.025 781.614 307.603 787.596C302.369 793.579 298.816 801.338 296.947 810.873C295.264 820.22 294.423 831.812 294.423 845.647C294.423 859.855 295.264 871.821 296.947 881.542C298.629 891.077 302.182 898.836 307.603 904.818C313.025 910.614 320.971 913.512 331.44 913.512C341.91 913.512 349.856 910.614 355.277 904.818C360.699 898.836 364.251 891.077 365.934 881.542C367.616 871.821 368.458 859.855 368.458 845.647ZM429.728 796.29C429.728 782.081 433.842 770.957 442.068 762.918C450.481 754.879 461.231 750.859 474.318 750.859C487.405 750.859 498.061 754.879 506.287 762.918C514.7 770.957 518.907 782.081 518.907 796.29C518.907 810.686 514.7 821.903 506.287 829.942C498.061 837.981 487.405 842.001 474.318 842.001C461.231 842.001 450.481 837.981 442.068 829.942C433.842 821.903 429.728 810.686 429.728 796.29ZM609.768 754.225L499.557 950.529H461.418L571.348 754.225H609.768ZM474.037 774.416C463.755 774.416 458.613 781.707 458.613 796.29C458.613 811.06 463.755 818.444 474.037 818.444C479.085 818.444 483.011 816.668 485.816 813.116C488.62 809.377 490.022 803.768 490.022 796.29C490.022 781.707 484.694 774.416 474.037 774.416ZM552.84 908.184C552.84 893.788 556.953 882.664 565.179 874.812C573.592 866.773 584.342 862.753 597.429 862.753C610.516 862.753 621.079 866.773 629.118 874.812C637.344 882.664 641.457 893.788 641.457 908.184C641.457 922.579 637.344 933.797 629.118 941.836C621.079 949.875 610.516 953.895 597.429 953.895C584.155 953.895 573.405 949.875 565.179 941.836C556.953 933.797 552.84 922.579 552.84 908.184ZM597.148 886.31C586.492 886.31 581.163 893.601 581.163 908.184C581.163 922.953 586.492 930.338 597.148 930.338C607.618 930.338 612.853 922.953 612.853 908.184C612.853 893.601 607.618 886.31 597.148 886.31Z" fill="#1104AC"/>
<path d="M448.206 1360.01C354.5 1360.01 278.147 1437.67 278 1533.14C277.934 1580.27 296.209 1625.96 328.15 1658.5C358.491 1689.41 398.793 1706.43 441.65 1706.43C443.937 1706.43 446.239 1706.38 448.552 1706.29C543.797 1702.31 618.413 1626.27 618.413 1533.15C618.413 1437.67 542.06 1360 448.207 1360L448.206 1360.01ZM448.206 1376.7C485.58 1376.7 519.874 1390.35 546.55 1412.99L329.65 1635.29C307.058 1607.05 294.357 1570.63 294.411 1533.17C294.54 1446.89 363.531 1376.7 448.201 1376.7L448.206 1376.7ZM447.868 1689.61C407.357 1691.32 369.324 1676.26 340.729 1647.64L558.575 1424.37C585.418 1452.54 601.995 1490.9 601.995 1533.16C601.995 1617.28 534.295 1686 447.868 1689.6V1689.61Z" fill="#FF6058"/>
<path d="M287.764 1591.69C289.655 1591.69 291.468 1590.93 292.804 1589.57C294.141 1588.21 294.893 1586.36 294.893 1584.44C294.893 1582.52 294.141 1580.67 292.804 1579.31C291.468 1577.95 289.655 1577.19 287.764 1577.19C285.874 1577.19 284.061 1577.95 282.724 1579.31C281.387 1580.67 280.637 1582.52 280.637 1584.44C280.641 1586.36 281.393 1588.2 282.729 1589.56C284.065 1590.92 285.875 1591.69 287.764 1591.69L287.764 1591.69Z" fill="#CCCCCC"/>
<path d="M298.149 1596.35H277.286C275.109 1596.36 273.345 1598.15 273.336 1600.37V1624.18H278.324V1606.88H280.637V1658.1H286.616V1628.09H288.928V1658.09H294.907V1606.87H297.205V1624.18H302.161V1600.37C302.157 1599.29 301.731 1598.26 300.977 1597.51C300.224 1596.75 299.205 1596.34 298.149 1596.35V1596.35Z" fill="#CCCCCC"/>
<path d="M287.764 1404.89C289.655 1404.89 291.468 1404.12 292.804 1402.76C294.141 1401.4 294.893 1399.56 294.893 1397.64C294.893 1395.71 294.141 1393.87 292.804 1392.51C291.468 1391.15 289.655 1390.39 287.764 1390.39C285.874 1390.39 284.061 1391.15 282.724 1392.51C281.387 1393.87 280.637 1395.71 280.637 1397.64C280.641 1399.56 281.393 1401.4 282.729 1402.76C284.065 1404.12 285.875 1404.88 287.764 1404.89L287.764 1404.89Z" fill="#CCCCCC"/>
<path d="M298.149 1409.55H277.286C275.109 1409.55 273.345 1411.35 273.336 1413.56V1437.38H278.324V1420.08H280.637V1471.3H286.616V1441.29H288.928V1471.28H294.907V1420.06H297.205V1437.38H302.161V1413.56C302.157 1412.49 301.731 1411.46 300.977 1410.71C300.224 1409.95 299.205 1409.54 298.149 1409.55V1409.55Z" fill="#CCCCCC"/>
<path d="M519.331 1498.33C521.222 1498.33 523.035 1497.57 524.37 1496.21C525.707 1494.85 526.459 1493 526.459 1491.08C526.459 1489.16 525.707 1487.31 524.37 1485.95C523.035 1484.59 521.222 1483.83 519.331 1483.83C517.441 1483.83 515.627 1484.59 514.291 1485.95C512.954 1487.31 512.203 1489.16 512.203 1491.08C512.208 1493 512.959 1494.84 514.295 1496.2C515.632 1497.56 517.441 1498.33 519.33 1498.33L519.331 1498.33Z" fill="#CCCCCC"/>
<path d="M529.713 1502.99H508.85C506.673 1503 504.909 1504.79 504.9 1507.01V1530.82H509.889V1513.52H512.201V1564.74H518.18V1534.73H520.493V1564.73H526.472V1513.51H528.769V1530.83H533.726V1507.01C533.721 1505.93 533.295 1504.91 532.541 1504.15C531.788 1503.4 530.77 1502.98 529.713 1502.99V1502.99Z" fill="#CCCCCC"/>
<path d="M519.331 1311.5C521.222 1311.5 523.035 1310.74 524.37 1309.38C525.707 1308.02 526.459 1306.17 526.459 1304.25C526.459 1302.33 525.707 1300.48 524.37 1299.12C523.035 1297.76 521.222 1297 519.331 1297C517.441 1297 515.627 1297.76 514.291 1299.12C512.954 1300.48 512.203 1302.33 512.203 1304.25C512.208 1306.17 512.959 1308.01 514.295 1309.37C515.632 1310.73 517.441 1311.5 519.33 1311.5L519.331 1311.5Z" fill="#CCCCCC"/>
<path d="M529.713 1316.16H508.85C506.673 1316.17 504.909 1317.96 504.9 1320.18V1343.99H509.889V1326.69H512.201V1377.91H518.18V1347.9H520.493V1377.9H526.472V1326.68H528.769V1344H533.726V1320.18C533.721 1319.1 533.295 1318.08 532.541 1317.32C531.788 1316.57 530.77 1316.15 529.713 1316.16V1316.16Z" fill="#CCCCCC"/>
<path d="M519.331 1685.1C521.222 1685.1 523.035 1684.34 524.37 1682.98C525.707 1681.62 526.459 1679.78 526.459 1677.85C526.459 1675.93 525.707 1674.09 524.37 1672.73C523.035 1671.37 521.222 1670.6 519.331 1670.6C517.441 1670.6 515.627 1671.37 514.291 1672.73C512.954 1674.09 512.203 1675.93 512.203 1677.85C512.208 1679.77 512.959 1681.62 514.295 1682.98C515.632 1684.33 517.441 1685.1 519.33 1685.1L519.331 1685.1Z" fill="#CCCCCC"/>
<path d="M529.713 1689.76H508.85C506.673 1689.77 504.909 1691.56 504.9 1693.78V1717.6H509.889V1700.29H512.201V1751.51H518.18V1721.5H520.493V1751.5H526.472V1700.28H528.769V1717.6H533.726V1693.78C533.721 1692.71 533.295 1691.68 532.541 1690.92C531.788 1690.17 530.77 1689.75 529.713 1689.76V1689.76Z" fill="#CCCCCC"/>
<path d="M287.764 1498.3C289.655 1498.3 291.468 1497.54 292.804 1496.18C294.141 1494.82 294.893 1492.98 294.893 1491.05C294.893 1489.13 294.141 1487.29 292.804 1485.93C291.468 1484.57 289.655 1483.8 287.764 1483.8C285.874 1483.8 284.061 1484.57 282.724 1485.93C281.387 1487.29 280.637 1489.13 280.637 1491.05C280.641 1492.97 281.393 1494.82 282.729 1496.18C284.065 1497.53 285.875 1498.3 287.764 1498.3L287.764 1498.3Z" fill="#CCCCCC"/>
<path d="M298.149 1502.96H277.286C275.109 1502.97 273.345 1504.76 273.336 1506.98V1530.8H278.324V1513.49H280.637V1564.71H286.616V1534.7H288.928V1564.7H294.907V1513.48H297.205V1530.8H302.161V1506.98C302.157 1505.91 301.731 1504.88 300.977 1504.12C300.224 1503.37 299.205 1502.95 298.149 1502.96V1502.96Z" fill="#CCCCCC"/>
<path d="M287.764 1311.5C289.655 1311.5 291.468 1310.74 292.804 1309.38C294.141 1308.02 294.893 1306.17 294.893 1304.25C294.893 1302.33 294.141 1300.48 292.804 1299.12C291.468 1297.76 289.655 1297 287.764 1297C285.874 1297 284.061 1297.76 282.724 1299.12C281.387 1300.48 280.637 1302.33 280.637 1304.25C280.641 1306.17 281.393 1308.01 282.729 1309.37C284.065 1310.73 285.875 1311.5 287.764 1311.5L287.764 1311.5Z" fill="#CCCCCC"/>
<path d="M298.149 1316.16H277.286C275.109 1316.17 273.345 1317.96 273.336 1320.18V1343.99H278.324V1326.69H280.637V1377.91H286.616V1347.9H288.928V1377.9H294.907V1326.68H297.205V1344H302.161V1320.18C302.157 1319.1 301.731 1318.08 300.977 1317.32C300.224 1316.57 299.205 1316.15 298.149 1316.16V1316.16Z" fill="#CCCCCC"/>
<path d="M519.331 1404.94C521.222 1404.94 523.035 1404.18 524.37 1402.82C525.707 1401.46 526.459 1399.62 526.459 1397.69C526.459 1395.77 525.707 1393.93 524.37 1392.57C523.035 1391.21 521.222 1390.44 519.331 1390.44C517.441 1390.44 515.627 1391.21 514.291 1392.57C512.954 1393.93 512.203 1395.77 512.203 1397.69C512.208 1399.62 512.959 1401.46 514.295 1402.82C515.632 1404.18 517.441 1404.94 519.33 1404.94L519.331 1404.94Z" fill="#CCCCCC"/>
<path d="M529.713 1409.6H508.85C506.673 1409.61 504.909 1411.41 504.9 1413.62V1437.44H509.889V1420.14H512.201V1471.35H518.18V1441.34H520.493V1471.34H526.472V1420.12H528.769V1437.44H533.726V1413.62C533.721 1412.55 533.295 1411.52 532.541 1410.76C531.788 1410.01 530.77 1409.59 529.713 1409.61V1409.6Z" fill="#CCCCCC"/>
<path d="M287.764 1685.08C289.655 1685.08 291.468 1684.31 292.804 1682.95C294.141 1681.59 294.893 1679.75 294.893 1677.82C294.893 1675.9 294.141 1674.06 292.804 1672.7C291.468 1671.34 289.655 1670.57 287.764 1670.57C285.874 1670.57 284.061 1671.34 282.724 1672.7C281.387 1674.06 280.637 1675.9 280.637 1677.82C280.641 1679.75 281.393 1681.59 282.729 1682.95C284.065 1684.31 285.875 1685.07 287.764 1685.08L287.764 1685.08Z" fill="#CCCCCC"/>
<path d="M298.149 1689.73H277.286C275.109 1689.74 273.345 1691.54 273.336 1693.75V1717.57H278.324V1700.27H280.637V1751.49H286.616V1721.47H288.928V1751.47H294.907V1700.25H297.205V1717.57H302.161V1693.75C302.157 1692.68 301.731 1691.65 300.977 1690.89C300.224 1690.14 299.205 1689.72 298.149 1689.74V1689.73Z" fill="#CCCCCC"/>
<path d="M519.331 1591.72C521.222 1591.72 523.035 1590.95 524.37 1589.59C525.707 1588.23 526.459 1586.39 526.459 1584.47C526.459 1582.54 525.707 1580.7 524.37 1579.34C523.035 1577.98 521.222 1577.22 519.331 1577.22C517.441 1577.22 515.627 1577.98 514.291 1579.34C512.954 1580.7 512.203 1582.54 512.203 1584.47C512.208 1586.39 512.959 1588.23 514.295 1589.59C515.632 1590.95 517.441 1591.71 519.33 1591.72L519.331 1591.72Z" fill="#CCCCCC"/>
<path d="M529.713 1596.38H508.85C506.673 1596.39 504.909 1598.18 504.9 1600.39V1624.21H509.889V1606.91H512.201V1658.13H518.18V1628.12H520.493V1658.11H526.472V1606.89H528.769V1624.21H533.726V1600.4C533.721 1599.32 533.295 1598.29 532.541 1597.54C531.788 1596.78 530.77 1596.37 529.713 1596.38V1596.38Z" fill="#CCCCCC"/>
<path d="M378.969 1591.69C380.86 1591.69 382.673 1590.92 384.009 1589.57C385.346 1588.21 386.098 1586.36 386.098 1584.44C386.098 1582.52 385.346 1580.67 384.009 1579.31C382.673 1577.95 380.86 1577.19 378.969 1577.19C377.079 1577.19 375.266 1577.95 373.929 1579.31C372.593 1580.67 371.842 1582.52 371.842 1584.44C371.846 1586.36 372.598 1588.2 373.934 1589.56C375.27 1590.92 377.08 1591.69 378.969 1591.69L378.969 1591.69Z" fill="#CCCCCC"/>
<path d="M389.352 1596.35H368.489C366.312 1596.36 364.548 1598.15 364.539 1600.36V1624.18H369.527V1606.88H371.84V1658.1H377.819V1628.09H380.131V1658.08H386.111V1606.87H388.408V1624.18H393.364V1600.37C393.36 1599.29 392.934 1598.26 392.18 1597.51C391.427 1596.75 390.409 1596.34 389.352 1596.35V1596.35Z" fill="#CCCCCC"/>
<path d="M378.969 1404.89C380.86 1404.89 382.673 1404.13 384.009 1402.77C385.346 1401.41 386.098 1399.56 386.098 1397.64C386.098 1395.72 385.346 1393.87 384.009 1392.51C382.673 1391.15 380.86 1390.39 378.969 1390.39C377.079 1390.39 375.266 1391.15 373.929 1392.51C372.593 1393.87 371.842 1395.72 371.842 1397.64C371.846 1399.56 372.598 1401.4 373.934 1402.76C375.27 1404.12 377.08 1404.89 378.969 1404.89L378.969 1404.89Z" fill="#CCCCCC"/>
<path d="M389.352 1409.55H368.489C366.312 1409.56 364.548 1411.35 364.539 1413.57V1437.38H369.527V1420.08H371.84V1471.3H377.819V1441.29H380.131V1471.28H386.111V1420.07H388.408V1437.38H393.364V1413.57C393.36 1412.49 392.934 1411.46 392.18 1410.71C391.427 1409.95 390.409 1409.54 389.352 1409.55V1409.55Z" fill="#CCCCCC"/>
<path d="M610.536 1498.33C612.427 1498.33 614.24 1497.57 615.576 1496.21C616.912 1494.85 617.664 1493 617.664 1491.08C617.664 1489.16 616.912 1487.31 615.576 1485.95C614.24 1484.59 612.427 1483.83 610.536 1483.83C608.646 1483.83 606.833 1484.59 605.496 1485.95C604.159 1487.31 603.408 1489.16 603.408 1491.08C603.413 1493 604.164 1494.84 605.5 1496.2C606.837 1497.56 608.647 1498.33 610.535 1498.33L610.536 1498.33Z" fill="#CCCCCC"/>
<path d="M620.918 1502.99H600.056C597.878 1503 596.114 1504.79 596.105 1507.01V1530.82H601.094V1513.52H603.406V1564.74H609.385V1534.73H611.698V1564.73H617.677V1513.51H619.974V1530.83H624.931V1507.01C624.926 1505.93 624.5 1504.91 623.746 1504.15C622.993 1503.4 621.975 1502.98 620.918 1502.99V1502.99Z" fill="#CCCCCC"/>
<path d="M610.536 1311.5C612.427 1311.5 614.24 1310.74 615.576 1309.38C616.912 1308.02 617.664 1306.17 617.664 1304.25C617.664 1302.33 616.912 1300.48 615.576 1299.12C614.24 1297.76 612.427 1297 610.536 1297C608.646 1297 606.833 1297.76 605.496 1299.12C604.159 1300.48 603.408 1302.33 603.408 1304.25C603.413 1306.17 604.164 1308.01 605.5 1309.37C606.837 1310.73 608.647 1311.5 610.535 1311.5L610.536 1311.5Z" fill="#CCCCCC"/>
<path d="M620.918 1316.16H600.056C597.878 1316.17 596.114 1317.96 596.105 1320.18V1343.99H601.094V1326.69H603.406V1377.91H609.385V1347.9H611.698V1377.9H617.677V1326.68H619.974V1344H624.931V1320.18C624.926 1319.1 624.5 1318.08 623.746 1317.32C622.993 1316.57 621.975 1316.15 620.918 1316.16V1316.16Z" fill="#CCCCCC"/>
<path d="M610.536 1685.1C612.427 1685.1 614.24 1684.34 615.576 1682.98C616.912 1681.62 617.664 1679.78 617.664 1677.85C617.664 1675.93 616.912 1674.09 615.576 1672.73C614.24 1671.37 612.427 1670.6 610.536 1670.6C608.646 1670.6 606.833 1671.37 605.496 1672.73C604.159 1674.09 603.408 1675.93 603.408 1677.85C603.413 1679.78 604.164 1681.62 605.5 1682.98C606.837 1684.34 608.647 1685.1 610.535 1685.1L610.536 1685.1Z" fill="#CCCCCC"/>
<path d="M620.918 1689.76H600.056C597.878 1689.77 596.114 1691.57 596.105 1693.78V1717.6H601.094V1700.3H603.406V1751.51H609.385V1721.5H611.698V1751.5H617.677V1700.28H619.974V1717.6H624.931V1693.78C624.926 1692.71 624.5 1691.68 623.746 1690.92C622.993 1690.17 621.975 1689.75 620.918 1689.77V1689.76Z" fill="#CCCCCC"/>
<path d="M378.969 1498.3C380.86 1498.3 382.673 1497.54 384.009 1496.18C385.346 1494.82 386.098 1492.98 386.098 1491.05C386.098 1489.13 385.346 1487.29 384.009 1485.93C382.673 1484.57 380.86 1483.8 378.969 1483.8C377.079 1483.8 375.266 1484.57 373.929 1485.93C372.593 1487.29 371.842 1489.13 371.842 1491.05C371.846 1492.97 372.598 1494.82 373.934 1496.17C375.27 1497.53 377.08 1498.3 378.969 1498.3L378.969 1498.3Z" fill="#CCCCCC"/>
<path d="M389.352 1502.96H368.489C366.312 1502.97 364.548 1504.76 364.539 1506.98V1530.8H369.527V1513.49H371.84V1564.71H377.819V1534.7H380.131V1564.7H386.111V1513.48H388.408V1530.8H393.364V1506.98C393.36 1505.91 392.934 1504.88 392.18 1504.12C391.427 1503.37 390.409 1502.95 389.352 1502.96V1502.96Z" fill="#CCCCCC"/>
<path d="M378.969 1311.5C380.86 1311.5 382.673 1310.74 384.009 1309.38C385.346 1308.02 386.098 1306.17 386.098 1304.25C386.098 1302.33 385.346 1300.48 384.009 1299.12C382.673 1297.76 380.86 1297 378.969 1297C377.079 1297 375.266 1297.76 373.929 1299.12C372.593 1300.48 371.842 1302.33 371.842 1304.25C371.846 1306.17 372.598 1308.01 373.934 1309.37C375.27 1310.73 377.08 1311.5 378.969 1311.5L378.969 1311.5Z" fill="#CCCCCC"/>
<path d="M389.352 1316.16H368.489C366.312 1316.17 364.548 1317.96 364.539 1320.18V1343.99H369.527V1326.69H371.84V1377.91H377.819V1347.9H380.131V1377.9H386.111V1326.68H388.408V1344H393.364V1320.18C393.36 1319.1 392.934 1318.08 392.18 1317.32C391.427 1316.57 390.409 1316.15 389.352 1316.16V1316.16Z" fill="#CCCCCC"/>
<path d="M610.536 1404.95C612.427 1404.95 614.24 1404.18 615.576 1402.82C616.912 1401.46 617.664 1399.62 617.664 1397.69C617.664 1395.77 616.912 1393.93 615.576 1392.57C614.24 1391.21 612.427 1390.44 610.536 1390.44C608.646 1390.44 606.833 1391.21 605.496 1392.57C604.159 1393.93 603.408 1395.77 603.408 1397.69C603.413 1399.62 604.164 1401.46 605.5 1402.82C606.837 1404.18 608.647 1404.94 610.535 1404.95L610.536 1404.95Z" fill="#CCCCCC"/>
<path d="M620.918 1409.6H600.056C597.878 1409.61 596.114 1411.41 596.105 1413.62V1437.44H601.094V1420.14H603.406V1471.36H609.385V1441.34H611.698V1471.34H617.677V1420.12H619.974V1437.44H624.931V1413.62C624.926 1412.55 624.5 1411.52 623.746 1410.76C622.993 1410.01 621.975 1409.59 620.918 1409.61V1409.6Z" fill="#CCCCCC"/>
<path d="M378.969 1685.08C380.86 1685.08 382.673 1684.31 384.009 1682.95C385.346 1681.59 386.098 1679.75 386.098 1677.82C386.098 1675.9 385.346 1674.06 384.009 1672.7C382.673 1671.34 380.86 1670.57 378.969 1670.57C377.079 1670.57 375.266 1671.34 373.929 1672.7C372.593 1674.06 371.842 1675.9 371.842 1677.82C371.846 1679.75 372.598 1681.59 373.934 1682.95C375.27 1684.31 377.08 1685.07 378.969 1685.08L378.969 1685.08Z" fill="#CCCCCC"/>
<path d="M389.352 1689.73H368.489C366.312 1689.74 364.548 1691.54 364.539 1693.75V1717.57H369.527V1700.27H371.84V1751.49H377.819V1721.47H380.131V1751.47H386.111V1700.25H388.408V1717.57H393.364V1693.75C393.36 1692.68 392.934 1691.65 392.18 1690.89C391.427 1690.14 390.409 1689.72 389.352 1689.74V1689.73Z" fill="#CCCCCC"/>
<path d="M610.536 1591.72C612.427 1591.72 614.24 1590.95 615.576 1589.59C616.912 1588.23 617.664 1586.39 617.664 1584.47C617.664 1582.54 616.912 1580.7 615.576 1579.34C614.24 1577.98 612.427 1577.22 610.536 1577.22C608.646 1577.22 606.833 1577.98 605.496 1579.34C604.159 1580.7 603.408 1582.54 603.408 1584.47C603.413 1586.39 604.164 1588.23 605.5 1589.59C606.837 1590.95 608.647 1591.71 610.535 1591.72L610.536 1591.72Z" fill="#CCCCCC"/>
<path d="M620.918 1596.38H600.056C597.878 1596.39 596.114 1598.18 596.105 1600.39V1624.21H601.094V1606.91H603.406V1658.13H609.385V1628.12H611.698V1658.11H617.677V1606.89H619.974V1624.21H624.931V1600.4C624.926 1599.32 624.5 1598.29 623.746 1597.54C622.993 1596.78 621.975 1596.37 620.918 1596.38V1596.38Z" fill="#CCCCCC"/>
<path d="M342.514 1606.53L346.132 1620.71L351.482 1619.11L346.353 1600.67C346.007 1599.46 345.337 1598.37 344.418 1597.52C343.498 1596.67 342.366 1596.1 341.145 1595.87C336.025 1594.99 330.798 1594.99 325.679 1595.87C324.457 1596.1 323.322 1596.66 322.401 1597.51C321.48 1598.36 320.812 1599.46 320.47 1600.67L315.326 1619.08L320.692 1620.68L324.295 1606.5L326.53 1607.09L320.518 1630.78H326.811L326.812 1658.08H332.334V1632.47H334.631V1658.08H340.044L340.043 1630.78H346.336L340.279 1607.12L342.514 1606.53Z" fill="#CCCCCC"/>
<path d="M333.406 1591.69C335.296 1591.69 337.109 1590.92 338.446 1589.57C339.783 1588.21 340.533 1586.36 340.533 1584.44C340.533 1582.52 339.783 1580.67 338.446 1579.31C337.109 1577.95 335.296 1577.19 333.406 1577.19C331.515 1577.19 329.702 1577.95 328.366 1579.31C327.029 1580.67 326.277 1582.52 326.277 1584.44C326.277 1586.36 327.029 1588.21 328.366 1589.57C329.702 1590.92 331.515 1591.69 333.406 1591.69Z" fill="#CCCCCC"/>
<path d="M342.514 1419.73L346.132 1433.91L351.482 1432.31L346.353 1413.87C346.007 1412.66 345.337 1411.57 344.418 1410.72C343.498 1409.87 342.366 1409.3 341.145 1409.07C336.025 1408.19 330.798 1408.19 325.679 1409.07C324.457 1409.29 323.322 1409.86 322.401 1410.71C321.48 1411.56 320.812 1412.65 320.47 1413.87L315.326 1432.27L320.692 1433.88L324.295 1419.69L326.53 1420.29L320.518 1443.98H326.811L326.812 1471.28H332.334V1445.67H334.631V1471.28H340.044L340.043 1443.98H346.336L340.279 1420.32L342.514 1419.73Z" fill="#CCCCCC"/>
<path d="M333.406 1404.89C335.296 1404.89 337.109 1404.12 338.446 1402.76C339.783 1401.4 340.533 1399.56 340.533 1397.64C340.533 1395.71 339.783 1393.87 338.446 1392.51C337.109 1391.15 335.296 1390.39 333.406 1390.39C331.515 1390.39 329.702 1391.15 328.366 1392.51C327.029 1393.87 326.277 1395.71 326.277 1397.64C326.277 1399.56 327.029 1401.4 328.366 1402.76C329.702 1404.12 331.515 1404.89 333.406 1404.89Z" fill="#CCCCCC"/>
<path d="M574.082 1513.17L577.701 1527.35L583.05 1525.75L577.921 1507.31C577.576 1506.1 576.905 1505.01 575.986 1504.16C575.067 1503.31 573.934 1502.74 572.714 1502.51C567.594 1501.64 562.366 1501.64 557.248 1502.51C556.025 1502.74 554.89 1503.31 553.969 1504.16C553.048 1505 552.38 1506.1 552.039 1507.31L546.895 1525.72L552.26 1527.32L555.863 1513.14L558.098 1513.73L552.086 1537.42H558.379L558.38 1564.73H563.903V1539.12H566.2V1564.73H571.613L571.612 1537.42H577.905L571.847 1513.76L574.082 1513.17Z" fill="#CCCCCC"/>
<path d="M564.974 1498.33C566.864 1498.33 568.677 1497.57 570.014 1496.21C571.351 1494.85 572.102 1493 572.102 1491.08C572.102 1489.16 571.351 1487.31 570.014 1485.95C568.677 1484.59 566.864 1483.83 564.974 1483.83C563.083 1483.83 561.27 1484.59 559.934 1485.95C558.598 1487.31 557.846 1489.16 557.846 1491.08C557.846 1493 558.598 1494.85 559.934 1496.21C561.27 1497.57 563.083 1498.33 564.974 1498.33Z" fill="#CCCCCC"/>
<path d="M574.082 1326.34L577.701 1340.52L583.05 1338.92L577.921 1320.48C577.576 1319.27 576.905 1318.18 575.986 1317.33C575.067 1316.48 573.934 1315.91 572.714 1315.68C567.594 1314.81 562.366 1314.81 557.248 1315.68C556.025 1315.91 554.89 1316.48 553.969 1317.33C553.048 1318.17 552.38 1319.27 552.039 1320.48L546.895 1338.89L552.26 1340.49L555.863 1326.31L558.098 1326.9L552.086 1350.59H558.379L558.38 1377.9H563.903V1352.29H566.2V1377.9H571.613L571.612 1350.59H577.905L571.847 1326.93L574.082 1326.34Z" fill="#CCCCCC"/>
<path d="M564.974 1311.5C566.864 1311.5 568.677 1310.74 570.014 1309.38C571.351 1308.02 572.102 1306.17 572.102 1304.25C572.102 1302.33 571.351 1300.48 570.014 1299.12C568.677 1297.76 566.864 1297 564.974 1297C563.083 1297 561.27 1297.76 559.934 1299.12C558.598 1300.48 557.846 1302.33 557.846 1304.25C557.846 1306.17 558.598 1308.02 559.934 1309.38C561.27 1310.74 563.083 1311.5 564.974 1311.5Z" fill="#CCCCCC"/>
<path d="M574.082 1699.94L577.701 1714.13L583.05 1712.53L577.921 1694.09C577.576 1692.87 576.905 1691.78 575.986 1690.94C575.067 1690.09 573.934 1689.52 572.714 1689.28C567.594 1688.41 562.366 1688.41 557.248 1689.28C556.025 1689.51 554.89 1690.08 553.969 1690.93C553.048 1691.78 552.38 1692.87 552.039 1694.09L546.895 1712.49L552.26 1714.09L555.863 1699.91L558.098 1700.5L552.086 1724.19H558.379L558.38 1751.5H563.903V1725.89H566.2V1751.5H571.613L571.612 1724.19H577.905L571.847 1700.54L574.082 1699.94Z" fill="#CCCCCC"/>
<path d="M564.974 1685.1C566.864 1685.1 568.677 1684.34 570.014 1682.98C571.351 1681.62 572.102 1679.78 572.102 1677.85C572.102 1675.93 571.351 1674.09 570.014 1672.73C568.677 1671.37 566.864 1670.6 564.974 1670.6C563.083 1670.6 561.27 1671.37 559.934 1672.73C558.598 1674.09 557.846 1675.93 557.846 1677.85C557.846 1679.78 558.598 1681.62 559.934 1682.98C561.27 1684.34 563.083 1685.1 564.974 1685.1Z" fill="#CCCCCC"/>
<path d="M342.514 1513.14L346.132 1527.32L351.482 1525.72L346.353 1507.28C346.007 1506.07 345.337 1504.98 344.418 1504.13C343.498 1503.29 342.366 1502.71 341.145 1502.48C336.025 1501.61 330.798 1501.61 325.679 1502.48C324.457 1502.71 323.322 1503.28 322.401 1504.13C321.48 1504.98 320.812 1506.07 320.47 1507.28L315.326 1525.69L320.692 1527.29L324.295 1513.11L326.53 1513.7L320.518 1537.39H326.811L326.812 1564.7H332.334V1539.09H334.631V1564.7H340.044L340.043 1537.39H346.336L340.279 1513.73L342.514 1513.14Z" fill="#CCCCCC"/>
<path d="M333.406 1498.3C335.296 1498.3 337.109 1497.54 338.446 1496.18C339.783 1494.82 340.533 1492.98 340.533 1491.05C340.533 1489.13 339.783 1487.29 338.446 1485.93C337.109 1484.57 335.296 1483.8 333.406 1483.8C331.515 1483.8 329.702 1484.57 328.366 1485.93C327.029 1487.29 326.277 1489.13 326.277 1491.05C326.277 1492.98 327.029 1494.82 328.366 1496.18C329.702 1497.54 331.515 1498.3 333.406 1498.3Z" fill="#CCCCCC"/>
<path d="M342.514 1326.34L346.132 1340.52L351.482 1338.92L346.353 1320.48C346.007 1319.27 345.337 1318.18 344.418 1317.33C343.498 1316.48 342.366 1315.91 341.145 1315.68C336.025 1314.81 330.798 1314.81 325.679 1315.68C324.457 1315.91 323.322 1316.48 322.401 1317.33C321.48 1318.17 320.812 1319.27 320.47 1320.48L315.326 1338.89L320.692 1340.49L324.295 1326.31L326.53 1326.9L320.518 1350.59H326.811L326.812 1377.9H332.334V1352.29H334.631V1377.9H340.044L340.043 1350.59H346.336L340.279 1326.93L342.514 1326.34Z" fill="#CCCCCC"/>
<path d="M333.406 1311.5C335.296 1311.5 337.109 1310.74 338.446 1309.38C339.783 1308.02 340.533 1306.17 340.533 1304.25C340.533 1302.33 339.783 1300.48 338.446 1299.12C337.109 1297.76 335.296 1297 333.406 1297C331.515 1297 329.702 1297.76 328.366 1299.12C327.029 1300.48 326.277 1302.33 326.277 1304.25C326.277 1306.17 327.029 1308.02 328.366 1309.38C329.702 1310.74 331.515 1311.5 333.406 1311.5Z" fill="#CCCCCC"/>
<path d="M574.082 1419.79L577.701 1433.97L583.05 1432.37L577.921 1413.93C577.576 1412.71 576.905 1411.62 575.986 1410.78C575.067 1409.93 573.934 1409.36 572.714 1409.13C567.594 1408.25 562.366 1408.25 557.248 1409.13C556.025 1409.35 554.89 1409.92 553.969 1410.77C553.048 1411.62 552.38 1412.71 552.039 1413.93L546.895 1432.33L552.26 1433.93L555.863 1419.75L558.098 1420.34L552.086 1444.03H558.379L558.38 1471.34H563.903V1445.73H566.2V1471.34H571.613L571.612 1444.03H577.905L571.847 1420.38L574.082 1419.79Z" fill="#CCCCCC"/>
<path d="M564.974 1404.95C566.864 1404.95 568.677 1404.18 570.014 1402.82C571.351 1401.46 572.102 1399.62 572.102 1397.69C572.102 1395.77 571.351 1393.93 570.014 1392.57C568.677 1391.21 566.864 1390.44 564.974 1390.44C563.083 1390.44 561.27 1391.21 559.934 1392.57C558.598 1393.93 557.846 1395.77 557.846 1397.69C557.846 1399.62 558.598 1401.46 559.934 1402.82C561.27 1404.18 563.083 1404.95 564.974 1404.95Z" fill="#CCCCCC"/>
<path d="M342.514 1699.92L346.132 1714.1L351.482 1712.5L346.353 1694.06C346.007 1692.84 345.337 1691.75 344.418 1690.91C343.498 1690.06 342.366 1689.49 341.145 1689.26C336.025 1688.38 330.798 1688.38 325.679 1689.26C324.457 1689.48 323.322 1690.05 322.401 1690.9C321.48 1691.75 320.812 1692.84 320.47 1694.06L315.326 1712.46L320.692 1714.06L324.295 1699.88L326.53 1700.47L320.518 1724.16H326.811L326.812 1751.47H332.334V1725.86H334.631V1751.47H340.044L340.043 1724.16H346.336L340.279 1700.51L342.514 1699.92Z" fill="#CCCCCC"/>
<path d="M333.406 1685.08C335.296 1685.08 337.109 1684.31 338.446 1682.95C339.783 1681.59 340.533 1679.75 340.533 1677.82C340.533 1675.9 339.783 1674.06 338.446 1672.7C337.109 1671.34 335.296 1670.57 333.406 1670.57C331.515 1670.57 329.702 1671.34 328.366 1672.7C327.029 1674.06 326.277 1675.9 326.277 1677.82C326.277 1679.75 327.029 1681.59 328.366 1682.95C329.702 1684.31 331.515 1685.08 333.406 1685.08Z" fill="#CCCCCC"/>
<path d="M574.082 1606.56L577.701 1620.74L583.05 1619.14L577.921 1600.7C577.576 1599.49 576.905 1598.4 575.986 1597.55C575.067 1596.7 573.934 1596.13 572.714 1595.9C567.594 1595.02 562.366 1595.02 557.248 1595.9C556.025 1596.12 554.89 1596.69 553.969 1597.54C553.048 1598.39 552.38 1599.48 552.039 1600.7L546.895 1619.11L552.26 1620.71L555.863 1606.53L558.098 1607.12L552.086 1630.81H558.379L558.38 1658.11H563.903V1632.5H566.2V1658.11H571.613L571.612 1630.81H577.905L571.847 1607.15L574.082 1606.56Z" fill="#CCCCCC"/>
<path d="M564.974 1591.72C566.864 1591.72 568.677 1590.95 570.014 1589.59C571.351 1588.23 572.102 1586.39 572.102 1584.47C572.102 1582.54 571.351 1580.7 570.014 1579.34C568.677 1577.98 566.864 1577.22 564.974 1577.22C563.083 1577.22 561.27 1577.98 559.934 1579.34C558.598 1580.7 557.846 1582.54 557.846 1584.47C557.846 1586.39 558.598 1588.23 559.934 1589.59C561.27 1590.95 563.083 1591.72 564.974 1591.72Z" fill="#CCCCCC"/>
<path d="M433.717 1606.53L437.336 1620.71L442.685 1619.11L437.556 1600.67C437.21 1599.46 436.54 1598.37 435.621 1597.52C434.701 1596.67 433.569 1596.1 432.348 1595.87C427.228 1594.99 422.001 1594.99 416.882 1595.87C415.66 1596.1 414.525 1596.67 413.604 1597.51C412.683 1598.36 412.015 1599.46 411.673 1600.67L406.529 1619.08L411.895 1620.68L415.498 1606.5L417.733 1607.09L411.721 1630.78H418.014L418.015 1658.08H423.537V1632.47H425.835V1658.08H431.248L431.246 1630.78H437.54L431.482 1607.12L433.717 1606.53Z" fill="#CCCCCC"/>
<path d="M424.607 1591.69C426.497 1591.69 428.31 1590.93 429.647 1589.57C430.984 1588.21 431.734 1586.36 431.734 1584.44C431.734 1582.52 430.984 1580.67 429.647 1579.31C428.31 1577.95 426.497 1577.19 424.607 1577.19C422.716 1577.19 420.903 1577.95 419.567 1579.31C418.23 1580.67 417.479 1582.52 417.479 1584.44C417.479 1586.36 418.23 1588.21 419.567 1589.57C420.903 1590.93 422.716 1591.69 424.607 1591.69Z" fill="#CCCCCC"/>
<path d="M433.717 1419.73L437.336 1433.91L442.685 1432.31L437.556 1413.87C437.21 1412.66 436.54 1411.57 435.621 1410.72C434.701 1409.87 433.569 1409.3 432.348 1409.07C427.228 1408.19 422.001 1408.19 416.882 1409.07C415.66 1409.29 414.525 1409.86 413.604 1410.71C412.683 1411.56 412.015 1412.65 411.673 1413.87L406.529 1432.28L411.895 1433.88L415.498 1419.7L417.733 1420.29L411.721 1443.98H418.014L418.015 1471.28H423.537V1445.67H425.835V1471.28H431.248L431.246 1443.98H437.54L431.482 1420.32L433.717 1419.73Z" fill="#CCCCCC"/>
<path d="M424.609 1404.89C426.499 1404.89 428.312 1404.13 429.649 1402.77C430.986 1401.41 431.736 1399.56 431.736 1397.64C431.736 1395.72 430.986 1393.87 429.649 1392.51C428.312 1391.15 426.499 1390.39 424.609 1390.39C422.718 1390.39 420.905 1391.15 419.569 1392.51C418.232 1393.87 417.48 1395.72 417.48 1397.64C417.48 1399.56 418.232 1401.41 419.569 1402.77C420.905 1404.13 422.718 1404.89 424.609 1404.89Z" fill="#CCCCCC"/>
<path d="M665.285 1513.17L668.904 1527.35L674.253 1525.75L669.124 1507.31C668.779 1506.1 668.108 1505.01 667.19 1504.16C666.27 1503.31 665.137 1502.74 663.917 1502.51C658.797 1501.64 653.57 1501.64 648.451 1502.51C647.228 1502.74 646.093 1503.31 645.172 1504.16C644.252 1505 643.583 1506.1 643.242 1507.31L638.098 1525.72L643.464 1527.32L647.067 1513.14L649.301 1513.73L643.289 1537.42H649.582L649.583 1564.73H655.106V1539.12H657.403V1564.73H662.816L662.815 1537.42H669.108L663.051 1513.76L665.285 1513.17Z" fill="#CCCCCC"/>
<path d="M656.177 1498.33C658.067 1498.33 659.88 1497.57 661.217 1496.21C662.554 1494.85 663.305 1493 663.305 1491.08C663.305 1489.16 662.554 1487.31 661.217 1485.95C659.88 1484.59 658.067 1483.83 656.177 1483.83C654.286 1483.83 652.473 1484.59 651.137 1485.95C649.801 1487.31 649.049 1489.16 649.049 1491.08C649.049 1493 649.801 1494.85 651.137 1496.21C652.473 1497.57 654.286 1498.33 656.177 1498.33Z" fill="#CCCCCC"/>
<path d="M665.285 1326.34L668.904 1340.52L674.253 1338.92L669.124 1320.48C668.779 1319.27 668.108 1318.18 667.19 1317.33C666.27 1316.48 665.137 1315.91 663.917 1315.68C658.797 1314.81 653.57 1314.81 648.451 1315.68C647.228 1315.91 646.093 1316.48 645.172 1317.33C644.252 1318.17 643.583 1319.27 643.242 1320.48L638.098 1338.89L643.464 1340.49L647.067 1326.31L649.301 1326.9L643.289 1350.59H649.582L649.583 1377.9H655.106V1352.29H657.403V1377.9H662.816L662.815 1350.59H669.108L663.051 1326.93L665.285 1326.34Z" fill="#CCCCCC"/>
<path d="M656.177 1311.5C658.067 1311.5 659.88 1310.74 661.217 1309.38C662.554 1308.02 663.305 1306.17 663.305 1304.25C663.305 1302.33 662.554 1300.48 661.217 1299.12C659.88 1297.76 658.067 1297 656.177 1297C654.286 1297 652.473 1297.76 651.137 1299.12C649.801 1300.48 649.049 1302.33 649.049 1304.25C649.049 1306.17 649.801 1308.02 651.137 1309.38C652.473 1310.74 654.286 1311.5 656.177 1311.5Z" fill="#CCCCCC"/>
<path d="M665.285 1699.94L668.904 1714.13L674.253 1712.53L669.124 1694.09C668.779 1692.87 668.108 1691.78 667.19 1690.94C666.27 1690.09 665.137 1689.52 663.917 1689.28C658.797 1688.41 653.57 1688.41 648.451 1689.28C647.228 1689.51 646.093 1690.08 645.172 1690.93C644.252 1691.78 643.583 1692.87 643.242 1694.09L638.098 1712.49L643.464 1714.09L647.067 1699.91L649.301 1700.5L643.289 1724.19H649.582L649.583 1751.5H655.106V1725.89H657.403V1751.5H662.816L662.815 1724.19H669.108L663.051 1700.54L665.285 1699.94Z" fill="#CCCCCC"/>
<path d="M656.177 1685.1C658.067 1685.1 659.88 1684.34 661.217 1682.98C662.554 1681.62 663.305 1679.78 663.305 1677.85C663.305 1675.93 662.554 1674.09 661.217 1672.73C659.88 1671.37 658.067 1670.6 656.177 1670.6C654.286 1670.6 652.473 1671.37 651.137 1672.73C649.801 1674.09 649.049 1675.93 649.049 1677.85C649.049 1679.78 649.801 1681.62 651.137 1682.98C652.473 1684.34 654.286 1685.1 656.177 1685.1Z" fill="#CCCCCC"/>
<path d="M433.717 1513.14L437.336 1527.33L442.685 1525.72L437.556 1507.29C437.21 1506.07 436.54 1504.98 435.621 1504.13C434.701 1503.29 433.569 1502.71 432.348 1502.48C427.228 1501.61 422.001 1501.61 416.882 1502.48C415.66 1502.71 414.525 1503.28 413.604 1504.13C412.683 1504.98 412.015 1506.07 411.673 1507.29L406.529 1525.69L411.895 1527.29L415.498 1513.11L417.733 1513.7L411.721 1537.39H418.014L418.015 1564.7H423.537V1539.09H425.835V1564.7H431.248L431.246 1537.39H437.54L431.482 1513.74L433.717 1513.14Z" fill="#CCCCCC"/>
<path d="M424.607 1498.3C426.497 1498.3 428.31 1497.54 429.647 1496.18C430.984 1494.82 431.734 1492.98 431.734 1491.05C431.734 1489.13 430.984 1487.29 429.647 1485.93C428.31 1484.57 426.497 1483.8 424.607 1483.8C422.716 1483.8 420.903 1484.57 419.567 1485.93C418.23 1487.29 417.479 1489.13 417.479 1491.05C417.479 1492.98 418.23 1494.82 419.567 1496.18C420.903 1497.54 422.716 1498.3 424.607 1498.3Z" fill="#CCCCCC"/>
<path d="M433.717 1326.34L437.336 1340.52L442.685 1338.92L437.556 1320.48C437.21 1319.27 436.54 1318.18 435.621 1317.33C434.701 1316.48 433.569 1315.91 432.348 1315.68C427.228 1314.81 422.001 1314.81 416.882 1315.68C415.66 1315.91 414.525 1316.48 413.604 1317.33C412.683 1318.17 412.015 1319.27 411.673 1320.48L406.529 1338.89L411.895 1340.49L415.498 1326.31L417.733 1326.9L411.721 1350.59H418.014L418.015 1377.9H423.537V1352.29H425.835V1377.9H431.248L431.246 1350.59H437.54L431.482 1326.93L433.717 1326.34Z" fill="#CCCCCC"/>
<path d="M424.609 1311.5C426.499 1311.5 428.312 1310.74 429.649 1309.38C430.986 1308.02 431.736 1306.17 431.736 1304.25C431.736 1302.33 430.986 1300.48 429.649 1299.12C428.312 1297.76 426.499 1297 424.609 1297C422.718 1297 420.905 1297.76 419.569 1299.12C418.232 1300.48 417.48 1302.33 417.48 1304.25C417.48 1306.17 418.232 1308.02 419.569 1309.38C420.905 1310.74 422.718 1311.5 424.609 1311.5Z" fill="#CCCCCC"/>
<path d="M665.285 1419.78L668.904 1433.96L674.253 1432.36L669.124 1413.93C668.779 1412.71 668.108 1411.62 667.19 1410.77C666.27 1409.93 665.137 1409.35 663.917 1409.12C658.797 1408.25 653.57 1408.25 648.451 1409.12C647.228 1409.35 646.093 1409.92 645.172 1410.77C644.252 1411.62 643.583 1412.71 643.242 1413.93L638.098 1432.33L643.464 1433.93L647.067 1419.75L649.301 1420.34L643.289 1444.03H649.582L649.583 1471.34H655.106V1445.73H657.403V1471.34H662.816L662.815 1444.03H669.108L663.051 1420.38L665.285 1419.78Z" fill="#CCCCCC"/>
<path d="M656.177 1404.94C658.067 1404.94 659.88 1404.18 661.217 1402.82C662.554 1401.46 663.305 1399.62 663.305 1397.69C663.305 1395.77 662.554 1393.93 661.217 1392.57C659.88 1391.21 658.067 1390.44 656.177 1390.44C654.286 1390.44 652.473 1391.21 651.137 1392.57C649.801 1393.93 649.049 1395.77 649.049 1397.69C649.049 1399.62 649.801 1401.46 651.137 1402.82C652.473 1404.18 654.286 1404.94 656.177 1404.94Z" fill="#CCCCCC"/>
<path d="M433.717 1699.92L437.336 1714.1L442.685 1712.5L437.556 1694.06C437.21 1692.84 436.54 1691.75 435.621 1690.91C434.701 1690.06 433.569 1689.49 432.348 1689.26C427.228 1688.38 422.001 1688.38 416.882 1689.26C415.66 1689.48 414.525 1690.05 413.604 1690.9C412.683 1691.75 412.015 1692.84 411.673 1694.06L406.529 1712.46L411.895 1714.06L415.498 1699.88L417.733 1700.47L411.721 1724.16H418.014L418.015 1751.47H423.537V1725.86H425.835V1751.47H431.248L431.246 1724.16H437.54L431.482 1700.51L433.717 1699.92Z" fill="#CCCCCC"/>
<path d="M424.607 1685.08C426.497 1685.08 428.31 1684.31 429.647 1682.95C430.984 1681.59 431.734 1679.75 431.734 1677.82C431.734 1675.9 430.984 1674.06 429.647 1672.7C428.31 1671.34 426.497 1670.57 424.607 1670.57C422.716 1670.57 420.903 1671.34 419.567 1672.7C418.23 1674.06 417.479 1675.9 417.479 1677.82C417.479 1679.75 418.23 1681.59 419.567 1682.95C420.903 1684.31 422.716 1685.08 424.607 1685.08Z" fill="#CCCCCC"/>
<path d="M665.285 1606.56L668.904 1620.74L674.253 1619.14L669.124 1600.7C668.779 1599.49 668.108 1598.4 667.19 1597.55C666.27 1596.7 665.137 1596.13 663.917 1595.9C658.797 1595.02 653.57 1595.02 648.451 1595.9C647.228 1596.12 646.093 1596.69 645.172 1597.54C644.252 1598.39 643.583 1599.48 643.242 1600.7L638.098 1619.1L643.464 1620.71L647.067 1606.52L649.301 1607.12L643.289 1630.81H649.582L649.583 1658.11H655.106V1632.5H657.403V1658.11H662.816L662.815 1630.81H669.108L663.051 1607.15L665.285 1606.56Z" fill="#CCCCCC"/>
<path d="M656.177 1591.72C658.067 1591.72 659.88 1590.95 661.217 1589.59C662.554 1588.23 663.305 1586.39 663.305 1584.47C663.305 1582.54 662.554 1580.7 661.217 1579.34C659.88 1577.98 658.067 1577.22 656.177 1577.22C654.286 1577.22 652.473 1577.98 651.137 1579.34C649.801 1580.7 649.049 1582.54 649.049 1584.47C649.049 1586.39 649.801 1588.23 651.137 1589.59C652.473 1590.95 654.286 1591.72 656.177 1591.72Z" fill="#CCCCCC"/>
<path d="M251.188 1606.53L254.806 1620.71L260.155 1619.11L255.027 1600.67C254.681 1599.46 254.01 1598.37 253.092 1597.52C252.172 1596.67 251.04 1596.1 249.819 1595.87C244.699 1594.99 239.472 1594.99 234.353 1595.87C233.13 1596.09 231.996 1596.66 231.075 1597.51C230.154 1598.36 229.486 1599.45 229.144 1600.67L224 1619.08L229.366 1620.68L232.969 1606.5L235.203 1607.09L229.191 1630.78H235.484L235.486 1658.08H241.008V1632.47H243.305V1658.08H248.718L248.717 1630.78H255.01L248.953 1607.12L251.188 1606.53Z" fill="#CCCCCC"/>
<path d="M242.082 1591.69C243.972 1591.69 245.785 1590.92 247.122 1589.57C248.458 1588.21 249.209 1586.36 249.209 1584.44C249.209 1582.52 248.458 1580.67 247.122 1579.31C245.785 1577.95 243.972 1577.19 242.082 1577.19C240.191 1577.19 238.377 1577.95 237.042 1579.31C235.705 1580.67 234.953 1582.52 234.953 1584.44C234.953 1586.36 235.705 1588.21 237.042 1589.57C238.377 1590.92 240.19 1591.69 242.082 1591.69Z" fill="#CCCCCC"/>
<path d="M251.188 1419.73L254.806 1433.91L260.155 1432.31L255.027 1413.87C254.681 1412.66 254.01 1411.57 253.092 1410.72C252.172 1409.87 251.04 1409.3 249.819 1409.07C244.699 1408.19 239.472 1408.19 234.353 1409.07C233.13 1409.29 231.996 1409.86 231.075 1410.71C230.154 1411.56 229.486 1412.65 229.144 1413.87L224 1432.28L229.366 1433.88L232.969 1419.7L235.203 1420.29L229.191 1443.98H235.484L235.486 1471.28H241.008V1445.67H243.305V1471.28H248.718L248.717 1443.98H255.01L248.953 1420.32L251.188 1419.73Z" fill="#CCCCCC"/>
<path d="M242.082 1404.89C243.972 1404.89 245.785 1404.13 247.122 1402.77C248.458 1401.41 249.209 1399.56 249.209 1397.64C249.209 1395.72 248.458 1393.87 247.122 1392.51C245.785 1391.15 243.972 1390.39 242.082 1390.39C240.191 1390.39 238.377 1391.15 237.042 1392.51C235.705 1393.87 234.953 1395.72 234.953 1397.64C234.953 1399.56 235.705 1401.41 237.042 1402.77C238.377 1404.13 240.19 1404.89 242.082 1404.89Z" fill="#CCCCCC"/>
<path d="M482.754 1513.17L486.373 1527.35L491.722 1525.75L486.593 1507.31C486.247 1506.1 485.577 1505.01 484.658 1504.16C483.739 1503.31 482.606 1502.74 481.386 1502.51C476.266 1501.64 471.038 1501.64 465.919 1502.51C464.697 1502.74 463.562 1503.31 462.641 1504.16C461.72 1505 461.052 1506.1 460.711 1507.31L455.566 1525.72L460.932 1527.32L464.535 1513.14L466.77 1513.73L460.758 1537.42H467.051L467.052 1564.73H472.575V1539.12H474.872V1564.73H480.285L480.284 1537.42H486.577L480.519 1513.76L482.754 1513.17Z" fill="#CCCCCC"/>
<path d="M473.646 1498.33C475.536 1498.33 477.349 1497.57 478.686 1496.21C480.023 1494.85 480.773 1493 480.773 1491.08C480.773 1489.16 480.023 1487.31 478.686 1485.95C477.349 1484.59 475.536 1483.83 473.646 1483.83C471.755 1483.83 469.942 1484.59 468.606 1485.95C467.269 1487.31 466.518 1489.16 466.518 1491.08C466.518 1493 467.269 1494.85 468.606 1496.21C469.942 1497.57 471.755 1498.33 473.646 1498.33Z" fill="#CCCCCC"/>
<path d="M482.754 1326.34L486.373 1340.52L491.722 1338.92L486.593 1320.48C486.247 1319.27 485.577 1318.18 484.658 1317.33C483.739 1316.48 482.606 1315.91 481.386 1315.68C476.266 1314.81 471.038 1314.81 465.919 1315.68C464.697 1315.91 463.562 1316.48 462.641 1317.33C461.72 1318.17 461.052 1319.27 460.711 1320.48L455.566 1338.89L460.932 1340.49L464.535 1326.31L466.77 1326.9L460.758 1350.59H467.051L467.052 1377.9H472.575V1352.29H474.872V1377.9H480.285L480.284 1350.59H486.577L480.519 1326.93L482.754 1326.34Z" fill="#CCCCCC"/>
<path d="M473.646 1311.5C475.536 1311.5 477.349 1310.74 478.686 1309.38C480.023 1308.02 480.773 1306.17 480.773 1304.25C480.773 1302.33 480.023 1300.48 478.686 1299.12C477.349 1297.76 475.536 1297 473.646 1297C471.755 1297 469.942 1297.76 468.606 1299.12C467.269 1300.48 466.518 1302.33 466.518 1304.25C466.518 1306.17 467.269 1308.02 468.606 1309.38C469.942 1310.74 471.755 1311.5 473.646 1311.5Z" fill="#CCCCCC"/>
<path d="M482.754 1699.94L486.373 1714.13L491.722 1712.53L486.593 1694.09C486.247 1692.87 485.577 1691.78 484.658 1690.94C483.739 1690.09 482.606 1689.52 481.386 1689.28C476.266 1688.41 471.038 1688.41 465.919 1689.28C464.697 1689.51 463.562 1690.08 462.641 1690.93C461.72 1691.78 461.052 1692.87 460.711 1694.09L455.566 1712.49L460.932 1714.09L464.535 1699.91L466.77 1700.5L460.758 1724.19H467.051L467.052 1751.5H472.575V1725.89H474.872V1751.5H480.285L480.284 1724.19H486.577L480.519 1700.54L482.754 1699.94Z" fill="#CCCCCC"/>
<path d="M473.646 1685.1C475.536 1685.1 477.349 1684.34 478.686 1682.98C480.023 1681.62 480.773 1679.78 480.773 1677.85C480.773 1675.93 480.023 1674.09 478.686 1672.73C477.349 1671.37 475.536 1670.6 473.646 1670.6C471.755 1670.6 469.942 1671.37 468.606 1672.73C467.269 1674.09 466.518 1675.93 466.518 1677.85C466.518 1679.78 467.269 1681.62 468.606 1682.98C469.942 1684.34 471.755 1685.1 473.646 1685.1Z" fill="#CCCCCC"/>
<path d="M251.188 1513.14L254.806 1527.32L260.155 1525.72L255.027 1507.28C254.681 1506.07 254.01 1504.98 253.092 1504.13C252.172 1503.29 251.04 1502.71 249.819 1502.48C244.699 1501.61 239.472 1501.61 234.353 1502.48C233.13 1502.71 231.996 1503.28 231.075 1504.13C230.154 1504.98 229.486 1506.07 229.144 1507.28L224 1525.69L229.366 1527.29L232.969 1513.11L235.203 1513.7L229.191 1537.39H235.484L235.486 1564.7H241.008V1539.09H243.305V1564.7H248.718L248.717 1537.39H255.01L248.953 1513.73L251.188 1513.14Z" fill="#CCCCCC"/>
<path d="M242.082 1498.3C243.972 1498.3 245.785 1497.54 247.122 1496.18C248.458 1494.82 249.209 1492.98 249.209 1491.05C249.209 1489.13 248.458 1487.29 247.122 1485.93C245.785 1484.57 243.972 1483.8 242.082 1483.8C240.191 1483.8 238.377 1484.57 237.042 1485.93C235.705 1487.29 234.953 1489.13 234.953 1491.05C234.953 1492.98 235.705 1494.82 237.042 1496.18C238.377 1497.54 240.19 1498.3 242.082 1498.3Z" fill="#CCCCCC"/>
<path d="M251.188 1326.34L254.806 1340.52L260.155 1338.92L255.027 1320.48C254.681 1319.27 254.01 1318.18 253.092 1317.33C252.172 1316.48 251.04 1315.91 249.819 1315.68C244.699 1314.81 239.472 1314.81 234.353 1315.68C233.13 1315.91 231.996 1316.48 231.075 1317.33C230.154 1318.17 229.486 1319.27 229.144 1320.48L224 1338.89L229.366 1340.49L232.969 1326.31L235.203 1326.9L229.191 1350.59H235.484L235.486 1377.9H241.008V1352.29H243.305V1377.9H248.718L248.717 1350.59H255.01L248.953 1326.93L251.188 1326.34Z" fill="#CCCCCC"/>
<path d="M242.082 1311.5C243.972 1311.5 245.785 1310.74 247.122 1309.38C248.458 1308.02 249.209 1306.17 249.209 1304.25C249.209 1302.33 248.458 1300.48 247.122 1299.12C245.785 1297.76 243.972 1297 242.082 1297C240.191 1297 238.377 1297.76 237.042 1299.12C235.705 1300.48 234.953 1302.33 234.953 1304.25C234.953 1306.17 235.705 1308.02 237.042 1309.38C238.377 1310.74 240.19 1311.5 242.082 1311.5Z" fill="#CCCCCC"/>
<path d="M482.754 1419.79L486.373 1433.97L491.722 1432.37L486.593 1413.93C486.247 1412.71 485.577 1411.62 484.658 1410.78C483.739 1409.93 482.606 1409.36 481.386 1409.13C476.266 1408.25 471.038 1408.25 465.919 1409.13C464.697 1409.35 463.562 1409.92 462.641 1410.77C461.72 1411.62 461.052 1412.71 460.711 1413.93L455.566 1432.33L460.932 1433.93L464.535 1419.75L466.77 1420.34L460.758 1444.03H467.051L467.052 1471.34H472.575V1445.73H474.872V1471.34H480.285L480.284 1444.03H486.577L480.519 1420.38L482.754 1419.79Z" fill="#CCCCCC"/>
<path d="M473.646 1404.95C475.536 1404.95 477.349 1404.18 478.686 1402.82C480.023 1401.46 480.773 1399.62 480.773 1397.69C480.773 1395.77 480.023 1393.93 478.686 1392.57C477.349 1391.21 475.536 1390.44 473.646 1390.44C471.755 1390.44 469.942 1391.21 468.606 1392.57C467.269 1393.93 466.518 1395.77 466.518 1397.69C466.518 1399.62 467.269 1401.46 468.606 1402.82C469.942 1404.18 471.755 1404.95 473.646 1404.95Z" fill="#CCCCCC"/>
<path d="M251.188 1699.92L254.806 1714.1L260.155 1712.5L255.027 1694.06C254.681 1692.84 254.01 1691.75 253.092 1690.91C252.172 1690.06 251.04 1689.49 249.819 1689.26C244.699 1688.38 239.472 1688.38 234.353 1689.26C233.13 1689.48 231.996 1690.05 231.075 1690.9C230.154 1691.75 229.486 1692.84 229.144 1694.06L224 1712.46L229.366 1714.06L232.969 1699.88L235.203 1700.47L229.191 1724.16H235.484L235.486 1751.47H241.008V1725.86H243.305V1751.47H248.718L248.717 1724.16H255.01L248.953 1700.51L251.188 1699.92Z" fill="#CCCCCC"/>
<path d="M242.082 1685.08C243.972 1685.08 245.785 1684.31 247.122 1682.95C248.458 1681.59 249.209 1679.75 249.209 1677.82C249.209 1675.9 248.458 1674.06 247.122 1672.7C245.785 1671.34 243.972 1670.57 242.082 1670.57C240.191 1670.57 238.377 1671.34 237.042 1672.7C235.705 1674.06 234.953 1675.9 234.953 1677.82C234.953 1679.75 235.705 1681.59 237.042 1682.95C238.377 1684.31 240.19 1685.08 242.082 1685.08Z" fill="#CCCCCC"/>
<path d="M482.754 1606.56L486.373 1620.74L491.722 1619.14L486.593 1600.7C486.247 1599.49 485.577 1598.4 484.658 1597.55C483.739 1596.7 482.606 1596.13 481.386 1595.9C476.266 1595.02 471.038 1595.02 465.919 1595.9C464.697 1596.12 463.562 1596.69 462.641 1597.54C461.72 1598.39 461.052 1599.48 460.711 1600.7L455.566 1619.11L460.932 1620.71L464.535 1606.53L466.77 1607.12L460.758 1630.81H467.051L467.052 1658.11H472.575V1632.5H474.872V1658.11H480.285L480.284 1630.81H486.577L480.519 1607.15L482.754 1606.56Z" fill="#CCCCCC"/>
<path d="M473.646 1591.72C475.536 1591.72 477.349 1590.95 478.686 1589.59C480.023 1588.23 480.773 1586.39 480.773 1584.47C480.773 1582.54 480.023 1580.7 478.686 1579.34C477.349 1577.98 475.536 1577.22 473.646 1577.22C471.755 1577.22 469.942 1577.98 468.606 1579.34C467.269 1580.7 466.518 1582.54 466.518 1584.47C466.518 1586.39 467.269 1588.23 468.606 1589.59C469.942 1590.95 471.755 1591.72 473.646 1591.72Z" fill="#CCCCCC"/>
<defs>
<filter id="filter0_d_473_6726" x="126.979" y="0.0641601" width="529.342" height="529.342" filterUnits="userSpaceOnUse" color-interpolation-filters="sRGB">
<feFlood flood-opacity="0" result="BackgroundImageFix"/>
<feColorMatrix in="SourceAlpha" type="matrix" values="0 0 0 0 0 0 0 0 0 0 0 0 0 0 0 0 0 0 127 0" result="hardAlpha"/>
<feOffset dy="3.40413"/>
<feGaussianBlur stdDeviation="8.51031"/>
<feComposite in2="hardAlpha" operator="out"/>
<feColorMatrix type="matrix" values="0 0 0 0 0 0 0 0 0 0 0 0 0 0 0 0 0 0 0.25 0"/>
<feBlend mode="normal" in2="BackgroundImageFix" result="effect1_dropShadow_473_6726"/>
<feBlend mode="normal" in="SourceGraphic" in2="effect1_dropShadow_473_6726" result="shape"/>
</filter>
</defs>
</svg>
