<svg width="736" height="653" viewBox="0 0 736 653" fill="none" xmlns="http://www.w3.org/2000/svg">
<path opacity="0.15" fill-rule="evenodd" clip-rule="evenodd" d="M663.308 234.886C673.588 291.329 731.657 342.509 704.328 397.809C676.772 453.569 597.698 482.25 529.245 506.162C467.605 527.694 400.306 537.885 338.343 525.653C281.671 514.465 252.057 470.506 206.668 442.483C155.155 410.679 81.0924 398.904 54.7657 350.573C25.6118 297.053 10.7252 222.506 60.3447 173.865C111.337 123.878 210.015 153.025 282.646 127.187C341.189 106.36 375.733 50.1141 437.423 39.722C509.554 27.571 596.54 25.3566 643.954 66.3216C691.307 107.235 652.93 177.905 663.308 234.886Z" fill="#BED8FF"/>
<path fill-rule="evenodd" clip-rule="evenodd" d="M622.759 252.918C635.496 301.986 690.003 343.304 669.523 393.816C648.874 444.748 581.061 475.175 522.297 500.706C469.381 523.696 410.741 537.062 355.341 530.32C304.671 524.154 275.71 487.346 233.887 465.609C186.421 440.94 120.388 435.388 94.0396 394.514C64.8614 349.251 46.8858 284.529 87.4421 238.432C129.12 191.061 217.976 210.315 280.296 182.814C330.528 160.647 357.304 108.831 410.99 95.6539C473.761 80.2464 550.271 72.6273 594.721 105.637C639.115 138.605 609.901 203.381 622.759 252.918Z" fill="#E4ECFF"/>
<g clip-path="url(#clip0_422_6272)">
<path fill-rule="evenodd" clip-rule="evenodd" d="M360.414 263.395C357.613 263.053 354.623 263.173 352.018 264.279C346.478 266.631 344.904 273.175 344.98 278.494C345.062 284.22 346.277 290.473 341.925 295.086C339.924 297.207 337.435 298.83 335.47 300.99C333.371 303.297 331.724 305.938 330.504 308.774C328.264 313.983 327.165 320.108 329.213 325.572C331.016 330.383 335.553 334.725 334.572 340.195C333.55 345.902 327.797 350.264 324.2 354.515C320.129 359.325 316.381 365.473 315.765 371.781C315.175 377.826 317.806 383.94 321.844 388.51C329.913 397.641 342.042 402.118 354.271 402.09C359.464 402.078 365.343 401.843 369.823 399.053C371.208 398.191 371.939 397.223 372.762 395.878C373.5 394.672 374.475 393.887 375.604 393.034C378.084 391.159 379.874 388.633 381.017 385.805C385.455 374.82 381.908 361.23 375.696 351.476C374.224 349.165 373.019 346.941 373.734 344.186C374.48 341.311 376.314 338.717 377.936 336.245C379.539 333.803 381.369 331.472 382.622 328.831C383.934 326.064 384.304 323.166 384.072 320.138C383.636 314.45 381.181 309.201 377.704 304.626C374.356 300.22 370.424 296.004 370.415 290.23C370.406 284.111 374.497 278.668 372.754 272.446C372.032 269.87 370.583 267.227 368.247 265.683C366.007 264.201 363.049 263.717 360.414 263.395Z" fill="#5A7693" fill-opacity="0.42"/>
<path fill-rule="evenodd" clip-rule="evenodd" d="M362.246 273.178C362.193 272.356 361.219 271.863 360.451 272.078C359.441 272.36 359.46 273.304 359.487 274.145C359.569 276.729 359.195 279.241 358.573 281.749C357.282 286.964 354.895 291.768 353.005 296.776C351.115 301.781 350.229 306.948 351.337 312.244C352.382 317.237 354.023 322.1 355.092 327.099C356.035 331.505 357.037 336.152 355.602 340.547C354.221 344.778 351.168 348.223 348.969 352.046C344.418 359.96 342.399 368.74 342.129 377.775C342.004 381.97 342.117 386.205 343.09 390.319C343.65 392.689 344.403 395.891 346.433 397.527C347.37 398.281 348.971 398.542 349.759 397.425C350.499 396.377 349.85 394.755 349.615 393.638C348.598 388.804 348.393 383.863 348.637 378.955C348.872 374.2 349.434 369.453 350.93 364.912C352.319 360.698 354.429 356.913 356.913 353.226C359.443 349.47 362.074 345.705 363.12 341.254C364.182 336.732 363.319 332.132 362.165 327.698C360.944 323.007 359.346 318.451 357.693 313.887C356.083 309.44 355.512 305.233 356.401 300.579C358.157 291.384 362.859 282.753 362.246 273.178Z" fill="#78B950"/>
<path fill-rule="evenodd" clip-rule="evenodd" d="M286.447 274.552C282.98 275.605 279.537 277.303 277.066 279.966C271.812 285.629 273.424 294.188 276.324 300.439C279.447 307.167 284.178 313.93 281.511 321.65C280.285 325.199 278.224 328.413 277.061 331.989C275.818 335.811 275.282 339.791 275.35 343.779C275.477 351.104 277.425 358.92 282.715 364.316C287.373 369.068 294.989 371.843 296.73 378.822C298.547 386.102 294.105 394.255 292.133 401.153C289.901 408.959 288.754 418.18 291.366 425.96C293.869 433.417 300.187 439.278 307.339 442.582C321.629 449.183 338.221 448.167 352.551 441.772C358.634 439.057 365.406 435.721 369.186 430.091C370.355 428.35 370.7 426.826 370.955 424.807C371.183 422.996 371.912 421.561 372.785 419.965C374.702 416.458 375.467 412.538 375.313 408.599C374.712 393.3 363.369 379.074 350.927 370.769C347.979 368.802 345.39 366.799 344.773 363.169C344.128 359.38 344.908 355.359 345.504 351.592C346.093 347.869 347.008 344.161 347.081 340.385C347.158 336.431 346.06 332.812 344.187 329.351C340.669 322.851 335.015 317.921 328.519 314.319C322.263 310.85 315.423 307.909 312.361 301.086C309.115 293.854 311.036 285.288 305.704 278.838C303.496 276.166 300.399 273.794 296.843 273.183C293.432 272.597 289.707 273.562 286.447 274.552Z" fill="#08981F" fill-opacity="0.3"/>
<path fill-rule="evenodd" clip-rule="evenodd" d="M293.528 286.511C293.036 285.565 291.638 285.492 290.853 286.148C289.82 287.012 290.337 288.12 290.809 289.102C292.258 292.12 293.136 295.291 293.723 298.586C294.944 305.438 294.669 312.378 295.082 319.301C295.494 326.218 297.163 332.801 301.232 338.492C305.069 343.857 309.535 348.756 313.403 354.116C316.813 358.84 320.419 363.817 321.043 369.774C321.644 375.508 319.878 381.188 319.309 386.868C318.132 398.625 320.369 410.081 324.785 420.922C326.836 425.956 329.186 430.911 332.479 435.274C334.375 437.787 336.932 441.184 340.163 442.057C341.653 442.46 343.662 441.929 343.998 440.193C344.315 438.565 342.706 436.984 341.847 435.785C338.126 430.593 335.299 424.849 333.013 418.909C330.798 413.154 328.969 407.238 328.341 401.077C327.758 395.358 328.243 389.77 329.216 384.102C330.207 378.327 331.311 372.49 330.203 366.671C329.077 360.76 325.659 355.764 321.987 351.117C318.103 346.202 313.848 341.645 309.525 337.107C305.313 332.685 302.442 328.001 301.044 322.024C298.282 310.214 299.259 297.529 293.528 286.511Z" fill="#78B950"/>
<path fill-rule="evenodd" clip-rule="evenodd" d="M393.617 317.989C387.853 317.989 382.785 321.045 379.293 325.38C375.205 330.456 374.38 336.654 372.72 342.703C371.894 345.714 370.474 348.702 367.984 350.747C365.72 352.607 362.845 352.98 360.135 353.888C354.719 355.705 350.345 360.08 348.618 365.418C346.511 371.93 348.743 378.496 348.358 385.096C348.005 391.156 342.03 394.937 337.222 397.842C332.482 400.707 328.211 403.389 326.783 408.97C325.269 414.889 324.761 421.496 326.858 427.343C330.35 437.079 340.568 441.366 350.442 442.031C359.402 442.634 370.669 441.687 377.398 435.183C381.425 431.291 382.883 425.847 382.702 420.431C382.59 417.063 381.923 413.727 381.06 410.472C380.449 408.166 379.623 405.869 379.388 403.486C378.762 397.144 384.623 395.926 389.612 394.185C395.952 391.972 400.39 387.793 403.476 381.97C406.35 376.549 407.556 370.463 405.833 364.493C404.953 361.446 403.357 358.68 401.193 356.328C400.24 355.293 398.897 354.43 398.037 353.342C397.234 352.326 397.409 351.01 397.685 349.82C398.965 344.325 402.95 339.775 404.375 334.29C405.662 329.338 404.901 323.176 400.375 319.982C398.419 318.602 396.007 318.004 393.617 317.989Z" fill="#78B950"/>
<path fill-rule="evenodd" clip-rule="evenodd" d="M385.759 332.308C379.65 338.816 377.989 347.645 377.502 356.203C377.229 361.002 377.513 366.064 376.103 370.718C374.897 374.702 372.069 377.748 369.154 380.626C363.286 386.42 356.742 392.311 355.025 400.696C354.018 405.617 354.698 410.7 353.306 415.567C352.041 419.991 349.813 424.337 347.103 428.073C344.922 431.081 342.079 433.384 339.694 436.188C338.967 437.044 337.924 438.304 338.225 439.513C338.576 440.928 340.379 441.376 341.658 441.154C344.64 440.635 347.15 437.788 349.1 435.718C351.951 432.691 354.373 429.435 356.343 425.783C358.529 421.727 360.289 417.423 361.041 412.873C361.822 408.153 361.433 403.233 363.215 398.702C366.214 391.079 373.488 386.581 378.747 380.64C385.3 373.236 384.323 364.022 383.651 354.915C383.283 349.91 382.916 344.259 385.445 339.689C386.41 337.945 388.563 336.319 388.978 334.336C389.358 332.52 387.283 330.684 385.759 332.308Z" fill="#AFB9C5"/>
<path fill-rule="evenodd" clip-rule="evenodd" d="M379.242 439.252C379.242 476.47 373.168 495.971 341.103 495.971C309.038 495.971 302.965 476.47 302.964 439.252H379.242Z" fill="#FDCB6B"/>
</g>
<path fill-rule="evenodd" clip-rule="evenodd" d="M224.002 360.077C219.496 354.696 216.446 348.102 216.955 340.713C218.424 319.424 247.556 324.107 253.223 334.852C258.89 345.597 258.216 372.853 250.893 374.774C247.972 375.54 241.75 373.664 235.417 369.781L239.392 398.387H215.922L224.002 360.077Z" fill="#B99D8D"/>
<path fill-rule="evenodd" clip-rule="evenodd" d="M222.196 364.869C219.25 351.538 210.858 342.45 212.14 336.491C212.994 332.519 215.272 330.049 218.972 329.08C220.886 321.205 227.058 317.855 237.488 319.031C253.134 320.795 262.683 327.405 258.559 341.949C254.768 341.949 250.192 340.554 243.864 342.944C241.856 343.702 240.42 346.053 239.556 349.997H236.696C233.921 345.317 231.184 343.597 228.487 344.837C225.789 346.078 225.176 349.091 226.647 353.878L225.238 364.869H222.196Z" fill="#191847"/>
<path fill-rule="evenodd" clip-rule="evenodd" d="M150.405 522.74H262.865C271.507 522.74 278.512 529.867 278.512 538.657V630.181C278.512 638.972 271.507 646.098 262.865 646.098H150.405C141.763 646.098 134.758 638.972 134.758 630.181V538.657C134.758 529.867 141.763 522.74 150.405 522.74ZM166.051 550.595C163.891 550.595 162.14 552.377 162.14 554.574V614.264C162.14 616.461 163.891 618.243 166.051 618.243H247.219C249.379 618.243 251.13 616.461 251.13 614.264V554.574C251.13 552.377 249.379 550.595 247.219 550.595H166.051Z" fill="#C0C0C0"/>
<path d="M150.405 523.095H262.865C271.305 523.095 278.158 530.057 278.158 538.657V630.181C278.158 638.782 271.305 645.743 262.865 645.743H150.405C141.964 645.743 135.112 638.782 135.112 630.181V538.657C135.112 530.057 141.964 523.095 150.405 523.095ZM166.051 550.241C163.689 550.241 161.785 552.187 161.785 554.574V614.264C161.785 616.651 163.689 618.597 166.051 618.597H247.219C249.58 618.597 251.485 616.651 251.485 614.264V554.574C251.485 552.187 249.58 550.241 247.219 550.241H166.051Z" stroke="#B719DE" stroke-opacity="0.5" stroke-width="0.708726"/>
<path fill-rule="evenodd" clip-rule="evenodd" d="M375.479 641.123C356.199 617.172 343.153 599.416 336.342 587.855C324.681 568.059 315.136 550.444 312.124 543.715C304.941 527.669 328.659 520.156 334.027 527.64C342.152 538.968 359.503 574.613 386.081 634.575L375.479 641.123Z" fill="#B28B67"/>
<path fill-rule="evenodd" clip-rule="evenodd" d="M335.971 634.159L300.089 542.274C292.414 525.524 329.476 514.514 335.116 522.309C347.921 540.007 378.355 609.82 382.17 615.093L335.971 634.159Z" fill="#515472"/>
<path fill-rule="evenodd" clip-rule="evenodd" d="M240.406 615.682C247.387 605.315 272.782 570.439 286.622 556.014C290.6 551.869 294.48 547.891 298.151 544.184C309.061 533.165 330.856 551.757 319.965 561.792C292.84 586.782 253.259 620.513 249.952 623.521C245.317 627.737 236.019 622.197 240.406 615.682Z" fill="#915B3C"/>
<path fill-rule="evenodd" clip-rule="evenodd" d="M241.992 611.021C239.593 613.022 238.033 614.658 237.314 615.929C236.438 617.474 235.415 619.879 234.245 623.143C236.019 624.187 251.964 633.57 282.081 651.291C285.676 647.87 286.229 645.206 283.738 643.299C281.248 641.392 279.192 639.784 277.572 638.475L261.013 615.377C260.694 614.933 260.083 614.832 259.647 615.152C259.639 615.158 259.632 615.163 259.625 615.169L256.211 617.831C253.069 617.541 250.723 616.939 249.173 616.027C247.914 615.286 246.466 613.749 244.829 611.415L244.829 611.415C244.201 610.52 242.98 610.305 242.102 610.936C242.064 610.963 242.028 610.992 241.992 611.021Z" fill="black"/>
<path fill-rule="evenodd" clip-rule="evenodd" d="M367.188 637.543C366.094 640.514 365.547 642.737 365.547 644.212C365.547 646.006 365.841 648.624 366.428 652.066C368.474 652.066 386.859 652.066 421.585 652.066C423.018 647.245 422.191 644.643 419.102 644.259C416.014 643.874 413.449 643.527 411.406 643.218L385.77 631.591C385.277 631.368 384.699 631.593 384.479 632.095C384.475 632.103 384.471 632.112 384.468 632.121L382.82 636.187C379.961 637.544 377.638 638.223 375.851 638.223C374.399 638.223 372.393 637.626 369.835 636.433L369.835 636.433C368.853 635.975 367.692 636.413 367.242 637.412C367.222 637.455 367.204 637.499 367.188 637.543Z" fill="black"/>
<path fill-rule="evenodd" clip-rule="evenodd" d="M287.18 546.864C257.356 541.921 237.38 538.542 227.251 536.725C198.38 531.546 189.961 515.741 194.939 481.258H248.133C255.173 483.326 284.587 496.116 336.374 519.627C345.692 524.333 343.957 538.207 342.254 542.777C342.184 542.964 326.476 570.345 295.13 624.92L251.615 596.72L287.261 550.187C288.203 548.258 288.175 547.15 287.18 546.864Z" fill="#898DAE"/>
<path fill-rule="evenodd" clip-rule="evenodd" d="M291.012 468.234L322.206 491.537C330.666 493.859 337.735 496.748 343.411 500.205C344.752 501.448 346.372 503.965 340.812 503.53C335.251 503.095 329.382 502.892 328.615 504.821C327.848 506.751 331.213 509.058 329.662 511.662C328.628 513.397 323.743 509.045 315.006 498.606L284.116 485.575L291.012 468.234ZM171.243 469.039L191.679 469.12C179.06 510.558 172.248 532.545 171.243 535.08C168.98 540.785 173.768 549.474 175.816 554.143C169.147 557.179 169.857 545.935 161.444 549.917C153.765 553.551 147.923 560.137 139.051 554.568C137.96 553.883 136.765 551.305 139.653 549.29C146.848 544.271 157.217 535.487 158.618 532.596C160.528 528.653 164.737 507.467 171.243 469.039Z" fill="#B99D8D"/>
<path fill-rule="evenodd" clip-rule="evenodd" d="M229.318 381.805L237.774 380.329C269.149 407.901 282.036 460.87 320.493 488.93L311.237 500.602C244.52 492.198 227.983 427.589 229.318 381.805Z" fill="#1104AC"/>
<path fill-rule="evenodd" clip-rule="evenodd" d="M192.453 489.91C226.359 489.91 251.3 489.91 267.275 489.91C270.694 489.91 270.05 484.888 269.556 482.354C263.852 453.106 241.585 421.578 241.585 379.944L220.003 376.501C202.152 405.707 195.978 441.666 192.453 489.91Z" fill="#1104AC"/>
<path fill-rule="evenodd" clip-rule="evenodd" d="M193.06 405.209C189.926 404.293 187.444 402.155 185.614 398.796C177.725 384.316 180.574 376.344 189.004 373.724C197.434 371.103 204.952 376.501 218.384 376.501C219.114 376.501 219.783 376.548 220.391 376.641L227.147 377.033C246.532 443.865 251.878 488.455 243.186 510.802H184.295C180.806 519.078 177.467 526.042 174.279 531.693H158.232C156.722 482.019 168.331 439.857 193.06 405.209Z" fill="#1104AC"/>
<path fill-rule="evenodd" clip-rule="evenodd" d="M197.117 476.478C198.969 492.242 201.979 503.683 206.148 510.801H184.293C188.363 501.147 192.638 489.705 197.117 476.478V476.478Z" fill="#1104AC"/>
<path d="M567.978 650.076C526.391 650.076 492.678 617.34 492.678 576.957C492.678 536.574 526.391 503.838 567.978 503.838C609.564 503.838 643.277 536.574 643.277 576.957C643.277 617.34 609.564 650.076 567.978 650.076Z" fill="#C0C0C0"/>
<path d="M493.032 576.957C493.032 617.134 526.576 649.722 567.978 649.722C609.379 649.722 642.923 617.134 642.923 576.957C642.923 536.78 609.379 504.192 567.978 504.192C526.576 504.192 493.032 536.78 493.032 576.957Z" stroke="#B719DE" stroke-opacity="0.5" stroke-width="0.708726"/>
<path fill-rule="evenodd" clip-rule="evenodd" d="M575.545 360.077C580.051 354.696 583.101 348.102 582.592 340.713C581.123 319.424 551.991 324.107 546.324 334.852C540.657 345.597 541.33 372.853 548.654 374.774C551.575 375.54 557.797 373.664 564.13 369.781L560.155 398.387H583.625L575.545 360.077Z" fill="#926948"/>
<path fill-rule="evenodd" clip-rule="evenodd" d="M592.824 333.627C593.582 332.862 593.996 331.772 594.353 330.736C594.725 329.66 595.086 328.573 595.332 327.453C595.825 325.215 595.83 322.642 594.261 320.905C593.002 319.511 591.114 318.886 589.371 318.751C588.21 318.66 587.018 318.825 585.905 319.198C584.801 319.567 583.849 320.303 582.778 320.76C582.737 318.348 582.331 315.825 581.129 313.766C579.972 311.785 578.127 310.674 576.026 310.38C573.869 310.078 571.74 310.591 569.809 311.653C569.326 311.919 568.847 312.198 568.389 312.513C568.005 312.777 567.606 313.095 567.156 313.203C566.654 313.323 566.405 313.028 566.079 312.655C565.696 312.218 565.265 311.834 564.809 311.493C562.793 309.985 560.148 309.365 557.812 310.269C556.736 310.685 555.689 311.392 554.959 312.367C554.308 313.235 553.844 314.613 552.946 315.218C552.564 315.475 552.295 315.135 551.948 314.883C551.427 314.505 550.93 314.088 550.402 313.721C549.661 313.204 548.858 312.818 547.999 312.615C546.741 312.319 545.003 312.389 544.643 314.065C544.508 314.694 544.611 315.368 544.655 316.002C544.715 316.873 544.777 317.744 544.852 318.614C544.908 319.274 544.98 319.912 545.102 320.56C545.167 320.906 545.372 321.55 545.226 321.896C545.044 322.329 544.204 322.083 543.845 322.098C543.136 322.128 542.423 322.255 541.768 322.563C541.259 322.802 540.725 323.153 540.511 323.746C540.379 324.11 540.414 324.484 540.476 324.858C540.551 325.307 540.465 325.546 540.409 325.999C539.457 325.522 536.156 324.462 535.741 326.199C535.603 326.777 535.917 327.43 536.158 327.918C536.579 328.773 537.131 329.555 537.696 330.3C538.874 331.855 540.28 333.197 541.793 334.344C540.021 335.146 539.558 337.511 541.093 338.92C541.771 339.542 542.682 339.68 543.536 339.64C543.849 339.626 544.3 339.503 544.547 339.559C544.679 339.589 544.821 339.703 545.004 339.716C546.211 339.8 547.573 339.504 548.752 339.232C550.853 338.746 552.843 337.734 554.467 336.191C554.884 335.795 555.228 335.568 555.789 335.574C556.281 335.579 556.763 335.716 557.254 335.728C558.554 335.762 559.725 335.116 560.932 334.686C561.006 336.344 561.47 338.17 562.137 339.662C562.68 340.879 563.816 341.055 564.932 341.162C568.5 341.504 572.08 341.122 575.653 341.127C572.194 341.923 568.621 342.25 565.193 343.186C563.644 343.609 564.827 344.671 565.489 345.408C566.58 346.62 567.391 348.123 567.954 349.706C569.646 347.462 572.636 345.984 575.285 346.673C578.212 347.435 580.273 351.462 578.402 354.357C577.315 356.037 575.352 356.686 573.72 357.408C574.993 358.755 575.302 360.745 576.068 362.421C576.446 363.248 576.977 364.182 577.823 364.47C578.136 364.577 578.503 364.586 578.749 364.845C579.055 365.167 579.128 365.526 579.518 365.802C581.076 366.904 583.51 366.819 584.891 365.381C586.14 364.08 585.815 362.022 584.772 360.704C586.432 360 589.457 359.094 588.797 356.463C592.395 356.22 601.13 350.284 596.302 345.947C598.952 344.423 601.386 340.7 599.684 337.418C598.373 334.89 595.325 333.761 592.824 333.627Z" fill="#191847"/>
<path fill-rule="evenodd" clip-rule="evenodd" d="M464.364 501.606C456.309 496.686 442.795 503.008 442.804 510.045C442.832 531.1 461.721 630.331 462.707 636.604C463.693 642.877 474.257 644.534 474.873 636.624C475.852 624.039 477.67 580.473 475.851 560.307C475.099 551.983 474.291 544.056 473.494 536.984C483.406 555.192 498.734 581.261 519.48 615.193L530.742 609.958C521.898 580.316 514.646 559.39 508.987 547.179C499.296 526.272 490.209 508.367 486.384 502.06C480.369 492.139 469.897 495.601 464.364 501.606Z" fill="#B28B67"/>
<path fill-rule="evenodd" clip-rule="evenodd" d="M529.935 593.497L491.28 500.344C482.02 485.191 456.056 503.428 459.214 512.217C466.384 532.17 502.846 596.769 504.982 602.714L529.935 593.497Z" fill="#B04EC8"/>
<path fill-rule="evenodd" clip-rule="evenodd" d="M532.133 604.058C534.532 606.059 536.092 607.695 536.811 608.966C537.687 610.511 538.71 612.916 539.88 616.18C538.106 617.224 522.161 626.607 492.044 644.328C488.449 640.907 487.896 638.243 490.387 636.336C492.877 634.429 494.933 632.821 496.553 631.512L513.112 608.414C513.431 607.97 514.042 607.869 514.478 608.189C514.486 608.195 514.493 608.2 514.5 608.206L517.914 610.868C521.056 610.578 523.402 609.977 524.952 609.064C526.211 608.323 527.659 606.786 529.296 604.452L529.296 604.452C529.924 603.557 531.145 603.342 532.023 603.973C532.061 604 532.097 604.029 532.133 604.058Z" fill="black"/>
<path fill-rule="evenodd" clip-rule="evenodd" d="M477.343 631.576C478.437 634.547 478.984 636.77 478.984 638.245C478.984 640.039 478.691 642.656 478.103 646.098C476.057 646.098 457.672 646.098 422.947 646.098C421.513 641.278 422.341 638.675 425.429 638.291C428.517 637.907 431.082 637.56 433.125 637.25L458.761 625.624C459.254 625.4 459.832 625.625 460.052 626.127C460.056 626.136 460.06 626.144 460.063 626.153L461.711 630.219C464.57 631.576 466.893 632.255 468.68 632.255C470.133 632.255 472.138 631.658 474.697 630.465L474.697 630.465C475.679 630.007 476.84 630.446 477.29 631.444C477.309 631.488 477.327 631.531 477.343 631.576Z" fill="black"/>
<path fill-rule="evenodd" clip-rule="evenodd" d="M440.094 517.202C440.094 543.632 452.432 605.281 452.44 611.1L478.986 611.121C475.101 556.112 473.723 528.311 474.853 527.719C476.548 526.83 544.335 534.604 564.665 534.604C593.982 534.604 606.11 515.797 607.094 480.958H549.019C537.194 482.245 475.516 494.901 452.61 499.251C442.803 501.114 440.094 509.922 440.094 517.202Z" fill="#B04EC8"/>
<path fill-rule="evenodd" clip-rule="evenodd" d="M539.969 418.981L506.025 400.069C500.381 393.25 494.819 387.954 489.341 384.181C487.667 383.47 484.74 383.04 487.477 387.983C490.215 392.926 492.876 398.251 491.481 399.774C490.087 401.297 486.609 399.169 484.945 401.7C483.835 403.387 489.777 406.051 502.77 409.694L527.434 432.667L539.969 418.981ZM486.807 434.937L471.897 426.605C469.805 418.507 467.304 414.432 464.395 414.382C462.16 413.324 466.052 423.556 461.815 422.669C457.578 421.782 447.236 413.957 445.454 415.546C442.818 417.896 445.169 425.113 447.938 428.703C453.115 435.412 457.401 437.707 467.994 440.712C473.532 442.282 479.52 445.431 485.958 450.158L486.807 434.937Z" fill="#997659"/>
<path fill-rule="evenodd" clip-rule="evenodd" d="M556.498 414.768C544.609 414.64 528.755 412.085 511.838 401.162L505.195 416.233C516.864 428.014 533.271 437.693 547.617 437.283C558.923 436.96 564.701 423.048 556.498 414.768Z" fill="#B719DE"/>
<path fill-rule="evenodd" clip-rule="evenodd" d="M540.491 438.938C527.87 442.14 506.704 438.364 476.993 427.609C469.624 443.119 466.217 454.176 466.773 460.78C492.26 474.324 514.105 480.362 532.102 480.761C531.53 491.624 532.83 501.96 537.196 511.405C546.173 530.823 598.736 512.84 616.409 516.38C627.476 479.815 606.077 464.956 606.06 441.56C606.041 415.939 585.818 376.502 582.842 376.502H555.708C554.211 396.069 546.676 417.634 540.491 438.938Z" fill="#DF86F4"/>
<defs>
<clipPath id="clip0_422_6272">
<rect width="132.997" height="232.745" fill="white" transform="matrix(-1 0 0 1 406.621 263.226)"/>
</clipPath>
</defs>
</svg>
