<svg width="396" height="237" viewBox="0 0 396 237" fill="none" xmlns="http://www.w3.org/2000/svg">
<g filter="url(#filter0_d_467_6589)">
<path d="M291.427 23.6652C291.427 36.7334 281.017 47.3286 268.175 47.3286C255.332 47.3286 244.922 36.7334 244.922 23.6652C244.922 10.5957 255.332 0 268.175 0C281.017 0 291.427 10.5952 291.427 23.6652Z" fill="#E1E1E1"/>
<path d="M216.397 23.6652C216.397 36.1226 206.478 46.1884 194.284 46.1884C182.09 46.1884 172.171 36.1226 172.171 23.6652C172.171 11.2064 182.09 1.14014 194.284 1.14014C206.478 1.14014 216.397 11.2059 216.397 23.6652Z" fill="#1C1C1C" stroke="black" stroke-width="2.28028"/>
<path d="M142.504 23.6652C142.504 36.1226 132.585 46.1884 120.391 46.1884C108.198 46.1884 98.2788 36.1226 98.2788 23.6652C98.2788 11.2064 108.198 1.14014 120.391 1.14014C132.585 1.14014 142.504 11.2059 142.504 23.6652Z" fill="#1C1C1C" stroke="black" stroke-width="2.28028"/>
<path d="M68.6134 23.6652C68.6134 36.1226 58.6945 46.1884 46.5008 46.1884C34.3071 46.1884 24.3882 36.1226 24.3882 23.6652C24.3882 11.2064 34.3071 1.14014 46.5008 1.14014C58.6944 1.14014 68.6134 11.2059 68.6134 23.6652Z" fill="#1C1C1C" stroke="black" stroke-width="2.28028"/>
<path d="M348.32 53.4287C322.647 53.4287 301.816 74.628 301.816 100.757V127.626C301.816 132.31 305.692 136.254 310.295 136.254C314.897 136.254 318.773 132.31 318.773 127.626V100.757C318.773 94.3486 320.952 88.1861 324.343 83.2547V223.268C324.343 229.185 328.945 234.115 335 234.115C341.056 234.115 345.658 229.431 345.658 223.268V142.415H351.713V223.268C351.713 229.185 356.316 234.115 362.371 234.115C368.426 234.115 373.028 229.431 373.028 223.268V83.2547C376.419 88.1843 378.599 94.1013 378.599 100.757V127.626C378.599 132.31 382.474 136.254 387.077 136.254C391.679 136.254 395.555 132.31 395.555 127.626V100.757C395.068 74.6284 373.995 53.4287 348.32 53.4287V53.4287Z" fill="#E1E1E1"/>
<path d="M371.627 23.6652C371.627 36.7334 361.216 47.3286 348.374 47.3286C335.532 47.3286 325.121 36.7334 325.121 23.6652C325.121 10.5957 335.532 0 348.374 0C361.216 0 371.627 10.5952 371.627 23.6652Z" fill="#E1E1E1"/>
<path d="M268.176 53.4902C242.502 53.4902 221.672 74.6895 221.672 100.819V127.687C221.672 132.371 225.548 136.316 230.15 136.316C234.752 136.316 238.628 132.371 238.628 127.687V100.819C238.628 94.4101 240.808 88.2476 244.198 83.3162V223.33C244.198 229.246 248.801 234.176 254.856 234.176C260.911 234.176 265.514 229.492 265.514 223.33V142.477H271.569V223.33C271.569 229.246 276.171 234.176 282.226 234.176C288.281 234.176 292.884 229.492 292.884 223.33V83.3162C296.275 88.2458 298.454 94.1628 298.454 100.819V127.687C298.454 132.371 302.33 136.316 306.932 136.316C311.535 136.316 315.41 132.371 315.41 127.687V100.819C314.68 74.6899 293.85 53.4902 268.176 53.4902V53.4902Z" fill="#E1E1E1"/>
<path d="M171.45 83.3162V79.6458L169.37 82.6702C165.863 87.7711 163.599 94.1557 163.599 100.819V127.687C163.599 131.76 160.215 135.175 156.261 135.175C152.307 135.175 148.923 131.76 148.923 127.687V100.819C148.923 75.3002 169.262 54.6304 194.287 54.6304C219.303 54.6304 239.66 75.2932 240.381 100.835V127.687C240.381 131.761 236.997 135.175 233.043 135.175C229.09 135.175 225.706 131.76 225.706 127.687V100.819C225.706 93.9037 223.439 87.7651 219.934 82.6701L217.855 79.6468V83.3162V223.33C217.855 228.882 213.744 233.036 208.338 233.036C202.948 233.036 198.82 228.653 198.82 223.33V142.477V141.337H197.68H191.625H190.485V142.477V223.33C190.485 228.882 186.374 233.036 180.967 233.036C175.577 233.036 171.45 228.653 171.45 223.33V83.3162Z" fill="#1C1C1C" stroke="black" stroke-width="2.28028"/>
<path d="M97.5593 83.3162V79.6458L95.4796 82.6702C91.9722 87.7711 89.7086 94.1557 89.7086 100.819V127.687C89.7086 131.76 86.3246 135.175 82.3707 135.175C78.4168 135.175 75.0327 131.76 75.0327 127.687V100.819C75.0327 75.3002 95.3713 54.6304 120.396 54.6304C145.412 54.6304 165.769 75.293 166.491 100.835V127.687C166.491 131.761 163.107 135.175 159.153 135.175C155.199 135.175 151.815 131.76 151.815 127.687V100.819C151.815 93.9037 149.548 87.7651 146.044 82.6701L143.964 79.6468V83.3162V223.33C143.964 228.882 139.854 233.036 134.447 233.036C129.057 233.036 124.93 228.653 124.93 223.33V142.477V141.337H123.789H117.734H116.594V142.477V223.33C116.594 228.882 112.483 233.036 107.077 233.036C101.687 233.036 97.5593 228.653 97.5593 223.33V83.3162Z" fill="#1C1C1C" stroke="black" stroke-width="2.28028"/>
<path d="M23.6667 83.3162V79.6458L21.5871 82.6702C18.0796 87.7711 15.8161 94.1557 15.8161 100.819V127.687C15.8161 131.76 12.432 135.175 8.47811 135.175C4.5242 135.175 1.14014 131.76 1.14014 127.687V100.819C1.14014 75.3002 21.4787 54.6304 46.5037 54.6304C71.5195 54.6304 91.8765 75.293 92.5983 100.835V127.687C92.5983 131.761 89.2142 135.175 85.2603 135.175C81.3064 135.175 77.9223 131.76 77.9223 127.687V100.819C77.9223 93.9037 75.6558 87.7651 72.1512 82.6701L70.0717 79.6468V83.3162V223.33C70.0717 228.882 65.961 233.036 60.5543 233.036C55.1643 233.036 51.0369 228.653 51.0369 223.33V142.477V141.337H49.8968H43.8416H42.7015V142.477V223.33C42.7015 228.882 38.5908 233.036 33.1841 233.036C27.7941 233.036 23.6667 228.653 23.6667 223.33V83.3162Z" fill="#1C1C1C" stroke="black" stroke-width="2.28028"/>
</g>
<defs>
<filter id="filter0_d_467_6589" x="0" y="0" width="395.555" height="236.457" filterUnits="userSpaceOnUse" color-interpolation-filters="sRGB">
<feFlood flood-opacity="0" result="BackgroundImageFix"/>
<feColorMatrix in="SourceAlpha" type="matrix" values="0 0 0 0 0 0 0 0 0 0 0 0 0 0 0 0 0 0 127 0" result="hardAlpha"/>
<feOffset dy="2.28028"/>
<feComposite in2="hardAlpha" operator="out"/>
<feColorMatrix type="matrix" values="0 0 0 0 0 0 0 0 0 0 0 0 0 0 0 0 0 0 0.25 0"/>
<feBlend mode="normal" in2="BackgroundImageFix" result="effect1_dropShadow_467_6589"/>
<feBlend mode="normal" in="SourceGraphic" in2="effect1_dropShadow_467_6589" result="shape"/>
</filter>
</defs>
</svg>
